M48
;Layer_Color=9474304
;FILE_FORMAT=4:4
METRIC,LZ
;TYPE=PLATED
T1F00S00C0.3000
T2F00S00C1.0000
T3F00S00C1.1500
T4F00S00C3.3000
;TYPE=NON_PLATED
%
T01
X00126Y00126
X00141
X00241Y00151
X00221Y00211
Y00236
X00206Y00271
X00246Y00291
X00261
X00306
X00325Y00292
Y00306
Y00316
X00381
Y00331
Y00346
X00186Y00351
Y00331
Y00316
X00206Y00371
X00196Y00431
X00226Y00441
X00331Y00171
Y00151
X00046Y00171
X00011Y00166
X00016Y00211
Y00276
X00036
X00071Y00331
X00041Y00366
X00056Y00431
X001235
X00141Y00331
Y00316
X00096Y00571
X00041
X00336Y00576
X00386
T02
X001118Y00081
X00241Y00116
X00276Y00066
X00371
X00336Y00116
X00251Y005435
X00201
X00151
T03
X00061Y00081
X000864
X000991Y001064
X000737
X000483
T04
X000295Y000175
X001309Y000174
M30
