M48
;Layer_Color=9474304
;FILE_FORMAT=4:4
METRIC,LZ
T5F00S00C1.9900
%
G90
G05
T05
G00X00414129Y-00009445
M15
G01X0041694Y-00007982
G01X00419149Y-00005709
G01X00420531Y-00002857
G01X0042095Y0
G01X0042095Y00586
G01X00420445Y00589129
G01X00418982Y0059194
G01X00416709Y00594149
G01X00413857Y00595531
G01X00411Y0059595
G01X0Y0059595
G01X-00003129Y00595445
G01X-0000594Y00593982
G01X-00008149Y00591709
G01X-00009531Y00588857
G01X-0000995Y00586
G01X-0000995Y0
G01X-00009445Y-00003129
G01X-00007982Y-0000594
G01X-00005709Y-00008149
G01X-00002857Y-00009531
G01X0Y-0000995
G01X00411Y-0000995
G01X00414129Y-00009445
M16
M17
M30
