%FSLAX44Y44*%
%MOMM*%
G71*
G01*
G75*
%ADD10R,0.3000X1.5000*%
%ADD11R,1.5000X0.3000*%
%ADD12R,5.5000X2.0000*%
%ADD13R,1.6800X1.5200*%
%ADD14R,1.1000X1.0000*%
%ADD15R,1.0000X1.1000*%
%ADD16R,1.5000X1.3000*%
%ADD17R,1.3000X1.5000*%
%ADD18R,2.0000X1.2000*%
%ADD19R,5.6000X5.6000*%
%ADD20C,0.2540*%
%ADD21C,1.0000*%
%ADD22C,1.5000*%
%ADD23R,2.0000X2.0000*%
%ADD24C,2.0000*%
%ADD25C,0.7000*%
%ADD26C,0.2000*%
%ADD27C,0.1000*%
%ADD28R,0.7620X0.5080*%
G36*
X296240Y207750D02*
X291160D01*
Y224260D01*
X296240D01*
Y207750D01*
D02*
G37*
G36*
X270840D02*
X265760D01*
Y224260D01*
X270840D01*
Y207750D01*
D02*
G37*
G36*
X386240D02*
X381160D01*
Y224260D01*
X386240D01*
Y207750D01*
D02*
G37*
G36*
X360840D02*
X355760D01*
Y224260D01*
X360840D01*
Y207750D01*
D02*
G37*
D20*
X354660Y347900D02*
G03*
X354660Y347900I-3810J0D01*
G01*
X56000Y435997D02*
Y434331D01*
X59332Y430998D01*
X62665Y434331D01*
Y435997D01*
X59332Y430998D02*
Y426000D01*
X65997D02*
X69329D01*
X67663D01*
Y435997D01*
X65997Y434331D01*
X355997Y396000D02*
X347666D01*
X346000Y394334D01*
Y391002D01*
X347666Y389336D01*
X355997D01*
X346000Y379339D02*
Y386003D01*
X352665Y379339D01*
X354331D01*
X355997Y381005D01*
Y384337D01*
X354331Y386003D01*
X61000Y305997D02*
Y297666D01*
X62666Y296000D01*
X65999D01*
X67665Y297666D01*
Y305997D01*
X70997Y296000D02*
X74329D01*
X72663D01*
Y305997D01*
X70997Y304331D01*
X246000Y246000D02*
X236003D01*
Y250998D01*
X237670Y252665D01*
X241002D01*
X242668Y250998D01*
Y246000D01*
Y249332D02*
X246000Y252665D01*
Y260995D02*
X236003D01*
X241002Y255997D01*
Y262661D01*
X61000Y136000D02*
Y145997D01*
X65999D01*
X67665Y144331D01*
Y140998D01*
X65999Y139332D01*
X61000D01*
X64332D02*
X67665Y136000D01*
X70997Y144331D02*
X72663Y145997D01*
X75995D01*
X77661Y144331D01*
Y142665D01*
X75995Y140998D01*
X74329D01*
X75995D01*
X77661Y139332D01*
Y137666D01*
X75995Y136000D01*
X72663D01*
X70997Y137666D01*
X31000Y501000D02*
X21003D01*
Y505998D01*
X22669Y507665D01*
X26002D01*
X27668Y505998D01*
Y501000D01*
Y504332D02*
X31000Y507665D01*
Y517661D02*
Y510997D01*
X24336Y517661D01*
X22669D01*
X21003Y515995D01*
Y512663D01*
X22669Y510997D01*
X86000Y501000D02*
X76003D01*
Y505998D01*
X77670Y507665D01*
X81002D01*
X82668Y505998D01*
Y501000D01*
Y504332D02*
X86000Y507665D01*
Y517661D02*
Y510997D01*
X79336Y517661D01*
X77670D01*
X76003Y515995D01*
Y512663D01*
X77670Y510997D01*
X326000Y506000D02*
X316003D01*
Y510998D01*
X317669Y512665D01*
X321002D01*
X322668Y510998D01*
Y506000D01*
Y509332D02*
X326000Y512665D01*
Y522661D02*
Y515997D01*
X319336Y522661D01*
X317669D01*
X316003Y520995D01*
Y517663D01*
X317669Y515997D01*
X376000Y506000D02*
X366003D01*
Y510998D01*
X367669Y512665D01*
X371002D01*
X372668Y510998D01*
Y506000D01*
Y509332D02*
X376000Y512665D01*
Y522661D02*
Y515997D01*
X369336Y522661D01*
X367669D01*
X366003Y520995D01*
Y517663D01*
X367669Y515997D01*
X247665Y330997D02*
X241000D01*
Y325998D01*
X244332D01*
X241000D01*
Y321000D01*
X250997Y330997D02*
Y321000D01*
X255995D01*
X257661Y322666D01*
Y324332D01*
X255995Y325998D01*
X250997D01*
X255995D01*
X257661Y327664D01*
Y329331D01*
X255995Y330997D01*
X250997D01*
X260994Y321000D02*
X264326D01*
X262660D01*
Y330997D01*
X260994Y329331D01*
X271000Y240997D02*
Y231000D01*
X275998D01*
X277665Y232666D01*
Y239331D01*
X275998Y240997D01*
X271000D01*
X280997Y239331D02*
X282663Y240997D01*
X285995D01*
X287661Y239331D01*
Y237665D01*
X285995Y235998D01*
X284329D01*
X285995D01*
X287661Y234332D01*
Y232666D01*
X285995Y231000D01*
X282663D01*
X280997Y232666D01*
X361000Y240997D02*
Y231000D01*
X365998D01*
X367665Y232666D01*
Y239331D01*
X365998Y240997D01*
X361000D01*
X377661Y231000D02*
X370997D01*
X377661Y237665D01*
Y239331D01*
X375995Y240997D01*
X372663D01*
X370997Y239331D01*
X221003Y181000D02*
X231000D01*
Y185998D01*
X229334Y187665D01*
X222670D01*
X221003Y185998D01*
Y181000D01*
X231000Y195995D02*
X221003D01*
X226002Y190997D01*
Y197661D01*
X277665Y334331D02*
X275998Y335997D01*
X272666D01*
X271000Y334331D01*
Y327666D01*
X272666Y326000D01*
X275998D01*
X277665Y327666D01*
X280997Y326000D02*
X284329D01*
X282663D01*
Y335997D01*
X280997Y334331D01*
X289328D02*
X290994Y335997D01*
X294326D01*
X295992Y334331D01*
Y332665D01*
X294326Y330998D01*
X292660D01*
X294326D01*
X295992Y329332D01*
Y327666D01*
X294326Y326000D01*
X290994D01*
X289328Y327666D01*
X404331Y389336D02*
X405997Y391002D01*
Y394334D01*
X404331Y396000D01*
X397666D01*
X396000Y394334D01*
Y391002D01*
X397666Y389336D01*
X396000Y386003D02*
Y382671D01*
Y384337D01*
X405997D01*
X404331Y386003D01*
X396000Y371008D02*
Y377673D01*
X402665Y371008D01*
X404331D01*
X405997Y372674D01*
Y376007D01*
X404331Y377673D01*
X327665Y234331D02*
X325998Y235997D01*
X322666D01*
X321000Y234331D01*
Y227666D01*
X322666Y226000D01*
X325998D01*
X327665Y227666D01*
X330997Y226000D02*
X334329D01*
X332663D01*
Y235997D01*
X330997Y234331D01*
X339328Y226000D02*
X342660D01*
X340994D01*
Y235997D01*
X339328Y234331D01*
X12670Y272665D02*
X11003Y270998D01*
Y267666D01*
X12670Y266000D01*
X19334D01*
X21000Y267666D01*
Y270998D01*
X19334Y272665D01*
Y275997D02*
X21000Y277663D01*
Y280995D01*
X19334Y282661D01*
X12670D01*
X11003Y280995D01*
Y277663D01*
X12670Y275997D01*
X14336D01*
X16002Y277663D01*
Y282661D01*
X121000Y466000D02*
Y475997D01*
X125998D01*
X127665Y474331D01*
Y470998D01*
X125998Y469332D01*
X121000D01*
X124332D02*
X127665Y466000D01*
X130997D02*
X134329D01*
X132663D01*
Y475997D01*
X130997Y474331D01*
X216000Y146000D02*
Y155997D01*
X220998D01*
X222665Y154331D01*
Y150998D01*
X220998Y149332D01*
X216000D01*
X232661Y146000D02*
X225997D01*
X232661Y152664D01*
Y154331D01*
X230995Y155997D01*
X227663D01*
X225997Y154331D01*
X316000Y146000D02*
Y155997D01*
X320998D01*
X322665Y154331D01*
Y150998D01*
X320998Y149332D01*
X316000D01*
X325997Y146000D02*
X329329D01*
X327663D01*
Y155997D01*
X325997Y154331D01*
X22326Y138114D02*
X18993D01*
X20659D01*
Y129783D01*
X18993Y128117D01*
X17327D01*
X15661Y129783D01*
X25658Y128117D02*
X28990D01*
X27324D01*
Y138114D01*
X25658Y136448D01*
X16003Y541000D02*
X26000D01*
Y545998D01*
X24334Y547665D01*
X17670D01*
X16003Y545998D01*
Y541000D01*
X26000Y550997D02*
Y554329D01*
Y552663D01*
X16003D01*
X17670Y550997D01*
X71003Y541000D02*
X81000D01*
Y545998D01*
X79334Y547665D01*
X72670D01*
X71003Y545998D01*
Y541000D01*
X81000Y550997D02*
Y554329D01*
Y552663D01*
X71003D01*
X72670Y550997D01*
X311003Y546000D02*
X321000D01*
Y550998D01*
X319334Y552665D01*
X312670D01*
X311003Y550998D01*
Y546000D01*
X321000Y555997D02*
Y559329D01*
Y557663D01*
X311003D01*
X312670Y555997D01*
X361003Y546000D02*
X371000D01*
Y550998D01*
X369334Y552665D01*
X362669D01*
X361003Y550998D01*
Y546000D01*
X371000Y555997D02*
Y559329D01*
Y557663D01*
X361003D01*
X362669Y555997D01*
X222665Y279331D02*
X220998Y280997D01*
X217666D01*
X216000Y279331D01*
Y272666D01*
X217666Y271000D01*
X220998D01*
X222665Y272666D01*
X225997Y271000D02*
X229329D01*
X227663D01*
Y280997D01*
X225997Y279331D01*
X240992Y280997D02*
X234328D01*
Y275998D01*
X237660Y277665D01*
X239326D01*
X240992Y275998D01*
Y272666D01*
X239326Y271000D01*
X235994D01*
X234328Y272666D01*
X272665Y279331D02*
X270998Y280997D01*
X267666D01*
X266000Y279331D01*
Y272666D01*
X267666Y271000D01*
X270998D01*
X272665Y272666D01*
X275997Y271000D02*
X279329D01*
X277663D01*
Y280997D01*
X275997Y279331D01*
X289326Y271000D02*
Y280997D01*
X284328Y275998D01*
X290992D01*
X32669Y267665D02*
X31003Y265998D01*
Y262666D01*
X32669Y261000D01*
X39334D01*
X41000Y262666D01*
Y265998D01*
X39334Y267665D01*
X41000Y270997D02*
Y274329D01*
Y272663D01*
X31003D01*
X32669Y270997D01*
Y279328D02*
X31003Y280994D01*
Y284326D01*
X32669Y285992D01*
X39334D01*
X41000Y284326D01*
Y280994D01*
X39334Y279328D01*
X32669D01*
X72665Y354331D02*
X70999Y355997D01*
X67666D01*
X66000Y354331D01*
Y347666D01*
X67666Y346000D01*
X70999D01*
X72665Y347666D01*
X75997Y354331D02*
X77663Y355997D01*
X80995D01*
X82661Y354331D01*
Y352664D01*
X80995Y350998D01*
X82661Y349332D01*
Y347666D01*
X80995Y346000D01*
X77663D01*
X75997Y347666D01*
Y349332D01*
X77663Y350998D01*
X75997Y352664D01*
Y354331D01*
X77663Y350998D02*
X80995D01*
X167665Y354331D02*
X165998Y355997D01*
X162666D01*
X161000Y354331D01*
Y347666D01*
X162666Y346000D01*
X165998D01*
X167665Y347666D01*
X170997Y355997D02*
X177661D01*
Y354331D01*
X170997Y347666D01*
Y346000D01*
X209331Y174336D02*
X210997Y176002D01*
Y179334D01*
X209331Y181000D01*
X202666D01*
X201000Y179334D01*
Y176002D01*
X202666Y174336D01*
X210997Y164339D02*
X209331Y167671D01*
X205998Y171003D01*
X202666D01*
X201000Y169337D01*
Y166005D01*
X202666Y164339D01*
X204332D01*
X205998Y166005D01*
Y171003D01*
X17670Y192665D02*
X16003Y190998D01*
Y187666D01*
X17670Y186000D01*
X24334D01*
X26000Y187666D01*
Y190998D01*
X24334Y192665D01*
X16003Y202661D02*
Y195997D01*
X21002D01*
X19336Y199329D01*
Y200995D01*
X21002Y202661D01*
X24334D01*
X26000Y200995D01*
Y197663D01*
X24334Y195997D01*
X132665Y319331D02*
X130998Y320997D01*
X127666D01*
X126000Y319331D01*
Y312666D01*
X127666Y311000D01*
X130998D01*
X132665Y312666D01*
X140995Y311000D02*
Y320997D01*
X135997Y315998D01*
X142661D01*
X132665Y334331D02*
X130998Y335997D01*
X127666D01*
X126000Y334331D01*
Y327666D01*
X127666Y326000D01*
X130998D01*
X132665Y327666D01*
X135997Y334331D02*
X137663Y335997D01*
X140995D01*
X142661Y334331D01*
Y332665D01*
X140995Y330998D01*
X139329D01*
X140995D01*
X142661Y329332D01*
Y327666D01*
X140995Y326000D01*
X137663D01*
X135997Y327666D01*
X224331Y254335D02*
X225997Y256002D01*
Y259334D01*
X224331Y261000D01*
X217666D01*
X216000Y259334D01*
Y256002D01*
X217666Y254335D01*
X216000Y244339D02*
Y251003D01*
X222665Y244339D01*
X224331D01*
X225997Y246005D01*
Y249337D01*
X224331Y251003D01*
X162665Y144331D02*
X160998Y145997D01*
X157666D01*
X156000Y144331D01*
Y137666D01*
X157666Y136000D01*
X160998D01*
X162665Y137666D01*
X165997Y136000D02*
X169329D01*
X167663D01*
Y145997D01*
X165997Y144331D01*
X330360Y8851D02*
X340517D01*
X365920Y8848D02*
X376077D01*
X370998Y13926D02*
Y3769D01*
X235360Y8851D02*
X245517D01*
X270920Y8848D02*
X281077D01*
X275998Y13926D02*
Y3769D01*
X187765Y21250D02*
X203000D01*
Y28867D01*
X200461Y31407D01*
X197922D01*
X195382Y28867D01*
Y21250D01*
Y28867D01*
X192843Y31407D01*
X190304D01*
X187765Y28867D01*
Y21250D01*
X203000Y36485D02*
X192843D01*
X187765Y41563D01*
X192843Y46642D01*
X203000D01*
X195382D01*
Y36485D01*
X187765Y51720D02*
Y61877D01*
Y56799D01*
X203000D01*
Y66955D02*
X200461D01*
Y69494D01*
X203000D01*
Y66955D01*
X408000Y28000D02*
X392765D01*
X397843Y33078D01*
X392765Y38157D01*
X408000D01*
Y43235D02*
X397843D01*
X392765Y48313D01*
X397843Y53392D01*
X408000D01*
X400382D01*
Y43235D01*
X392765Y58470D02*
Y63548D01*
Y61009D01*
X408000D01*
Y58470D01*
Y63548D01*
Y71166D02*
X392765D01*
X408000Y81323D01*
X392765D01*
X30765Y431000D02*
X46000D01*
Y441157D01*
X30765Y456392D02*
Y446235D01*
X46000D01*
Y456392D01*
X38383Y446235D02*
Y451314D01*
X30765Y461470D02*
X46000D01*
Y469088D01*
X43461Y471627D01*
X33304D01*
X30765Y469088D01*
Y461470D01*
X33304Y476705D02*
X30765Y479244D01*
Y484323D01*
X33304Y486862D01*
X35843D01*
X38383Y484323D01*
Y481784D01*
Y484323D01*
X40922Y486862D01*
X43461D01*
X46000Y484323D01*
Y479244D01*
X43461Y476705D01*
X85765Y431000D02*
X101000D01*
Y441157D01*
X85765Y456392D02*
Y446235D01*
X101000D01*
Y456392D01*
X93383Y446235D02*
Y451314D01*
X85765Y461470D02*
X101000D01*
Y469088D01*
X98461Y471627D01*
X88304D01*
X85765Y469088D01*
Y461470D01*
X101000Y486862D02*
Y476705D01*
X90843Y486862D01*
X88304D01*
X85765Y484323D01*
Y479244D01*
X88304Y476705D01*
X325765Y436000D02*
X341000D01*
Y446157D01*
X325765Y461392D02*
Y451235D01*
X341000D01*
Y461392D01*
X333383Y451235D02*
Y456314D01*
X325765Y466470D02*
X341000D01*
Y474088D01*
X338461Y476627D01*
X328304D01*
X325765Y474088D01*
Y466470D01*
X341000Y481705D02*
Y486784D01*
Y484244D01*
X325765D01*
X328304Y481705D01*
X375765Y431000D02*
X391000D01*
Y441157D01*
X375765Y456392D02*
Y446235D01*
X391000D01*
Y456392D01*
X383383Y446235D02*
Y451314D01*
X375765Y461470D02*
X391000D01*
Y469088D01*
X388461Y471627D01*
X378304D01*
X375765Y469088D01*
Y461470D01*
X378304Y476705D02*
X375765Y479244D01*
Y484323D01*
X378304Y486862D01*
X388461D01*
X391000Y484323D01*
Y479244D01*
X388461Y476705D01*
X378304D01*
X161000Y461000D02*
Y476235D01*
X168618D01*
X171157Y473696D01*
Y468618D01*
X168618Y466078D01*
X161000D01*
X183853Y476235D02*
X178774D01*
X176235Y473696D01*
Y463539D01*
X178774Y461000D01*
X183853D01*
X186392Y463539D01*
Y473696D01*
X183853Y476235D01*
X191470D02*
X201627D01*
X196549D01*
Y461000D01*
X206705D02*
Y471157D01*
X211784Y476235D01*
X216862Y471157D01*
Y461000D01*
Y468618D01*
X206705D01*
X221940Y461000D02*
Y476235D01*
X229558D01*
X232097Y473696D01*
Y468618D01*
X229558Y466078D01*
X221940D01*
X227019D02*
X232097Y461000D01*
X237176Y476235D02*
Y461000D01*
X244793D01*
X247332Y463539D01*
Y473696D01*
X244793Y476235D01*
X237176D01*
X0Y0D02*
Y586000D01*
Y0D02*
X411000D01*
Y586000D01*
X0D02*
X411000D01*
D26*
X66000Y277350D02*
Y290050D01*
X78700D01*
X180300Y277350D02*
Y290050D01*
X167600D02*
X180300D01*
Y175750D02*
Y187180D01*
X167600Y175750D02*
X180300D01*
X78700Y168130D02*
Y175750D01*
X66000D02*
X78700D01*
X66000D02*
Y188450D01*
X53860Y412210D02*
Y420130D01*
X193860Y412210D02*
Y419830D01*
Y370600D02*
Y380760D01*
X53860Y370900D02*
Y380760D01*
Y420130D02*
X193860D01*
X53860Y370600D02*
X193860D01*
X168070Y780880D02*
X235380D01*
Y671610D02*
Y780880D01*
Y671610D02*
X235990Y671000D01*
X243000D01*
X168070Y671610D02*
Y780880D01*
X167460Y671000D02*
X168070Y671610D01*
X161000Y671000D02*
X167460D01*
X243000Y586700D02*
X243700Y586000D01*
X286000D01*
X116000D02*
X160020D01*
X161000D02*
Y671000D01*
X286000Y481160D02*
Y586000D01*
X116000Y481160D02*
X286000D01*
X116000D02*
Y586000D01*
X243000D02*
Y671000D01*
X303500Y139000D02*
X388500D01*
Y19010D02*
Y139000D01*
X303500Y18999D02*
X388500Y19009D01*
X303500Y19010D02*
Y139000D01*
X208500D02*
X293500D01*
Y19010D02*
Y139000D01*
X208500Y18999D02*
X293500Y19009D01*
X208500Y19010D02*
Y139000D01*
X306690Y420000D02*
X317830D01*
X306690Y352000D02*
X317830D01*
Y420000D01*
X14010Y-62210D02*
X146090D01*
Y-61600D02*
Y119100D01*
X14010Y119400D02*
X146090D01*
X14010Y-61600D02*
Y119100D01*
D27*
X381160Y176000D02*
X385500D01*
Y222990D01*
X356500Y176000D02*
Y221720D01*
Y176000D02*
X360840D01*
X291160D02*
X295500D01*
Y222990D01*
X266500Y176000D02*
Y221720D01*
Y176000D02*
X270840D01*
X383460Y512110D02*
Y513380D01*
X388540Y512110D02*
Y513380D01*
X333460Y512110D02*
Y513380D01*
X338540Y512110D02*
Y513380D01*
X93460Y507110D02*
Y508380D01*
X98540Y507110D02*
Y508380D01*
X38460Y507110D02*
Y508380D01*
X43540Y507110D02*
Y508380D01*
X97110Y143540D02*
X98380D01*
X97110Y138460D02*
X98380D01*
X243540Y223620D02*
Y224890D01*
X238460Y223620D02*
Y224890D01*
X378380Y570210D02*
X393620D01*
X382190Y549890D02*
Y551160D01*
X389810Y549890D02*
Y551160D01*
X328380Y570210D02*
X343620D01*
X332190Y549890D02*
Y551160D01*
X339810Y549890D02*
Y551160D01*
X88380Y565210D02*
X103620D01*
X92190Y544890D02*
Y546160D01*
X99810Y544890D02*
Y546160D01*
X33380Y565210D02*
X48620D01*
X37190Y544890D02*
Y546160D01*
X44810Y544890D02*
Y546160D01*
X233380Y166790D02*
X248620D01*
X244810Y185840D02*
Y187110D01*
X237190Y185840D02*
Y187110D01*
D28*
X350850Y347900D02*
D03*
M02*
