%FSLAX44Y44*%
%MOMM*%
G71*
G01*
G75*
G04 Layer_Color=8388736*
%ADD10R,0.3000X1.5000*%
%ADD11R,1.5000X0.3000*%
%ADD12R,5.5000X2.0000*%
%ADD13R,1.6800X1.5200*%
%ADD14R,1.1000X1.0000*%
%ADD15R,1.0000X1.1000*%
%ADD16R,1.5000X1.3000*%
%ADD17R,1.3000X1.5000*%
%ADD18R,2.0000X1.2000*%
%ADD19R,5.6000X5.6000*%
%ADD20C,0.2540*%
%ADD21C,1.0000*%
%ADD22C,1.5000*%
%ADD23R,2.0000X2.0000*%
%ADD24C,2.0000*%
%ADD25C,0.7000*%
%ADD26C,0.2000*%
%ADD27C,0.1000*%
%ADD28R,0.7620X0.5080*%
%ADD29R,0.5032X1.7032*%
%ADD30R,1.7032X0.5032*%
%ADD31R,5.7032X2.2032*%
%ADD32R,1.8832X1.7232*%
%ADD33R,1.3032X1.2032*%
%ADD34R,1.2032X1.3032*%
%ADD35R,1.7032X1.5032*%
%ADD36R,1.5032X1.7032*%
%ADD37R,2.2032X1.4032*%
%ADD38R,5.8032X5.8032*%
%ADD39C,1.7032*%
%ADD40R,2.2032X2.2032*%
%ADD41C,2.2032*%
%ADD42C,0.2032*%
%ADD43C,0.9032*%
D20*
X0Y0D02*
Y586000D01*
Y0D02*
X411000D01*
Y586000D01*
X0D02*
X411000D01*
D29*
X84000Y175000D02*
D03*
X162000D02*
D03*
X146400D02*
D03*
X136000D02*
D03*
X94400D02*
D03*
X110000D02*
D03*
X156800D02*
D03*
X151600D02*
D03*
X125600D02*
D03*
X99600D02*
D03*
X115200D02*
D03*
X130800D02*
D03*
X104800D02*
D03*
X141200D02*
D03*
X89200D02*
D03*
X120400D02*
D03*
Y289000D02*
D03*
X89200D02*
D03*
X141200D02*
D03*
X104800D02*
D03*
X130800D02*
D03*
X115200D02*
D03*
X99600D02*
D03*
X125600D02*
D03*
X151600D02*
D03*
X156800D02*
D03*
X110000D02*
D03*
X94400D02*
D03*
X136000D02*
D03*
X146400D02*
D03*
X162000D02*
D03*
X84000D02*
D03*
D30*
X180000Y260600D02*
D03*
Y193000D02*
D03*
Y271000D02*
D03*
Y250200D02*
D03*
Y255400D02*
D03*
Y245000D02*
D03*
Y213800D02*
D03*
Y224200D02*
D03*
Y219000D02*
D03*
Y234600D02*
D03*
Y239800D02*
D03*
Y229400D02*
D03*
Y208600D02*
D03*
Y265800D02*
D03*
Y203400D02*
D03*
Y198200D02*
D03*
X66000D02*
D03*
Y208600D02*
D03*
Y203400D02*
D03*
Y213800D02*
D03*
Y234600D02*
D03*
Y245000D02*
D03*
Y239800D02*
D03*
Y224200D02*
D03*
Y229400D02*
D03*
Y219000D02*
D03*
Y250200D02*
D03*
Y260600D02*
D03*
Y255400D02*
D03*
Y271000D02*
D03*
Y193000D02*
D03*
Y265800D02*
D03*
D31*
X76000Y396000D02*
D03*
X171000D02*
D03*
D32*
X371000Y216600D02*
D03*
Y176000D02*
D03*
X281000Y216600D02*
D03*
Y176000D02*
D03*
D33*
X244000Y311000D02*
D03*
X261000D02*
D03*
X89000Y141000D02*
D03*
X106000D02*
D03*
X126000D02*
D03*
X143000D02*
D03*
X171000Y331000D02*
D03*
X154000D02*
D03*
X171000Y316000D02*
D03*
X154000D02*
D03*
X146000Y351000D02*
D03*
X129000D02*
D03*
X96000D02*
D03*
X113000D02*
D03*
D34*
X386000Y504000D02*
D03*
Y521000D02*
D03*
X336000Y504000D02*
D03*
Y521000D02*
D03*
X96000Y499000D02*
D03*
Y516000D02*
D03*
X41000Y499000D02*
D03*
Y516000D02*
D03*
X241000Y233000D02*
D03*
Y216000D02*
D03*
X206000Y236000D02*
D03*
Y253000D02*
D03*
X36000Y196000D02*
D03*
Y213000D02*
D03*
X206000Y211000D02*
D03*
Y194000D02*
D03*
X36000Y251000D02*
D03*
Y234000D02*
D03*
X281000Y291000D02*
D03*
Y308000D02*
D03*
X226000Y291000D02*
D03*
Y308000D02*
D03*
D35*
X16000Y251000D02*
D03*
Y232000D02*
D03*
X331000Y196000D02*
D03*
Y215000D02*
D03*
X381000Y391000D02*
D03*
Y372000D02*
D03*
X386000Y541000D02*
D03*
Y560000D02*
D03*
X336000Y541000D02*
D03*
Y560000D02*
D03*
X96000Y536000D02*
D03*
Y555000D02*
D03*
X41000Y536000D02*
D03*
Y555000D02*
D03*
X241000Y196000D02*
D03*
Y177000D02*
D03*
D36*
X306000Y331000D02*
D03*
X325000D02*
D03*
D37*
X353000Y363500D02*
D03*
Y408500D02*
D03*
D38*
X281000Y386000D02*
D03*
D39*
X251000Y543500D02*
D03*
X201000D02*
D03*
X151000D02*
D03*
X48300Y106400D02*
D03*
X99100D02*
D03*
X73700D02*
D03*
X86400Y81000D02*
D03*
X111800D02*
D03*
X61000D02*
D03*
D40*
X371000Y66000D02*
D03*
X276000D02*
D03*
D41*
X336000Y116000D02*
D03*
X241000D02*
D03*
D42*
X130900Y17400D02*
D03*
X29500Y17500D02*
D03*
D43*
X226000Y441000D02*
D03*
X141000Y316000D02*
D03*
X16000Y211000D02*
D03*
X11000Y166000D02*
D03*
X141000Y126000D02*
D03*
X206000Y271000D02*
D03*
X141000Y331000D02*
D03*
X306000Y291000D02*
D03*
X325000Y292000D02*
D03*
X381000Y316000D02*
D03*
X386000Y576000D02*
D03*
X41000Y571000D02*
D03*
X96000D02*
D03*
X336000Y576000D02*
D03*
X246000Y291000D02*
D03*
X261000D02*
D03*
X186000Y331000D02*
D03*
Y316000D02*
D03*
X36000Y276000D02*
D03*
X16000D02*
D03*
X46000Y171000D02*
D03*
X221000Y236000D02*
D03*
Y211000D02*
D03*
X241000Y151000D02*
D03*
X126000Y126000D02*
D03*
X186000Y351000D02*
D03*
X206000Y371000D02*
D03*
X196000Y431000D02*
D03*
X56000D02*
D03*
X41000Y366000D02*
D03*
X71000Y331000D02*
D03*
X123500Y431000D02*
D03*
X381000Y331000D02*
D03*
Y346000D02*
D03*
X325000Y306000D02*
D03*
Y316000D02*
D03*
X331000Y151000D02*
D03*
Y171000D02*
D03*
M02*
