%FSLAX44Y44*%
%MOMM*%
G71*
G01*
G75*
G04 Layer_Physical_Order=1*
G04 Layer_Color=255*
%ADD10R,0.3000X1.5000*%
%ADD11R,1.5000X0.3000*%
%ADD12R,5.5000X2.0000*%
%ADD13R,1.6800X1.5200*%
%ADD14R,1.1000X1.0000*%
%ADD15R,1.0000X1.1000*%
%ADD16R,1.5000X1.3000*%
%ADD17R,1.3000X1.5000*%
%ADD18R,2.0000X1.2000*%
%ADD19R,5.6000X5.6000*%
%ADD20C,0.2540*%
%ADD21C,1.0000*%
%ADD22C,1.5000*%
%ADD23R,2.0000X2.0000*%
%ADD24C,2.0000*%
%ADD25C,0.7000*%
D10*
X84000Y175000D02*
D03*
X162000D02*
D03*
X146400D02*
D03*
X136000D02*
D03*
X94400D02*
D03*
X110000D02*
D03*
X156800D02*
D03*
X151600D02*
D03*
X125600D02*
D03*
X99600D02*
D03*
X115200D02*
D03*
X130800D02*
D03*
X104800D02*
D03*
X141200D02*
D03*
X89200D02*
D03*
X120400D02*
D03*
Y289000D02*
D03*
X89200D02*
D03*
X141200D02*
D03*
X104800D02*
D03*
X130800D02*
D03*
X115200D02*
D03*
X99600D02*
D03*
X125600D02*
D03*
X151600D02*
D03*
X156800D02*
D03*
X110000D02*
D03*
X94400D02*
D03*
X136000D02*
D03*
X146400D02*
D03*
X162000D02*
D03*
X84000D02*
D03*
D11*
X180000Y260600D02*
D03*
Y193000D02*
D03*
Y271000D02*
D03*
Y250200D02*
D03*
Y255400D02*
D03*
Y245000D02*
D03*
Y213800D02*
D03*
Y224200D02*
D03*
Y219000D02*
D03*
Y234600D02*
D03*
Y239800D02*
D03*
Y229400D02*
D03*
Y208600D02*
D03*
Y265800D02*
D03*
Y203400D02*
D03*
Y198200D02*
D03*
X66000D02*
D03*
Y208600D02*
D03*
Y203400D02*
D03*
Y213800D02*
D03*
Y234600D02*
D03*
Y245000D02*
D03*
Y239800D02*
D03*
Y224200D02*
D03*
Y229400D02*
D03*
Y219000D02*
D03*
Y250200D02*
D03*
Y260600D02*
D03*
Y255400D02*
D03*
Y271000D02*
D03*
Y193000D02*
D03*
Y265800D02*
D03*
D12*
X76000Y396000D02*
D03*
X171000D02*
D03*
D13*
X371000Y216600D02*
D03*
Y176000D02*
D03*
X281000Y216600D02*
D03*
Y176000D02*
D03*
D14*
X244000Y311000D02*
D03*
X261000D02*
D03*
X89000Y141000D02*
D03*
X106000D02*
D03*
X126000D02*
D03*
X143000D02*
D03*
X171000Y331000D02*
D03*
X154000D02*
D03*
X171000Y316000D02*
D03*
X154000D02*
D03*
X146000Y351000D02*
D03*
X129000D02*
D03*
X96000D02*
D03*
X113000D02*
D03*
D15*
X386000Y504000D02*
D03*
Y521000D02*
D03*
X336000Y504000D02*
D03*
Y521000D02*
D03*
X96000Y499000D02*
D03*
Y516000D02*
D03*
X41000Y499000D02*
D03*
Y516000D02*
D03*
X241000Y233000D02*
D03*
Y216000D02*
D03*
X206000Y236000D02*
D03*
Y253000D02*
D03*
X36000Y196000D02*
D03*
Y213000D02*
D03*
X206000Y211000D02*
D03*
Y194000D02*
D03*
X36000Y251000D02*
D03*
Y234000D02*
D03*
X281000Y291000D02*
D03*
Y308000D02*
D03*
X226000Y291000D02*
D03*
Y308000D02*
D03*
D16*
X16000Y251000D02*
D03*
Y232000D02*
D03*
X331000Y196000D02*
D03*
Y215000D02*
D03*
X381000Y391000D02*
D03*
Y372000D02*
D03*
X386000Y541000D02*
D03*
Y560000D02*
D03*
X336000Y541000D02*
D03*
Y560000D02*
D03*
X96000Y536000D02*
D03*
Y555000D02*
D03*
X41000Y536000D02*
D03*
Y555000D02*
D03*
X241000Y196000D02*
D03*
Y177000D02*
D03*
D17*
X306000Y331000D02*
D03*
X325000D02*
D03*
D18*
X353000Y363500D02*
D03*
Y408500D02*
D03*
D19*
X281000Y386000D02*
D03*
D20*
X115200Y150200D02*
Y175000D01*
X336000Y521000D02*
Y546000D01*
X386000Y521000D02*
Y546000D01*
X41000Y516000D02*
Y541000D01*
X96000Y516000D02*
Y541000D01*
Y326000D02*
Y351000D01*
X113000D02*
Y384000D01*
X101000Y396000D02*
X113000Y384000D01*
X76000Y396000D02*
X101000D01*
X129000Y351000D02*
Y384000D01*
X141000Y396000D01*
X171000D01*
X125170Y289430D02*
Y299075D01*
Y289430D02*
X125600Y289000D01*
X129000Y351000D02*
X130370Y349630D01*
Y289430D02*
Y349630D01*
Y289430D02*
X130800Y289000D01*
X113000Y311245D02*
X125170Y299075D01*
X113000Y311245D02*
Y351000D01*
X119970Y289430D02*
X120400Y289000D01*
X119970Y289430D02*
Y297854D01*
X96000Y321824D02*
X119970Y297854D01*
X96000Y321824D02*
Y326000D01*
X171000Y316000D02*
Y331000D01*
X154000Y316000D02*
X156600Y313400D01*
X94400Y289000D02*
Y299796D01*
X76466Y317730D02*
X94400Y299796D01*
X72575Y317730D02*
X76466D01*
X32730Y357575D02*
X72575Y317730D01*
X32730Y357575D02*
Y427730D01*
X56000Y451000D01*
X351000D01*
X386000Y486000D01*
X66000Y271000D02*
Y317884D01*
X28190Y355694D02*
X66000Y317884D01*
X28190Y355694D02*
Y429611D01*
X54120Y455540D01*
X310540D01*
X336000Y481000D01*
X65570Y266230D02*
X66000Y265800D01*
X57146Y266230D02*
X65570D01*
X51000Y272375D02*
X57146Y266230D01*
X51000Y272375D02*
Y326464D01*
X23650Y353814D02*
X51000Y326464D01*
X23650Y353814D02*
Y431491D01*
X52239Y460080D01*
X65080D01*
X65570Y261030D02*
X66000Y260600D01*
X55925Y261030D02*
X65570D01*
X46460Y270495D02*
X55925Y261030D01*
X46460Y270495D02*
Y324583D01*
X19110Y351933D02*
X46460Y324583D01*
X19110Y351933D02*
Y434110D01*
X41000Y456000D01*
X171000Y331000D02*
X186000D01*
X171000Y316000D02*
X186000D01*
X36000Y234000D02*
Y234170D01*
X65570D02*
X66000Y234600D01*
X16000Y232000D02*
X18600Y234600D01*
X36000Y234170D02*
X65570D01*
X18600Y234600D02*
X66000D01*
X52400Y229400D02*
X66000D01*
X36000Y213000D02*
X52400Y229400D01*
X34000Y211000D02*
X36000Y213000D01*
X16000Y211000D02*
X34000D01*
X36000Y181000D02*
Y196000D01*
Y181000D02*
X46000Y171000D01*
X16000Y251000D02*
X36000D01*
Y276000D01*
X16000Y251000D02*
Y276000D01*
X336000Y565000D02*
Y576000D01*
X386000Y565000D02*
Y576000D01*
X96000Y560000D02*
Y571000D01*
X106000Y141000D02*
X115200Y150200D01*
X96000Y131000D02*
X106000Y141000D01*
X46000Y131000D02*
X96000D01*
X46000Y108700D02*
Y131000D01*
Y108700D02*
X48300Y106400D01*
X36000Y141000D02*
X89000D01*
X36000Y81000D02*
Y141000D01*
Y81000D02*
X61000D01*
X126000Y141000D02*
Y174600D01*
X125600Y175000D02*
X126000Y174600D01*
Y126000D02*
Y141000D01*
Y126000D02*
X126000Y126000D01*
X143000Y128000D02*
Y141000D01*
X130800Y153200D02*
X143000Y141000D01*
X130800Y153200D02*
Y175000D01*
X156800Y121800D02*
Y175000D01*
X141000Y106000D02*
X156800Y121800D01*
X99500Y106000D02*
X141000D01*
X99100Y106400D02*
X99500Y106000D01*
X161570Y174570D02*
X162000Y175000D01*
X161570Y165916D02*
Y174570D01*
X161340Y165686D02*
X161570Y165916D01*
X161340Y119919D02*
Y165686D01*
X133191Y91770D02*
X161340Y119919D01*
X97170Y91770D02*
X133191D01*
X86400Y81000D02*
X97170Y91770D01*
X241000Y233000D02*
X254000D01*
X271000Y216000D01*
X280400D01*
X281000Y216600D01*
X241000Y196000D02*
Y216000D01*
Y151000D02*
Y177000D01*
X241000Y151000D02*
X241000Y151000D01*
X276000Y66000D02*
X281000Y71000D01*
X331000Y121000D02*
X336000Y116000D01*
X353000Y359000D02*
Y363500D01*
X180000Y234600D02*
X180430Y235030D01*
X180000Y239800D02*
X180430Y240230D01*
X180000Y208600D02*
X180430Y209030D01*
X180000Y203400D02*
X191600D01*
X201000Y194000D01*
X180430Y209030D02*
X204030D01*
X206000Y211000D01*
Y210946D02*
Y211000D01*
Y235030D01*
X192800Y239800D02*
X206000Y253000D01*
X180000Y239800D02*
X192800D01*
X226000Y291000D02*
X246000D01*
X261000D02*
X281000D01*
X218000Y308000D02*
X226000D01*
X241000D01*
X244000Y311000D01*
X261000D02*
X278000D01*
X281000Y308000D01*
X216000Y306000D02*
X218000Y308000D01*
X216000Y280500D02*
Y306000D01*
X206000Y194000D02*
X219000D01*
X201000Y236000D02*
X205819Y235065D01*
X206000Y235030D01*
X180430D02*
X206000D01*
X141000Y316000D02*
X151600D01*
X154000D01*
X281000Y386000D02*
X306000Y361000D01*
X226000Y308000D02*
Y441000D01*
X151600Y175000D02*
Y195400D01*
X151000Y196000D02*
X151600Y195400D01*
X86000Y196000D02*
X151000D01*
X46000Y156000D02*
X86000Y196000D01*
X21000Y156000D02*
X46000D01*
X11000Y166000D02*
X21000Y156000D01*
X206000Y253000D02*
Y271000D01*
X136000Y289000D02*
Y326000D01*
X141000Y331000D01*
X149000D01*
X151600Y289000D02*
Y316000D01*
X206000Y211000D02*
X221000D01*
X227770Y202770D02*
Y268730D01*
X219000Y194000D02*
X227770Y202770D01*
X216000Y280500D02*
X227770Y268730D01*
X206000Y236000D02*
X221000D01*
X41000Y555000D02*
Y571000D01*
X65080Y460080D02*
X86000Y481000D01*
Y481000D01*
X83500Y478500D02*
X86000Y481000D01*
X336000D02*
Y504000D01*
X386000Y504000D02*
X386000Y504000D01*
X386000Y486000D02*
Y504000D01*
X86000Y481000D02*
X96000Y491000D01*
Y499000D01*
X41000Y456000D02*
Y499000D01*
X0Y0D02*
Y586000D01*
Y0D02*
X411000D01*
Y586000D01*
X0D02*
X411000D01*
D21*
X146000Y351000D02*
X186000D01*
X206000Y371000D01*
Y421000D01*
X196000Y431000D02*
X206000Y421000D01*
X51000Y431000D02*
X196000D01*
X41000Y421000D02*
X51000Y431000D01*
X41000Y361000D02*
Y421000D01*
Y361000D02*
X76000Y326000D01*
X96000D01*
X281000Y71000D02*
Y176000D01*
X371000Y66000D02*
Y176000D01*
X331000Y121000D02*
Y196000D01*
Y271000D02*
X336000Y276000D01*
X401000D01*
Y391000D01*
X381000D02*
X401000D01*
X381000D02*
Y411000D01*
X351000D02*
X381000D01*
X331000Y215000D02*
Y216600D01*
Y271000D01*
X281000Y216600D02*
X331000D01*
X371000D01*
X325000Y331000D02*
X353000Y359000D01*
Y363500D02*
X381000D01*
X281000Y308000D02*
Y321000D01*
X291000Y331000D01*
X306000D01*
X381000Y316000D02*
Y372000D01*
X306000Y291000D02*
Y331000D01*
Y361000D01*
X325000Y292000D02*
Y331000D01*
D22*
X251000Y543500D02*
D03*
X201000D02*
D03*
X151000D02*
D03*
X48300Y106400D02*
D03*
X99100D02*
D03*
X73700D02*
D03*
X86400Y81000D02*
D03*
X111800D02*
D03*
X61000D02*
D03*
D23*
X371000Y66000D02*
D03*
X276000D02*
D03*
D24*
X336000Y116000D02*
D03*
X241000D02*
D03*
D25*
X226000Y441000D02*
D03*
X141000Y316000D02*
D03*
X16000Y211000D02*
D03*
X11000Y166000D02*
D03*
X141000Y126000D02*
D03*
X206000Y271000D02*
D03*
X141000Y331000D02*
D03*
X306000Y291000D02*
D03*
X325000Y292000D02*
D03*
X381000Y316000D02*
D03*
X386000Y576000D02*
D03*
X41000Y571000D02*
D03*
X96000D02*
D03*
X336000Y576000D02*
D03*
X246000Y291000D02*
D03*
X261000D02*
D03*
X186000Y331000D02*
D03*
Y316000D02*
D03*
X36000Y276000D02*
D03*
X16000D02*
D03*
X46000Y171000D02*
D03*
X221000Y236000D02*
D03*
Y211000D02*
D03*
X241000Y151000D02*
D03*
X126000Y126000D02*
D03*
X186000Y351000D02*
D03*
X206000Y371000D02*
D03*
X196000Y431000D02*
D03*
X56000D02*
D03*
X41000Y366000D02*
D03*
X71000Y331000D02*
D03*
X123500Y431000D02*
D03*
X381000Y331000D02*
D03*
Y346000D02*
D03*
X325000Y306000D02*
D03*
Y316000D02*
D03*
X331000Y151000D02*
D03*
Y171000D02*
D03*
M02*
