%FSLAX44Y44*%
%MOMM*%
G71*
G01*
G75*
G04 Layer_Physical_Order=2*
G04 Layer_Color=16711680*
%ADD10R,0.3000X1.5000*%
%ADD11R,1.5000X0.3000*%
%ADD12R,5.5000X2.0000*%
%ADD13R,1.6800X1.5200*%
%ADD14R,1.1000X1.0000*%
%ADD15R,1.0000X1.1000*%
%ADD16R,1.5000X1.3000*%
%ADD17R,1.3000X1.5000*%
%ADD18R,2.0000X1.2000*%
%ADD19R,5.6000X5.6000*%
%ADD20C,0.2540*%
%ADD21C,1.0000*%
%ADD22C,1.5000*%
%ADD23R,2.0000X2.0000*%
%ADD24C,2.0000*%
%ADD25C,0.7000*%
G36*
X410500Y585250D02*
X410500Y1398D01*
X409602Y500D01*
X141459Y500D01*
X141151Y1732D01*
X141312Y1818D01*
X144151Y4149D01*
X146482Y6988D01*
X148214Y10229D01*
X149280Y13744D01*
X149640Y17400D01*
X149280Y21056D01*
X148214Y24572D01*
X146482Y27812D01*
X144151Y30651D01*
X141312Y32982D01*
X138072Y34714D01*
X134556Y35780D01*
X130900Y36140D01*
X127244Y35780D01*
X123729Y34714D01*
X120489Y32982D01*
X117649Y30651D01*
X115318Y27812D01*
X113586Y24572D01*
X112520Y21056D01*
X112160Y17400D01*
X112520Y13744D01*
X113586Y10229D01*
X115318Y6988D01*
X117649Y4149D01*
X120489Y1818D01*
X120650Y1732D01*
X120341Y500D01*
X39872D01*
X39564Y1732D01*
X39912Y1918D01*
X42751Y4249D01*
X45082Y7089D01*
X46814Y10329D01*
X47880Y13844D01*
X48240Y17500D01*
X47880Y21156D01*
X46814Y24672D01*
X45082Y27912D01*
X42751Y30751D01*
X39912Y33082D01*
X36672Y34814D01*
X33156Y35880D01*
X29500Y36240D01*
X25844Y35880D01*
X22329Y34814D01*
X19089Y33082D01*
X16249Y30751D01*
X13918Y27912D01*
X12186Y24672D01*
X11120Y21156D01*
X10760Y17500D01*
X11120Y13844D01*
X12186Y10329D01*
X13918Y7089D01*
X16249Y4249D01*
X19089Y1918D01*
X19437Y1732D01*
X19128Y500D01*
X1000D01*
Y167546D01*
X2173Y168032D01*
X5687Y164518D01*
X5819Y163854D01*
X7035Y162035D01*
X8854Y160819D01*
X11000Y160392D01*
X13146Y160819D01*
X14965Y162035D01*
X16181Y163854D01*
X16608Y166000D01*
X16181Y168146D01*
X14965Y169965D01*
X13146Y171181D01*
X11000Y171608D01*
X8854Y171181D01*
X8614Y171021D01*
X5794Y173841D01*
Y564619D01*
X20611Y579436D01*
X160349D01*
X192348Y547437D01*
X191745Y545980D01*
X191418Y543500D01*
X191745Y541020D01*
X192702Y538709D01*
X194225Y536725D01*
X196209Y535202D01*
X198520Y534245D01*
X201000Y533918D01*
X203480Y534245D01*
X205791Y535202D01*
X207776Y536725D01*
X209298Y538709D01*
X210256Y541020D01*
X210582Y543500D01*
X210256Y545980D01*
X209298Y548291D01*
X207776Y550275D01*
X205791Y551798D01*
X203480Y552756D01*
X201000Y553082D01*
X198520Y552756D01*
X197063Y552152D01*
X165235Y583980D01*
X165761Y585250D01*
X410500Y585250D01*
D02*
G37*
%LPC*%
G36*
X239730Y114730D02*
X228519D01*
X228783Y112726D01*
X230046Y109676D01*
X232057Y107056D01*
X234676Y105046D01*
X237726Y103783D01*
X239730Y103519D01*
Y114730D01*
D02*
G37*
G36*
X99100Y115982D02*
X96620Y115655D01*
X94309Y114698D01*
X92325Y113175D01*
X90802Y111191D01*
X89845Y108880D01*
X89518Y106400D01*
X89845Y103920D01*
X90802Y101609D01*
X92325Y99625D01*
X94309Y98102D01*
X96620Y97145D01*
X99100Y96818D01*
X101580Y97145D01*
X103891Y98102D01*
X105876Y99625D01*
X107398Y101609D01*
X108356Y103920D01*
X108682Y106400D01*
X108356Y108880D01*
X107398Y111191D01*
X105876Y113175D01*
X103891Y114698D01*
X101580Y115655D01*
X99100Y115982D01*
D02*
G37*
G36*
X334730Y114730D02*
X323519D01*
X323783Y112726D01*
X325046Y109676D01*
X327056Y107056D01*
X329676Y105046D01*
X332727Y103783D01*
X334730Y103519D01*
Y114730D01*
D02*
G37*
G36*
X253481D02*
X242270D01*
Y103519D01*
X244274Y103783D01*
X247324Y105046D01*
X249944Y107056D01*
X251954Y109676D01*
X253217Y112726D01*
X253481Y114730D01*
D02*
G37*
G36*
X48300Y115982D02*
X45820Y115655D01*
X43509Y114698D01*
X41525Y113175D01*
X40002Y111191D01*
X39045Y108880D01*
X38718Y106400D01*
X39045Y103920D01*
X40002Y101609D01*
X41525Y99625D01*
X43509Y98102D01*
X45820Y97145D01*
X48300Y96818D01*
X50780Y97145D01*
X53091Y98102D01*
X55076Y99625D01*
X56598Y101609D01*
X57556Y103920D01*
X57882Y106400D01*
X57556Y108880D01*
X56598Y111191D01*
X55076Y113175D01*
X53091Y114698D01*
X50780Y115655D01*
X48300Y115982D01*
D02*
G37*
G36*
X383000Y78000D02*
X359000D01*
Y54000D01*
X383000D01*
Y78000D01*
D02*
G37*
G36*
X288000D02*
X264000D01*
Y54000D01*
X288000D01*
Y78000D01*
D02*
G37*
G36*
X83659Y105130D02*
X74970D01*
Y96441D01*
X76321Y96618D01*
X78763Y97630D01*
X80861Y99239D01*
X82470Y101337D01*
X83482Y103779D01*
X83659Y105130D01*
D02*
G37*
G36*
X72430D02*
X63741D01*
X63918Y103779D01*
X64930Y101337D01*
X66540Y99239D01*
X68637Y97630D01*
X71079Y96618D01*
X72430Y96441D01*
Y105130D01*
D02*
G37*
G36*
X348481Y114730D02*
X337270D01*
Y103519D01*
X339274Y103783D01*
X342324Y105046D01*
X344944Y107056D01*
X346954Y109676D01*
X348217Y112726D01*
X348481Y114730D01*
D02*
G37*
G36*
X141000Y336608D02*
X138854Y336181D01*
X137035Y334965D01*
X135819Y333146D01*
X135392Y331000D01*
X135541Y330256D01*
X123643Y318358D01*
X122920Y317276D01*
X122666Y316000D01*
Y298060D01*
X86000D01*
X84173Y297820D01*
X82470Y297115D01*
X81008Y295993D01*
X46008Y260993D01*
X44886Y259530D01*
X44180Y257827D01*
X43940Y256000D01*
Y214334D01*
X20387D01*
X19965Y214965D01*
X18146Y216181D01*
X16000Y216608D01*
X13854Y216181D01*
X12035Y214965D01*
X10819Y213146D01*
X10392Y211000D01*
X10819Y208854D01*
X12035Y207035D01*
X13854Y205819D01*
X16000Y205392D01*
X18146Y205819D01*
X19965Y207035D01*
X20387Y207666D01*
X41022D01*
X41508Y206493D01*
X21008Y185993D01*
X19886Y184530D01*
X19180Y182827D01*
X18940Y181000D01*
Y66000D01*
X19180Y64173D01*
X19886Y62470D01*
X21008Y61008D01*
X22470Y59886D01*
X24173Y59180D01*
X26000Y58940D01*
X236000D01*
X237827Y59180D01*
X239530Y59886D01*
X240993Y61008D01*
X242115Y62470D01*
X242820Y64173D01*
X243060Y66000D01*
Y83940D01*
X346000D01*
X347827Y84180D01*
X349530Y84886D01*
X350993Y86008D01*
X375993Y111008D01*
X377115Y112470D01*
X377820Y114173D01*
X378060Y116000D01*
Y241000D01*
X377820Y242827D01*
X377115Y244530D01*
X375993Y245993D01*
X374530Y247115D01*
X372827Y247820D01*
X371000Y248060D01*
X313060D01*
Y291000D01*
X312820Y292827D01*
X312115Y294530D01*
X310993Y295993D01*
X309530Y297115D01*
X307827Y297820D01*
X306000Y298060D01*
X304173Y297820D01*
X302470Y297115D01*
X301008Y295993D01*
X299886Y294530D01*
X299180Y292827D01*
X298940Y291000D01*
Y241000D01*
X299180Y239173D01*
X299886Y237470D01*
X301008Y236008D01*
X302470Y234886D01*
X304173Y234180D01*
X306000Y233940D01*
X363940D01*
Y118925D01*
X343076Y98060D01*
X236000D01*
X234173Y97820D01*
X232470Y97114D01*
X231008Y95992D01*
X229886Y94530D01*
X229180Y92827D01*
X228940Y91000D01*
Y73060D01*
X144334D01*
Y121613D01*
X144965Y122035D01*
X146181Y123854D01*
X146608Y126000D01*
X146181Y128146D01*
X144965Y129965D01*
X143146Y131181D01*
X141000Y131608D01*
X138854Y131181D01*
X137035Y129965D01*
X135819Y128146D01*
X135392Y126000D01*
X135819Y123854D01*
X137035Y122035D01*
X137666Y121613D01*
Y73060D01*
X118971D01*
X118817Y73513D01*
X118657Y74330D01*
X120098Y76209D01*
X121056Y78520D01*
X121382Y81000D01*
X121056Y83480D01*
X120098Y85791D01*
X118576Y87775D01*
X116591Y89298D01*
X114280Y90255D01*
X111800Y90582D01*
X109320Y90255D01*
X107009Y89298D01*
X105025Y87775D01*
X103502Y85791D01*
X102545Y83480D01*
X102218Y81000D01*
X102545Y78520D01*
X103502Y76209D01*
X104943Y74330D01*
X104783Y73513D01*
X104629Y73060D01*
X93571D01*
X93417Y73513D01*
X93257Y74330D01*
X94698Y76209D01*
X95656Y78520D01*
X95982Y81000D01*
X95656Y83480D01*
X94698Y85791D01*
X93176Y87775D01*
X91191Y89298D01*
X88880Y90255D01*
X86400Y90582D01*
X83920Y90255D01*
X81609Y89298D01*
X79625Y87775D01*
X78102Y85791D01*
X77145Y83480D01*
X76818Y81000D01*
X77145Y78520D01*
X78102Y76209D01*
X79543Y74330D01*
X79383Y73513D01*
X79229Y73060D01*
X68060D01*
Y74596D01*
X69298Y76209D01*
X70256Y78520D01*
X70582Y81000D01*
X70256Y83480D01*
X69298Y85791D01*
X67776Y87775D01*
X65791Y89298D01*
X63480Y90255D01*
X61000Y90582D01*
X58520Y90255D01*
X56209Y89298D01*
X54225Y87775D01*
X52702Y85791D01*
X51745Y83480D01*
X51418Y81000D01*
X51745Y78520D01*
X52702Y76209D01*
X53940Y74596D01*
Y73060D01*
X33061D01*
Y178076D01*
X55992Y201008D01*
X57115Y202470D01*
X57820Y204173D01*
X58060Y206000D01*
Y253076D01*
X88925Y283940D01*
X158076D01*
X171008Y271008D01*
X172470Y269886D01*
X174173Y269180D01*
X176000Y268940D01*
X198076D01*
X201008Y266008D01*
X202470Y264886D01*
X204173Y264180D01*
X206000Y263940D01*
X207827Y264180D01*
X209530Y264886D01*
X210993Y266008D01*
X212115Y267470D01*
X212820Y269173D01*
X213060Y271000D01*
X212820Y272827D01*
X212115Y274530D01*
X210993Y275993D01*
X205993Y280993D01*
X204530Y282115D01*
X202827Y282820D01*
X201000Y283060D01*
X178925D01*
X165993Y295993D01*
X164530Y297115D01*
X162827Y297820D01*
X161000Y298060D01*
X144334D01*
Y311613D01*
X144965Y312035D01*
X146181Y313854D01*
X146608Y316000D01*
X146181Y318146D01*
X144965Y319965D01*
X143146Y321181D01*
X141000Y321608D01*
X138854Y321181D01*
X137035Y319965D01*
X135819Y318146D01*
X135392Y316000D01*
X135819Y313854D01*
X137035Y312035D01*
X137666Y311613D01*
Y298060D01*
X129334D01*
Y314619D01*
X140255Y325540D01*
X141000Y325392D01*
X143146Y325819D01*
X144965Y327035D01*
X146181Y328854D01*
X146608Y331000D01*
X146181Y333146D01*
X144965Y334965D01*
X143146Y336181D01*
X141000Y336608D01*
D02*
G37*
G36*
X337270Y128481D02*
Y117270D01*
X348481D01*
X348217Y119274D01*
X346954Y122324D01*
X344944Y124944D01*
X342324Y126954D01*
X339274Y128217D01*
X337270Y128481D01*
D02*
G37*
G36*
X251000Y553082D02*
X248520Y552756D01*
X246209Y551798D01*
X244225Y550275D01*
X242702Y548291D01*
X241745Y545980D01*
X241418Y543500D01*
X241693Y541409D01*
X223643Y523358D01*
X222920Y522276D01*
X222666Y521000D01*
Y445387D01*
X222035Y444965D01*
X220819Y443146D01*
X220392Y441000D01*
X220819Y438854D01*
X222035Y437035D01*
X223854Y435819D01*
X226000Y435392D01*
X228146Y435819D01*
X229965Y437035D01*
X231181Y438854D01*
X231608Y441000D01*
X231181Y443146D01*
X229965Y444965D01*
X229334Y445387D01*
Y519619D01*
X245478Y535763D01*
X246209Y535202D01*
X248520Y534245D01*
X251000Y533918D01*
X253480Y534245D01*
X255791Y535202D01*
X257776Y536725D01*
X259298Y538709D01*
X260256Y541020D01*
X260582Y543500D01*
X260256Y545980D01*
X259298Y548291D01*
X257776Y550275D01*
X255791Y551798D01*
X253480Y552756D01*
X251000Y553082D01*
D02*
G37*
G36*
X151000D02*
X148520Y552756D01*
X146209Y551798D01*
X144225Y550275D01*
X142702Y548291D01*
X141745Y545980D01*
X141418Y543500D01*
X141745Y541020D01*
X142702Y538709D01*
X144225Y536725D01*
X146209Y535202D01*
X148520Y534245D01*
X151000Y533918D01*
X153480Y534245D01*
X155791Y535202D01*
X157776Y536725D01*
X159298Y538709D01*
X160256Y541020D01*
X160582Y543500D01*
X160256Y545980D01*
X159298Y548291D01*
X157776Y550275D01*
X155791Y551798D01*
X153480Y552756D01*
X151000Y553082D01*
D02*
G37*
G36*
X334730Y128481D02*
X332727Y128217D01*
X329676Y126954D01*
X327056Y124944D01*
X325046Y122324D01*
X323783Y119274D01*
X323519Y117270D01*
X334730D01*
Y128481D01*
D02*
G37*
G36*
X74970Y116360D02*
Y107670D01*
X83659D01*
X83482Y109021D01*
X82470Y111463D01*
X80861Y113561D01*
X78763Y115170D01*
X76321Y116182D01*
X74970Y116360D01*
D02*
G37*
G36*
X72430D02*
X71079Y116182D01*
X68637Y115170D01*
X66540Y113561D01*
X64930Y111463D01*
X63918Y109021D01*
X63741Y107670D01*
X72430D01*
Y116360D01*
D02*
G37*
G36*
X242270Y128481D02*
Y117270D01*
X253481D01*
X253217Y119274D01*
X251954Y122324D01*
X249944Y124944D01*
X247324Y126954D01*
X244274Y128217D01*
X242270Y128481D01*
D02*
G37*
G36*
X239730D02*
X237726Y128217D01*
X234676Y126954D01*
X232057Y124944D01*
X230046Y122324D01*
X228783Y119274D01*
X228519Y117270D01*
X239730D01*
Y128481D01*
D02*
G37*
%LPD*%
D20*
X161730Y582770D02*
X201000Y543500D01*
X19230Y582770D02*
X161730D01*
X2460Y566000D02*
X19230Y582770D01*
X2460Y172460D02*
Y566000D01*
X8920Y166000D02*
X11000D01*
X2460Y172460D02*
X8920Y166000D01*
X126000Y316000D02*
X141000Y331000D01*
X126000Y291000D02*
Y316000D01*
X16000Y211000D02*
X46000D01*
X141000Y71000D02*
Y126000D01*
X226000Y441000D02*
Y521000D01*
X248500Y543500D01*
X251000D01*
X141000Y291000D02*
Y316000D01*
X0Y0D02*
Y586000D01*
Y0D02*
X411000D01*
Y586000D01*
X0D02*
X411000D01*
D21*
X61000Y66000D02*
Y81000D01*
X86000Y291000D02*
X126000D01*
X51000Y256000D02*
X86000Y291000D01*
X61000Y66000D02*
X236000D01*
Y91000D01*
X346000D01*
X371000Y116000D01*
Y241000D01*
X306000D02*
X371000D01*
X306000D02*
Y291000D01*
X26000Y66000D02*
X61000D01*
X126000Y291000D02*
X141000D01*
X161000D01*
X176000Y276000D01*
X201000D01*
X206000Y271000D01*
X26000Y66000D02*
Y181000D01*
X51000Y206000D01*
Y256000D01*
D22*
X251000Y543500D02*
D03*
X201000D02*
D03*
X151000D02*
D03*
X48300Y106400D02*
D03*
X99100D02*
D03*
X73700D02*
D03*
X86400Y81000D02*
D03*
X111800D02*
D03*
X61000D02*
D03*
D23*
X371000Y66000D02*
D03*
X276000D02*
D03*
D24*
X336000Y116000D02*
D03*
X241000D02*
D03*
D25*
X226000Y441000D02*
D03*
X141000Y316000D02*
D03*
X16000Y211000D02*
D03*
X11000Y166000D02*
D03*
X141000Y126000D02*
D03*
X206000Y271000D02*
D03*
X141000Y331000D02*
D03*
X306000Y291000D02*
D03*
X325000Y292000D02*
D03*
X381000Y316000D02*
D03*
X386000Y576000D02*
D03*
X41000Y571000D02*
D03*
X96000D02*
D03*
X336000Y576000D02*
D03*
X246000Y291000D02*
D03*
X261000D02*
D03*
X186000Y331000D02*
D03*
Y316000D02*
D03*
X36000Y276000D02*
D03*
X16000D02*
D03*
X46000Y171000D02*
D03*
X221000Y236000D02*
D03*
Y211000D02*
D03*
X241000Y151000D02*
D03*
X126000Y126000D02*
D03*
X186000Y351000D02*
D03*
X206000Y371000D02*
D03*
X196000Y431000D02*
D03*
X56000D02*
D03*
X41000Y366000D02*
D03*
X71000Y331000D02*
D03*
X123500Y431000D02*
D03*
X381000Y331000D02*
D03*
Y346000D02*
D03*
X325000Y306000D02*
D03*
Y316000D02*
D03*
X331000Y151000D02*
D03*
Y171000D02*
D03*
M02*
