M48
;Layer_Color=9474304
;FILE_FORMAT=4:4
METRIC,LZ
;TYPE=PLATED
T1F00S00C0.4000
T2F00S00C0.5000
T3F00S00C0.7000
T4F00S00C0.7112
T5F00S00C0.8000
T6F00S00C0.9000
T7F00S00C1.0000
T8F00S00C1.1000
T9F00S00C1.4000
;TYPE=NON_PLATED
T10F00S00C0.5000
T11F00S00C2.5000
%
T01
X00308Y00027
Y00042
X00309Y00069
X0095Y0038
Y00395
X0111Y0033
X0127
Y00345
X01255Y0039
X00875Y0032
Y003
X007875Y004575
X00775Y0047
X007618Y005332
X006126Y004951
X006025Y004325
X0062Y0042
X00575Y0041
X0033205Y0049295
X0021105Y0049355
X0009005Y0049255
X0066Y00545
X006736Y005586
X0066Y0064
X0116Y0061
T02
X0025Y00475
X00524Y004719
Y004826
X0013Y00485
X0002655Y0053845
X00355Y0054
T03
X0089Y0040455
X009154Y0042995
X008646
T04
X01215Y00095
X0135Y00075
X0135Y0014
X0135Y002
Y0026
Y0032
X01275Y002287
Y00165
X011525Y00225
X01205Y005
X0078Y00505
X00665Y00445
X006135Y00524
X0049Y00525
X00435
X00405Y0048
X0044Y00435
X0049
X0030665Y0048085
X0018565Y0048315
X0006465Y004825
X000755Y00587
X00185Y0054
X00256Y00594
X00295Y005935
X007875Y0058
X01025Y006575
T05
X011875Y006123
Y00625
Y006377
T06
X00234Y00029
Y00042
Y00055
Y00068
X003546Y001278
X0038
X012697Y00058
X01283
X012963
X0138Y004363
X014054
Y004617
X0138
Y004871
X014054
Y005125
X0138
X0038Y003056
X003546
Y002802
Y002548
X0038
Y002294
Y00204
Y001786
Y001532
X003546
Y001786
Y00204
Y002294
X0038Y002802
X00271Y00659
X002456
X002202
X001948
X001694
X00144
T07
X010896Y00435
X01115
X011404
X00211Y003738
X00186
Y003484
X00211
Y00323
X00186
Y002976
X00211
Y002722
X00186
Y002468
X00211
Y002214
X00186
Y00196
X00211
Y001704
X00186
Y00145
X00211
X00136
Y001704
Y00196
Y002214
Y002468
Y002722
Y002976
Y00323
Y003484
Y003738
T08
X01207Y00057
X012324
X01393Y00081
Y001064
Y00142
Y001674
X01393Y00203
Y002284
Y00264
Y002894
Y00325
Y003504
X009275Y00865
Y008904
X012686Y00604
X01294
X01351Y005904
Y00565
X0135Y00626
Y006514
T09
X01056Y005366
Y00562
Y005874
X00965Y0056
T10
X00345Y007025
X00353333
X00361667
X0037
Y007275
X00361667
X00353333
X00345
X007225
X00730833
X00739167
X007475
Y007025
X00739167
X00730833
X007225
T11
X0017Y0008
X003546Y00049
X011596
X01418Y00032
X011596Y00364
X003546
X00032Y00668
X01418
M30
