M48
;Layer_Color=9474304
;FILE_FORMAT=4:4
METRIC,LZ
T12F00S00C5.0800
%
G90
G05
T12
G00X014246Y010046
M15
G01X010254Y010046
G01X010254Y007254
G01X014246Y007254
G01X014246Y010046
M16
G00X00031179Y010046
M15
G01X000254Y010046
G01X000254Y00998821
G01X00031179Y010046
M16
G00X00069539Y0084296
M15
G01X00073467Y00846172
G01X00077955Y00848538
G01X00082824Y00849966
G01X000875Y008504
G01X007746Y008504
G01X007746Y008996
G01X000875Y008996
G01X00082452Y00900107
G01X00077605Y00901607
G01X00073153Y0090404
G01X00069539Y0090704
G01X000254Y00951179
G01X000254Y00798821
G01X00069539Y0084296
M16
G00X000254Y00751179
M15
G01X000254Y007504
G01X00026179Y007504
G01X000254Y00751179
M16
G00X01455048Y-00024893
M15
G01X01459895Y-00023393
G01X01464347Y-0002096
G01X01468227Y-0001769
G01X01471379Y-00013715
G01X01473678Y-00009192
G01X01475033Y-00004302
G01X014754Y0
G01X014754Y00705
G01X01474893Y00710048
G01X01473393Y00714895
G01X01473301Y00715065
G01X01473678Y00715808
G01X01475033Y00720697
G01X014754Y00725
G01X014754Y0103
G01X01474893Y01035048
G01X01473393Y01039895
G01X0147096Y01044347
G01X0146769Y01048227
G01X01463715Y01051379
G01X01459192Y01053678
G01X01454302Y01055033
G01X0145Y010554
G01X0Y010554
G01X-00005048Y01054893
G01X-00009895Y01053393
G01X-00014347Y0105096
G01X-00018227Y0104769
G01X-00021379Y01043715
G01X-00023678Y01039192
G01X-00025033Y01034302
G01X-000254Y0103
G01X-000254Y00725
G01X-00024893Y00719952
G01X-00023393Y00715105
G01X-00023301Y00714936
G01X-00023676Y00714198
G01X-00025032Y00709309
G01X-000254Y00705
G01X-000254Y002
G01X-00024893Y00194952
G01X-00023393Y00190105
G01X-0002096Y00185653
G01X-00017961Y0018204
G01X00182039Y-0001796
G01X00185967Y-00021172
G01X00190455Y-00023538
G01X00195324Y-00024966
G01X002Y-000254
G01X0145Y-000254
G01X01455048Y-00024893
M16
M17
M30
