%FSLAX25Y25*%
%MOIN*%
G70*
G01*
G75*
%ADD10R,0.05118X0.05512*%
%ADD11R,0.05512X0.05118*%
%ADD12R,0.07874X0.02756*%
%ADD13R,0.03937X0.04331*%
%ADD14R,0.04331X0.03937*%
%ADD15R,0.11811X0.09055*%
%ADD16R,0.24016X0.40000*%
%ADD17R,0.07874X0.02362*%
%ADD18R,0.02362X0.06102*%
%ADD19C,0.03937*%
%ADD20C,0.01000*%
%ADD21C,0.02756*%
%ADD22C,0.05906*%
%ADD23C,0.01969*%
%ADD24C,0.07874*%
%ADD25C,0.01575*%
%ADD26C,0.27559*%
%ADD27C,0.07874*%
%ADD28O,0.05906X0.02953*%
%ADD29C,0.07087*%
%ADD30C,0.09843*%
%ADD31C,0.05906*%
%ADD32C,0.08661*%
%ADD33R,0.06299X0.06299*%
%ADD34C,0.06299*%
%ADD35R,0.06299X0.06299*%
%ADD36R,0.05906X0.05906*%
%ADD37C,0.04724*%
%ADD38C,0.01969*%
%ADD39R,0.05906X0.05906*%
%ADD40O,0.03937X0.07874*%
%ADD41O,0.07874X0.04331*%
%ADD42C,0.05000*%
%ADD43C,0.02756*%
%ADD44C,0.03543*%
%ADD45C,0.06693*%
%ADD46C,0.00787*%
%ADD47C,0.00394*%
%ADD48C,0.00800*%
%ADD49R,0.05918X0.06312*%
%ADD50R,0.06312X0.05918*%
%ADD51R,0.08674X0.03556*%
%ADD52R,0.04737X0.05131*%
%ADD53R,0.05131X0.04737*%
%ADD54R,0.12611X0.09855*%
%ADD55R,0.24816X0.40800*%
%ADD56R,0.08674X0.03162*%
%ADD57R,0.03162X0.06902*%
%ADD58C,0.08674*%
%ADD59O,0.06706X0.03753*%
%ADD60C,0.07887*%
%ADD61C,0.10642*%
%ADD62C,0.06706*%
%ADD63C,0.09461*%
%ADD64R,0.07099X0.07099*%
%ADD65C,0.07099*%
%ADD66R,0.07099X0.07099*%
%ADD67R,0.06706X0.06706*%
%ADD68C,0.05524*%
%ADD69C,0.02769*%
%ADD70R,0.06706X0.06706*%
%ADD71O,0.04737X0.08674*%
%ADD72O,0.08674X0.05131*%
%ADD73C,0.05800*%
%ADD74C,0.03556*%
%ADD75C,0.04343*%
%ADD76C,0.07493*%
%ADD77C,0.00333*%
%ADD78C,0.01500*%
%ADD79C,0.01600*%
%ADD80C,0.00500*%
D20*
X282044Y277593D02*
G03*
X282549Y285299I-514J3903D01*
G01*
X296764Y285399D02*
G03*
X296259Y277693I514J-3903D01*
G01*
X148108Y285399D02*
G03*
X147603Y277693I514J-3903D01*
G01*
X133388Y277593D02*
G03*
X133893Y285299I-514J3903D01*
G01*
X148108Y277593D02*
X282010D01*
X148108Y285399D02*
X282456D01*
X-0Y277559D02*
X34Y277593D01*
X133388D01*
X34449Y285433D02*
X133800D01*
X14764Y305118D02*
X34449Y285433D01*
X14764Y305118D02*
X34449Y324803D01*
X314961D01*
Y364173D01*
X34449D02*
X314961D01*
X14764Y383858D02*
X34449Y364173D01*
X14764Y383858D02*
X36417Y405512D01*
X393701D01*
Y285433D02*
Y405512D01*
X393667Y285399D02*
X393701Y285433D01*
X296730Y285399D02*
X393667D01*
X296730Y277593D02*
X393667D01*
X393701Y277559D01*
X570866D01*
X570866Y277559D01*
Y0D02*
Y277559D01*
X78740Y0D02*
X570866D01*
X-0Y78740D02*
X78740Y0D01*
X-0Y78740D02*
Y277559D01*
D80*
X461614Y239173D02*
X465551D01*
X463583Y237205D02*
Y241142D01*
X461614Y229173D02*
X465551D01*
X463583Y227205D02*
Y231142D01*
X461614Y249173D02*
X465551D01*
X463583Y247205D02*
Y251142D01*
X205315Y185787D02*
X207283D01*
X206299Y184803D02*
Y186772D01*
X205315Y190000D02*
X207283D01*
X206299Y189016D02*
Y190984D01*
X51575Y57087D02*
X55512D01*
X53543Y55118D02*
Y59055D01*
X51575Y67087D02*
X55512D01*
X53543Y65118D02*
Y69055D01*
X51575Y77165D02*
X55512D01*
X53543Y75197D02*
Y79134D01*
X51575Y87165D02*
X55512D01*
X53543Y85197D02*
Y89134D01*
X51575Y117165D02*
X55512D01*
X53543Y115197D02*
Y119134D01*
X51575Y127165D02*
X55512D01*
X53543Y125197D02*
Y129134D01*
X51575Y97165D02*
X55512D01*
X53543Y95197D02*
Y99134D01*
X51575Y107165D02*
X55512D01*
X53543Y105197D02*
Y109134D01*
X51575Y137165D02*
X55512D01*
X53543Y135197D02*
Y139134D01*
X51575Y147165D02*
X55512D01*
X53543Y145197D02*
Y149134D01*
X81102Y57087D02*
X85039D01*
X83071Y55118D02*
Y59055D01*
X81102Y67087D02*
X85039D01*
X83071Y65118D02*
Y69055D01*
X81102Y77165D02*
X85039D01*
X83071Y75197D02*
Y79134D01*
X81102Y87165D02*
X85039D01*
X83071Y85197D02*
Y89134D01*
X81102Y117165D02*
X85039D01*
X83071Y115197D02*
Y119134D01*
X81102Y127165D02*
X85039D01*
X83071Y125197D02*
Y129134D01*
X81102Y97165D02*
X85039D01*
X83071Y95197D02*
Y99134D01*
X81102Y107165D02*
X85039D01*
X83071Y105197D02*
Y109134D01*
X81102Y137165D02*
X85039D01*
X83071Y135197D02*
Y139134D01*
X81102Y147165D02*
X85039D01*
X83071Y145197D02*
Y149134D01*
X71260Y147165D02*
X75197D01*
X73228Y145197D02*
Y149134D01*
X71260Y137165D02*
X75197D01*
X73228Y135197D02*
Y139134D01*
X71260Y107165D02*
X75197D01*
X73228Y105197D02*
Y109134D01*
X71260Y97165D02*
X75197D01*
X73228Y95197D02*
Y99134D01*
X71260Y127165D02*
X75197D01*
X73228Y125197D02*
Y129134D01*
X71260Y117165D02*
X75197D01*
X73228Y115197D02*
Y119134D01*
X71260Y87165D02*
X75197D01*
X73228Y85197D02*
Y89134D01*
X71260Y77165D02*
X75197D01*
X73228Y75197D02*
Y79134D01*
X71260Y67087D02*
X75197D01*
X73228Y65118D02*
Y69055D01*
X71260Y57087D02*
X75197D01*
X73228Y55118D02*
Y59055D01*
X134685Y19291D02*
X144528D01*
X139606Y14370D02*
Y24213D01*
X451614Y19291D02*
X461457D01*
X456535Y14370D02*
Y24213D01*
X451614Y143307D02*
X461457D01*
X456535Y138386D02*
Y148228D01*
X134685Y143307D02*
X144528D01*
X139606Y138386D02*
Y148228D01*
X147835Y120315D02*
X151378D01*
X149606Y118543D02*
Y122087D01*
X147835Y110315D02*
X151378D01*
X149606Y108543D02*
Y112087D01*
X137835Y60315D02*
X141378D01*
X139606Y58543D02*
Y62087D01*
X137835Y70315D02*
X141378D01*
X139606Y68543D02*
Y72087D01*
X137835Y80315D02*
X141378D01*
X139606Y78543D02*
Y82087D01*
X137835Y90315D02*
X141378D01*
X139606Y88543D02*
Y92087D01*
X137835Y50315D02*
X141378D01*
X139606Y48543D02*
Y52087D01*
X137835Y110315D02*
X141378D01*
X139606Y108543D02*
Y112087D01*
X137835Y120315D02*
X141378D01*
X139606Y118543D02*
Y122087D01*
X137835Y100315D02*
X141378D01*
X139606Y98543D02*
Y102087D01*
X147835Y100315D02*
X151378D01*
X149606Y98543D02*
Y102087D01*
X147835Y90315D02*
X151378D01*
X149606Y88543D02*
Y92087D01*
X147835Y80315D02*
X151378D01*
X149606Y78543D02*
Y82087D01*
X147835Y70315D02*
X151378D01*
X149606Y68543D02*
Y72087D01*
X147835Y60315D02*
X151378D01*
X149606Y58543D02*
Y62087D01*
X147835Y50315D02*
X151378D01*
X149606Y48543D02*
Y52087D01*
X431102Y177165D02*
X435039D01*
X433071Y175197D02*
Y179134D01*
X421102Y177165D02*
X425039D01*
X423071Y175197D02*
Y179134D01*
X441102Y177165D02*
X445039D01*
X443071Y175197D02*
Y179134D01*
X412992Y221260D02*
X418504D01*
X415748Y218504D02*
Y224016D01*
X412992Y231260D02*
X418504D01*
X415748Y228504D02*
Y234016D01*
X412992Y211260D02*
X418504D01*
X415748Y208504D02*
Y214016D01*
X553346Y12598D02*
X563189D01*
X558268Y7677D02*
Y17520D01*
X553346Y262992D02*
X563189D01*
X558268Y258071D02*
Y267913D01*
X7677Y262992D02*
X17520D01*
X12598Y258071D02*
Y267913D01*
X546260Y127953D02*
X550591D01*
X548425Y125787D02*
Y130118D01*
X546260Y137953D02*
X550591D01*
X548425Y135787D02*
Y140118D01*
X546260Y103937D02*
X550591D01*
X548425Y101772D02*
Y106102D01*
X546260Y113937D02*
X550591D01*
X548425Y111772D02*
Y116102D01*
X546260Y79921D02*
X550591D01*
X548425Y77756D02*
Y82087D01*
X546260Y89921D02*
X550591D01*
X548425Y87756D02*
Y92087D01*
X546260Y31890D02*
X550591D01*
X548425Y29724D02*
Y34055D01*
X546260Y41890D02*
X550591D01*
X548425Y39724D02*
Y44055D01*
X546260Y55905D02*
X550591D01*
X548425Y53740D02*
Y58071D01*
X546260Y65905D02*
X550591D01*
X548425Y63740D02*
Y68071D01*
X473032Y22441D02*
X477362D01*
X475197Y20276D02*
Y24606D01*
X483032Y22441D02*
X487362D01*
X485197Y20276D02*
Y24606D01*
X54921Y259449D02*
X58465D01*
X56693Y257677D02*
Y261221D01*
X64921Y259449D02*
X68465D01*
X66693Y257677D02*
Y261221D01*
X74921Y259449D02*
X78465D01*
X76693Y257677D02*
Y261221D01*
X84921Y259449D02*
X88465D01*
X86693Y257677D02*
Y261221D01*
X94921Y259449D02*
X98465D01*
X96693Y257677D02*
Y261221D01*
X104921Y259449D02*
X108465D01*
X106693Y257677D02*
Y261221D01*
X507283Y237795D02*
X511614D01*
X509449Y235630D02*
Y239961D01*
X497284Y237795D02*
X501614D01*
X499449Y235630D02*
Y239961D01*
X529331Y246457D02*
X533661D01*
X531496Y244291D02*
Y248622D01*
X529331Y256457D02*
X533661D01*
X531496Y254291D02*
Y258622D01*
X529724Y222441D02*
X534055D01*
X531890Y220276D02*
Y224606D01*
X529724Y232441D02*
X534055D01*
X531890Y230276D02*
Y234606D01*
X62008Y31496D02*
X71850D01*
X66929Y26575D02*
Y36417D01*
X339016Y169272D02*
X341772D01*
X340394Y167894D02*
Y170650D01*
X349016Y159272D02*
X351772D01*
X350394Y157894D02*
Y160650D01*
X359016Y169272D02*
X361772D01*
X360394Y167894D02*
Y170650D01*
X144685Y286417D02*
X146653D01*
X145669Y285433D02*
Y287402D01*
X141404Y286417D02*
X143373D01*
X142388Y285433D02*
Y287402D01*
X138123Y286417D02*
X140092D01*
X139108Y285433D02*
Y287402D01*
X134843Y286417D02*
X136811D01*
X135827Y285433D02*
Y287402D01*
X134843Y276575D02*
X136811D01*
X135827Y275590D02*
Y277559D01*
X138123Y276575D02*
X140092D01*
X139108Y275590D02*
Y277559D01*
X141404Y276575D02*
X143373D01*
X142388Y275590D02*
Y277559D01*
X144685Y276575D02*
X146653D01*
X145669Y275590D02*
Y277559D01*
X293307Y276575D02*
X295276D01*
X294291Y275590D02*
Y277559D01*
X290026Y276575D02*
X291995D01*
X291010Y275590D02*
Y277559D01*
X286745Y276575D02*
X288714D01*
X287730Y275590D02*
Y277559D01*
X283465Y276575D02*
X285433D01*
X284449Y275590D02*
Y277559D01*
X283465Y286417D02*
X285433D01*
X284449Y285433D02*
Y287402D01*
X286745Y286417D02*
X288714D01*
X287730Y285433D02*
Y287402D01*
X290026Y286417D02*
X291995D01*
X291010Y285433D02*
Y287402D01*
X293307Y286417D02*
X295276D01*
X294291Y285433D02*
Y287402D01*
X541535Y201772D02*
X545079D01*
X543307Y200000D02*
Y203543D01*
X551535Y201772D02*
X555079D01*
X553307Y200000D02*
Y203543D01*
X541535Y191772D02*
X545079D01*
X543307Y190000D02*
Y193543D01*
X551535Y191772D02*
X555079D01*
X553307Y190000D02*
Y193543D01*
X541535Y181772D02*
X545079D01*
X543307Y180000D02*
Y183543D01*
X551535Y181772D02*
X555079D01*
X553307Y180000D02*
Y183543D01*
X541535Y171772D02*
X545079D01*
X543307Y170000D02*
Y173543D01*
X551535Y171772D02*
X555079D01*
X553307Y170000D02*
Y173543D01*
X508583Y22835D02*
X512126D01*
X510354Y21063D02*
Y24606D01*
X503346Y22835D02*
X506890D01*
X505118Y21063D02*
Y24606D01*
X498110Y22835D02*
X501653D01*
X499882Y21063D02*
Y24606D01*
X90354Y26772D02*
X93898D01*
X92126Y25000D02*
Y28543D01*
X90354Y21654D02*
X93898D01*
X92126Y19882D02*
Y23425D01*
X90354Y16535D02*
X93898D01*
X92126Y14764D02*
Y18307D01*
X90354Y11417D02*
X93898D01*
X92126Y9646D02*
Y13189D01*
X362992Y340551D02*
X367323D01*
X365158Y338386D02*
Y342717D01*
X362992Y350551D02*
X367323D01*
X365158Y348386D02*
Y352716D01*
X482852Y221457D02*
X485652D01*
X484252Y220057D02*
Y222857D01*
X486789Y212598D02*
X489589D01*
X488189Y211198D02*
Y213998D01*
X450984Y240158D02*
X452559D01*
X451772Y239370D02*
Y240945D01*
X373228Y155512D02*
X374803D01*
X374016Y154724D02*
Y156299D01*
X373228Y149606D02*
X374803D01*
X374016Y148819D02*
Y150394D01*
X493307Y153543D02*
X494882D01*
X494095Y152756D02*
Y154331D01*
X120866Y27165D02*
X122441D01*
X121653Y26378D02*
Y27953D01*
X120473Y16535D02*
X122047D01*
X121260Y15748D02*
Y17323D01*
X120473Y10630D02*
X122047D01*
X121260Y9843D02*
Y11417D01*
X436221Y129921D02*
X437795D01*
X437008Y129134D02*
Y130709D01*
X343701Y118110D02*
X345276D01*
X344488Y117323D02*
Y118898D01*
X343701Y125984D02*
X345276D01*
X344488Y125197D02*
Y126772D01*
X499213Y129921D02*
X500787D01*
X500000Y129134D02*
Y130709D01*
X499213Y135827D02*
X500787D01*
X500000Y135039D02*
Y136614D01*
X304331Y185039D02*
X305906D01*
X305118Y184252D02*
Y185827D01*
X82303Y194311D02*
X83878D01*
X83091Y193524D02*
Y195098D01*
X34665Y193917D02*
X36240D01*
X35453Y193130D02*
Y194705D01*
X129941Y194075D02*
X131516D01*
X130728Y193287D02*
Y194862D01*
X99387Y233858D02*
X102187D01*
X100787Y232458D02*
Y235258D01*
X240394Y194921D02*
X241968D01*
X241181Y194134D02*
Y195709D01*
X240135Y206299D02*
X242935D01*
X241535Y204899D02*
Y207699D01*
X299134Y209921D02*
X300709D01*
X299921Y209134D02*
Y210709D01*
X308639Y228346D02*
X311439D01*
X310039Y226946D02*
Y229747D01*
X71690Y190217D02*
X74490D01*
X73090Y188816D02*
Y191616D01*
X119328Y189311D02*
X122128D01*
X120728Y187911D02*
Y190711D01*
X24053Y189961D02*
X26853D01*
X25453Y188561D02*
Y191361D01*
X452340Y88583D02*
X455140D01*
X453740Y87183D02*
Y89983D01*
X402143Y258858D02*
X404943D01*
X403543Y257458D02*
Y260258D01*
X28324Y231102D02*
X31124D01*
X29724Y229702D02*
Y232502D01*
X71435Y212598D02*
X74235D01*
X72835Y211198D02*
Y213998D01*
X225590Y161417D02*
X227165D01*
X226378Y160630D02*
Y162205D01*
X243307Y165354D02*
X244882D01*
X244094Y164567D02*
Y166142D01*
X236417Y170276D02*
X237992D01*
X237205Y169488D02*
Y171063D01*
X309252Y180118D02*
X310827D01*
X310039Y179331D02*
Y180905D01*
X114742Y233661D02*
X117542D01*
X116142Y232261D02*
Y235061D01*
X9469Y211988D02*
X11437D01*
X10453Y211004D02*
Y212972D01*
X50197Y190945D02*
X52165D01*
X51181Y189961D02*
Y191929D01*
X476946Y37402D02*
X479746D01*
X478346Y36002D02*
Y38802D01*
X260411Y175197D02*
X263211D01*
X261811Y173797D02*
Y176597D01*
X305687Y198819D02*
X308487D01*
X307087Y197419D02*
Y200219D01*
X191513Y171260D02*
X194313D01*
X192913Y169860D02*
Y172660D01*
X171828Y171260D02*
X174628D01*
X173228Y169860D02*
Y172660D01*
X169860Y206693D02*
X172660D01*
X171260Y205293D02*
Y208093D01*
X191513Y206693D02*
X194313D01*
X192913Y205293D02*
Y208093D01*
X158049Y188976D02*
X160849D01*
X159449Y187576D02*
Y190376D01*
X473009Y196850D02*
X475809D01*
X474409Y195450D02*
Y198250D01*
X377165Y220472D02*
X382677D01*
X379921Y217717D02*
Y223228D01*
X259055Y214567D02*
X260630D01*
X259842Y213779D02*
Y215354D01*
X259055Y251969D02*
X260630D01*
X259842Y251181D02*
Y252756D01*
X264409Y219921D02*
X265984D01*
X265197Y219134D02*
Y220709D01*
X97441Y187008D02*
X99410D01*
X98425Y186024D02*
Y187992D01*
X500568Y64961D02*
X503369D01*
X501968Y63561D02*
Y66361D01*
X530096Y29528D02*
X532896D01*
X531496Y28128D02*
Y30928D01*
X530096Y55118D02*
X532896D01*
X531496Y53718D02*
Y56518D01*
X530096Y78740D02*
X532896D01*
X531496Y77340D02*
Y80140D01*
X530096Y102362D02*
X532896D01*
X531496Y100962D02*
Y103762D01*
X530096Y125984D02*
X532896D01*
X531496Y124584D02*
Y127384D01*
X500568Y90039D02*
X503369D01*
X501968Y88639D02*
Y91439D01*
X355512Y125984D02*
X357087D01*
X356299Y125197D02*
Y126772D01*
X355512Y118110D02*
X357087D01*
X356299Y117323D02*
Y118898D01*
X423425Y125984D02*
X425000D01*
X424213Y125197D02*
Y126772D01*
X419488Y118110D02*
X421063D01*
X420276Y117323D02*
Y118898D01*
X199112Y19410D02*
X201912D01*
X200512Y18010D02*
Y20809D01*
X377065Y19685D02*
X379865D01*
X378465Y18285D02*
Y21085D01*
X528128Y159449D02*
X530928D01*
X529528Y158049D02*
Y160849D01*
X41907Y303543D02*
X44707D01*
X43307Y302143D02*
Y304943D01*
X94269Y303543D02*
X97069D01*
X95669Y302143D02*
Y304943D01*
X146632Y303543D02*
X149432D01*
X148031Y302143D02*
Y304943D01*
X198994Y303543D02*
X201794D01*
X200394Y302143D02*
Y304943D01*
X303718Y303543D02*
X306518D01*
X305118Y302143D02*
Y304943D01*
X251356Y303543D02*
X254156D01*
X252756Y302143D02*
Y304943D01*
X249387Y385827D02*
X252187D01*
X250787Y384427D02*
Y387227D01*
X301750Y385827D02*
X304550D01*
X303150Y384427D02*
Y387227D01*
X197025Y385827D02*
X199825D01*
X198425Y384427D02*
Y387227D01*
X144663Y385827D02*
X147463D01*
X146063Y384427D02*
Y387227D01*
X92301Y385827D02*
X95101D01*
X93701Y384427D02*
Y387227D01*
X39939Y385827D02*
X42739D01*
X41339Y384427D02*
Y387227D01*
X516317Y147638D02*
X519116D01*
X517717Y146238D02*
Y149038D01*
X510411Y212598D02*
X513211D01*
X511811Y211198D02*
Y213998D01*
X210630Y224410D02*
X212598D01*
X211614Y223425D02*
Y225394D01*
X134843Y224410D02*
X136811D01*
X135827Y223425D02*
Y225394D01*
M02*
