%FSLAX25Y25*%
%MOIN*%
G70*
G01*
G75*
G04 Layer_Color=2752767*
%ADD10R,0.05118X0.05512*%
%ADD11R,0.05512X0.05118*%
%ADD12R,0.07874X0.02756*%
%ADD13R,0.03937X0.04331*%
%ADD14R,0.04331X0.03937*%
%ADD15R,0.11811X0.09055*%
%ADD16R,0.24016X0.40000*%
%ADD17R,0.07874X0.02362*%
%ADD18R,0.02362X0.06102*%
%ADD19C,0.03937*%
%ADD20C,0.01000*%
%ADD21C,0.02756*%
%ADD22C,0.05906*%
%ADD23C,0.01969*%
%ADD24C,0.07874*%
%ADD25C,0.01575*%
%ADD26C,0.27559*%
%ADD27C,0.07874*%
%ADD28O,0.05906X0.02953*%
%ADD29C,0.07087*%
%ADD30C,0.09843*%
%ADD31C,0.05906*%
%ADD32C,0.08661*%
%ADD33R,0.06299X0.06299*%
%ADD34C,0.06299*%
%ADD35R,0.06299X0.06299*%
%ADD36R,0.05906X0.05906*%
%ADD37C,0.04724*%
%ADD38C,0.01969*%
%ADD39R,0.05906X0.05906*%
%ADD40O,0.03937X0.07874*%
%ADD41O,0.07874X0.04331*%
%ADD42C,0.05000*%
%ADD43C,0.02756*%
%ADD44C,0.03543*%
%ADD45C,0.06693*%
%ADD46C,0.00787*%
%ADD47C,0.00394*%
%ADD48C,0.00800*%
%ADD49R,0.05918X0.06312*%
%ADD50R,0.06312X0.05918*%
%ADD51R,0.08674X0.03556*%
%ADD52R,0.04737X0.05131*%
%ADD53R,0.05131X0.04737*%
%ADD54R,0.12611X0.09855*%
%ADD55R,0.24816X0.40800*%
%ADD56R,0.08674X0.03162*%
%ADD57R,0.03162X0.06902*%
%ADD58C,0.08674*%
%ADD59O,0.06706X0.03753*%
%ADD60C,0.07887*%
%ADD61C,0.10642*%
%ADD62C,0.06706*%
%ADD63C,0.09461*%
%ADD64R,0.07099X0.07099*%
%ADD65C,0.07099*%
%ADD66R,0.07099X0.07099*%
%ADD67R,0.06706X0.06706*%
%ADD68C,0.05524*%
%ADD69C,0.02769*%
%ADD70R,0.06706X0.06706*%
%ADD71O,0.04737X0.08674*%
%ADD72O,0.08674X0.05131*%
%ADD73C,0.05800*%
%ADD74C,0.03556*%
%ADD75C,0.04343*%
%ADD76C,0.07493*%
%ADD77C,0.00333*%
%ADD78C,0.01500*%
%ADD79C,0.01600*%
D20*
X282044Y277593D02*
G03*
X282549Y285299I-514J3903D01*
G01*
X296764Y285399D02*
G03*
X296259Y277693I514J-3903D01*
G01*
X148108Y285399D02*
G03*
X147603Y277693I514J-3903D01*
G01*
X133388Y277593D02*
G03*
X133893Y285299I-514J3903D01*
G01*
X148108Y277593D02*
X282010D01*
X148108Y285399D02*
X282456D01*
X-0Y277559D02*
X34Y277593D01*
X133388D01*
X34449Y285433D02*
X133800D01*
X14764Y305118D02*
X34449Y285433D01*
X14764Y305118D02*
X34449Y324803D01*
X314961D01*
Y364173D01*
X34449D02*
X314961D01*
X14764Y383858D02*
X34449Y364173D01*
X14764Y383858D02*
X36417Y405512D01*
X393701D01*
Y285433D02*
Y405512D01*
X393667Y285399D02*
X393701Y285433D01*
X296730Y285399D02*
X393667D01*
X296730Y277593D02*
X393667D01*
X393701Y277559D01*
X570866D01*
X570866Y277559D01*
Y0D02*
Y277559D01*
X78740Y0D02*
X570866D01*
X-0Y78740D02*
X78740Y0D01*
X-0Y78740D02*
Y277559D01*
X946959Y373504D02*
Y379502D01*
X949958D01*
X950958Y378502D01*
Y376503D01*
X949958Y375503D01*
X946959D01*
X948958D02*
X950958Y373504D01*
X953957D02*
X955956D01*
X956956Y374504D01*
Y376503D01*
X955956Y377503D01*
X953957D01*
X952957Y376503D01*
Y374504D01*
X953957Y373504D01*
X958955Y377503D02*
Y374504D01*
X959955Y373504D01*
X962954D01*
Y377503D01*
X964953Y373504D02*
Y377503D01*
X967952D01*
X968952Y376503D01*
Y373504D01*
X974950Y379502D02*
Y373504D01*
X971951D01*
X970951Y374504D01*
Y376503D01*
X971951Y377503D01*
X974950D01*
X946959Y358504D02*
Y364502D01*
X949958D01*
X950958Y363502D01*
Y361503D01*
X949958Y360503D01*
X946959D01*
X948958D02*
X950958Y358504D01*
X953957D02*
X955956D01*
X956956Y359504D01*
Y361503D01*
X955956Y362503D01*
X953957D01*
X952957Y361503D01*
Y359504D01*
X953957Y358504D01*
X958955Y362503D02*
Y359504D01*
X959955Y358504D01*
X962954D01*
Y362503D01*
X964953Y358504D02*
Y362503D01*
X967952D01*
X968952Y361503D01*
Y358504D01*
X974950Y364502D02*
Y358504D01*
X971951D01*
X970951Y359504D01*
Y361503D01*
X971951Y362503D01*
X974950D01*
X946959Y343504D02*
Y349502D01*
X949958D01*
X950958Y348502D01*
Y346503D01*
X949958Y345503D01*
X946959D01*
X948958D02*
X950958Y343504D01*
X953957D02*
X955956D01*
X956956Y344504D01*
Y346503D01*
X955956Y347503D01*
X953957D01*
X952957Y346503D01*
Y344504D01*
X953957Y343504D01*
X958955Y347503D02*
Y344504D01*
X959955Y343504D01*
X962954D01*
Y347503D01*
X964953Y343504D02*
Y347503D01*
X967952D01*
X968952Y346503D01*
Y343504D01*
X974950Y349502D02*
Y343504D01*
X971951D01*
X970951Y344504D01*
Y346503D01*
X971951Y347503D01*
X974950D01*
X946959Y328504D02*
Y334502D01*
X949958D01*
X950958Y333502D01*
Y331503D01*
X949958Y330503D01*
X946959D01*
X948958D02*
X950958Y328504D01*
X953957D02*
X955956D01*
X956956Y329504D01*
Y331503D01*
X955956Y332503D01*
X953957D01*
X952957Y331503D01*
Y329504D01*
X953957Y328504D01*
X958955Y332503D02*
Y329504D01*
X959955Y328504D01*
X962954D01*
Y332503D01*
X964953Y328504D02*
Y332503D01*
X967952D01*
X968952Y331503D01*
Y328504D01*
X974950Y334502D02*
Y328504D01*
X971951D01*
X970951Y329504D01*
Y331503D01*
X971951Y332503D01*
X974950D01*
X946959Y313504D02*
Y319502D01*
X949958D01*
X950958Y318502D01*
Y316503D01*
X949958Y315503D01*
X946959D01*
X948958D02*
X950958Y313504D01*
X953957D02*
X955956D01*
X956956Y314504D01*
Y316503D01*
X955956Y317503D01*
X953957D01*
X952957Y316503D01*
Y314504D01*
X953957Y313504D01*
X958955Y317503D02*
Y314504D01*
X959955Y313504D01*
X962954D01*
Y317503D01*
X964953Y313504D02*
Y317503D01*
X967952D01*
X968952Y316503D01*
Y313504D01*
X974950Y319502D02*
Y313504D01*
X971951D01*
X970951Y314504D01*
Y316503D01*
X971951Y317503D01*
X974950D01*
X946959Y298504D02*
Y304502D01*
X949958D01*
X950958Y303502D01*
Y301503D01*
X949958Y300503D01*
X946959D01*
X948958D02*
X950958Y298504D01*
X953957D02*
X955956D01*
X956956Y299504D01*
Y301503D01*
X955956Y302503D01*
X953957D01*
X952957Y301503D01*
Y299504D01*
X953957Y298504D01*
X958955Y302503D02*
Y299504D01*
X959955Y298504D01*
X962954D01*
Y302503D01*
X964953Y298504D02*
Y302503D01*
X967952D01*
X968952Y301503D01*
Y298504D01*
X974950Y304502D02*
Y298504D01*
X971951D01*
X970951Y299504D01*
Y301503D01*
X971951Y302503D01*
X974950D01*
X946959Y283504D02*
Y289502D01*
X949958D01*
X950958Y288502D01*
Y286503D01*
X949958Y285503D01*
X946959D01*
X948958D02*
X950958Y283504D01*
X953957D02*
X955956D01*
X956956Y284504D01*
Y286503D01*
X955956Y287503D01*
X953957D01*
X952957Y286503D01*
Y284504D01*
X953957Y283504D01*
X958955Y287503D02*
Y284504D01*
X959955Y283504D01*
X962954D01*
Y287503D01*
X964953Y283504D02*
Y287503D01*
X967952D01*
X968952Y286503D01*
Y283504D01*
X974950Y289502D02*
Y283504D01*
X971951D01*
X970951Y284504D01*
Y286503D01*
X971951Y287503D01*
X974950D01*
X946959Y268504D02*
Y274502D01*
X949958D01*
X950958Y273502D01*
Y271503D01*
X949958Y270503D01*
X946959D01*
X948958D02*
X950958Y268504D01*
X953957D02*
X955956D01*
X956956Y269504D01*
Y271503D01*
X955956Y272503D01*
X953957D01*
X952957Y271503D01*
Y269504D01*
X953957Y268504D01*
X958955Y272503D02*
Y269504D01*
X959955Y268504D01*
X962954D01*
Y272503D01*
X964953Y268504D02*
Y272503D01*
X967952D01*
X968952Y271503D01*
Y268504D01*
X974950Y274502D02*
Y268504D01*
X971951D01*
X970951Y269504D01*
Y271503D01*
X971951Y272503D01*
X974950D01*
X946959Y253504D02*
Y259502D01*
X949958D01*
X950958Y258502D01*
Y256503D01*
X949958Y255503D01*
X946959D01*
X948958D02*
X950958Y253504D01*
X953957D02*
X955956D01*
X956956Y254504D01*
Y256503D01*
X955956Y257503D01*
X953957D01*
X952957Y256503D01*
Y254504D01*
X953957Y253504D01*
X958955Y257503D02*
Y254504D01*
X959955Y253504D01*
X962954D01*
Y257503D01*
X964953Y253504D02*
Y257503D01*
X967952D01*
X968952Y256503D01*
Y253504D01*
X974950Y259502D02*
Y253504D01*
X971951D01*
X970951Y254504D01*
Y256503D01*
X971951Y257503D01*
X974950D01*
X946959Y238504D02*
Y244502D01*
X949958D01*
X950958Y243502D01*
Y241503D01*
X949958Y240503D01*
X946959D01*
X948958D02*
X950958Y238504D01*
X953957D02*
X955956D01*
X956956Y239504D01*
Y241503D01*
X955956Y242503D01*
X953957D01*
X952957Y241503D01*
Y239504D01*
X953957Y238504D01*
X958955Y242503D02*
Y239504D01*
X959955Y238504D01*
X962954D01*
Y242503D01*
X964953Y238504D02*
Y242503D01*
X967952D01*
X968952Y241503D01*
Y238504D01*
X974950Y244502D02*
Y238504D01*
X971951D01*
X970951Y239504D01*
Y241503D01*
X971951Y242503D01*
X974950D01*
X896371Y373504D02*
Y379502D01*
X899370D01*
X900370Y378502D01*
Y376503D01*
X899370Y375503D01*
X896371D01*
X902369Y379502D02*
X906368D01*
X904369D01*
Y373504D01*
X908368Y379502D02*
Y373504D01*
Y376503D01*
X912366D01*
Y379502D01*
Y373504D01*
X896371Y358504D02*
Y364502D01*
X899370D01*
X900370Y363502D01*
Y361503D01*
X899370Y360503D01*
X896371D01*
X902369Y364502D02*
X906368D01*
X904369D01*
Y358504D01*
X908368Y364502D02*
Y358504D01*
Y361503D01*
X912366D01*
Y364502D01*
Y358504D01*
X896371Y343504D02*
Y349502D01*
X899370D01*
X900370Y348502D01*
Y346503D01*
X899370Y345503D01*
X896371D01*
X902369Y349502D02*
X906368D01*
X904369D01*
Y343504D01*
X908368Y349502D02*
Y343504D01*
Y346503D01*
X912366D01*
Y349502D01*
Y343504D01*
X896371Y328504D02*
Y334502D01*
X900370Y328504D01*
Y334502D01*
X902369Y328504D02*
Y334502D01*
X905369D01*
X906368Y333502D01*
Y331503D01*
X905369Y330503D01*
X902369D01*
X908368Y334502D02*
X912366D01*
X910367D01*
Y328504D01*
X914366Y334502D02*
Y328504D01*
Y331503D01*
X918364D01*
Y334502D01*
Y328504D01*
X896371Y313504D02*
Y319502D01*
X900370Y313504D01*
Y319502D01*
X902369Y313504D02*
Y319502D01*
X905369D01*
X906368Y318502D01*
Y316503D01*
X905369Y315503D01*
X902369D01*
X908368Y319502D02*
X912366D01*
X910367D01*
Y313504D01*
X914366Y319502D02*
Y313504D01*
Y316503D01*
X918364D01*
Y319502D01*
Y313504D01*
X896371Y298504D02*
Y304502D01*
X899370D01*
X900370Y303502D01*
Y301503D01*
X899370Y300503D01*
X896371D01*
X902369Y304502D02*
X906368D01*
X904369D01*
Y298504D01*
X908368Y304502D02*
Y298504D01*
Y301503D01*
X912366D01*
Y304502D01*
Y298504D01*
X896371Y283504D02*
Y289502D01*
X899370D01*
X900370Y288502D01*
Y286503D01*
X899370Y285503D01*
X896371D01*
X902369Y289502D02*
X906368D01*
X904369D01*
Y283504D01*
X908368Y289502D02*
Y283504D01*
Y286503D01*
X912366D01*
Y289502D01*
Y283504D01*
X896371Y268504D02*
Y274502D01*
X899370D01*
X900370Y273502D01*
Y271503D01*
X899370Y270503D01*
X896371D01*
X902369Y274502D02*
X906368D01*
X904369D01*
Y268504D01*
X908368Y274502D02*
Y268504D01*
Y271503D01*
X912366D01*
Y274502D01*
Y268504D01*
X896371Y253504D02*
Y259502D01*
X899370D01*
X900370Y258502D01*
Y256503D01*
X899370Y255503D01*
X896371D01*
X902369Y259502D02*
X906368D01*
X904369D01*
Y253504D01*
X908368Y259502D02*
Y253504D01*
Y256503D01*
X912366D01*
Y259502D01*
Y253504D01*
X896371Y238504D02*
Y244502D01*
X899370D01*
X900370Y243502D01*
Y241503D01*
X899370Y240503D01*
X896371D01*
X902369Y244502D02*
X906368D01*
X904369D01*
Y238504D01*
X908368Y244502D02*
Y238504D01*
Y241503D01*
X912366D01*
Y244502D01*
Y238504D01*
X761811Y378502D02*
X762811Y379502D01*
X764810D01*
X765810Y378502D01*
Y374504D01*
X764810Y373504D01*
X762811D01*
X761811Y374504D01*
Y378502D01*
X767809Y373504D02*
Y374504D01*
X768809D01*
Y373504D01*
X767809D01*
X772808Y379502D02*
X776806D01*
Y378502D01*
X772808Y374504D01*
Y373504D01*
X778805Y378502D02*
X779805Y379502D01*
X781805D01*
X782804Y378502D01*
Y374504D01*
X781805Y373504D01*
X779805D01*
X778805Y374504D01*
Y378502D01*
X784804D02*
X785803Y379502D01*
X787803D01*
X788802Y378502D01*
Y374504D01*
X787803Y373504D01*
X785803D01*
X784804Y374504D01*
Y378502D01*
X790802Y373504D02*
Y377503D01*
X791801D01*
X792801Y376503D01*
Y373504D01*
Y376503D01*
X793801Y377503D01*
X794800Y376503D01*
Y373504D01*
X796800D02*
Y377503D01*
X797799D01*
X798799Y376503D01*
Y373504D01*
Y376503D01*
X799799Y377503D01*
X800798Y376503D01*
Y373504D01*
X810795D02*
X808796Y375503D01*
Y377503D01*
X810795Y379502D01*
X817793Y373504D02*
X813794D01*
X817793Y377503D01*
Y378502D01*
X816793Y379502D01*
X814794D01*
X813794Y378502D01*
X819792Y379502D02*
X823791D01*
Y378502D01*
X819792Y374504D01*
Y373504D01*
X825790D02*
Y374504D01*
X826790D01*
Y373504D01*
X825790D01*
X834787Y379502D02*
X830789D01*
Y376503D01*
X832788Y377503D01*
X833788D01*
X834787Y376503D01*
Y374504D01*
X833788Y373504D01*
X831788D01*
X830789Y374504D01*
X840786Y379502D02*
X838786Y378502D01*
X836787Y376503D01*
Y374504D01*
X837786Y373504D01*
X839786D01*
X840786Y374504D01*
Y375503D01*
X839786Y376503D01*
X836787D01*
X842785Y373504D02*
Y377503D01*
X843785D01*
X844784Y376503D01*
Y373504D01*
Y376503D01*
X845784Y377503D01*
X846784Y376503D01*
Y373504D01*
X848783D02*
X850782D01*
X849783D01*
Y377503D01*
X848783D01*
X853781Y373504D02*
X855781D01*
X854781D01*
Y379502D01*
X853781D01*
X858780Y373504D02*
X860779Y375503D01*
Y377503D01*
X858780Y379502D01*
X761811Y358504D02*
X763810D01*
X762811D01*
Y364502D01*
X761811Y363502D01*
X766809Y358504D02*
Y359504D01*
X767809D01*
Y358504D01*
X766809D01*
X774807D02*
Y364502D01*
X771808Y361503D01*
X775807D01*
X777806Y363502D02*
X778805Y364502D01*
X780805D01*
X781805Y363502D01*
Y359504D01*
X780805Y358504D01*
X778805D01*
X777806Y359504D01*
Y363502D01*
X783804D02*
X784804Y364502D01*
X786803D01*
X787803Y363502D01*
Y359504D01*
X786803Y358504D01*
X784804D01*
X783804Y359504D01*
Y363502D01*
X789802Y358504D02*
Y362503D01*
X790802D01*
X791801Y361503D01*
Y358504D01*
Y361503D01*
X792801Y362503D01*
X793801Y361503D01*
Y358504D01*
X795800D02*
Y362503D01*
X796800D01*
X797799Y361503D01*
Y358504D01*
Y361503D01*
X798799Y362503D01*
X799799Y361503D01*
Y358504D01*
X809795D02*
X807796Y360503D01*
Y362503D01*
X809795Y364502D01*
X816793D02*
X812794D01*
Y361503D01*
X814794Y362503D01*
X815794D01*
X816793Y361503D01*
Y359504D01*
X815794Y358504D01*
X813794D01*
X812794Y359504D01*
X822791Y364502D02*
X818793D01*
Y361503D01*
X820792Y362503D01*
X821792D01*
X822791Y361503D01*
Y359504D01*
X821792Y358504D01*
X819792D01*
X818793Y359504D01*
X824791Y358504D02*
Y359504D01*
X825790D01*
Y358504D01*
X824791D01*
X829789D02*
X831788D01*
X830789D01*
Y364502D01*
X829789Y363502D01*
X838786Y358504D02*
X834787D01*
X838786Y362503D01*
Y363502D01*
X837786Y364502D01*
X835787D01*
X834787Y363502D01*
X840786Y358504D02*
Y362503D01*
X841785D01*
X842785Y361503D01*
Y358504D01*
Y361503D01*
X843785Y362503D01*
X844784Y361503D01*
Y358504D01*
X846784D02*
X848783D01*
X847783D01*
Y362503D01*
X846784D01*
X851782Y358504D02*
X853781D01*
X852782D01*
Y364502D01*
X851782D01*
X856780Y358504D02*
X858780Y360503D01*
Y362503D01*
X856780Y364502D01*
X761811Y348502D02*
X762811Y349502D01*
X764810D01*
X765810Y348502D01*
Y344504D01*
X764810Y343504D01*
X762811D01*
X761811Y344504D01*
Y348502D01*
X767809Y343504D02*
Y344504D01*
X768809D01*
Y343504D01*
X767809D01*
X776806Y349502D02*
X772808D01*
Y346503D01*
X774807Y347503D01*
X775807D01*
X776806Y346503D01*
Y344504D01*
X775807Y343504D01*
X773807D01*
X772808Y344504D01*
X778805Y348502D02*
X779805Y349502D01*
X781805D01*
X782804Y348502D01*
Y344504D01*
X781805Y343504D01*
X779805D01*
X778805Y344504D01*
Y348502D01*
X784804D02*
X785803Y349502D01*
X787803D01*
X788802Y348502D01*
Y344504D01*
X787803Y343504D01*
X785803D01*
X784804Y344504D01*
Y348502D01*
X790802Y343504D02*
Y347503D01*
X791801D01*
X792801Y346503D01*
Y343504D01*
Y346503D01*
X793801Y347503D01*
X794800Y346503D01*
Y343504D01*
X796800D02*
Y347503D01*
X797799D01*
X798799Y346503D01*
Y343504D01*
Y346503D01*
X799799Y347503D01*
X800798Y346503D01*
Y343504D01*
X810795D02*
X808796Y345503D01*
Y347503D01*
X810795Y349502D01*
X813794Y343504D02*
X815794D01*
X814794D01*
Y349502D01*
X813794Y348502D01*
X818793Y344504D02*
X819792Y343504D01*
X821792D01*
X822791Y344504D01*
Y348502D01*
X821792Y349502D01*
X819792D01*
X818793Y348502D01*
Y347503D01*
X819792Y346503D01*
X822791D01*
X824791Y343504D02*
Y344504D01*
X825790D01*
Y343504D01*
X824791D01*
X833788Y349502D02*
X831788Y348502D01*
X829789Y346503D01*
Y344504D01*
X830789Y343504D01*
X832788D01*
X833788Y344504D01*
Y345503D01*
X832788Y346503D01*
X829789D01*
X835787Y344504D02*
X836787Y343504D01*
X838786D01*
X839786Y344504D01*
Y348502D01*
X838786Y349502D01*
X836787D01*
X835787Y348502D01*
Y347503D01*
X836787Y346503D01*
X839786D01*
X841785Y343504D02*
Y347503D01*
X842785D01*
X843785Y346503D01*
Y343504D01*
Y346503D01*
X844784Y347503D01*
X845784Y346503D01*
Y343504D01*
X847783D02*
X849783D01*
X848783D01*
Y347503D01*
X847783D01*
X852782Y343504D02*
X854781D01*
X853781D01*
Y349502D01*
X852782D01*
X857780Y343504D02*
X859779Y345503D01*
Y347503D01*
X857780Y349502D01*
X765810Y328504D02*
X761811D01*
X765810Y332503D01*
Y333502D01*
X764810Y334502D01*
X762811D01*
X761811Y333502D01*
X767809Y328504D02*
Y329504D01*
X768809D01*
Y328504D01*
X767809D01*
X776806Y334502D02*
X772808D01*
Y331503D01*
X774807Y332503D01*
X775807D01*
X776806Y331503D01*
Y329504D01*
X775807Y328504D01*
X773807D01*
X772808Y329504D01*
X778805Y333502D02*
X779805Y334502D01*
X781805D01*
X782804Y333502D01*
Y329504D01*
X781805Y328504D01*
X779805D01*
X778805Y329504D01*
Y333502D01*
X784804D02*
X785803Y334502D01*
X787803D01*
X788802Y333502D01*
Y329504D01*
X787803Y328504D01*
X785803D01*
X784804Y329504D01*
Y333502D01*
X790802Y328504D02*
Y332503D01*
X791801D01*
X792801Y331503D01*
Y328504D01*
Y331503D01*
X793801Y332503D01*
X794800Y331503D01*
Y328504D01*
X796800D02*
Y332503D01*
X797799D01*
X798799Y331503D01*
Y328504D01*
Y331503D01*
X799799Y332503D01*
X800798Y331503D01*
Y328504D01*
X810795D02*
X808796Y330503D01*
Y332503D01*
X810795Y334502D01*
X813794Y329504D02*
X814794Y328504D01*
X816793D01*
X817793Y329504D01*
Y333502D01*
X816793Y334502D01*
X814794D01*
X813794Y333502D01*
Y332503D01*
X814794Y331503D01*
X817793D01*
X819792Y333502D02*
X820792Y334502D01*
X822791D01*
X823791Y333502D01*
Y332503D01*
X822791Y331503D01*
X823791Y330503D01*
Y329504D01*
X822791Y328504D01*
X820792D01*
X819792Y329504D01*
Y330503D01*
X820792Y331503D01*
X819792Y332503D01*
Y333502D01*
X820792Y331503D02*
X822791D01*
X825790Y328504D02*
Y329504D01*
X826790D01*
Y328504D01*
X825790D01*
X833788D02*
Y334502D01*
X830789Y331503D01*
X834787D01*
X836787Y333502D02*
X837786Y334502D01*
X839786D01*
X840786Y333502D01*
Y332503D01*
X839786Y331503D01*
X838786D01*
X839786D01*
X840786Y330503D01*
Y329504D01*
X839786Y328504D01*
X837786D01*
X836787Y329504D01*
X842785Y328504D02*
Y332503D01*
X843785D01*
X844784Y331503D01*
Y328504D01*
Y331503D01*
X845784Y332503D01*
X846784Y331503D01*
Y328504D01*
X848783D02*
X850782D01*
X849783D01*
Y332503D01*
X848783D01*
X853781Y328504D02*
X855781D01*
X854781D01*
Y334502D01*
X853781D01*
X858780Y328504D02*
X860779Y330503D01*
Y332503D01*
X858780Y334502D01*
X761811Y318502D02*
X762811Y319502D01*
X764810D01*
X765810Y318502D01*
Y314504D01*
X764810Y313504D01*
X762811D01*
X761811Y314504D01*
Y318502D01*
X767809Y313504D02*
Y314504D01*
X768809D01*
Y313504D01*
X767809D01*
X776806Y319502D02*
X772808D01*
Y316503D01*
X774807Y317503D01*
X775807D01*
X776806Y316503D01*
Y314504D01*
X775807Y313504D01*
X773807D01*
X772808Y314504D01*
X778805Y318502D02*
X779805Y319502D01*
X781805D01*
X782804Y318502D01*
Y314504D01*
X781805Y313504D01*
X779805D01*
X778805Y314504D01*
Y318502D01*
X784804D02*
X785803Y319502D01*
X787803D01*
X788802Y318502D01*
Y314504D01*
X787803Y313504D01*
X785803D01*
X784804Y314504D01*
Y318502D01*
X790802Y313504D02*
Y317503D01*
X791801D01*
X792801Y316503D01*
Y313504D01*
Y316503D01*
X793801Y317503D01*
X794800Y316503D01*
Y313504D01*
X796800D02*
Y317503D01*
X797799D01*
X798799Y316503D01*
Y313504D01*
Y316503D01*
X799799Y317503D01*
X800798Y316503D01*
Y313504D01*
X810795D02*
X808796Y315503D01*
Y317503D01*
X810795Y319502D01*
X813794Y313504D02*
X815794D01*
X814794D01*
Y319502D01*
X813794Y318502D01*
X818793Y314504D02*
X819792Y313504D01*
X821792D01*
X822791Y314504D01*
Y318502D01*
X821792Y319502D01*
X819792D01*
X818793Y318502D01*
Y317503D01*
X819792Y316503D01*
X822791D01*
X824791Y313504D02*
Y314504D01*
X825790D01*
Y313504D01*
X824791D01*
X833788Y319502D02*
X831788Y318502D01*
X829789Y316503D01*
Y314504D01*
X830789Y313504D01*
X832788D01*
X833788Y314504D01*
Y315503D01*
X832788Y316503D01*
X829789D01*
X835787Y314504D02*
X836787Y313504D01*
X838786D01*
X839786Y314504D01*
Y318502D01*
X838786Y319502D01*
X836787D01*
X835787Y318502D01*
Y317503D01*
X836787Y316503D01*
X839786D01*
X841785Y313504D02*
Y317503D01*
X842785D01*
X843785Y316503D01*
Y313504D01*
Y316503D01*
X844784Y317503D01*
X845784Y316503D01*
Y313504D01*
X847783D02*
X849783D01*
X848783D01*
Y317503D01*
X847783D01*
X852782Y313504D02*
X854781D01*
X853781D01*
Y319502D01*
X852782D01*
X857780Y313504D02*
X859779Y315503D01*
Y317503D01*
X857780Y319502D01*
X761811Y298504D02*
X763810D01*
X762811D01*
Y304502D01*
X761811Y303502D01*
X766809Y298504D02*
Y299504D01*
X767809D01*
Y298504D01*
X766809D01*
X771808D02*
X773807D01*
X772808D01*
Y304502D01*
X771808Y303502D01*
X776806D02*
X777806Y304502D01*
X779805D01*
X780805Y303502D01*
Y299504D01*
X779805Y298504D01*
X777806D01*
X776806Y299504D01*
Y303502D01*
X782804D02*
X783804Y304502D01*
X785803D01*
X786803Y303502D01*
Y299504D01*
X785803Y298504D01*
X783804D01*
X782804Y299504D01*
Y303502D01*
X788802Y298504D02*
Y302503D01*
X789802D01*
X790802Y301503D01*
Y298504D01*
Y301503D01*
X791801Y302503D01*
X792801Y301503D01*
Y298504D01*
X794800D02*
Y302503D01*
X795800D01*
X796800Y301503D01*
Y298504D01*
Y301503D01*
X797799Y302503D01*
X798799Y301503D01*
Y298504D01*
X808796D02*
X806796Y300503D01*
Y302503D01*
X808796Y304502D01*
X814794Y298504D02*
Y304502D01*
X811795Y301503D01*
X815794D01*
X817793Y303502D02*
X818793Y304502D01*
X820792D01*
X821792Y303502D01*
Y302503D01*
X820792Y301503D01*
X819792D01*
X820792D01*
X821792Y300503D01*
Y299504D01*
X820792Y298504D01*
X818793D01*
X817793Y299504D01*
X823791Y298504D02*
Y299504D01*
X824791D01*
Y298504D01*
X823791D01*
X828789Y303502D02*
X829789Y304502D01*
X831788D01*
X832788Y303502D01*
Y302503D01*
X831788Y301503D01*
X830789D01*
X831788D01*
X832788Y300503D01*
Y299504D01*
X831788Y298504D01*
X829789D01*
X828789Y299504D01*
X834787Y298504D02*
X836787D01*
X835787D01*
Y304502D01*
X834787Y303502D01*
X839786Y298504D02*
Y302503D01*
X840786D01*
X841785Y301503D01*
Y298504D01*
Y301503D01*
X842785Y302503D01*
X843785Y301503D01*
Y298504D01*
X845784D02*
X847783D01*
X846784D01*
Y302503D01*
X845784D01*
X850782Y298504D02*
X852782D01*
X851782D01*
Y304502D01*
X850782D01*
X855781Y298504D02*
X857780Y300503D01*
Y302503D01*
X855781Y304502D01*
X761811Y288502D02*
X762811Y289502D01*
X764810D01*
X765810Y288502D01*
Y284504D01*
X764810Y283504D01*
X762811D01*
X761811Y284504D01*
Y288502D01*
X767809Y283504D02*
Y284504D01*
X768809D01*
Y283504D01*
X767809D01*
X775807D02*
Y289502D01*
X772808Y286503D01*
X776806D01*
X778805Y288502D02*
X779805Y289502D01*
X781805D01*
X782804Y288502D01*
Y284504D01*
X781805Y283504D01*
X779805D01*
X778805Y284504D01*
Y288502D01*
X784804D02*
X785803Y289502D01*
X787803D01*
X788802Y288502D01*
Y284504D01*
X787803Y283504D01*
X785803D01*
X784804Y284504D01*
Y288502D01*
X790802Y283504D02*
Y287503D01*
X791801D01*
X792801Y286503D01*
Y283504D01*
Y286503D01*
X793801Y287503D01*
X794800Y286503D01*
Y283504D01*
X796800D02*
Y287503D01*
X797799D01*
X798799Y286503D01*
Y283504D01*
Y286503D01*
X799799Y287503D01*
X800798Y286503D01*
Y283504D01*
X810795D02*
X808796Y285503D01*
Y287503D01*
X810795Y289502D01*
X813794Y283504D02*
X815794D01*
X814794D01*
Y289502D01*
X813794Y288502D01*
X822791Y289502D02*
X818793D01*
Y286503D01*
X820792Y287503D01*
X821792D01*
X822791Y286503D01*
Y284504D01*
X821792Y283504D01*
X819792D01*
X818793Y284504D01*
X824791Y283504D02*
Y284504D01*
X825790D01*
Y283504D01*
X824791D01*
X829789Y289502D02*
X833788D01*
Y288502D01*
X829789Y284504D01*
Y283504D01*
X839786Y289502D02*
X835787D01*
Y286503D01*
X837786Y287503D01*
X838786D01*
X839786Y286503D01*
Y284504D01*
X838786Y283504D01*
X836787D01*
X835787Y284504D01*
X841785Y283504D02*
Y287503D01*
X842785D01*
X843785Y286503D01*
Y283504D01*
Y286503D01*
X844784Y287503D01*
X845784Y286503D01*
Y283504D01*
X847783D02*
X849783D01*
X848783D01*
Y287503D01*
X847783D01*
X852782Y283504D02*
X854781D01*
X853781D01*
Y289502D01*
X852782D01*
X857780Y283504D02*
X859779Y285503D01*
Y287503D01*
X857780Y289502D01*
X761811Y268504D02*
X763810D01*
X762811D01*
Y274502D01*
X761811Y273502D01*
X766809Y268504D02*
Y269504D01*
X767809D01*
Y268504D01*
X766809D01*
X771808Y273502D02*
X772808Y274502D01*
X774807D01*
X775807Y273502D01*
Y269504D01*
X774807Y268504D01*
X772808D01*
X771808Y269504D01*
Y273502D01*
X777806D02*
X778805Y274502D01*
X780805D01*
X781805Y273502D01*
Y269504D01*
X780805Y268504D01*
X778805D01*
X777806Y269504D01*
Y273502D01*
X783804D02*
X784804Y274502D01*
X786803D01*
X787803Y273502D01*
Y269504D01*
X786803Y268504D01*
X784804D01*
X783804Y269504D01*
Y273502D01*
X789802Y268504D02*
Y272503D01*
X790802D01*
X791801Y271503D01*
Y268504D01*
Y271503D01*
X792801Y272503D01*
X793801Y271503D01*
Y268504D01*
X795800D02*
Y272503D01*
X796800D01*
X797799Y271503D01*
Y268504D01*
Y271503D01*
X798799Y272503D01*
X799799Y271503D01*
Y268504D01*
X809795D02*
X807796Y270503D01*
Y272503D01*
X809795Y274502D01*
X812794Y273502D02*
X813794Y274502D01*
X815794D01*
X816793Y273502D01*
Y272503D01*
X815794Y271503D01*
X814794D01*
X815794D01*
X816793Y270503D01*
Y269504D01*
X815794Y268504D01*
X813794D01*
X812794Y269504D01*
X818793D02*
X819792Y268504D01*
X821792D01*
X822791Y269504D01*
Y273502D01*
X821792Y274502D01*
X819792D01*
X818793Y273502D01*
Y272503D01*
X819792Y271503D01*
X822791D01*
X824791Y268504D02*
Y269504D01*
X825790D01*
Y268504D01*
X824791D01*
X829789Y273502D02*
X830789Y274502D01*
X832788D01*
X833788Y273502D01*
Y272503D01*
X832788Y271503D01*
X831788D01*
X832788D01*
X833788Y270503D01*
Y269504D01*
X832788Y268504D01*
X830789D01*
X829789Y269504D01*
X835787Y274502D02*
X839786D01*
Y273502D01*
X835787Y269504D01*
Y268504D01*
X841785D02*
Y272503D01*
X842785D01*
X843785Y271503D01*
Y268504D01*
Y271503D01*
X844784Y272503D01*
X845784Y271503D01*
Y268504D01*
X847783D02*
X849783D01*
X848783D01*
Y272503D01*
X847783D01*
X852782Y268504D02*
X854781D01*
X853781D01*
Y274502D01*
X852782D01*
X857780Y268504D02*
X859779Y270503D01*
Y272503D01*
X857780Y274502D01*
X761811Y258502D02*
X762811Y259502D01*
X764810D01*
X765810Y258502D01*
Y254504D01*
X764810Y253504D01*
X762811D01*
X761811Y254504D01*
Y258502D01*
X767809Y253504D02*
Y254504D01*
X768809D01*
Y253504D01*
X767809D01*
X772808Y254504D02*
X773807Y253504D01*
X775807D01*
X776806Y254504D01*
Y258502D01*
X775807Y259502D01*
X773807D01*
X772808Y258502D01*
Y257503D01*
X773807Y256503D01*
X776806D01*
X778805Y258502D02*
X779805Y259502D01*
X781805D01*
X782804Y258502D01*
Y254504D01*
X781805Y253504D01*
X779805D01*
X778805Y254504D01*
Y258502D01*
X784804D02*
X785803Y259502D01*
X787803D01*
X788802Y258502D01*
Y254504D01*
X787803Y253504D01*
X785803D01*
X784804Y254504D01*
Y258502D01*
X790802Y253504D02*
Y257503D01*
X791801D01*
X792801Y256503D01*
Y253504D01*
Y256503D01*
X793801Y257503D01*
X794800Y256503D01*
Y253504D01*
X796800D02*
Y257503D01*
X797799D01*
X798799Y256503D01*
Y253504D01*
Y256503D01*
X799799Y257503D01*
X800798Y256503D01*
Y253504D01*
X810795D02*
X808796Y255503D01*
Y257503D01*
X810795Y259502D01*
X813794Y258502D02*
X814794Y259502D01*
X816793D01*
X817793Y258502D01*
Y257503D01*
X816793Y256503D01*
X815794D01*
X816793D01*
X817793Y255503D01*
Y254504D01*
X816793Y253504D01*
X814794D01*
X813794Y254504D01*
X823791Y259502D02*
X819792D01*
Y256503D01*
X821792Y257503D01*
X822791D01*
X823791Y256503D01*
Y254504D01*
X822791Y253504D01*
X820792D01*
X819792Y254504D01*
X825790Y253504D02*
Y254504D01*
X826790D01*
Y253504D01*
X825790D01*
X833788D02*
Y259502D01*
X830789Y256503D01*
X834787D01*
X836787Y258502D02*
X837786Y259502D01*
X839786D01*
X840786Y258502D01*
Y257503D01*
X839786Y256503D01*
X838786D01*
X839786D01*
X840786Y255503D01*
Y254504D01*
X839786Y253504D01*
X837786D01*
X836787Y254504D01*
X842785Y253504D02*
Y257503D01*
X843785D01*
X844784Y256503D01*
Y253504D01*
Y256503D01*
X845784Y257503D01*
X846784Y256503D01*
Y253504D01*
X848783D02*
X850782D01*
X849783D01*
Y257503D01*
X848783D01*
X853781Y253504D02*
X855781D01*
X854781D01*
Y259502D01*
X853781D01*
X858780Y253504D02*
X860779Y255503D01*
Y257503D01*
X858780Y259502D01*
X761811Y243502D02*
X762811Y244502D01*
X764810D01*
X765810Y243502D01*
Y239504D01*
X764810Y238504D01*
X762811D01*
X761811Y239504D01*
Y243502D01*
X767809Y238504D02*
Y239504D01*
X768809D01*
Y238504D01*
X767809D01*
X772808Y244502D02*
X776806D01*
Y243502D01*
X772808Y239504D01*
Y238504D01*
X778805D02*
X780805D01*
X779805D01*
Y244502D01*
X778805Y243502D01*
X783804Y238504D02*
X785803D01*
X784804D01*
Y244502D01*
X783804Y243502D01*
X788802Y238504D02*
Y242503D01*
X789802D01*
X790802Y241503D01*
Y238504D01*
Y241503D01*
X791801Y242503D01*
X792801Y241503D01*
Y238504D01*
X794800D02*
Y242503D01*
X795800D01*
X796800Y241503D01*
Y238504D01*
Y241503D01*
X797799Y242503D01*
X798799Y241503D01*
Y238504D01*
X808796D02*
X806796Y240503D01*
Y242503D01*
X808796Y244502D01*
X815794Y238504D02*
X811795D01*
X815794Y242503D01*
Y243502D01*
X814794Y244502D01*
X812794D01*
X811795Y243502D01*
X817793D02*
X818793Y244502D01*
X820792D01*
X821792Y243502D01*
Y242503D01*
X820792Y241503D01*
X821792Y240503D01*
Y239504D01*
X820792Y238504D01*
X818793D01*
X817793Y239504D01*
Y240503D01*
X818793Y241503D01*
X817793Y242503D01*
Y243502D01*
X818793Y241503D02*
X820792D01*
X823791Y238504D02*
Y239504D01*
X824791D01*
Y238504D01*
X823791D01*
X828789Y243502D02*
X829789Y244502D01*
X831788D01*
X832788Y243502D01*
Y239504D01*
X831788Y238504D01*
X829789D01*
X828789Y239504D01*
Y243502D01*
X834787D02*
X835787Y244502D01*
X837786D01*
X838786Y243502D01*
Y239504D01*
X837786Y238504D01*
X835787D01*
X834787Y239504D01*
Y243502D01*
X840786Y238504D02*
Y242503D01*
X841785D01*
X842785Y241503D01*
Y238504D01*
Y241503D01*
X843785Y242503D01*
X844784Y241503D01*
Y238504D01*
X846784D02*
X848783D01*
X847783D01*
Y242503D01*
X846784D01*
X851782Y238504D02*
X853781D01*
X852782D01*
Y244502D01*
X851782D01*
X856780Y238504D02*
X858780Y240503D01*
Y242503D01*
X856780Y244502D01*
X696028Y223504D02*
X692030D01*
X696028Y227503D01*
Y228502D01*
X695029Y229502D01*
X693029D01*
X692030Y228502D01*
X698028D02*
X699027Y229502D01*
X701027D01*
X702026Y228502D01*
Y224504D01*
X701027Y223504D01*
X699027D01*
X698028Y224504D01*
Y228502D01*
X708025Y229502D02*
X706025Y228502D01*
X704026Y226503D01*
Y224504D01*
X705025Y223504D01*
X707025D01*
X708025Y224504D01*
Y225503D01*
X707025Y226503D01*
X704026D01*
X716022Y229502D02*
X720021D01*
X718021D01*
Y223504D01*
X723020D02*
X725019D01*
X726019Y224504D01*
Y226503D01*
X725019Y227503D01*
X723020D01*
X722020Y226503D01*
Y224504D01*
X723020Y223504D01*
X729018Y228502D02*
Y227503D01*
X728018D01*
X730017D01*
X729018D01*
Y224504D01*
X730017Y223504D01*
X734016Y227503D02*
X736015D01*
X737015Y226503D01*
Y223504D01*
X734016D01*
X733016Y224504D01*
X734016Y225503D01*
X737015D01*
X739014Y223504D02*
X741014D01*
X740014D01*
Y229502D01*
X739014D01*
X692030Y378502D02*
X693029Y379502D01*
X695029D01*
X696028Y378502D01*
Y377503D01*
X695029Y376503D01*
X694029D01*
X695029D01*
X696028Y375503D01*
Y374504D01*
X695029Y373504D01*
X693029D01*
X692030Y374504D01*
X695029Y358504D02*
Y364502D01*
X692030Y361503D01*
X696028D01*
X692030Y349502D02*
X696028D01*
Y348502D01*
X692030Y344504D01*
Y343504D01*
Y333502D02*
X693029Y334502D01*
X695029D01*
X696028Y333502D01*
Y332503D01*
X695029Y331503D01*
X696028Y330503D01*
Y329504D01*
X695029Y328504D01*
X693029D01*
X692030Y329504D01*
Y330503D01*
X693029Y331503D01*
X692030Y332503D01*
Y333502D01*
X693029Y331503D02*
X695029D01*
X692030Y313504D02*
X694029D01*
X693029D01*
Y319502D01*
X692030Y318502D01*
X701027Y319502D02*
X699027Y318502D01*
X697028Y316503D01*
Y314504D01*
X698028Y313504D01*
X700027D01*
X701027Y314504D01*
Y315503D01*
X700027Y316503D01*
X697028D01*
X696028Y298504D02*
X692030D01*
X696028Y302503D01*
Y303502D01*
X695029Y304502D01*
X693029D01*
X692030Y303502D01*
X698028D02*
X699027Y304502D01*
X701027D01*
X702026Y303502D01*
Y299504D01*
X701027Y298504D01*
X699027D01*
X698028Y299504D01*
Y303502D01*
X696028Y283504D02*
X692030D01*
X696028Y287503D01*
Y288502D01*
X695029Y289502D01*
X693029D01*
X692030Y288502D01*
X698028Y284504D02*
X699027Y283504D01*
X701027D01*
X702026Y284504D01*
Y288502D01*
X701027Y289502D01*
X699027D01*
X698028Y288502D01*
Y287503D01*
X699027Y286503D01*
X702026D01*
X692030Y273502D02*
X693029Y274502D01*
X695029D01*
X696028Y273502D01*
Y272503D01*
X695029Y271503D01*
X694029D01*
X695029D01*
X696028Y270503D01*
Y269504D01*
X695029Y268504D01*
X693029D01*
X692030Y269504D01*
X702026Y274502D02*
X700027Y273502D01*
X698028Y271503D01*
Y269504D01*
X699027Y268504D01*
X701027D01*
X702026Y269504D01*
Y270503D01*
X701027Y271503D01*
X698028D01*
X692030Y258502D02*
X693029Y259502D01*
X695029D01*
X696028Y258502D01*
Y257503D01*
X695029Y256503D01*
X694029D01*
X695029D01*
X696028Y255503D01*
Y254504D01*
X695029Y253504D01*
X693029D01*
X692030Y254504D01*
X698028Y259502D02*
X702026D01*
Y258502D01*
X698028Y254504D01*
Y253504D01*
X695029Y238504D02*
Y244502D01*
X692030Y241503D01*
X696028D01*
X702026Y244502D02*
X700027Y243502D01*
X698028Y241503D01*
Y239504D01*
X699027Y238504D01*
X701027D01*
X702026Y239504D01*
Y240503D01*
X701027Y241503D01*
X698028D01*
D77*
X644255Y376004D02*
G03*
X644255Y376004I-2500J0D01*
G01*
X643255Y241004D02*
G03*
X643255Y241004I-1500J0D01*
G01*
X644255D02*
G03*
X644255Y241004I-2500J0D01*
G01*
X512811Y212598D02*
G03*
X512811Y212598I-1000J0D01*
G01*
X513478D02*
G03*
X513478Y212598I-1667J0D01*
G01*
X518716Y147638D02*
G03*
X518716Y147638I-1000J0D01*
G01*
X519383D02*
G03*
X519383Y147638I-1667J0D01*
G01*
X42339Y385827D02*
G03*
X42339Y385827I-1000J0D01*
G01*
X43005D02*
G03*
X43005Y385827I-1667J0D01*
G01*
X94701D02*
G03*
X94701Y385827I-1000J0D01*
G01*
X95367D02*
G03*
X95367Y385827I-1667J0D01*
G01*
X147063D02*
G03*
X147063Y385827I-1000J0D01*
G01*
X147730D02*
G03*
X147730Y385827I-1667J0D01*
G01*
X199425D02*
G03*
X199425Y385827I-1000J0D01*
G01*
X200092D02*
G03*
X200092Y385827I-1667J0D01*
G01*
X304150D02*
G03*
X304150Y385827I-1000J0D01*
G01*
X304816D02*
G03*
X304816Y385827I-1667J0D01*
G01*
X251787D02*
G03*
X251787Y385827I-1000J0D01*
G01*
X252454D02*
G03*
X252454Y385827I-1667J0D01*
G01*
X253756Y303543D02*
G03*
X253756Y303543I-1000J0D01*
G01*
X254423D02*
G03*
X254423Y303543I-1667J0D01*
G01*
X306118D02*
G03*
X306118Y303543I-1000J0D01*
G01*
X306785D02*
G03*
X306785Y303543I-1667J0D01*
G01*
X201394D02*
G03*
X201394Y303543I-1000J0D01*
G01*
X202060D02*
G03*
X202060Y303543I-1667J0D01*
G01*
X149031D02*
G03*
X149031Y303543I-1000J0D01*
G01*
X149698D02*
G03*
X149698Y303543I-1667J0D01*
G01*
X96669D02*
G03*
X96669Y303543I-1000J0D01*
G01*
X97336D02*
G03*
X97336Y303543I-1667J0D01*
G01*
X44307D02*
G03*
X44307Y303543I-1000J0D01*
G01*
X44974D02*
G03*
X44974Y303543I-1667J0D01*
G01*
X530528Y159449D02*
G03*
X530528Y159449I-1000J0D01*
G01*
X531194D02*
G03*
X531194Y159449I-1667J0D01*
G01*
X379465Y19685D02*
G03*
X379465Y19685I-1000J0D01*
G01*
X380131D02*
G03*
X380131Y19685I-1667J0D01*
G01*
X201512Y19410D02*
G03*
X201512Y19410I-1000J0D01*
G01*
X202179D02*
G03*
X202179Y19410I-1667J0D01*
G01*
X502969Y90039D02*
G03*
X502969Y90039I-1000J0D01*
G01*
X503635D02*
G03*
X503635Y90039I-1667J0D01*
G01*
X532496Y125984D02*
G03*
X532496Y125984I-1000J0D01*
G01*
X533163D02*
G03*
X533163Y125984I-1667J0D01*
G01*
X532496Y102362D02*
G03*
X532496Y102362I-1000J0D01*
G01*
X533163D02*
G03*
X533163Y102362I-1667J0D01*
G01*
X532496Y78740D02*
G03*
X532496Y78740I-1000J0D01*
G01*
X533163D02*
G03*
X533163Y78740I-1667J0D01*
G01*
X532496Y55118D02*
G03*
X532496Y55118I-1000J0D01*
G01*
X533163D02*
G03*
X533163Y55118I-1667J0D01*
G01*
X532496Y29528D02*
G03*
X532496Y29528I-1000J0D01*
G01*
X533163D02*
G03*
X533163Y29528I-1667J0D01*
G01*
X502969Y64961D02*
G03*
X502969Y64961I-1000J0D01*
G01*
X503635D02*
G03*
X503635Y64961I-1667J0D01*
G01*
X475410Y196850D02*
G03*
X475410Y196850I-1000J0D01*
G01*
X476076D02*
G03*
X476076Y196850I-1667J0D01*
G01*
X160449Y188976D02*
G03*
X160449Y188976I-1000J0D01*
G01*
X161116D02*
G03*
X161116Y188976I-1667J0D01*
G01*
X193913Y206693D02*
G03*
X193913Y206693I-1000J0D01*
G01*
X194580D02*
G03*
X194580Y206693I-1667J0D01*
G01*
X172260D02*
G03*
X172260Y206693I-1000J0D01*
G01*
X172926D02*
G03*
X172926Y206693I-1667J0D01*
G01*
X174228Y171260D02*
G03*
X174228Y171260I-1000J0D01*
G01*
X174895D02*
G03*
X174895Y171260I-1667J0D01*
G01*
X193913D02*
G03*
X193913Y171260I-1000J0D01*
G01*
X194580D02*
G03*
X194580Y171260I-1667J0D01*
G01*
X308087Y198819D02*
G03*
X308087Y198819I-1000J0D01*
G01*
X308753D02*
G03*
X308753Y198819I-1667J0D01*
G01*
X262811Y175197D02*
G03*
X262811Y175197I-1000J0D01*
G01*
X263478D02*
G03*
X263478Y175197I-1667J0D01*
G01*
X479347Y37402D02*
G03*
X479347Y37402I-1000J0D01*
G01*
X480013D02*
G03*
X480013Y37402I-1667J0D01*
G01*
X117142Y233661D02*
G03*
X117142Y233661I-1000J0D01*
G01*
X117808D02*
G03*
X117808Y233661I-1667J0D01*
G01*
X73835Y212598D02*
G03*
X73835Y212598I-1000J0D01*
G01*
X74501D02*
G03*
X74501Y212598I-1667J0D01*
G01*
X30724Y231102D02*
G03*
X30724Y231102I-1000J0D01*
G01*
X31391D02*
G03*
X31391Y231102I-1667J0D01*
G01*
X404543Y258858D02*
G03*
X404543Y258858I-1000J0D01*
G01*
X405210D02*
G03*
X405210Y258858I-1667J0D01*
G01*
X454740Y88583D02*
G03*
X454740Y88583I-1000J0D01*
G01*
X455407D02*
G03*
X455407Y88583I-1667J0D01*
G01*
X26453Y189961D02*
G03*
X26453Y189961I-1000J0D01*
G01*
X27119D02*
G03*
X27119Y189961I-1667J0D01*
G01*
X121728Y189311D02*
G03*
X121728Y189311I-1000J0D01*
G01*
X122395D02*
G03*
X122395Y189311I-1667J0D01*
G01*
X74090Y190217D02*
G03*
X74090Y190217I-1000J0D01*
G01*
X74757D02*
G03*
X74757Y190217I-1667J0D01*
G01*
X311039Y228346D02*
G03*
X311039Y228346I-1000J0D01*
G01*
X311706D02*
G03*
X311706Y228346I-1667J0D01*
G01*
X242535Y206299D02*
G03*
X242535Y206299I-1000J0D01*
G01*
X243202D02*
G03*
X243202Y206299I-1667J0D01*
G01*
X101787Y233858D02*
G03*
X101787Y233858I-1000J0D01*
G01*
X102454D02*
G03*
X102454Y233858I-1667J0D01*
G01*
X489189Y212598D02*
G03*
X489189Y212598I-1000J0D01*
G01*
X489856D02*
G03*
X489856Y212598I-1667J0D01*
G01*
X485252Y221457D02*
G03*
X485252Y221457I-1000J0D01*
G01*
X485919D02*
G03*
X485919Y221457I-1667J0D01*
G01*
X362060Y169272D02*
G03*
X362060Y169272I-1667J0D01*
G01*
X352060Y159272D02*
G03*
X352060Y159272I-1667J0D01*
G01*
X342060Y169272D02*
G03*
X342060Y169272I-1667J0D01*
G01*
X639255Y358504D02*
Y359754D01*
X640505Y361004D01*
X639255Y362254D02*
X640505Y361004D01*
X639255Y362254D02*
Y363504D01*
X640505D01*
X641755Y362254D01*
X643005Y363504D01*
X644255D01*
Y362254D02*
Y363504D01*
X643005Y361004D02*
X644255Y362254D01*
X643005Y361004D02*
X644255Y359754D01*
Y358504D02*
Y359754D01*
X643005Y358504D02*
X644255D01*
X641755Y359754D02*
X643005Y358504D01*
X640505D02*
X641755Y359754D01*
X639255Y358504D02*
X640505D01*
X639255Y343504D02*
X644255D01*
Y348504D01*
X639255D02*
X644255D01*
X639255Y343504D02*
Y348504D01*
X641755Y329504D02*
X643255Y332504D01*
X640255D02*
X643255D01*
X640255D02*
X641755Y329504D01*
Y328504D02*
X644255Y333504D01*
X639255D02*
X644255D01*
X639255D02*
X641755Y328504D01*
X639255Y316004D02*
X641755Y313504D01*
X644255Y316004D01*
X641755Y318504D02*
X644255Y316004D01*
X639255D02*
X641755Y318504D01*
X639255Y299754D02*
X640505D01*
X639255D02*
Y302254D01*
X640505D01*
Y303504D01*
X643005D01*
Y302254D02*
Y303504D01*
Y302254D02*
X644255D01*
Y299754D02*
Y302254D01*
X643005Y299754D02*
X644255D01*
X643005Y298504D02*
Y299754D01*
X640505Y298504D02*
X643005D01*
X640505D02*
Y299754D01*
X640255Y285254D02*
X641005D01*
X640255D02*
Y286754D01*
X641005D01*
Y287504D01*
X642505D01*
Y286754D02*
Y287504D01*
Y286754D02*
X643255D01*
Y285254D02*
Y286754D01*
X642505Y285254D02*
X643255D01*
X642505Y284504D02*
Y285254D01*
X641005Y284504D02*
X642505D01*
X641005D02*
Y285254D01*
X639255Y284754D02*
X640505D01*
X639255D02*
Y287254D01*
X640505D01*
Y288504D01*
X643005D01*
Y287254D02*
Y288504D01*
Y287254D02*
X644255D01*
Y284754D02*
Y287254D01*
X643005Y284754D02*
X644255D01*
X643005Y283504D02*
Y284754D01*
X640505Y283504D02*
X643005D01*
X640505D02*
Y284754D01*
X639255Y268504D02*
X641755Y269754D01*
X644255Y268504D01*
X643005Y271004D02*
X644255Y268504D01*
X643005Y271004D02*
X644255Y273504D01*
X641755Y272254D02*
X644255Y273504D01*
X639255D02*
X641755Y272254D01*
X639255Y273504D02*
X640505Y271004D01*
X639255Y268504D02*
X640505Y271004D01*
Y254754D02*
X641755Y253504D01*
X639255Y254754D02*
X640505D01*
X639255D02*
X640505Y256004D01*
X639255Y257254D02*
X640505Y256004D01*
X639255Y257254D02*
X640505D01*
X641755Y258504D01*
X643005Y257254D01*
X644255D01*
X643005Y256004D02*
X644255Y257254D01*
X643005Y256004D02*
X644255Y254754D01*
X643005D02*
X644255D01*
X641755Y253504D02*
X643005Y254754D01*
X134160Y222743D02*
X137493D01*
Y226076D01*
X134160D02*
X137493D01*
X134160Y222743D02*
Y226076D01*
X209947Y222743D02*
X213281D01*
Y226076D01*
X209947D02*
X213281D01*
X209947Y222743D02*
Y226076D01*
X419276Y117610D02*
X419776D01*
X419276D02*
Y118610D01*
X419776D01*
Y119110D01*
X420776D01*
Y118610D02*
Y119110D01*
Y118610D02*
X421276D01*
Y117610D02*
Y118610D01*
X420776Y117610D02*
X421276D01*
X420776Y117110D02*
Y117610D01*
X419776Y117110D02*
X420776D01*
X419776D02*
Y117610D01*
X418609Y117277D02*
X419442D01*
X418609D02*
Y118944D01*
X419442D01*
Y119777D01*
X421109D01*
Y118944D02*
Y119777D01*
Y118944D02*
X421942D01*
Y117277D02*
Y118944D01*
X421109Y117277D02*
X421942D01*
X421109Y116444D02*
Y117277D01*
X419442Y116444D02*
X421109D01*
X419442D02*
Y117277D01*
X423213Y125484D02*
X423713D01*
X423213D02*
Y126484D01*
X423713D01*
Y126984D01*
X424713D01*
Y126484D02*
Y126984D01*
Y126484D02*
X425213D01*
Y125484D02*
Y126484D01*
X424713Y125484D02*
X425213D01*
X424713Y124984D02*
Y125484D01*
X423713Y124984D02*
X424713D01*
X423713D02*
Y125484D01*
X422546Y125151D02*
X423379D01*
X422546D02*
Y126818D01*
X423379D01*
Y127651D01*
X425046D01*
Y126818D02*
Y127651D01*
Y126818D02*
X425879D01*
Y125151D02*
Y126818D01*
X425046Y125151D02*
X425879D01*
X425046Y124318D02*
Y125151D01*
X423379Y124318D02*
X425046D01*
X423379D02*
Y125151D01*
X355299Y117610D02*
X355799D01*
X355299D02*
Y118610D01*
X355799D01*
Y119110D01*
X356799D01*
Y118610D02*
Y119110D01*
Y118610D02*
X357299D01*
Y117610D02*
Y118610D01*
X356799Y117610D02*
X357299D01*
X356799Y117110D02*
Y117610D01*
X355799Y117110D02*
X356799D01*
X355799D02*
Y117610D01*
X354632Y117277D02*
X355466D01*
X354632D02*
Y118944D01*
X355466D01*
Y119777D01*
X357133D01*
Y118944D02*
Y119777D01*
Y118944D02*
X357966D01*
Y117277D02*
Y118944D01*
X357133Y117277D02*
X357966D01*
X357133Y116444D02*
Y117277D01*
X355466Y116444D02*
X357133D01*
X355466D02*
Y117277D01*
X355299Y125484D02*
X355799D01*
X355299D02*
Y126484D01*
X355799D01*
Y126984D01*
X356799D01*
Y126484D02*
Y126984D01*
Y126484D02*
X357299D01*
Y125484D02*
Y126484D01*
X356799Y125484D02*
X357299D01*
X356799Y124984D02*
Y125484D01*
X355799Y124984D02*
X356799D01*
X355799D02*
Y125484D01*
X354632Y125151D02*
X355466D01*
X354632D02*
Y126818D01*
X355466D01*
Y127651D01*
X357133D01*
Y126818D02*
Y127651D01*
Y126818D02*
X357966D01*
Y125151D02*
Y126818D01*
X357133Y125151D02*
X357966D01*
X357133Y124318D02*
Y125151D01*
X355466Y124318D02*
X357133D01*
X355466D02*
Y125151D01*
X96759Y185341D02*
X100092D01*
Y188674D01*
X96759D02*
X100092D01*
X96759Y185341D02*
Y188674D01*
X264197Y219421D02*
X264697D01*
X264197D02*
Y220421D01*
X264697D01*
Y220921D01*
X265697D01*
Y220421D02*
Y220921D01*
Y220421D02*
X266197D01*
Y219421D02*
Y220421D01*
X265697Y219421D02*
X266197D01*
X265697Y218921D02*
Y219421D01*
X264697Y218921D02*
X265697D01*
X264697D02*
Y219421D01*
X263530Y219088D02*
X264364D01*
X263530D02*
Y220755D01*
X264364D01*
Y221588D01*
X266030D01*
Y220755D02*
Y221588D01*
Y220755D02*
X266863D01*
Y219088D02*
Y220755D01*
X266030Y219088D02*
X266863D01*
X266030Y218255D02*
Y219088D01*
X264364Y218255D02*
X266030D01*
X264364D02*
Y219088D01*
X258842Y251468D02*
X259343D01*
X258842D02*
Y252468D01*
X259343D01*
Y252969D01*
X260343D01*
Y252468D02*
Y252969D01*
Y252468D02*
X260842D01*
Y251468D02*
Y252468D01*
X260343Y251468D02*
X260842D01*
X260343Y250969D02*
Y251468D01*
X259343Y250969D02*
X260343D01*
X259343D02*
Y251468D01*
X258176Y251135D02*
X259009D01*
X258176D02*
Y252802D01*
X259009D01*
Y253635D01*
X260676D01*
Y252802D02*
Y253635D01*
Y252802D02*
X261509D01*
Y251135D02*
Y252802D01*
X260676Y251135D02*
X261509D01*
X260676Y250302D02*
Y251135D01*
X259009Y250302D02*
X260676D01*
X259009D02*
Y251135D01*
X258842Y214067D02*
X259343D01*
X258842D02*
Y215067D01*
X259343D01*
Y215567D01*
X260343D01*
Y215067D02*
Y215567D01*
Y215067D02*
X260842D01*
Y214067D02*
Y215067D01*
X260343Y214067D02*
X260842D01*
X260343Y213567D02*
Y214067D01*
X259343Y213567D02*
X260343D01*
X259343D02*
Y214067D01*
X258176Y213734D02*
X259009D01*
X258176D02*
Y215400D01*
X259009D01*
Y216234D01*
X260676D01*
Y215400D02*
Y216234D01*
Y215400D02*
X261509D01*
Y213734D02*
Y215400D01*
X260676Y213734D02*
X261509D01*
X260676Y212900D02*
Y213734D01*
X259009Y212900D02*
X260676D01*
X259009D02*
Y213734D01*
X378255Y218806D02*
Y219639D01*
X379088Y220472D01*
X378255Y221306D02*
X379088Y220472D01*
X378255Y221306D02*
Y222139D01*
X379088D01*
X379921Y221306D01*
X380755Y222139D01*
X381588D01*
Y221306D02*
Y222139D01*
X380755Y220472D02*
X381588Y221306D01*
X380755Y220472D02*
X381588Y219639D01*
Y218806D02*
Y219639D01*
X380755Y218806D02*
X381588D01*
X379921Y219639D02*
X380755Y218806D01*
X379088D02*
X379921Y219639D01*
X378255Y218806D02*
X379088D01*
X49514Y189278D02*
X52848D01*
Y192612D01*
X49514D02*
X52848D01*
X49514Y189278D02*
Y192612D01*
X8786Y210321D02*
X12119D01*
Y213655D01*
X8786D02*
X12119D01*
X8786Y210321D02*
Y213655D01*
X309039Y179618D02*
X309539D01*
X309039D02*
Y180618D01*
X309539D01*
Y181118D01*
X310539D01*
Y180618D02*
Y181118D01*
Y180618D02*
X311039D01*
Y179618D02*
Y180618D01*
X310539Y179618D02*
X311039D01*
X310539Y179118D02*
Y179618D01*
X309539Y179118D02*
X310539D01*
X309539D02*
Y179618D01*
X308373Y179285D02*
X309206D01*
X308373D02*
Y180951D01*
X309206D01*
Y181785D01*
X310873D01*
Y180951D02*
Y181785D01*
Y180951D02*
X311706D01*
Y179285D02*
Y180951D01*
X310873Y179285D02*
X311706D01*
X310873Y178451D02*
Y179285D01*
X309206Y178451D02*
X310873D01*
X309206D02*
Y179285D01*
X236205Y169776D02*
X236705D01*
X236205D02*
Y170776D01*
X236705D01*
Y171276D01*
X237705D01*
Y170776D02*
Y171276D01*
Y170776D02*
X238205D01*
Y169776D02*
Y170776D01*
X237705Y169776D02*
X238205D01*
X237705Y169276D02*
Y169776D01*
X236705Y169276D02*
X237705D01*
X236705D02*
Y169776D01*
X235538Y169442D02*
X236371D01*
X235538D02*
Y171109D01*
X236371D01*
Y171942D01*
X238038D01*
Y171109D02*
Y171942D01*
Y171109D02*
X238871D01*
Y169442D02*
Y171109D01*
X238038Y169442D02*
X238871D01*
X238038Y168609D02*
Y169442D01*
X236371Y168609D02*
X238038D01*
X236371D02*
Y169442D01*
X243094Y164854D02*
X243595D01*
X243094D02*
Y165854D01*
X243595D01*
Y166354D01*
X244595D01*
Y165854D02*
Y166354D01*
Y165854D02*
X245094D01*
Y164854D02*
Y165854D01*
X244595Y164854D02*
X245094D01*
X244595Y164354D02*
Y164854D01*
X243595Y164354D02*
X244595D01*
X243595D02*
Y164854D01*
X242428Y164521D02*
X243261D01*
X242428D02*
Y166188D01*
X243261D01*
Y167021D01*
X244928D01*
Y166188D02*
Y167021D01*
Y166188D02*
X245761D01*
Y164521D02*
Y166188D01*
X244928Y164521D02*
X245761D01*
X244928Y163688D02*
Y164521D01*
X243261Y163688D02*
X244928D01*
X243261D02*
Y164521D01*
X225378Y160917D02*
X225878D01*
X225378D02*
Y161917D01*
X225878D01*
Y162417D01*
X226878D01*
Y161917D02*
Y162417D01*
Y161917D02*
X227378D01*
Y160917D02*
Y161917D01*
X226878Y160917D02*
X227378D01*
X226878Y160417D02*
Y160917D01*
X225878Y160417D02*
X226878D01*
X225878D02*
Y160917D01*
X224711Y160584D02*
X225545D01*
X224711D02*
Y162251D01*
X225545D01*
Y163084D01*
X227211D01*
Y162251D02*
Y163084D01*
Y162251D02*
X228045D01*
Y160584D02*
Y162251D01*
X227211Y160584D02*
X228045D01*
X227211Y159751D02*
Y160584D01*
X225545Y159751D02*
X227211D01*
X225545D02*
Y160584D01*
X298921Y209421D02*
X299421D01*
X298921D02*
Y210421D01*
X299421D01*
Y210921D01*
X300421D01*
Y210421D02*
Y210921D01*
Y210421D02*
X300921D01*
Y209421D02*
Y210421D01*
X300421Y209421D02*
X300921D01*
X300421Y208921D02*
Y209421D01*
X299421Y208921D02*
X300421D01*
X299421D02*
Y209421D01*
X298255Y209088D02*
X299088D01*
X298255D02*
Y210755D01*
X299088D01*
Y211588D01*
X300755D01*
Y210755D02*
Y211588D01*
Y210755D02*
X301588D01*
Y209088D02*
Y210755D01*
X300755Y209088D02*
X301588D01*
X300755Y208255D02*
Y209088D01*
X299088Y208255D02*
X300755D01*
X299088D02*
Y209088D01*
X240181Y194421D02*
X240681D01*
X240181D02*
Y195421D01*
X240681D01*
Y195921D01*
X241681D01*
Y195421D02*
Y195921D01*
Y195421D02*
X242181D01*
Y194421D02*
Y195421D01*
X241681Y194421D02*
X242181D01*
X241681Y193921D02*
Y194421D01*
X240681Y193921D02*
X241681D01*
X240681D02*
Y194421D01*
X239514Y194088D02*
X240348D01*
X239514D02*
Y195755D01*
X240348D01*
Y196588D01*
X242014D01*
Y195755D02*
Y196588D01*
Y195755D02*
X242848D01*
Y194088D02*
Y195755D01*
X242014Y194088D02*
X242848D01*
X242014Y193255D02*
Y194088D01*
X240348Y193255D02*
X242014D01*
X240348D02*
Y194088D01*
X129728Y193575D02*
X130228D01*
X129728D02*
Y194575D01*
X130228D01*
Y195075D01*
X131228D01*
Y194575D02*
Y195075D01*
Y194575D02*
X131728D01*
Y193575D02*
Y194575D01*
X131228Y193575D02*
X131728D01*
X131228Y193075D02*
Y193575D01*
X130228Y193075D02*
X131228D01*
X130228D02*
Y193575D01*
X129062Y193242D02*
X129895D01*
X129062D02*
Y194908D01*
X129895D01*
Y195741D01*
X131562D01*
Y194908D02*
Y195741D01*
Y194908D02*
X132395D01*
Y193242D02*
Y194908D01*
X131562Y193242D02*
X132395D01*
X131562Y192408D02*
Y193242D01*
X129895Y192408D02*
X131562D01*
X129895D02*
Y193242D01*
X34453Y193417D02*
X34953D01*
X34453D02*
Y194417D01*
X34953D01*
Y194917D01*
X35953D01*
Y194417D02*
Y194917D01*
Y194417D02*
X36453D01*
Y193417D02*
Y194417D01*
X35953Y193417D02*
X36453D01*
X35953Y192917D02*
Y193417D01*
X34953Y192917D02*
X35953D01*
X34953D02*
Y193417D01*
X33786Y193084D02*
X34619D01*
X33786D02*
Y194751D01*
X34619D01*
Y195584D01*
X36286D01*
Y194751D02*
Y195584D01*
Y194751D02*
X37119D01*
Y193084D02*
Y194751D01*
X36286Y193084D02*
X37119D01*
X36286Y192251D02*
Y193084D01*
X34619Y192251D02*
X36286D01*
X34619D02*
Y193084D01*
X82091Y193811D02*
X82591D01*
X82091D02*
Y194811D01*
X82591D01*
Y195311D01*
X83591D01*
Y194811D02*
Y195311D01*
Y194811D02*
X84091D01*
Y193811D02*
Y194811D01*
X83591Y193811D02*
X84091D01*
X83591Y193311D02*
Y193811D01*
X82591Y193311D02*
X83591D01*
X82591D02*
Y193811D01*
X81424Y193478D02*
X82257D01*
X81424D02*
Y195144D01*
X82257D01*
Y195978D01*
X83924D01*
Y195144D02*
Y195978D01*
Y195144D02*
X84757D01*
Y193478D02*
Y195144D01*
X83924Y193478D02*
X84757D01*
X83924Y192644D02*
Y193478D01*
X82257Y192644D02*
X83924D01*
X82257D02*
Y193478D01*
X304118Y184539D02*
X304618D01*
X304118D02*
Y185539D01*
X304618D01*
Y186039D01*
X305618D01*
Y185539D02*
Y186039D01*
Y185539D02*
X306118D01*
Y184539D02*
Y185539D01*
X305618Y184539D02*
X306118D01*
X305618Y184039D02*
Y184539D01*
X304618Y184039D02*
X305618D01*
X304618D02*
Y184539D01*
X303451Y184206D02*
X304285D01*
X303451D02*
Y185873D01*
X304285D01*
Y186706D01*
X305951D01*
Y185873D02*
Y186706D01*
Y185873D02*
X306785D01*
Y184206D02*
Y185873D01*
X305951Y184206D02*
X306785D01*
X305951Y183373D02*
Y184206D01*
X304285Y183373D02*
X305951D01*
X304285D02*
Y184206D01*
X499000Y135327D02*
X499500D01*
X499000D02*
Y136327D01*
X499500D01*
Y136827D01*
X500500D01*
Y136327D02*
Y136827D01*
Y136327D02*
X501000D01*
Y135327D02*
Y136327D01*
X500500Y135327D02*
X501000D01*
X500500Y134827D02*
Y135327D01*
X499500Y134827D02*
X500500D01*
X499500D02*
Y135327D01*
X498333Y134993D02*
X499167D01*
X498333D02*
Y136660D01*
X499167D01*
Y137493D01*
X500833D01*
Y136660D02*
Y137493D01*
Y136660D02*
X501667D01*
Y134993D02*
Y136660D01*
X500833Y134993D02*
X501667D01*
X500833Y134160D02*
Y134993D01*
X499167Y134160D02*
X500833D01*
X499167D02*
Y134993D01*
X499000Y129421D02*
X499500D01*
X499000D02*
Y130421D01*
X499500D01*
Y130921D01*
X500500D01*
Y130421D02*
Y130921D01*
Y130421D02*
X501000D01*
Y129421D02*
Y130421D01*
X500500Y129421D02*
X501000D01*
X500500Y128921D02*
Y129421D01*
X499500Y128921D02*
X500500D01*
X499500D02*
Y129421D01*
X498333Y129088D02*
X499167D01*
X498333D02*
Y130755D01*
X499167D01*
Y131588D01*
X500833D01*
Y130755D02*
Y131588D01*
Y130755D02*
X501667D01*
Y129088D02*
Y130755D01*
X500833Y129088D02*
X501667D01*
X500833Y128255D02*
Y129088D01*
X499167Y128255D02*
X500833D01*
X499167D02*
Y129088D01*
X343488Y125484D02*
X343988D01*
X343488D02*
Y126484D01*
X343988D01*
Y126984D01*
X344988D01*
Y126484D02*
Y126984D01*
Y126484D02*
X345488D01*
Y125484D02*
Y126484D01*
X344988Y125484D02*
X345488D01*
X344988Y124984D02*
Y125484D01*
X343988Y124984D02*
X344988D01*
X343988D02*
Y125484D01*
X342822Y125151D02*
X343655D01*
X342822D02*
Y126818D01*
X343655D01*
Y127651D01*
X345321D01*
Y126818D02*
Y127651D01*
Y126818D02*
X346155D01*
Y125151D02*
Y126818D01*
X345321Y125151D02*
X346155D01*
X345321Y124318D02*
Y125151D01*
X343655Y124318D02*
X345321D01*
X343655D02*
Y125151D01*
X343488Y117610D02*
X343988D01*
X343488D02*
Y118610D01*
X343988D01*
Y119110D01*
X344988D01*
Y118610D02*
Y119110D01*
Y118610D02*
X345488D01*
Y117610D02*
Y118610D01*
X344988Y117610D02*
X345488D01*
X344988Y117110D02*
Y117610D01*
X343988Y117110D02*
X344988D01*
X343988D02*
Y117610D01*
X342822Y117277D02*
X343655D01*
X342822D02*
Y118944D01*
X343655D01*
Y119777D01*
X345321D01*
Y118944D02*
Y119777D01*
Y118944D02*
X346155D01*
Y117277D02*
Y118944D01*
X345321Y117277D02*
X346155D01*
X345321Y116444D02*
Y117277D01*
X343655Y116444D02*
X345321D01*
X343655D02*
Y117277D01*
X436008Y129421D02*
X436508D01*
X436008D02*
Y130421D01*
X436508D01*
Y130921D01*
X437508D01*
Y130421D02*
Y130921D01*
Y130421D02*
X438008D01*
Y129421D02*
Y130421D01*
X437508Y129421D02*
X438008D01*
X437508Y128921D02*
Y129421D01*
X436508Y128921D02*
X437508D01*
X436508D02*
Y129421D01*
X435341Y129088D02*
X436174D01*
X435341D02*
Y130755D01*
X436174D01*
Y131588D01*
X437841D01*
Y130755D02*
Y131588D01*
Y130755D02*
X438674D01*
Y129088D02*
Y130755D01*
X437841Y129088D02*
X438674D01*
X437841Y128255D02*
Y129088D01*
X436174Y128255D02*
X437841D01*
X436174D02*
Y129088D01*
X120260Y10130D02*
X120760D01*
X120260D02*
Y11130D01*
X120760D01*
Y11630D01*
X121760D01*
Y11130D02*
Y11630D01*
Y11130D02*
X122260D01*
Y10130D02*
Y11130D01*
X121760Y10130D02*
X122260D01*
X121760Y9630D02*
Y10130D01*
X120760Y9630D02*
X121760D01*
X120760D02*
Y10130D01*
X119593Y9797D02*
X120426D01*
X119593D02*
Y11463D01*
X120426D01*
Y12297D01*
X122093D01*
Y11463D02*
Y12297D01*
Y11463D02*
X122926D01*
Y9797D02*
Y11463D01*
X122093Y9797D02*
X122926D01*
X122093Y8963D02*
Y9797D01*
X120426Y8963D02*
X122093D01*
X120426D02*
Y9797D01*
X120260Y16035D02*
X120760D01*
X120260D02*
Y17035D01*
X120760D01*
Y17535D01*
X121760D01*
Y17035D02*
Y17535D01*
Y17035D02*
X122260D01*
Y16035D02*
Y17035D01*
X121760Y16035D02*
X122260D01*
X121760Y15535D02*
Y16035D01*
X120760Y15535D02*
X121760D01*
X120760D02*
Y16035D01*
X119593Y15702D02*
X120426D01*
X119593D02*
Y17369D01*
X120426D01*
Y18202D01*
X122093D01*
Y17369D02*
Y18202D01*
Y17369D02*
X122926D01*
Y15702D02*
Y17369D01*
X122093Y15702D02*
X122926D01*
X122093Y14869D02*
Y15702D01*
X120426Y14869D02*
X122093D01*
X120426D02*
Y15702D01*
X120653Y26665D02*
X121153D01*
X120653D02*
Y27665D01*
X121153D01*
Y28165D01*
X122153D01*
Y27665D02*
Y28165D01*
Y27665D02*
X122653D01*
Y26665D02*
Y27665D01*
X122153Y26665D02*
X122653D01*
X122153Y26165D02*
Y26665D01*
X121153Y26165D02*
X122153D01*
X121153D02*
Y26665D01*
X119987Y26332D02*
X120820D01*
X119987D02*
Y27999D01*
X120820D01*
Y28832D01*
X122487D01*
Y27999D02*
Y28832D01*
Y27999D02*
X123320D01*
Y26332D02*
Y27999D01*
X122487Y26332D02*
X123320D01*
X122487Y25499D02*
Y26332D01*
X120820Y25499D02*
X122487D01*
X120820D02*
Y26332D01*
X493094Y153043D02*
X493595D01*
X493094D02*
Y154043D01*
X493595D01*
Y154543D01*
X494594D01*
Y154043D02*
Y154543D01*
Y154043D02*
X495094D01*
Y153043D02*
Y154043D01*
X494594Y153043D02*
X495094D01*
X494594Y152543D02*
Y153043D01*
X493595Y152543D02*
X494594D01*
X493595D02*
Y153043D01*
X492428Y152710D02*
X493261D01*
X492428D02*
Y154377D01*
X493261D01*
Y155210D01*
X494928D01*
Y154377D02*
Y155210D01*
Y154377D02*
X495761D01*
Y152710D02*
Y154377D01*
X494928Y152710D02*
X495761D01*
X494928Y151877D02*
Y152710D01*
X493261Y151877D02*
X494928D01*
X493261D02*
Y152710D01*
X373016Y149106D02*
X373516D01*
X373016D02*
Y150106D01*
X373516D01*
Y150606D01*
X374516D01*
Y150106D02*
Y150606D01*
Y150106D02*
X375016D01*
Y149106D02*
Y150106D01*
X374516Y149106D02*
X375016D01*
X374516Y148606D02*
Y149106D01*
X373516Y148606D02*
X374516D01*
X373516D02*
Y149106D01*
X372349Y148773D02*
X373182D01*
X372349D02*
Y150440D01*
X373182D01*
Y151273D01*
X374849D01*
Y150440D02*
Y151273D01*
Y150440D02*
X375682D01*
Y148773D02*
Y150440D01*
X374849Y148773D02*
X375682D01*
X374849Y147940D02*
Y148773D01*
X373182Y147940D02*
X374849D01*
X373182D02*
Y148773D01*
X373016Y155012D02*
X373516D01*
X373016D02*
Y156012D01*
X373516D01*
Y156512D01*
X374516D01*
Y156012D02*
Y156512D01*
Y156012D02*
X375016D01*
Y155012D02*
Y156012D01*
X374516Y155012D02*
X375016D01*
X374516Y154512D02*
Y155012D01*
X373516Y154512D02*
X374516D01*
X373516D02*
Y155012D01*
X372349Y154678D02*
X373182D01*
X372349D02*
Y156345D01*
X373182D01*
Y157178D01*
X374849D01*
Y156345D02*
Y157178D01*
Y156345D02*
X375682D01*
Y154678D02*
Y156345D01*
X374849Y154678D02*
X375682D01*
X374849Y153845D02*
Y154678D01*
X373182Y153845D02*
X374849D01*
X373182D02*
Y154678D01*
X450772Y239657D02*
X451272D01*
X450772D02*
Y240657D01*
X451272D01*
Y241158D01*
X452272D01*
Y240657D02*
Y241158D01*
Y240657D02*
X452772D01*
Y239657D02*
Y240657D01*
X452272Y239657D02*
X452772D01*
X452272Y239158D02*
Y239657D01*
X451272Y239158D02*
X452272D01*
X451272D02*
Y239657D01*
X450105Y239324D02*
X450938D01*
X450105D02*
Y240991D01*
X450938D01*
Y241824D01*
X452605D01*
Y240991D02*
Y241824D01*
Y240991D02*
X453438D01*
Y239324D02*
Y240991D01*
X452605Y239324D02*
X453438D01*
X452605Y238491D02*
Y239324D01*
X450938Y238491D02*
X452605D01*
X450938D02*
Y239324D01*
X363491Y349718D02*
X364324D01*
X363491D02*
Y351384D01*
X364324D01*
Y352218D01*
X365991D01*
Y351384D02*
Y352218D01*
Y351384D02*
X366824D01*
Y349718D02*
Y351384D01*
X365991Y349718D02*
X366824D01*
X365991Y348885D02*
Y349718D01*
X364324Y348885D02*
X365991D01*
X364324D02*
Y349718D01*
X363491Y339718D02*
X364324D01*
X363491D02*
Y341385D01*
X364324D01*
Y342218D01*
X365991D01*
Y341385D02*
Y342218D01*
Y341385D02*
X366824D01*
Y339718D02*
Y341385D01*
X365991Y339718D02*
X366824D01*
X365991Y338884D02*
Y339718D01*
X364324Y338884D02*
X365991D01*
X364324D02*
Y339718D01*
X91293Y10584D02*
X92126Y9751D01*
X90459Y10584D02*
X91293D01*
X90459D02*
X91293Y11417D01*
X90459Y12251D02*
X91293Y11417D01*
X90459Y12251D02*
X91293D01*
X92126Y13084D01*
X92959Y12251D01*
X93793D01*
X92959Y11417D02*
X93793Y12251D01*
X92959Y11417D02*
X93793Y10584D01*
X92959D02*
X93793D01*
X92126Y9751D02*
X92959Y10584D01*
X91293Y15702D02*
X92126Y14869D01*
X90459Y15702D02*
X91293D01*
X90459D02*
X91293Y16535D01*
X90459Y17369D02*
X91293Y16535D01*
X90459Y17369D02*
X91293D01*
X92126Y18202D01*
X92959Y17369D01*
X93793D01*
X92959Y16535D02*
X93793Y17369D01*
X92959Y16535D02*
X93793Y15702D01*
X92959D02*
X93793D01*
X92126Y14869D02*
X92959Y15702D01*
X91293Y20820D02*
X92126Y19987D01*
X90459Y20820D02*
X91293D01*
X90459D02*
X91293Y21654D01*
X90459Y22487D02*
X91293Y21654D01*
X90459Y22487D02*
X91293D01*
X92126Y23320D01*
X92959Y22487D01*
X93793D01*
X92959Y21654D02*
X93793Y22487D01*
X92959Y21654D02*
X93793Y20820D01*
X92959D02*
X93793D01*
X92126Y19987D02*
X92959Y20820D01*
X91293Y25938D02*
X92126Y25105D01*
X90459Y25938D02*
X91293D01*
X90459D02*
X91293Y26772D01*
X90459Y27605D02*
X91293Y26772D01*
X90459Y27605D02*
X91293D01*
X92126Y28438D01*
X92959Y27605D01*
X93793D01*
X92959Y26772D02*
X93793Y27605D01*
X92959Y26772D02*
X93793Y25938D01*
X92959D02*
X93793D01*
X92126Y25105D02*
X92959Y25938D01*
X499049Y22001D02*
X499882Y21168D01*
X498215Y22001D02*
X499049D01*
X498215D02*
X499049Y22835D01*
X498215Y23668D02*
X499049Y22835D01*
X498215Y23668D02*
X499049D01*
X499882Y24501D01*
X500715Y23668D01*
X501548D01*
X500715Y22835D02*
X501548Y23668D01*
X500715Y22835D02*
X501548Y22001D01*
X500715D02*
X501548D01*
X499882Y21168D02*
X500715Y22001D01*
X504285D02*
X505118Y21168D01*
X503451Y22001D02*
X504285D01*
X503451D02*
X504285Y22835D01*
X503451Y23668D02*
X504285Y22835D01*
X503451Y23668D02*
X504285D01*
X505118Y24501D01*
X505951Y23668D01*
X506785D01*
X505951Y22835D02*
X506785Y23668D01*
X505951Y22835D02*
X506785Y22001D01*
X505951D02*
X506785D01*
X505118Y21168D02*
X505951Y22001D01*
X509521D02*
X510354Y21168D01*
X508688Y22001D02*
X509521D01*
X508688D02*
X509521Y22835D01*
X508688Y23668D02*
X509521Y22835D01*
X508688Y23668D02*
X509521D01*
X510354Y24501D01*
X511188Y23668D01*
X512021D01*
X511188Y22835D02*
X512021Y23668D01*
X511188Y22835D02*
X512021Y22001D01*
X511188D02*
X512021D01*
X510354Y21168D02*
X511188Y22001D01*
X552474Y170938D02*
X553307Y170105D01*
X551640Y170938D02*
X552474D01*
X551640D02*
X552474Y171772D01*
X551640Y172605D02*
X552474Y171772D01*
X551640Y172605D02*
X552474D01*
X553307Y173438D01*
X554140Y172605D01*
X554974D01*
X554140Y171772D02*
X554974Y172605D01*
X554140Y171772D02*
X554974Y170938D01*
X554140D02*
X554974D01*
X553307Y170105D02*
X554140Y170938D01*
X542474D02*
X543307Y170105D01*
X541640Y170938D02*
X542474D01*
X541640D02*
X542474Y171772D01*
X541640Y172605D02*
X542474Y171772D01*
X541640Y172605D02*
X542474D01*
X543307Y173438D01*
X544140Y172605D01*
X544974D01*
X544140Y171772D02*
X544974Y172605D01*
X544140Y171772D02*
X544974Y170938D01*
X544140D02*
X544974D01*
X543307Y170105D02*
X544140Y170938D01*
X552474Y180938D02*
X553307Y180105D01*
X551640Y180938D02*
X552474D01*
X551640D02*
X552474Y181772D01*
X551640Y182605D02*
X552474Y181772D01*
X551640Y182605D02*
X552474D01*
X553307Y183438D01*
X554140Y182605D01*
X554974D01*
X554140Y181772D02*
X554974Y182605D01*
X554140Y181772D02*
X554974Y180938D01*
X554140D02*
X554974D01*
X553307Y180105D02*
X554140Y180938D01*
X542474D02*
X543307Y180105D01*
X541640Y180938D02*
X542474D01*
X541640D02*
X542474Y181772D01*
X541640Y182605D02*
X542474Y181772D01*
X541640Y182605D02*
X542474D01*
X543307Y183438D01*
X544140Y182605D01*
X544974D01*
X544140Y181772D02*
X544974Y182605D01*
X544140Y181772D02*
X544974Y180938D01*
X544140D02*
X544974D01*
X543307Y180105D02*
X544140Y180938D01*
X552474Y190938D02*
X553307Y190105D01*
X551640Y190938D02*
X552474D01*
X551640D02*
X552474Y191772D01*
X551640Y192605D02*
X552474Y191772D01*
X551640Y192605D02*
X552474D01*
X553307Y193438D01*
X554140Y192605D01*
X554974D01*
X554140Y191772D02*
X554974Y192605D01*
X554140Y191772D02*
X554974Y190938D01*
X554140D02*
X554974D01*
X553307Y190105D02*
X554140Y190938D01*
X542474D02*
X543307Y190105D01*
X541640Y190938D02*
X542474D01*
X541640D02*
X542474Y191772D01*
X541640Y192605D02*
X542474Y191772D01*
X541640Y192605D02*
X542474D01*
X543307Y193438D01*
X544140Y192605D01*
X544974D01*
X544140Y191772D02*
X544974Y192605D01*
X544140Y191772D02*
X544974Y190938D01*
X544140D02*
X544974D01*
X543307Y190105D02*
X544140Y190938D01*
X552474Y200938D02*
X553307Y200105D01*
X551640Y200938D02*
X552474D01*
X551640D02*
X552474Y201772D01*
X551640Y202605D02*
X552474Y201772D01*
X551640Y202605D02*
X552474D01*
X553307Y203438D01*
X554140Y202605D01*
X554974D01*
X554140Y201772D02*
X554974Y202605D01*
X554140Y201772D02*
X554974Y200938D01*
X554140D02*
X554974D01*
X553307Y200105D02*
X554140Y200938D01*
X542474D02*
X543307Y200105D01*
X541640Y200938D02*
X542474D01*
X541640D02*
X542474Y201772D01*
X541640Y202605D02*
X542474Y201772D01*
X541640Y202605D02*
X542474D01*
X543307Y203438D01*
X544140Y202605D01*
X544974D01*
X544140Y201772D02*
X544974Y202605D01*
X544140Y201772D02*
X544974Y200938D01*
X544140D02*
X544974D01*
X543307Y200105D02*
X544140Y200938D01*
X292625Y286417D02*
X294291Y284751D01*
X295958Y286417D01*
X294291Y288084D02*
X295958Y286417D01*
X292625D02*
X294291Y288084D01*
X289344Y286417D02*
X291010Y284751D01*
X292677Y286417D01*
X291010Y288084D02*
X292677Y286417D01*
X289344D02*
X291010Y288084D01*
X286063Y286417D02*
X287730Y284751D01*
X289396Y286417D01*
X287730Y288084D02*
X289396Y286417D01*
X286063D02*
X287730Y288084D01*
X282782Y286417D02*
X284449Y284751D01*
X286116Y286417D01*
X284449Y288084D02*
X286116Y286417D01*
X282782D02*
X284449Y288084D01*
X282782Y276575D02*
X284449Y274908D01*
X286116Y276575D01*
X284449Y278241D02*
X286116Y276575D01*
X282782D02*
X284449Y278241D01*
X286063Y276575D02*
X287730Y274908D01*
X289396Y276575D01*
X287730Y278241D02*
X289396Y276575D01*
X286063D02*
X287730Y278241D01*
X289344Y276575D02*
X291010Y274908D01*
X292677Y276575D01*
X291010Y278241D02*
X292677Y276575D01*
X289344D02*
X291010Y278241D01*
X292625Y276575D02*
X294291Y274908D01*
X295958Y276575D01*
X294291Y278241D02*
X295958Y276575D01*
X292625D02*
X294291Y278241D01*
X144003Y276575D02*
X145669Y274908D01*
X147336Y276575D01*
X145669Y278241D02*
X147336Y276575D01*
X144003D02*
X145669Y278241D01*
X140722Y276575D02*
X142388Y274908D01*
X144055Y276575D01*
X142388Y278241D02*
X144055Y276575D01*
X140722D02*
X142388Y278241D01*
X137441Y276575D02*
X139108Y274908D01*
X140774Y276575D01*
X139108Y278241D02*
X140774Y276575D01*
X137441D02*
X139108Y278241D01*
X134160Y276575D02*
X135827Y274908D01*
X137493Y276575D01*
X135827Y278241D02*
X137493Y276575D01*
X134160D02*
X135827Y278241D01*
X134160Y286417D02*
X135827Y284751D01*
X137493Y286417D01*
X135827Y288084D02*
X137493Y286417D01*
X134160D02*
X135827Y288084D01*
X137441Y286417D02*
X139108Y284751D01*
X140774Y286417D01*
X139108Y288084D02*
X140774Y286417D01*
X137441D02*
X139108Y288084D01*
X140722Y286417D02*
X142388Y284751D01*
X144055Y286417D01*
X142388Y288084D02*
X144055Y286417D01*
X140722D02*
X142388Y288084D01*
X144003Y286417D02*
X145669Y284751D01*
X147336Y286417D01*
X145669Y288084D02*
X147336Y286417D01*
X144003D02*
X145669Y288084D01*
X66929Y30496D02*
X67929Y32496D01*
X65929D02*
X67929D01*
X65929D02*
X66929Y30496D01*
Y29829D02*
X68596Y33163D01*
X65263D02*
X68596D01*
X65263D02*
X66929Y29829D01*
X530223Y231608D02*
X531056D01*
X530223D02*
Y233274D01*
X531056D01*
Y234108D01*
X532723D01*
Y233274D02*
Y234108D01*
Y233274D02*
X533556D01*
Y231608D02*
Y233274D01*
X532723Y231608D02*
X533556D01*
X532723Y230774D02*
Y231608D01*
X531056Y230774D02*
X532723D01*
X531056D02*
Y231608D01*
X530223Y221608D02*
X531056D01*
X530223D02*
Y223274D01*
X531056D01*
Y224108D01*
X532723D01*
Y223274D02*
Y224108D01*
Y223274D02*
X533556D01*
Y221608D02*
Y223274D01*
X532723Y221608D02*
X533556D01*
X532723Y220774D02*
Y221608D01*
X531056Y220774D02*
X532723D01*
X531056D02*
Y221608D01*
X529829Y255623D02*
X530663D01*
X529829D02*
Y257290D01*
X530663D01*
Y258123D01*
X532329D01*
Y257290D02*
Y258123D01*
Y257290D02*
X533163D01*
Y255623D02*
Y257290D01*
X532329Y255623D02*
X533163D01*
X532329Y254790D02*
Y255623D01*
X530663Y254790D02*
X532329D01*
X530663D02*
Y255623D01*
X529829Y245623D02*
X530663D01*
X529829D02*
Y247290D01*
X530663D01*
Y248123D01*
X532329D01*
Y247290D02*
Y248123D01*
Y247290D02*
X533163D01*
Y245623D02*
Y247290D01*
X532329Y245623D02*
X533163D01*
X532329Y244790D02*
Y245623D01*
X530663Y244790D02*
X532329D01*
X530663D02*
Y245623D01*
X497782Y236962D02*
X498616D01*
X497782D02*
Y238629D01*
X498616D01*
Y239462D01*
X500282D01*
Y238629D02*
Y239462D01*
Y238629D02*
X501116D01*
Y236962D02*
Y238629D01*
X500282Y236962D02*
X501116D01*
X500282Y236129D02*
Y236962D01*
X498616Y236129D02*
X500282D01*
X498616D02*
Y236962D01*
X507782D02*
X508615D01*
X507782D02*
Y238629D01*
X508615D01*
Y239462D01*
X510282D01*
Y238629D02*
Y239462D01*
Y238629D02*
X511116D01*
Y236962D02*
Y238629D01*
X510282Y236962D02*
X511116D01*
X510282Y236129D02*
Y236962D01*
X508615Y236129D02*
X510282D01*
X508615D02*
Y236962D01*
X105860Y258615D02*
X106693Y257782D01*
X105026Y258615D02*
X105860D01*
X105026D02*
X105860Y259449D01*
X105026Y260282D02*
X105860Y259449D01*
X105026Y260282D02*
X105860D01*
X106693Y261116D01*
X107526Y260282D01*
X108360D01*
X107526Y259449D02*
X108360Y260282D01*
X107526Y259449D02*
X108360Y258615D01*
X107526D02*
X108360D01*
X106693Y257782D02*
X107526Y258615D01*
X95860D02*
X96693Y257782D01*
X95026Y258615D02*
X95860D01*
X95026D02*
X95860Y259449D01*
X95026Y260282D02*
X95860Y259449D01*
X95026Y260282D02*
X95860D01*
X96693Y261116D01*
X97526Y260282D01*
X98360D01*
X97526Y259449D02*
X98360Y260282D01*
X97526Y259449D02*
X98360Y258615D01*
X97526D02*
X98360D01*
X96693Y257782D02*
X97526Y258615D01*
X85860D02*
X86693Y257782D01*
X85026Y258615D02*
X85860D01*
X85026D02*
X85860Y259449D01*
X85026Y260282D02*
X85860Y259449D01*
X85026Y260282D02*
X85860D01*
X86693Y261116D01*
X87526Y260282D01*
X88360D01*
X87526Y259449D02*
X88360Y260282D01*
X87526Y259449D02*
X88360Y258615D01*
X87526D02*
X88360D01*
X86693Y257782D02*
X87526Y258615D01*
X75860D02*
X76693Y257782D01*
X75026Y258615D02*
X75860D01*
X75026D02*
X75860Y259449D01*
X75026Y260282D02*
X75860Y259449D01*
X75026Y260282D02*
X75860D01*
X76693Y261116D01*
X77526Y260282D01*
X78360D01*
X77526Y259449D02*
X78360Y260282D01*
X77526Y259449D02*
X78360Y258615D01*
X77526D02*
X78360D01*
X76693Y257782D02*
X77526Y258615D01*
X65860D02*
X66693Y257782D01*
X65026Y258615D02*
X65860D01*
X65026D02*
X65860Y259449D01*
X65026Y260282D02*
X65860Y259449D01*
X65026Y260282D02*
X65860D01*
X66693Y261116D01*
X67526Y260282D01*
X68360D01*
X67526Y259449D02*
X68360Y260282D01*
X67526Y259449D02*
X68360Y258615D01*
X67526D02*
X68360D01*
X66693Y257782D02*
X67526Y258615D01*
X55860D02*
X56693Y257782D01*
X55026Y258615D02*
X55860D01*
X55026D02*
X55860Y259449D01*
X55026Y260282D02*
X55860Y259449D01*
X55026Y260282D02*
X55860D01*
X56693Y261116D01*
X57526Y260282D01*
X58360D01*
X57526Y259449D02*
X58360Y260282D01*
X57526Y259449D02*
X58360Y258615D01*
X57526D02*
X58360D01*
X56693Y257782D02*
X57526Y258615D01*
X483530Y21608D02*
X484364D01*
X483530D02*
Y23274D01*
X484364D01*
Y24108D01*
X486030D01*
Y23274D02*
Y24108D01*
Y23274D02*
X486864D01*
Y21608D02*
Y23274D01*
X486030Y21608D02*
X486864D01*
X486030Y20774D02*
Y21608D01*
X484364Y20774D02*
X486030D01*
X484364D02*
Y21608D01*
X473530D02*
X474364D01*
X473530D02*
Y23274D01*
X474364D01*
Y24108D01*
X476030D01*
Y23274D02*
Y24108D01*
Y23274D02*
X476863D01*
Y21608D02*
Y23274D01*
X476030Y21608D02*
X476863D01*
X476030Y20774D02*
Y21608D01*
X474364Y20774D02*
X476030D01*
X474364D02*
Y21608D01*
X546759Y65072D02*
X547592D01*
X546759D02*
Y66739D01*
X547592D01*
Y67572D01*
X549259D01*
Y66739D02*
Y67572D01*
Y66739D02*
X550092D01*
Y65072D02*
Y66739D01*
X549259Y65072D02*
X550092D01*
X549259Y64239D02*
Y65072D01*
X547592Y64239D02*
X549259D01*
X547592D02*
Y65072D01*
X546759Y55072D02*
X547592D01*
X546759D02*
Y56739D01*
X547592D01*
Y57572D01*
X549259D01*
Y56739D02*
Y57572D01*
Y56739D02*
X550092D01*
Y55072D02*
Y56739D01*
X549259Y55072D02*
X550092D01*
X549259Y54239D02*
Y55072D01*
X547592Y54239D02*
X549259D01*
X547592D02*
Y55072D01*
X546759Y41056D02*
X547592D01*
X546759D02*
Y42723D01*
X547592D01*
Y43556D01*
X549259D01*
Y42723D02*
Y43556D01*
Y42723D02*
X550092D01*
Y41056D02*
Y42723D01*
X549259Y41056D02*
X550092D01*
X549259Y40223D02*
Y41056D01*
X547592Y40223D02*
X549259D01*
X547592D02*
Y41056D01*
X546759Y31056D02*
X547592D01*
X546759D02*
Y32723D01*
X547592D01*
Y33556D01*
X549259D01*
Y32723D02*
Y33556D01*
Y32723D02*
X550092D01*
Y31056D02*
Y32723D01*
X549259Y31056D02*
X550092D01*
X549259Y30223D02*
Y31056D01*
X547592Y30223D02*
X549259D01*
X547592D02*
Y31056D01*
X546759Y89088D02*
X547592D01*
X546759D02*
Y90755D01*
X547592D01*
Y91588D01*
X549259D01*
Y90755D02*
Y91588D01*
Y90755D02*
X550092D01*
Y89088D02*
Y90755D01*
X549259Y89088D02*
X550092D01*
X549259Y88255D02*
Y89088D01*
X547592Y88255D02*
X549259D01*
X547592D02*
Y89088D01*
X546759Y79088D02*
X547592D01*
X546759D02*
Y80755D01*
X547592D01*
Y81588D01*
X549259D01*
Y80755D02*
Y81588D01*
Y80755D02*
X550092D01*
Y79088D02*
Y80755D01*
X549259Y79088D02*
X550092D01*
X549259Y78255D02*
Y79088D01*
X547592Y78255D02*
X549259D01*
X547592D02*
Y79088D01*
X546759Y113104D02*
X547592D01*
X546759D02*
Y114770D01*
X547592D01*
Y115604D01*
X549259D01*
Y114770D02*
Y115604D01*
Y114770D02*
X550092D01*
Y113104D02*
Y114770D01*
X549259Y113104D02*
X550092D01*
X549259Y112270D02*
Y113104D01*
X547592Y112270D02*
X549259D01*
X547592D02*
Y113104D01*
X546759Y103104D02*
X547592D01*
X546759D02*
Y104770D01*
X547592D01*
Y105604D01*
X549259D01*
Y104770D02*
Y105604D01*
Y104770D02*
X550092D01*
Y103104D02*
Y104770D01*
X549259Y103104D02*
X550092D01*
X549259Y102270D02*
Y103104D01*
X547592Y102270D02*
X549259D01*
X547592D02*
Y103104D01*
X546759Y137119D02*
X547592D01*
X546759D02*
Y138786D01*
X547592D01*
Y139619D01*
X549259D01*
Y138786D02*
Y139619D01*
Y138786D02*
X550092D01*
Y137119D02*
Y138786D01*
X549259Y137119D02*
X550092D01*
X549259Y136286D02*
Y137119D01*
X547592Y136286D02*
X549259D01*
X547592D02*
Y137119D01*
X546759Y127119D02*
X547592D01*
X546759D02*
Y128786D01*
X547592D01*
Y129619D01*
X549259D01*
Y128786D02*
Y129619D01*
Y128786D02*
X550092D01*
Y127119D02*
Y128786D01*
X549259Y127119D02*
X550092D01*
X549259Y126286D02*
Y127119D01*
X547592Y126286D02*
X549259D01*
X547592D02*
Y127119D01*
X12598Y261992D02*
X13598Y263992D01*
X11598D02*
X13598D01*
X11598D02*
X12598Y261992D01*
Y261326D02*
X14265Y264659D01*
X10932D02*
X14265D01*
X10932D02*
X12598Y261326D01*
X558268Y261992D02*
X559268Y263992D01*
X557268D02*
X559268D01*
X557268D02*
X558268Y261992D01*
Y261326D02*
X559934Y264659D01*
X556601D02*
X559934D01*
X556601D02*
X558268Y261326D01*
Y11598D02*
X559268Y13598D01*
X557268D02*
X559268D01*
X557268D02*
X558268Y11598D01*
Y10932D02*
X559934Y14265D01*
X556601D02*
X559934D01*
X556601D02*
X558268Y10932D01*
X414081Y209593D02*
Y210426D01*
X414915Y211260D01*
X414081Y212093D02*
X414915Y211260D01*
X414081Y212093D02*
Y212927D01*
X414915D01*
X415748Y212093D01*
X416581Y212927D01*
X417415D01*
Y212093D02*
Y212927D01*
X416581Y211260D02*
X417415Y212093D01*
X416581Y211260D02*
X417415Y210426D01*
Y209593D02*
Y210426D01*
X416581Y209593D02*
X417415D01*
X415748Y210426D02*
X416581Y209593D01*
X414915D02*
X415748Y210426D01*
X414081Y209593D02*
X414915D01*
X414081Y229593D02*
Y230427D01*
X414915Y231260D01*
X414081Y232093D02*
X414915Y231260D01*
X414081Y232093D02*
Y232927D01*
X414915D01*
X415748Y232093D01*
X416581Y232927D01*
X417415D01*
Y232093D02*
Y232927D01*
X416581Y231260D02*
X417415Y232093D01*
X416581Y231260D02*
X417415Y230427D01*
Y229593D02*
Y230427D01*
X416581Y229593D02*
X417415D01*
X415748Y230427D02*
X416581Y229593D01*
X414915D02*
X415748Y230427D01*
X414081Y229593D02*
X414915D01*
X414081Y219593D02*
Y220427D01*
X414915Y221260D01*
X414081Y222093D02*
X414915Y221260D01*
X414081Y222093D02*
Y222926D01*
X414915D01*
X415748Y222093D01*
X416581Y222926D01*
X417415D01*
Y222093D02*
Y222926D01*
X416581Y221260D02*
X417415Y222093D01*
X416581Y221260D02*
X417415Y220427D01*
Y219593D02*
Y220427D01*
X416581Y219593D02*
X417415D01*
X415748Y220427D02*
X416581Y219593D01*
X414915D02*
X415748Y220427D01*
X414081Y219593D02*
X414915D01*
X441404Y175499D02*
X443071Y176332D01*
X444737Y175499D01*
X443904Y177165D02*
X444737Y175499D01*
X443904Y177165D02*
X444737Y178832D01*
X443071Y177999D02*
X444737Y178832D01*
X441404D02*
X443071Y177999D01*
X441404Y178832D02*
X442238Y177165D01*
X441404Y175499D02*
X442238Y177165D01*
X421404Y175499D02*
X423071Y176332D01*
X424738Y175499D01*
X423904Y177165D02*
X424738Y175499D01*
X423904Y177165D02*
X424738Y178832D01*
X423071Y177999D02*
X424738Y178832D01*
X421404D02*
X423071Y177999D01*
X421404Y178832D02*
X422237Y177165D01*
X421404Y175499D02*
X422237Y177165D01*
X431404Y175499D02*
X433071Y176332D01*
X434737Y175499D01*
X433904Y177165D02*
X434737Y175499D01*
X433904Y177165D02*
X434737Y178832D01*
X433071Y177999D02*
X434737Y178832D01*
X431404D02*
X433071Y177999D01*
X431404Y178832D02*
X432237Y177165D01*
X431404Y175499D02*
X432237Y177165D01*
X148773Y49482D02*
X149606Y48648D01*
X147940Y49482D02*
X148773D01*
X147940D02*
X148773Y50315D01*
X147940Y51148D02*
X148773Y50315D01*
X147940Y51148D02*
X148773D01*
X149606Y51982D01*
X150440Y51148D01*
X151273D01*
X150440Y50315D02*
X151273Y51148D01*
X150440Y50315D02*
X151273Y49482D01*
X150440D02*
X151273D01*
X149606Y48648D02*
X150440Y49482D01*
X148773Y59482D02*
X149606Y58648D01*
X147940Y59482D02*
X148773D01*
X147940D02*
X148773Y60315D01*
X147940Y61148D02*
X148773Y60315D01*
X147940Y61148D02*
X148773D01*
X149606Y61982D01*
X150440Y61148D01*
X151273D01*
X150440Y60315D02*
X151273Y61148D01*
X150440Y60315D02*
X151273Y59482D01*
X150440D02*
X151273D01*
X149606Y58648D02*
X150440Y59482D01*
X148773Y69482D02*
X149606Y68648D01*
X147940Y69482D02*
X148773D01*
X147940D02*
X148773Y70315D01*
X147940Y71148D02*
X148773Y70315D01*
X147940Y71148D02*
X148773D01*
X149606Y71982D01*
X150440Y71148D01*
X151273D01*
X150440Y70315D02*
X151273Y71148D01*
X150440Y70315D02*
X151273Y69482D01*
X150440D02*
X151273D01*
X149606Y68648D02*
X150440Y69482D01*
X148773Y79482D02*
X149606Y78648D01*
X147940Y79482D02*
X148773D01*
X147940D02*
X148773Y80315D01*
X147940Y81148D02*
X148773Y80315D01*
X147940Y81148D02*
X148773D01*
X149606Y81982D01*
X150440Y81148D01*
X151273D01*
X150440Y80315D02*
X151273Y81148D01*
X150440Y80315D02*
X151273Y79482D01*
X150440D02*
X151273D01*
X149606Y78648D02*
X150440Y79482D01*
X148773Y89482D02*
X149606Y88648D01*
X147940Y89482D02*
X148773D01*
X147940D02*
X148773Y90315D01*
X147940Y91148D02*
X148773Y90315D01*
X147940Y91148D02*
X148773D01*
X149606Y91982D01*
X150440Y91148D01*
X151273D01*
X150440Y90315D02*
X151273Y91148D01*
X150440Y90315D02*
X151273Y89482D01*
X150440D02*
X151273D01*
X149606Y88648D02*
X150440Y89482D01*
X148773Y99482D02*
X149606Y98648D01*
X147940Y99482D02*
X148773D01*
X147940D02*
X148773Y100315D01*
X147940Y101148D02*
X148773Y100315D01*
X147940Y101148D02*
X148773D01*
X149606Y101982D01*
X150440Y101148D01*
X151273D01*
X150440Y100315D02*
X151273Y101148D01*
X150440Y100315D02*
X151273Y99482D01*
X150440D02*
X151273D01*
X149606Y98648D02*
X150440Y99482D01*
X138773D02*
X139606Y98648D01*
X137940Y99482D02*
X138773D01*
X137940D02*
X138773Y100315D01*
X137940Y101148D02*
X138773Y100315D01*
X137940Y101148D02*
X138773D01*
X139606Y101982D01*
X140440Y101148D01*
X141273D01*
X140440Y100315D02*
X141273Y101148D01*
X140440Y100315D02*
X141273Y99482D01*
X140440D02*
X141273D01*
X139606Y98648D02*
X140440Y99482D01*
X138773Y119482D02*
X139606Y118648D01*
X137940Y119482D02*
X138773D01*
X137940D02*
X138773Y120315D01*
X137940Y121148D02*
X138773Y120315D01*
X137940Y121148D02*
X138773D01*
X139606Y121982D01*
X140440Y121148D01*
X141273D01*
X140440Y120315D02*
X141273Y121148D01*
X140440Y120315D02*
X141273Y119482D01*
X140440D02*
X141273D01*
X139606Y118648D02*
X140440Y119482D01*
X138773Y109482D02*
X139606Y108648D01*
X137940Y109482D02*
X138773D01*
X137940D02*
X138773Y110315D01*
X137940Y111148D02*
X138773Y110315D01*
X137940Y111148D02*
X138773D01*
X139606Y111982D01*
X140440Y111148D01*
X141273D01*
X140440Y110315D02*
X141273Y111148D01*
X140440Y110315D02*
X141273Y109482D01*
X140440D02*
X141273D01*
X139606Y108648D02*
X140440Y109482D01*
X138773Y49482D02*
X139606Y48648D01*
X137940Y49482D02*
X138773D01*
X137940D02*
X138773Y50315D01*
X137940Y51148D02*
X138773Y50315D01*
X137940Y51148D02*
X138773D01*
X139606Y51982D01*
X140440Y51148D01*
X141273D01*
X140440Y50315D02*
X141273Y51148D01*
X140440Y50315D02*
X141273Y49482D01*
X140440D02*
X141273D01*
X139606Y48648D02*
X140440Y49482D01*
X138773Y89482D02*
X139606Y88648D01*
X137940Y89482D02*
X138773D01*
X137940D02*
X138773Y90315D01*
X137940Y91148D02*
X138773Y90315D01*
X137940Y91148D02*
X138773D01*
X139606Y91982D01*
X140440Y91148D01*
X141273D01*
X140440Y90315D02*
X141273Y91148D01*
X140440Y90315D02*
X141273Y89482D01*
X140440D02*
X141273D01*
X139606Y88648D02*
X140440Y89482D01*
X138773Y79482D02*
X139606Y78648D01*
X137940Y79482D02*
X138773D01*
X137940D02*
X138773Y80315D01*
X137940Y81148D02*
X138773Y80315D01*
X137940Y81148D02*
X138773D01*
X139606Y81982D01*
X140440Y81148D01*
X141273D01*
X140440Y80315D02*
X141273Y81148D01*
X140440Y80315D02*
X141273Y79482D01*
X140440D02*
X141273D01*
X139606Y78648D02*
X140440Y79482D01*
X138773Y69482D02*
X139606Y68648D01*
X137940Y69482D02*
X138773D01*
X137940D02*
X138773Y70315D01*
X137940Y71148D02*
X138773Y70315D01*
X137940Y71148D02*
X138773D01*
X139606Y71982D01*
X140440Y71148D01*
X141273D01*
X140440Y70315D02*
X141273Y71148D01*
X140440Y70315D02*
X141273Y69482D01*
X140440D02*
X141273D01*
X139606Y68648D02*
X140440Y69482D01*
X138773Y59482D02*
X139606Y58648D01*
X137940Y59482D02*
X138773D01*
X137940D02*
X138773Y60315D01*
X137940Y61148D02*
X138773Y60315D01*
X137940Y61148D02*
X138773D01*
X139606Y61982D01*
X140440Y61148D01*
X141273D01*
X140440Y60315D02*
X141273Y61148D01*
X140440Y60315D02*
X141273Y59482D01*
X140440D02*
X141273D01*
X139606Y58648D02*
X140440Y59482D01*
X148773Y109482D02*
X149606Y108648D01*
X147940Y109482D02*
X148773D01*
X147940D02*
X148773Y110315D01*
X147940Y111148D02*
X148773Y110315D01*
X147940Y111148D02*
X148773D01*
X149606Y111982D01*
X150440Y111148D01*
X151273D01*
X150440Y110315D02*
X151273Y111148D01*
X150440Y110315D02*
X151273Y109482D01*
X150440D02*
X151273D01*
X149606Y108648D02*
X150440Y109482D01*
X148773Y119482D02*
X149606Y118648D01*
X147940Y119482D02*
X148773D01*
X147940D02*
X148773Y120315D01*
X147940Y121148D02*
X148773Y120315D01*
X147940Y121148D02*
X148773D01*
X149606Y121982D01*
X150440Y121148D01*
X151273D01*
X150440Y120315D02*
X151273Y121148D01*
X150440Y120315D02*
X151273Y119482D01*
X150440D02*
X151273D01*
X149606Y118648D02*
X150440Y119482D01*
X139606Y142307D02*
X140606Y144307D01*
X138606D02*
X140606D01*
X138606D02*
X139606Y142307D01*
Y141640D02*
X141273Y144974D01*
X137940D02*
X141273D01*
X137940D02*
X139606Y141640D01*
X456535Y142307D02*
X457535Y144307D01*
X455535D02*
X457535D01*
X455535D02*
X456535Y142307D01*
Y141640D02*
X458202Y144974D01*
X454869D02*
X458202D01*
X454869D02*
X456535Y141640D01*
Y18291D02*
X457535Y20291D01*
X455535D02*
X457535D01*
X455535D02*
X456535Y18291D01*
Y17625D02*
X458202Y20958D01*
X454869D02*
X458202D01*
X454869D02*
X456535Y17625D01*
X139606Y18291D02*
X140606Y20291D01*
X138606D02*
X140606D01*
X138606D02*
X139606Y18291D01*
Y17625D02*
X141273Y20958D01*
X137940D02*
X141273D01*
X137940D02*
X139606Y17625D01*
X71562Y55420D02*
X73228Y56253D01*
X74895Y55420D01*
X74062Y57087D02*
X74895Y55420D01*
X74062Y57087D02*
X74895Y58753D01*
X73228Y57920D02*
X74895Y58753D01*
X71562D02*
X73228Y57920D01*
X71562Y58753D02*
X72395Y57087D01*
X71562Y55420D02*
X72395Y57087D01*
X71562Y65420D02*
X73228Y66253D01*
X74895Y65420D01*
X74062Y67087D02*
X74895Y65420D01*
X74062Y67087D02*
X74895Y68753D01*
X73228Y67920D02*
X74895Y68753D01*
X71562D02*
X73228Y67920D01*
X71562Y68753D02*
X72395Y67087D01*
X71562Y65420D02*
X72395Y67087D01*
X71562Y75499D02*
X73228Y76332D01*
X74895Y75499D01*
X74062Y77165D02*
X74895Y75499D01*
X74062Y77165D02*
X74895Y78832D01*
X73228Y77999D02*
X74895Y78832D01*
X71562D02*
X73228Y77999D01*
X71562Y78832D02*
X72395Y77165D01*
X71562Y75499D02*
X72395Y77165D01*
X71562Y85499D02*
X73228Y86332D01*
X74895Y85499D01*
X74062Y87165D02*
X74895Y85499D01*
X74062Y87165D02*
X74895Y88832D01*
X73228Y87999D02*
X74895Y88832D01*
X71562D02*
X73228Y87999D01*
X71562Y88832D02*
X72395Y87165D01*
X71562Y85499D02*
X72395Y87165D01*
X71562Y115499D02*
X73228Y116332D01*
X74895Y115499D01*
X74062Y117165D02*
X74895Y115499D01*
X74062Y117165D02*
X74895Y118832D01*
X73228Y117999D02*
X74895Y118832D01*
X71562D02*
X73228Y117999D01*
X71562Y118832D02*
X72395Y117165D01*
X71562Y115499D02*
X72395Y117165D01*
X71562Y125499D02*
X73228Y126332D01*
X74895Y125499D01*
X74062Y127165D02*
X74895Y125499D01*
X74062Y127165D02*
X74895Y128832D01*
X73228Y127999D02*
X74895Y128832D01*
X71562D02*
X73228Y127999D01*
X71562Y128832D02*
X72395Y127165D01*
X71562Y125499D02*
X72395Y127165D01*
X71562Y95499D02*
X73228Y96332D01*
X74895Y95499D01*
X74062Y97165D02*
X74895Y95499D01*
X74062Y97165D02*
X74895Y98832D01*
X73228Y97999D02*
X74895Y98832D01*
X71562D02*
X73228Y97999D01*
X71562Y98832D02*
X72395Y97165D01*
X71562Y95499D02*
X72395Y97165D01*
X71562Y105499D02*
X73228Y106332D01*
X74895Y105499D01*
X74062Y107165D02*
X74895Y105499D01*
X74062Y107165D02*
X74895Y108832D01*
X73228Y107999D02*
X74895Y108832D01*
X71562D02*
X73228Y107999D01*
X71562Y108832D02*
X72395Y107165D01*
X71562Y105499D02*
X72395Y107165D01*
X71562Y135499D02*
X73228Y136332D01*
X74895Y135499D01*
X74062Y137165D02*
X74895Y135499D01*
X74062Y137165D02*
X74895Y138832D01*
X73228Y137999D02*
X74895Y138832D01*
X71562D02*
X73228Y137999D01*
X71562Y138832D02*
X72395Y137165D01*
X71562Y135499D02*
X72395Y137165D01*
X71562Y145499D02*
X73228Y146332D01*
X74895Y145499D01*
X74062Y147165D02*
X74895Y145499D01*
X74062Y147165D02*
X74895Y148832D01*
X73228Y147999D02*
X74895Y148832D01*
X71562D02*
X73228Y147999D01*
X71562Y148832D02*
X72395Y147165D01*
X71562Y145499D02*
X72395Y147165D01*
X81404Y145499D02*
X83071Y146332D01*
X84737Y145499D01*
X83904Y147165D02*
X84737Y145499D01*
X83904Y147165D02*
X84737Y148832D01*
X83071Y147999D02*
X84737Y148832D01*
X81404D02*
X83071Y147999D01*
X81404Y148832D02*
X82237Y147165D01*
X81404Y145499D02*
X82237Y147165D01*
X81404Y135499D02*
X83071Y136332D01*
X84737Y135499D01*
X83904Y137165D02*
X84737Y135499D01*
X83904Y137165D02*
X84737Y138832D01*
X83071Y137999D02*
X84737Y138832D01*
X81404D02*
X83071Y137999D01*
X81404Y138832D02*
X82237Y137165D01*
X81404Y135499D02*
X82237Y137165D01*
X81404Y105499D02*
X83071Y106332D01*
X84737Y105499D01*
X83904Y107165D02*
X84737Y105499D01*
X83904Y107165D02*
X84737Y108832D01*
X83071Y107999D02*
X84737Y108832D01*
X81404D02*
X83071Y107999D01*
X81404Y108832D02*
X82237Y107165D01*
X81404Y105499D02*
X82237Y107165D01*
X81404Y95499D02*
X83071Y96332D01*
X84737Y95499D01*
X83904Y97165D02*
X84737Y95499D01*
X83904Y97165D02*
X84737Y98832D01*
X83071Y97999D02*
X84737Y98832D01*
X81404D02*
X83071Y97999D01*
X81404Y98832D02*
X82237Y97165D01*
X81404Y95499D02*
X82237Y97165D01*
X81404Y125499D02*
X83071Y126332D01*
X84737Y125499D01*
X83904Y127165D02*
X84737Y125499D01*
X83904Y127165D02*
X84737Y128832D01*
X83071Y127999D02*
X84737Y128832D01*
X81404D02*
X83071Y127999D01*
X81404Y128832D02*
X82237Y127165D01*
X81404Y125499D02*
X82237Y127165D01*
X81404Y115499D02*
X83071Y116332D01*
X84737Y115499D01*
X83904Y117165D02*
X84737Y115499D01*
X83904Y117165D02*
X84737Y118832D01*
X83071Y117999D02*
X84737Y118832D01*
X81404D02*
X83071Y117999D01*
X81404Y118832D02*
X82237Y117165D01*
X81404Y115499D02*
X82237Y117165D01*
X81404Y85499D02*
X83071Y86332D01*
X84737Y85499D01*
X83904Y87165D02*
X84737Y85499D01*
X83904Y87165D02*
X84737Y88832D01*
X83071Y87999D02*
X84737Y88832D01*
X81404D02*
X83071Y87999D01*
X81404Y88832D02*
X82237Y87165D01*
X81404Y85499D02*
X82237Y87165D01*
X81404Y75499D02*
X83071Y76332D01*
X84737Y75499D01*
X83904Y77165D02*
X84737Y75499D01*
X83904Y77165D02*
X84737Y78832D01*
X83071Y77999D02*
X84737Y78832D01*
X81404D02*
X83071Y77999D01*
X81404Y78832D02*
X82237Y77165D01*
X81404Y75499D02*
X82237Y77165D01*
X81404Y65420D02*
X83071Y66253D01*
X84737Y65420D01*
X83904Y67087D02*
X84737Y65420D01*
X83904Y67087D02*
X84737Y68753D01*
X83071Y67920D02*
X84737Y68753D01*
X81404D02*
X83071Y67920D01*
X81404Y68753D02*
X82237Y67087D01*
X81404Y65420D02*
X82237Y67087D01*
X81404Y55420D02*
X83071Y56253D01*
X84737Y55420D01*
X83904Y57087D02*
X84737Y55420D01*
X83904Y57087D02*
X84737Y58753D01*
X83071Y57920D02*
X84737Y58753D01*
X81404D02*
X83071Y57920D01*
X81404Y58753D02*
X82237Y57087D01*
X81404Y55420D02*
X82237Y57087D01*
X51877Y145499D02*
X53543Y146332D01*
X55210Y145499D01*
X54377Y147165D02*
X55210Y145499D01*
X54377Y147165D02*
X55210Y148832D01*
X53543Y147999D02*
X55210Y148832D01*
X51877D02*
X53543Y147999D01*
X51877Y148832D02*
X52710Y147165D01*
X51877Y145499D02*
X52710Y147165D01*
X51877Y135499D02*
X53543Y136332D01*
X55210Y135499D01*
X54377Y137165D02*
X55210Y135499D01*
X54377Y137165D02*
X55210Y138832D01*
X53543Y137999D02*
X55210Y138832D01*
X51877D02*
X53543Y137999D01*
X51877Y138832D02*
X52710Y137165D01*
X51877Y135499D02*
X52710Y137165D01*
X51877Y105499D02*
X53543Y106332D01*
X55210Y105499D01*
X54377Y107165D02*
X55210Y105499D01*
X54377Y107165D02*
X55210Y108832D01*
X53543Y107999D02*
X55210Y108832D01*
X51877D02*
X53543Y107999D01*
X51877Y108832D02*
X52710Y107165D01*
X51877Y105499D02*
X52710Y107165D01*
X51877Y95499D02*
X53543Y96332D01*
X55210Y95499D01*
X54377Y97165D02*
X55210Y95499D01*
X54377Y97165D02*
X55210Y98832D01*
X53543Y97999D02*
X55210Y98832D01*
X51877D02*
X53543Y97999D01*
X51877Y98832D02*
X52710Y97165D01*
X51877Y95499D02*
X52710Y97165D01*
X51877Y125499D02*
X53543Y126332D01*
X55210Y125499D01*
X54377Y127165D02*
X55210Y125499D01*
X54377Y127165D02*
X55210Y128832D01*
X53543Y127999D02*
X55210Y128832D01*
X51877D02*
X53543Y127999D01*
X51877Y128832D02*
X52710Y127165D01*
X51877Y125499D02*
X52710Y127165D01*
X51877Y115499D02*
X53543Y116332D01*
X55210Y115499D01*
X54377Y117165D02*
X55210Y115499D01*
X54377Y117165D02*
X55210Y118832D01*
X53543Y117999D02*
X55210Y118832D01*
X51877D02*
X53543Y117999D01*
X51877Y118832D02*
X52710Y117165D01*
X51877Y115499D02*
X52710Y117165D01*
X51877Y85499D02*
X53543Y86332D01*
X55210Y85499D01*
X54377Y87165D02*
X55210Y85499D01*
X54377Y87165D02*
X55210Y88832D01*
X53543Y87999D02*
X55210Y88832D01*
X51877D02*
X53543Y87999D01*
X51877Y88832D02*
X52710Y87165D01*
X51877Y85499D02*
X52710Y87165D01*
X51877Y75499D02*
X53543Y76332D01*
X55210Y75499D01*
X54377Y77165D02*
X55210Y75499D01*
X54377Y77165D02*
X55210Y78832D01*
X53543Y77999D02*
X55210Y78832D01*
X51877D02*
X53543Y77999D01*
X51877Y78832D02*
X52710Y77165D01*
X51877Y75499D02*
X52710Y77165D01*
X51877Y65420D02*
X53543Y66253D01*
X55210Y65420D01*
X54377Y67087D02*
X55210Y65420D01*
X54377Y67087D02*
X55210Y68753D01*
X53543Y67920D02*
X55210Y68753D01*
X51877D02*
X53543Y67920D01*
X51877Y68753D02*
X52710Y67087D01*
X51877Y65420D02*
X52710Y67087D01*
X51877Y55420D02*
X53543Y56253D01*
X55210Y55420D01*
X54377Y57087D02*
X55210Y55420D01*
X54377Y57087D02*
X55210Y58753D01*
X53543Y57920D02*
X55210Y58753D01*
X51877D02*
X53543Y57920D01*
X51877Y58753D02*
X52710Y57087D01*
X51877Y55420D02*
X52710Y57087D01*
X204632Y188333D02*
X207966D01*
Y191667D01*
X204632D02*
X207966D01*
X204632Y188333D02*
Y191667D01*
Y184121D02*
X207966D01*
Y187454D01*
X204632D02*
X207966D01*
X204632Y184121D02*
Y187454D01*
X461916Y247507D02*
X463583Y248340D01*
X465249Y247507D01*
X464416Y249173D02*
X465249Y247507D01*
X464416Y249173D02*
X465249Y250840D01*
X463583Y250007D02*
X465249Y250840D01*
X461916D02*
X463583Y250007D01*
X461916Y250840D02*
X462749Y249173D01*
X461916Y247507D02*
X462749Y249173D01*
X461916Y227507D02*
X463583Y228340D01*
X465249Y227507D01*
X464416Y229173D02*
X465249Y227507D01*
X464416Y229173D02*
X465249Y230840D01*
X463583Y230007D02*
X465249Y230840D01*
X461916D02*
X463583Y230007D01*
X461916Y230840D02*
X462749Y229173D01*
X461916Y227507D02*
X462749Y229173D01*
X461916Y237507D02*
X463583Y238340D01*
X465249Y237507D01*
X464416Y239173D02*
X465249Y237507D01*
X464416Y239173D02*
X465249Y240840D01*
X463583Y240007D02*
X465249Y240840D01*
X461916D02*
X463583Y240007D01*
X461916Y240840D02*
X462749Y239173D01*
X461916Y237507D02*
X462749Y239173D01*
D78*
X632442Y384004D02*
X1020339D01*
X632442Y234004D02*
X1020339D01*
X632442Y219004D02*
X1020339D01*
Y399004D01*
X632442D02*
X1020339D01*
X632442Y219004D02*
Y399004D01*
X942459Y219004D02*
Y399004D01*
X891871Y219004D02*
Y399004D01*
X757311Y219004D02*
Y399004D01*
X687530Y219004D02*
Y399004D01*
D79*
X946959Y395702D02*
Y388504D01*
Y392103D01*
X951758D01*
Y395702D01*
Y388504D01*
X955356D02*
X957755D01*
X958955Y389703D01*
Y392103D01*
X957755Y393302D01*
X955356D01*
X954157Y392103D01*
Y389703D01*
X955356Y388504D01*
X961354D02*
X963754D01*
X962554D01*
Y395702D01*
X961354D01*
X970951Y388504D02*
X968552D01*
X967352Y389703D01*
Y392103D01*
X968552Y393302D01*
X970951D01*
X972151Y392103D01*
Y390903D01*
X967352D01*
X981748Y395702D02*
X986546D01*
X984147D01*
Y388504D01*
X988945Y393302D02*
Y389703D01*
X990145Y388504D01*
X993744D01*
Y387304D01*
X992544Y386105D01*
X991345D01*
X993744Y388504D02*
Y393302D01*
X996143Y386105D02*
Y393302D01*
X999742D01*
X1000941Y392103D01*
Y389703D01*
X999742Y388504D01*
X996143D01*
X1006940D02*
X1004540D01*
X1003341Y389703D01*
Y392103D01*
X1004540Y393302D01*
X1006940D01*
X1008139Y392103D01*
Y390903D01*
X1003341D01*
X896371Y388504D02*
Y395702D01*
X899970D01*
X901170Y394502D01*
Y392103D01*
X899970Y390903D01*
X896371D01*
X903569Y388504D02*
X905968D01*
X904769D01*
Y395702D01*
X903569D01*
X910767Y393302D02*
X913166D01*
X914366Y392103D01*
Y388504D01*
X910767D01*
X909567Y389703D01*
X910767Y390903D01*
X914366D01*
X917964Y394502D02*
Y393302D01*
X916765D01*
X919164D01*
X917964D01*
Y389703D01*
X919164Y388504D01*
X926362D02*
X923962D01*
X922763Y389703D01*
Y392103D01*
X923962Y393302D01*
X926362D01*
X927561Y392103D01*
Y390903D01*
X922763D01*
X934759Y395702D02*
Y388504D01*
X931160D01*
X929961Y389703D01*
Y392103D01*
X931160Y393302D01*
X934759D01*
X766609Y395702D02*
X761811D01*
Y392103D01*
X764210D01*
X761811D01*
Y388504D01*
X769009D02*
X771408D01*
X770208D01*
Y393302D01*
X769009D01*
X775007Y388504D02*
Y393302D01*
X778606D01*
X779805Y392103D01*
Y388504D01*
X782204D02*
X784604D01*
X783404D01*
Y393302D01*
X782204D01*
X788202Y388504D02*
X791801D01*
X793001Y389703D01*
X791801Y390903D01*
X789402D01*
X788202Y392103D01*
X789402Y393302D01*
X793001D01*
X795400Y395702D02*
Y388504D01*
Y392103D01*
X796600Y393302D01*
X798999D01*
X800199Y392103D01*
Y388504D01*
X806197D02*
X803797D01*
X802598Y389703D01*
Y392103D01*
X803797Y393302D01*
X806197D01*
X807396Y392103D01*
Y390903D01*
X802598D01*
X814594Y395702D02*
Y388504D01*
X810995D01*
X809795Y389703D01*
Y392103D01*
X810995Y393302D01*
X814594D01*
X824191Y395702D02*
Y388504D01*
Y392103D01*
X828989D01*
Y395702D01*
Y388504D01*
X832588D02*
X834987D01*
X836187Y389703D01*
Y392103D01*
X834987Y393302D01*
X832588D01*
X831388Y392103D01*
Y389703D01*
X832588Y388504D01*
X838586D02*
X840985D01*
X839786D01*
Y395702D01*
X838586D01*
X848183Y388504D02*
X845784D01*
X844584Y389703D01*
Y392103D01*
X845784Y393302D01*
X848183D01*
X849383Y392103D01*
Y390903D01*
X844584D01*
X863778Y394502D02*
X862578Y395702D01*
X860179D01*
X858980Y394502D01*
Y393302D01*
X860179Y392103D01*
X862578D01*
X863778Y390903D01*
Y389703D01*
X862578Y388504D01*
X860179D01*
X858980Y389703D01*
X866177Y388504D02*
X868577D01*
X867377D01*
Y393302D01*
X866177D01*
X872175D02*
X876974D01*
X872175Y388504D01*
X876974D01*
X882972D02*
X880573D01*
X879373Y389703D01*
Y392103D01*
X880573Y393302D01*
X882972D01*
X884171Y392103D01*
Y390903D01*
X879373D01*
X692030Y395702D02*
Y388504D01*
Y392103D01*
X696828D01*
Y395702D01*
Y388504D01*
X699227D02*
X701627D01*
X700427D01*
Y393302D01*
X699227D01*
X706425Y394502D02*
Y393302D01*
X705225D01*
X707625D01*
X706425D01*
Y389703D01*
X707625Y388504D01*
X723220Y394502D02*
X722020Y395702D01*
X719621D01*
X718421Y394502D01*
Y389703D01*
X719621Y388504D01*
X722020D01*
X723220Y389703D01*
X726818Y388504D02*
X729218D01*
X730417Y389703D01*
Y392103D01*
X729218Y393302D01*
X726818D01*
X725619Y392103D01*
Y389703D01*
X726818Y388504D01*
X732817Y393302D02*
Y389703D01*
X734016Y388504D01*
X737615D01*
Y393302D01*
X740014Y388504D02*
Y393302D01*
X743613D01*
X744813Y392103D01*
Y388504D01*
X748411Y394502D02*
Y393302D01*
X747212D01*
X749611D01*
X748411D01*
Y389703D01*
X749611Y388504D01*
X646241Y394502D02*
X645041Y395702D01*
X642642D01*
X641442Y394502D01*
Y393302D01*
X642642Y392103D01*
X645041D01*
X646241Y390903D01*
Y389703D01*
X645041Y388504D01*
X642642D01*
X641442Y389703D01*
X648640Y393302D02*
Y389703D01*
X649839Y388504D01*
X653438D01*
Y387304D01*
X652239Y386105D01*
X651039D01*
X653438Y388504D02*
Y393302D01*
X655837Y388504D02*
Y393302D01*
X657037D01*
X658237Y392103D01*
Y388504D01*
Y392103D01*
X659436Y393302D01*
X660636Y392103D01*
Y388504D01*
X663035Y395702D02*
Y388504D01*
X666634D01*
X667834Y389703D01*
Y390903D01*
Y392103D01*
X666634Y393302D01*
X663035D01*
X671432Y388504D02*
X673832D01*
X675031Y389703D01*
Y392103D01*
X673832Y393302D01*
X671432D01*
X670233Y392103D01*
Y389703D01*
X671432Y388504D01*
X677430D02*
X679830D01*
X678630D01*
Y395702D01*
X677430D01*
M02*
