%FSLAX44Y44*%
%MOMM*%
G71*
G01*
G75*
G04 Layer_Color=33789*
%ADD10R,1.4000X1.3000*%
%ADD11R,1.0000X1.1000*%
%ADD12R,0.6000X1.5500*%
%ADD13R,1.1000X1.0000*%
%ADD14R,2.0000X0.6000*%
%ADD15R,6.1000X10.1600*%
%ADD16R,3.0000X2.3000*%
%ADD17R,2.0000X0.7000*%
%ADD18R,1.3000X1.4000*%
%ADD19C,0.2540*%
%ADD20C,0.5000*%
%ADD21C,1.5000*%
%ADD22C,1.0000*%
%ADD23C,0.7000*%
%ADD24C,7.0000*%
%ADD25C,0.4000*%
%ADD26C,2.0000*%
%ADD27C,2.0000*%
%ADD28R,1.6000X1.6000*%
%ADD29R,1.6000X1.6000*%
%ADD30C,1.8000*%
%ADD31C,1.5000*%
%ADD32R,1.5000X1.5000*%
%ADD33O,2.0000X1.1000*%
%ADD34O,1.0000X2.0000*%
%ADD35C,0.5000*%
%ADD36C,1.2000*%
%ADD37C,2.5000*%
%ADD38R,1.5000X1.5000*%
%ADD39C,2.2000*%
%ADD40O,1.5000X0.7500*%
%ADD41C,0.9000*%
%ADD42C,1.2700*%
%ADD43C,0.2000*%
%ADD44C,0.1000*%
%ADD45C,0.2032*%
%ADD46R,1.6032X1.5032*%
%ADD47R,1.2032X1.3032*%
%ADD48R,0.8032X1.7532*%
%ADD49R,1.3032X1.2032*%
%ADD50R,2.2032X0.8032*%
%ADD51R,6.3032X10.3632*%
%ADD52R,3.2032X2.5032*%
%ADD53R,2.2032X0.9032*%
%ADD54R,1.5032X1.6032*%
%ADD55C,2.2032*%
%ADD56R,1.8032X1.8032*%
%ADD57R,1.8032X1.8032*%
%ADD58C,2.0032*%
%ADD59C,1.7032*%
%ADD60R,1.7032X1.7032*%
%ADD61O,2.2032X1.3032*%
%ADD62O,1.2032X2.2032*%
%ADD63C,0.7032*%
%ADD64C,1.4032*%
%ADD65C,2.7032*%
%ADD66R,1.7032X1.7032*%
%ADD67C,2.4032*%
%ADD68O,1.7032X0.9532*%
%ADD69C,1.1032*%
%ADD70C,1.4732*%
D19*
X338805Y705086D02*
G03*
X340088Y724659I-1305J9914D01*
G01*
X376195Y724914D02*
G03*
X374912Y705341I1305J-9914D01*
G01*
X753781Y724914D02*
G03*
X752498Y705341I1305J-9914D01*
G01*
X716392Y705086D02*
G03*
X717674Y724659I-1305J9914D01*
G01*
X-0Y200000D02*
Y705000D01*
Y200000D02*
X200000Y0D01*
X1450000D01*
Y705000D01*
X1450000Y705000D02*
X1450000Y705000D01*
X1000000Y705000D02*
X1450000D01*
X999915Y705086D02*
X1000000Y705000D01*
X753695Y705086D02*
X999915D01*
X753695Y724914D02*
X999914D01*
X1000000Y725000D01*
Y1030000D01*
X92500D02*
X1000000D01*
X37500Y975000D02*
X92500Y1030000D01*
X37500Y975000D02*
X87500Y925000D01*
X800000D01*
Y825000D02*
Y925000D01*
X87500Y825000D02*
X800000D01*
X37500Y775000D02*
X87500Y825000D01*
X37500Y775000D02*
X87500Y725000D01*
X339853D01*
X86Y705086D02*
X338805D01*
X-0Y705000D02*
X86Y705086D01*
X376195Y724914D02*
X717439D01*
X376195Y705086D02*
X716305D01*
X338805Y705086D02*
G03*
X340088Y724659I-1305J9914D01*
G01*
X376195Y724914D02*
G03*
X374912Y705341I1305J-9914D01*
G01*
X753781Y724914D02*
G03*
X752498Y705341I1305J-9914D01*
G01*
X716392Y705086D02*
G03*
X717674Y724659I-1305J9914D01*
G01*
X-0Y200000D02*
Y705000D01*
Y200000D02*
X200000Y0D01*
X1450000D01*
Y705000D01*
X1450000Y705000D02*
X1450000Y705000D01*
X1000000Y705000D02*
X1450000D01*
X999915Y705086D02*
X1000000Y705000D01*
X753695Y705086D02*
X999915D01*
X753695Y724914D02*
X999914D01*
X1000000Y725000D01*
Y1030000D01*
X92500D02*
X1000000D01*
X37500Y975000D02*
X92500Y1030000D01*
X37500Y975000D02*
X87500Y925000D01*
X800000D01*
Y825000D02*
Y925000D01*
X87500Y825000D02*
X800000D01*
X37500Y775000D02*
X87500Y825000D01*
X37500Y775000D02*
X87500Y725000D01*
X339853D01*
X86Y705086D02*
X338805D01*
X-0Y705000D02*
X86Y705086D01*
X376195Y724914D02*
X717439D01*
X376195Y705086D02*
X716305D01*
M02*
