%FSLAX44Y44*%
%MOMM*%
G71*
G01*
G75*
%ADD10R,1.4000X1.3000*%
%ADD11R,1.0000X1.1000*%
%ADD12R,0.6000X1.5500*%
%ADD13R,1.1000X1.0000*%
%ADD14R,2.0000X0.6000*%
%ADD15R,6.1000X10.1600*%
%ADD16R,3.0000X2.3000*%
%ADD17R,2.0000X0.7000*%
%ADD18R,1.3000X1.4000*%
%ADD19C,0.2540*%
%ADD20C,0.5000*%
%ADD21C,1.5000*%
%ADD22C,1.0000*%
%ADD23C,0.7000*%
%ADD24C,7.0000*%
%ADD25C,0.4000*%
%ADD26C,2.0000*%
%ADD27C,2.0000*%
%ADD28R,1.6000X1.6000*%
%ADD29R,1.6000X1.6000*%
%ADD30C,1.8000*%
%ADD31C,1.5000*%
%ADD32R,1.5000X1.5000*%
%ADD33O,2.0000X1.1000*%
%ADD34O,1.0000X2.0000*%
%ADD35C,0.5000*%
%ADD36C,1.2000*%
%ADD37C,2.5000*%
%ADD38R,1.5000X1.5000*%
%ADD39C,2.2000*%
%ADD40O,1.5000X0.7500*%
%ADD41C,0.9000*%
%ADD42C,1.2700*%
%ADD43C,0.2000*%
%ADD44C,0.1000*%
%ADD45C,0.2032*%
%ADD46R,1.6032X1.5032*%
%ADD47R,1.2032X1.3032*%
%ADD48R,0.8032X1.7532*%
%ADD49R,1.3032X1.2032*%
%ADD50R,2.2032X0.8032*%
%ADD51R,6.3032X10.3632*%
%ADD52R,3.2032X2.5032*%
%ADD53R,2.2032X0.9032*%
%ADD54R,1.5032X1.6032*%
%ADD55C,2.2032*%
%ADD56R,1.8032X1.8032*%
%ADD57R,1.8032X1.8032*%
%ADD58C,2.0032*%
%ADD59C,1.7032*%
%ADD60R,1.7032X1.7032*%
%ADD61O,2.2032X1.3032*%
%ADD62O,1.2032X2.2032*%
%ADD63C,0.7032*%
%ADD64C,1.4032*%
%ADD65C,2.7032*%
%ADD66R,1.7032X1.7032*%
%ADD67C,2.4032*%
%ADD68O,1.7032X0.9532*%
%ADD69C,1.1032*%
%ADD70C,1.4732*%
%ADD71C,0.1333*%
%ADD72C,0.3810*%
%ADD73C,0.4064*%
%ADD74C,0.1524*%
D19*
X338805Y705086D02*
G03*
X340088Y724659I-1305J9914D01*
G01*
X376195Y724914D02*
G03*
X374912Y705341I1305J-9914D01*
G01*
X753781Y724914D02*
G03*
X752498Y705341I1305J-9914D01*
G01*
X716392Y705086D02*
G03*
X717674Y724659I-1305J9914D01*
G01*
X-0Y200000D02*
Y705000D01*
Y200000D02*
X200000Y0D01*
X1450000D01*
Y705000D01*
X1450000Y705000D02*
X1450000Y705000D01*
X1000000Y705000D02*
X1450000D01*
X999915Y705086D02*
X1000000Y705000D01*
X753695Y705086D02*
X999915D01*
X753695Y724914D02*
X999914D01*
X1000000Y725000D01*
Y1030000D01*
X92500D02*
X1000000D01*
X37500Y975000D02*
X92500Y1030000D01*
X37500Y975000D02*
X87500Y925000D01*
X800000D01*
Y825000D02*
Y925000D01*
X87500Y825000D02*
X800000D01*
X37500Y775000D02*
X87500Y825000D01*
X37500Y775000D02*
X87500Y725000D01*
X339853D01*
X86Y705086D02*
X338805D01*
X-0Y705000D02*
X86Y705086D01*
X376195Y724914D02*
X717439D01*
X376195Y705086D02*
X716305D01*
D43*
X1344500Y651400D02*
X1355500D01*
X1350000Y645900D02*
Y656900D01*
X1344500Y626000D02*
X1355500D01*
X1350000Y620500D02*
Y631500D01*
X1387500Y81000D02*
X1398500D01*
X1393000Y75500D02*
Y86500D01*
X1387500Y106400D02*
X1398500D01*
X1393000Y100900D02*
Y111900D01*
X1387500Y167400D02*
X1398500D01*
X1393000Y161900D02*
Y172900D01*
X1387500Y142000D02*
X1398500D01*
X1393000Y136500D02*
Y147500D01*
X1387500Y203000D02*
X1398500D01*
X1393000Y197500D02*
Y208500D01*
X1387500Y228400D02*
X1398500D01*
X1393000Y222900D02*
Y233900D01*
X1387500Y289400D02*
X1398500D01*
X1393000Y283900D02*
Y294900D01*
X1387500Y264000D02*
X1398500D01*
X1393000Y258500D02*
Y269500D01*
X1387500Y325000D02*
X1398500D01*
X1393000Y319500D02*
Y330500D01*
X1387500Y350400D02*
X1398500D01*
X1393000Y344900D02*
Y355900D01*
X1263100Y604000D02*
X1274100D01*
X1268600Y598500D02*
Y609500D01*
X1288500Y604000D02*
X1299500D01*
X1294000Y598500D02*
Y609500D01*
X1345500Y565000D02*
X1356500D01*
X1351000Y559500D02*
Y570500D01*
X1345500Y590400D02*
X1356500D01*
X1351000Y584900D02*
Y595900D01*
X922000Y890400D02*
X933000D01*
X927500Y884900D02*
Y895900D01*
X922000Y865000D02*
X933000D01*
X927500Y859500D02*
Y870500D01*
X1201500Y57000D02*
X1212500D01*
X1207000Y51500D02*
Y62500D01*
X1226900Y57000D02*
X1237900D01*
X1232400Y51500D02*
Y62500D01*
X1120400Y450000D02*
X1130400D01*
X1125400Y445000D02*
Y455000D01*
X1069600Y450000D02*
X1079600D01*
X1074600Y445000D02*
Y455000D01*
X1095000Y450000D02*
X1105000D01*
X1100000Y445000D02*
Y455000D01*
X1400900Y436300D02*
X1409900D01*
X1405400Y431800D02*
Y440800D01*
X1375500Y436300D02*
X1384500D01*
X1380000Y431800D02*
Y440800D01*
X1400900Y461700D02*
X1409900D01*
X1405400Y457200D02*
Y466200D01*
X1375500Y461700D02*
X1384500D01*
X1380000Y457200D02*
Y466200D01*
X1400900Y487100D02*
X1409900D01*
X1405400Y482600D02*
Y491600D01*
X1375500Y487100D02*
X1384500D01*
X1380000Y482600D02*
Y491600D01*
X1400900Y512500D02*
X1409900D01*
X1405400Y508000D02*
Y517000D01*
X1375500Y512500D02*
X1384500D01*
X1380000Y508000D02*
Y517000D01*
X229500Y29000D02*
X238500D01*
X234000Y24500D02*
Y33500D01*
X229500Y42000D02*
X238500D01*
X234000Y37500D02*
Y46500D01*
X229500Y55000D02*
X238500D01*
X234000Y50500D02*
Y59500D01*
X229500Y68000D02*
X238500D01*
X234000Y63500D02*
Y72500D01*
X1265200Y58000D02*
X1274200D01*
X1269700Y53500D02*
Y62500D01*
X1278500Y58000D02*
X1287500D01*
X1283000Y53500D02*
Y62500D01*
X1291800Y58000D02*
X1300800D01*
X1296300Y53500D02*
Y62500D01*
X745000Y727500D02*
X750000D01*
X747500Y725000D02*
Y730000D01*
X736667Y727500D02*
X741667D01*
X739167Y725000D02*
Y730000D01*
X728333Y727500D02*
X733333D01*
X730833Y725000D02*
Y730000D01*
X720000Y727500D02*
X725000D01*
X722500Y725000D02*
Y730000D01*
X720000Y702500D02*
X725000D01*
X722500Y700000D02*
Y705000D01*
X728333Y702500D02*
X733333D01*
X730833Y700000D02*
Y705000D01*
X736667Y702500D02*
X741667D01*
X739167Y700000D02*
Y705000D01*
X745000Y702500D02*
X750000D01*
X747500Y700000D02*
Y705000D01*
X367500Y702500D02*
X372500D01*
X370000Y700000D02*
Y705000D01*
X359167Y702500D02*
X364167D01*
X361667Y700000D02*
Y705000D01*
X350833Y702500D02*
X355833D01*
X353333Y700000D02*
Y705000D01*
X342500Y702500D02*
X347500D01*
X345000Y700000D02*
Y705000D01*
X342500Y727500D02*
X347500D01*
X345000Y725000D02*
Y730000D01*
X350833Y727500D02*
X355833D01*
X353333Y725000D02*
Y730000D01*
X359167Y727500D02*
X364167D01*
X361667Y725000D02*
Y730000D01*
X367500Y727500D02*
X372500D01*
X370000Y725000D02*
Y730000D01*
X911900Y429950D02*
X918900D01*
X915400Y426450D02*
Y433450D01*
X886500Y404550D02*
X893500D01*
X890000Y401050D02*
Y408050D01*
X861100Y429950D02*
X868100D01*
X864600Y426450D02*
Y433450D01*
X157500Y80000D02*
X182500D01*
X170000Y67500D02*
Y92500D01*
X266500Y659000D02*
X275500D01*
X271000Y654500D02*
Y663500D01*
X241100Y659000D02*
X250100D01*
X245600Y654500D02*
Y663500D01*
X215700Y659000D02*
X224700D01*
X220200Y654500D02*
Y663500D01*
X190300Y659000D02*
X199300D01*
X194800Y654500D02*
Y663500D01*
X164900Y659000D02*
X173900D01*
X169400Y654500D02*
Y663500D01*
X139500Y659000D02*
X148500D01*
X144000Y654500D02*
Y663500D01*
X19500Y668000D02*
X44500D01*
X32000Y655500D02*
Y680500D01*
X1405500Y668000D02*
X1430500D01*
X1418000Y655500D02*
Y680500D01*
X1405500Y32000D02*
X1430500D01*
X1418000Y19500D02*
Y44500D01*
X1049000Y536600D02*
X1063000D01*
X1056000Y529600D02*
Y543600D01*
X1049000Y587400D02*
X1063000D01*
X1056000Y580400D02*
Y594400D01*
X1049000Y562000D02*
X1063000D01*
X1056000Y555000D02*
Y569000D01*
X375500Y127800D02*
X384500D01*
X380000Y123300D02*
Y132300D01*
X375500Y153200D02*
X384500D01*
X380000Y148700D02*
Y157700D01*
X375500Y178600D02*
X384500D01*
X380000Y174100D02*
Y183100D01*
X375500Y204000D02*
X384500D01*
X380000Y199500D02*
Y208500D01*
X375500Y229400D02*
X384500D01*
X380000Y224900D02*
Y233900D01*
X375500Y254800D02*
X384500D01*
X380000Y250300D02*
Y259300D01*
X350100Y254800D02*
X359100D01*
X354600Y250300D02*
Y259300D01*
X350100Y305600D02*
X359100D01*
X354600Y301100D02*
Y310100D01*
X350100Y280200D02*
X359100D01*
X354600Y275700D02*
Y284700D01*
X350100Y127800D02*
X359100D01*
X354600Y123300D02*
Y132300D01*
X350100Y229400D02*
X359100D01*
X354600Y224900D02*
Y233900D01*
X350100Y204000D02*
X359100D01*
X354600Y199500D02*
Y208500D01*
X350100Y178600D02*
X359100D01*
X354600Y174100D02*
Y183100D01*
X350100Y153200D02*
X359100D01*
X354600Y148700D02*
Y157700D01*
X375500Y280200D02*
X384500D01*
X380000Y275700D02*
Y284700D01*
X375500Y305600D02*
X384500D01*
X380000Y301100D02*
Y310100D01*
X342100Y364000D02*
X367100D01*
X354600Y351500D02*
Y376500D01*
X1147100Y364000D02*
X1172100D01*
X1159600Y351500D02*
Y376500D01*
X1147100Y49000D02*
X1172100D01*
X1159600Y36500D02*
Y61500D01*
X342100Y49000D02*
X367100D01*
X354600Y36500D02*
Y61500D01*
X181000Y145000D02*
X191000D01*
X186000Y140000D02*
Y150000D01*
X181000Y170400D02*
X191000D01*
X186000Y165400D02*
Y175400D01*
X181000Y196000D02*
X191000D01*
X186000Y191000D02*
Y201000D01*
X181000Y221400D02*
X191000D01*
X186000Y216400D02*
Y226400D01*
X181000Y297600D02*
X191000D01*
X186000Y292600D02*
Y302600D01*
X181000Y323000D02*
X191000D01*
X186000Y318000D02*
Y328000D01*
X181000Y246800D02*
X191000D01*
X186000Y241800D02*
Y251800D01*
X181000Y272200D02*
X191000D01*
X186000Y267200D02*
Y277200D01*
X181000Y348400D02*
X191000D01*
X186000Y343400D02*
Y353400D01*
X181000Y373800D02*
X191000D01*
X186000Y368800D02*
Y378800D01*
X206000Y373800D02*
X216000D01*
X211000Y368800D02*
Y378800D01*
X206000Y348400D02*
X216000D01*
X211000Y343400D02*
Y353400D01*
X206000Y272200D02*
X216000D01*
X211000Y267200D02*
Y277200D01*
X206000Y246800D02*
X216000D01*
X211000Y241800D02*
Y251800D01*
X206000Y323000D02*
X216000D01*
X211000Y318000D02*
Y328000D01*
X206000Y297600D02*
X216000D01*
X211000Y292600D02*
Y302600D01*
X206000Y221400D02*
X216000D01*
X211000Y216400D02*
Y226400D01*
X206000Y196000D02*
X216000D01*
X211000Y191000D02*
Y201000D01*
X206000Y170400D02*
X216000D01*
X211000Y165400D02*
Y175400D01*
X206000Y145000D02*
X216000D01*
X211000Y140000D02*
Y150000D01*
X131000Y373800D02*
X141000D01*
X136000Y368800D02*
Y378800D01*
X131000Y348400D02*
X141000D01*
X136000Y343400D02*
Y353400D01*
X131000Y272200D02*
X141000D01*
X136000Y267200D02*
Y277200D01*
X131000Y246800D02*
X141000D01*
X136000Y241800D02*
Y251800D01*
X131000Y323000D02*
X141000D01*
X136000Y318000D02*
Y328000D01*
X131000Y297600D02*
X141000D01*
X136000Y292600D02*
Y302600D01*
X131000Y221400D02*
X141000D01*
X136000Y216400D02*
Y226400D01*
X131000Y196000D02*
X141000D01*
X136000Y191000D02*
Y201000D01*
X131000Y170400D02*
X141000D01*
X136000Y165400D02*
Y175400D01*
X131000Y145000D02*
X141000D01*
X136000Y140000D02*
Y150000D01*
X521500Y482600D02*
X526500D01*
X524000Y480100D02*
Y485100D01*
X521500Y471900D02*
X526500D01*
X524000Y469400D02*
Y474400D01*
X1172500Y632900D02*
X1182500D01*
X1177500Y627900D02*
Y637900D01*
X1172500Y582100D02*
X1182500D01*
X1177500Y577100D02*
Y587100D01*
X1172500Y607500D02*
X1182500D01*
X1177500Y602500D02*
Y612500D01*
X1075500Y322500D02*
X1079500D01*
X1077500Y320500D02*
Y324500D01*
X573000Y412500D02*
X577000D01*
X575000Y410500D02*
Y414500D01*
X1369694Y317500D02*
X1376806D01*
X1373250Y313944D02*
Y321056D01*
X1368944Y255000D02*
X1376056D01*
X1372500Y251444D02*
Y258556D01*
X1368944Y195000D02*
X1376056D01*
X1372500Y191444D02*
Y198556D01*
X1368944Y135000D02*
X1376056D01*
X1372500Y131444D02*
Y138556D01*
X1368944Y75000D02*
X1376056D01*
X1372500Y71444D02*
Y78556D01*
X960000Y540000D02*
X970000D01*
X965000Y535000D02*
Y545000D01*
X342500Y570000D02*
X347500D01*
X345000Y567500D02*
Y572500D01*
X535000Y570000D02*
X540000D01*
X537500Y567500D02*
Y572500D01*
X1296444Y540000D02*
X1303556D01*
X1300000Y536444D02*
Y543556D01*
X1311444Y375000D02*
X1318556D01*
X1315000Y371444D02*
Y378556D01*
X101444Y980000D02*
X108556D01*
X105000Y976444D02*
Y983556D01*
X234444Y980000D02*
X241556D01*
X238000Y976444D02*
Y983556D01*
X367444Y980000D02*
X374556D01*
X371000Y976444D02*
Y983556D01*
X500444Y980000D02*
X507556D01*
X504000Y976444D02*
Y983556D01*
X766444Y980000D02*
X773556D01*
X770000Y976444D02*
Y983556D01*
X633444Y980000D02*
X640556D01*
X637000Y976444D02*
Y983556D01*
X638444Y771000D02*
X645556D01*
X642000Y767444D02*
Y774556D01*
X771444Y771000D02*
X778556D01*
X775000Y767444D02*
Y774556D01*
X505444Y771000D02*
X512556D01*
X509000Y767444D02*
Y774556D01*
X372444Y771000D02*
X379556D01*
X376000Y767444D02*
Y774556D01*
X239444Y771000D02*
X246556D01*
X243000Y767444D02*
Y774556D01*
X106444Y771000D02*
X113556D01*
X110000Y767444D02*
Y774556D01*
X1341444Y405000D02*
X1348556D01*
X1345000Y401444D02*
Y408556D01*
X957744Y50000D02*
X964856D01*
X961300Y46444D02*
Y53556D01*
X505744Y49300D02*
X512856D01*
X509300Y45744D02*
Y52856D01*
X1065500Y300000D02*
X1069500D01*
X1067500Y298000D02*
Y302000D01*
X903000Y300000D02*
X907000D01*
X905000Y298000D02*
Y302000D01*
X903000Y320000D02*
X907000D01*
X905000Y318000D02*
Y322000D01*
X1271444Y228700D02*
X1278556D01*
X1275000Y225144D02*
Y232256D01*
X1271444Y165000D02*
X1278556D01*
X1275000Y161444D02*
Y168556D01*
X247500Y475000D02*
X252500D01*
X250000Y472500D02*
Y477500D01*
X671600Y558600D02*
X675600D01*
X673600Y556600D02*
Y560600D01*
X658000Y640000D02*
X662000D01*
X660000Y638000D02*
Y642000D01*
X658000Y545000D02*
X662000D01*
X660000Y543000D02*
Y547000D01*
X1201444Y500000D02*
X1208556D01*
X1205000Y496444D02*
Y503556D01*
X401444Y480000D02*
X408556D01*
X405000Y476444D02*
Y483556D01*
X486444Y525000D02*
X493556D01*
X490000Y521444D02*
Y528556D01*
X431444Y525000D02*
X438556D01*
X435000Y521444D02*
Y528556D01*
X436444Y435000D02*
X443556D01*
X440000Y431444D02*
Y438556D01*
X486444Y435000D02*
X493556D01*
X490000Y431444D02*
Y438556D01*
X776444Y505000D02*
X783556D01*
X780000Y501444D02*
Y508556D01*
X661444Y445000D02*
X668556D01*
X665000Y441444D02*
Y448556D01*
X1211444Y95000D02*
X1218556D01*
X1215000Y91444D02*
Y98556D01*
X127500Y485000D02*
X132500D01*
X130000Y482500D02*
Y487500D01*
X24050Y538450D02*
X29050D01*
X26550Y535950D02*
Y540950D01*
X291444Y593500D02*
X298556D01*
X295000Y589944D02*
Y597056D01*
X785500Y457500D02*
X789500D01*
X787500Y455500D02*
Y459500D01*
X600500Y432500D02*
X604500D01*
X602500Y430500D02*
Y434500D01*
X618000Y420000D02*
X622000D01*
X620000Y418000D02*
Y422000D01*
X181444Y540000D02*
X188556D01*
X185000Y536444D02*
Y543556D01*
X71944Y587000D02*
X79056D01*
X75500Y583444D02*
Y590556D01*
X1021444Y657500D02*
X1028556D01*
X1025000Y653944D02*
Y661056D01*
X1148944Y225000D02*
X1156056D01*
X1152500Y221444D02*
Y228556D01*
X61094Y482500D02*
X68206D01*
X64650Y478944D02*
Y486056D01*
X303094Y480850D02*
X310206D01*
X306650Y477294D02*
Y484406D01*
X182094Y483150D02*
X189206D01*
X185650Y479594D02*
Y486706D01*
X783944Y580000D02*
X791056D01*
X787500Y576444D02*
Y583556D01*
X759800Y533200D02*
X763800D01*
X761800Y531200D02*
Y535200D01*
X609944Y524000D02*
X617056D01*
X613500Y520444D02*
Y527556D01*
X610600Y495100D02*
X614600D01*
X612600Y493100D02*
Y497100D01*
X252444Y594000D02*
X259556D01*
X256000Y590444D02*
Y597556D01*
X330050Y492950D02*
X334050D01*
X332050Y490950D02*
Y494950D01*
X88050Y492550D02*
X92050D01*
X90050Y490550D02*
Y494550D01*
X209050Y493550D02*
X213050D01*
X211050Y491550D02*
Y495550D01*
X773000Y470000D02*
X777000D01*
X775000Y468000D02*
Y472000D01*
X1268000Y345000D02*
X1272000D01*
X1270000Y343000D02*
Y347000D01*
X1268000Y330000D02*
X1272000D01*
X1270000Y328000D02*
Y332000D01*
X873000Y320000D02*
X877000D01*
X875000Y318000D02*
Y322000D01*
X873000Y300000D02*
X877000D01*
X875000Y298000D02*
Y302000D01*
X1108000Y330000D02*
X1112000D01*
X1110000Y328000D02*
Y332000D01*
X306000Y27000D02*
X310000D01*
X308000Y25000D02*
Y29000D01*
X306000Y42000D02*
X310000D01*
X308000Y40000D02*
Y44000D01*
X307000Y69000D02*
X311000D01*
X309000Y67000D02*
Y71000D01*
X1253000Y390000D02*
X1257000D01*
X1255000Y388000D02*
Y392000D01*
X948000Y380000D02*
X952000D01*
X950000Y378000D02*
Y382000D01*
X948000Y395000D02*
X952000D01*
X950000Y393000D02*
Y397000D01*
X1145500Y610000D02*
X1149500D01*
X1147500Y608000D02*
Y612000D01*
X1236444Y540000D02*
X1243556D01*
X1240000Y536444D02*
Y543556D01*
X1226444Y562500D02*
X1233556D01*
X1230000Y558944D02*
Y566056D01*
M02*
