%FSLAX25Y25*%
%MOIN*%
G70*
G01*
G75*
G04 Layer_Color=65535*
%ADD10R,0.05118X0.05512*%
%ADD11R,0.05512X0.05118*%
%ADD12R,0.07874X0.02756*%
%ADD13R,0.03937X0.04331*%
%ADD14R,0.04331X0.03937*%
%ADD15R,0.11811X0.09055*%
%ADD16R,0.24016X0.40000*%
%ADD17R,0.07874X0.02362*%
%ADD18R,0.02362X0.06102*%
%ADD19C,0.03937*%
%ADD20C,0.01000*%
%ADD21C,0.02756*%
%ADD22C,0.05906*%
%ADD23C,0.01969*%
%ADD24C,0.07874*%
%ADD25C,0.01575*%
%ADD26C,0.27559*%
%ADD27C,0.07874*%
%ADD28O,0.05906X0.02953*%
%ADD29C,0.07087*%
%ADD30C,0.09843*%
%ADD31C,0.05906*%
%ADD32C,0.08661*%
%ADD33R,0.06299X0.06299*%
%ADD34C,0.06299*%
%ADD35R,0.06299X0.06299*%
%ADD36R,0.05906X0.05906*%
%ADD37C,0.04724*%
%ADD38C,0.01969*%
%ADD39R,0.05906X0.05906*%
%ADD40O,0.03937X0.07874*%
%ADD41O,0.07874X0.04331*%
%ADD42C,0.05000*%
%ADD43C,0.02756*%
%ADD44C,0.03543*%
%ADD45C,0.06693*%
%ADD46C,0.00787*%
%ADD47C,0.00394*%
%ADD48C,0.00800*%
D19*
X252559Y241732D02*
G03*
X252559Y241732I-197J0D01*
G01*
X474606Y146850D02*
G03*
X474606Y146850I-197J0D01*
G01*
D20*
X568110Y12598D02*
G03*
X568110Y12598I-9843J0D01*
G01*
Y262992D02*
G03*
X568110Y262992I-9843J0D01*
G01*
X22441D02*
G03*
X22441Y262992I-9843J0D01*
G01*
X76772Y31496D02*
G03*
X76772Y31496I-9843J0D01*
G01*
X101594Y181102D02*
G03*
X101594Y181102I-20J0D01*
G01*
X53957D02*
G03*
X53957Y181102I-20J0D01*
G01*
X6319Y181102D02*
G03*
X6319Y181102I-20J0D01*
G01*
X514764Y18898D02*
G03*
X495276Y18898I-9744J4860D01*
G01*
X87125Y30164D02*
G03*
X96312Y30182I4614J-10872D01*
G01*
X369094Y383858D02*
G03*
X389764Y368110I18209J2461D01*
G01*
X369527Y378937D02*
G03*
X369527Y378937I-18149J0D01*
G01*
X321850Y388779D02*
G03*
X321850Y388779I-1969J0D01*
G01*
X456614Y218425D02*
Y259921D01*
X471457D01*
X475079Y256299D01*
X456614Y218425D02*
X471378D01*
X475079Y222126D01*
Y256299D01*
X200394Y191339D02*
Y194685D01*
Y181299D02*
Y184646D01*
Y191339D01*
X167913Y194685D02*
X200394D01*
X167913Y181299D02*
X200394D01*
Y185787D02*
X202362D01*
X200394Y189961D02*
X202362D01*
X167717Y181299D02*
Y194685D01*
X88976Y51181D02*
Y153543D01*
X47638D02*
X88976D01*
X47638Y51181D02*
Y153543D01*
Y51181D02*
X88976D01*
X129764Y9449D02*
Y153150D01*
Y9449D02*
X466378D01*
X129764Y153150D02*
X466378D01*
Y9449D02*
Y153150D01*
X57480Y224213D02*
X81102D01*
X57480Y237992D02*
X81102D01*
X448819Y172244D02*
Y182087D01*
X416496D02*
X449646D01*
X417323Y172244D02*
Y182087D01*
X416496Y172244D02*
X449646D01*
X364764Y199606D02*
Y242913D01*
X337008Y199606D02*
Y242913D01*
Y199606D02*
X399764D01*
X337008Y242913D02*
X399764D01*
Y199606D02*
Y242913D01*
X535630Y122047D02*
Y143701D01*
X561221Y122047D02*
Y143701D01*
X535630Y98032D02*
Y119685D01*
X561221Y98032D02*
Y119685D01*
X535630Y74016D02*
Y95669D01*
X561221Y74016D02*
Y95669D01*
X535630Y25984D02*
Y47638D01*
X561221Y25984D02*
Y47638D01*
X535630Y50000D02*
Y71653D01*
X561221Y50000D02*
Y71653D01*
X469291Y35236D02*
X490945D01*
X469291Y9646D02*
X490945D01*
X493701Y225000D02*
X515354D01*
X493701Y250591D02*
X515354D01*
X518701Y240551D02*
Y262205D01*
X544291Y240551D02*
Y262205D01*
X519095Y216535D02*
Y238189D01*
X544685Y216535D02*
Y238189D01*
X338583Y183169D02*
X362205D01*
X338583Y155610D02*
X362205D01*
X363386Y171260D02*
Y183169D01*
X337402Y171260D02*
Y183169D01*
X363386Y155512D02*
Y167323D01*
X337402Y155610D02*
Y167323D01*
X103543Y185039D02*
Y196850D01*
Y185039D02*
X142913D01*
Y196850D01*
X103543D02*
X142913D01*
X55905Y185039D02*
Y196850D01*
Y185039D02*
X95276D01*
Y196850D01*
X55905D02*
X95276D01*
X8268Y185039D02*
Y196850D01*
Y185039D02*
X47638D01*
Y196850D01*
X8268D02*
X47638D01*
X535433Y146555D02*
X651575D01*
X535433D02*
Y213583D01*
X651575D01*
Y146555D02*
Y213583D01*
X497244Y12992D02*
X512992D01*
X88189Y31496D02*
X96063D01*
X87125Y30209D02*
X96312D01*
X352362Y334646D02*
Y356299D01*
X377953Y334646D02*
Y356299D01*
X302165Y401575D02*
X317611Y391278D01*
X302165Y401575D02*
X314961Y388779D01*
Y388779D02*
Y388779D01*
X342520Y358268D02*
X346457Y362205D01*
Y364173D01*
X338583Y358268D02*
X342520Y362205D01*
Y366142D01*
X361221Y358268D02*
X364173Y361221D01*
Y369094D01*
X357283Y357283D02*
X359252Y359252D01*
Y366142D01*
X320866Y379921D02*
X325787D01*
X315945D02*
X320866D01*
X315945Y375000D02*
X320866Y379921D01*
X331693Y385827D02*
X339567D01*
X325787Y379921D02*
X331693Y385827D01*
X310039Y375000D02*
X311024D01*
X309055Y374016D02*
X310039Y375000D01*
X304134Y374016D02*
X309055D01*
X303150Y375000D02*
X304134Y374016D01*
X302165Y375000D02*
X303150D01*
X302165Y371063D02*
Y375000D01*
X312008Y371063D02*
X315945Y375000D01*
X302165Y371063D02*
X312008D01*
X338583Y389764D02*
Y393701D01*
X334646D02*
X338583Y389764D01*
X334646D02*
Y393701D01*
X330709D02*
X334646Y389764D01*
X330709D02*
Y393701D01*
X326772D02*
X330709Y389764D01*
X315945Y375000D02*
Y375000D01*
X303150Y375984D02*
X308071D01*
X303150D02*
Y378937D01*
X305118D01*
X319882Y393701D01*
X316929Y396654D02*
X319882Y393701D01*
X316929Y396654D02*
Y400591D01*
X323819Y393701D02*
X328740D01*
X316929Y400591D02*
X323819Y393701D01*
X328740D02*
X339567D01*
X512795Y207770D02*
Y201772D01*
X515794D01*
X516794Y202771D01*
Y206770D01*
X515794Y207770D01*
X512795D01*
X518793Y206770D02*
X519793Y207770D01*
X521792D01*
X522792Y206770D01*
Y205770D01*
X521792Y204771D01*
X520793D01*
X521792D01*
X522792Y203771D01*
Y202771D01*
X521792Y201772D01*
X519793D01*
X518793Y202771D01*
X48100Y162998D02*
Y157000D01*
X51099D01*
X52099Y158000D01*
Y158999D01*
X51099Y159999D01*
X48100D01*
X51099D01*
X52099Y160999D01*
Y161998D01*
X51099Y162998D01*
X48100D01*
X54098Y157000D02*
X56097D01*
X55098D01*
Y162998D01*
X54098Y161998D01*
X300299Y245598D02*
X299299Y246598D01*
X297300D01*
X296300Y245598D01*
Y241600D01*
X297300Y240600D01*
X299299D01*
X300299Y241600D01*
X306297Y240600D02*
X302298D01*
X306297Y244599D01*
Y245598D01*
X305297Y246598D01*
X303298D01*
X302298Y245598D01*
X228408Y172321D02*
X227409Y173321D01*
X225409D01*
X224410Y172321D01*
Y168323D01*
X225409Y167323D01*
X227409D01*
X228408Y168323D01*
X230408Y172321D02*
X231407Y173321D01*
X233406D01*
X234406Y172321D01*
Y171321D01*
X233406Y170322D01*
X232407D01*
X233406D01*
X234406Y169322D01*
Y168323D01*
X233406Y167323D01*
X231407D01*
X230408Y168323D01*
X87099Y222998D02*
X86099Y223998D01*
X84100D01*
X83100Y222998D01*
Y219000D01*
X84100Y218000D01*
X86099D01*
X87099Y219000D01*
X92097Y218000D02*
Y223998D01*
X89098Y220999D01*
X93097D01*
X299499Y206198D02*
X298499Y207198D01*
X296500D01*
X295500Y206198D01*
Y202200D01*
X296500Y201200D01*
X298499D01*
X299499Y202200D01*
X305497Y207198D02*
X301498D01*
Y204199D01*
X303497Y205199D01*
X304497D01*
X305497Y204199D01*
Y202200D01*
X304497Y201200D01*
X302498D01*
X301498Y202200D01*
X429196Y209723D02*
X428196Y210722D01*
X426196D01*
X425197Y209723D01*
Y205724D01*
X426196Y204724D01*
X428196D01*
X429196Y205724D01*
X435194Y210722D02*
X433194Y209723D01*
X431195Y207723D01*
Y205724D01*
X432195Y204724D01*
X434194D01*
X435194Y205724D01*
Y206724D01*
X434194Y207723D01*
X431195D01*
X426799Y231798D02*
X425799Y232798D01*
X423800D01*
X422800Y231798D01*
Y227800D01*
X423800Y226800D01*
X425799D01*
X426799Y227800D01*
X428798Y232798D02*
X432797D01*
Y231798D01*
X428798Y227800D01*
Y226800D01*
X215613Y172321D02*
X214613Y173321D01*
X212614D01*
X211614Y172321D01*
Y168323D01*
X212614Y167323D01*
X214613D01*
X215613Y168323D01*
X217612Y172321D02*
X218612Y173321D01*
X220611D01*
X221611Y172321D01*
Y171321D01*
X220611Y170322D01*
X221611Y169322D01*
Y168323D01*
X220611Y167323D01*
X218612D01*
X217612Y168323D01*
Y169322D01*
X218612Y170322D01*
X217612Y171321D01*
Y172321D01*
X218612Y170322D02*
X220611D01*
X216400Y207164D02*
X215401Y208163D01*
X213401D01*
X212402Y207164D01*
Y203165D01*
X213401Y202165D01*
X215401D01*
X216400Y203165D01*
X218400D02*
X219399Y202165D01*
X221399D01*
X222398Y203165D01*
Y207164D01*
X221399Y208163D01*
X219399D01*
X218400Y207164D01*
Y206164D01*
X219399Y205164D01*
X222398D01*
X476776Y278378D02*
Y272379D01*
X479775D01*
X480774Y273379D01*
Y277378D01*
X479775Y278378D01*
X476776D01*
X482774Y272379D02*
X484773D01*
X483773D01*
Y278378D01*
X482774Y277378D01*
X45337Y262297D02*
X43338D01*
X44338D01*
Y257299D01*
X43338Y256299D01*
X42338D01*
X41339Y257299D01*
X47337Y256299D02*
X49336D01*
X48336D01*
Y262297D01*
X47337Y261298D01*
X546260Y246063D02*
Y252061D01*
X549259D01*
X550259Y251061D01*
Y249062D01*
X549259Y248062D01*
X546260D01*
X552258Y246063D02*
X554257D01*
X553258D01*
Y252061D01*
X552258Y251061D01*
X496457Y215354D02*
Y221352D01*
X499456D01*
X500455Y220353D01*
Y218353D01*
X499456Y217354D01*
X496457D01*
X502455Y221352D02*
X506454D01*
Y220353D01*
X502455Y216354D01*
Y215354D01*
X547244Y229331D02*
Y235329D01*
X550243D01*
X551243Y234329D01*
Y232330D01*
X550243Y231330D01*
X547244D01*
X553242Y234329D02*
X554242Y235329D01*
X556241D01*
X557241Y234329D01*
Y233329D01*
X556241Y232330D01*
X557241Y231330D01*
Y230330D01*
X556241Y229331D01*
X554242D01*
X553242Y230330D01*
Y231330D01*
X554242Y232330D01*
X553242Y233329D01*
Y234329D01*
X554242Y232330D02*
X556241D01*
X380906Y355315D02*
X386904D01*
Y352316D01*
X385904Y351316D01*
X383905D01*
X382905Y352316D01*
Y355315D01*
X381905Y349317D02*
X380906Y348317D01*
Y346318D01*
X381905Y345318D01*
X385904D01*
X386904Y346318D01*
Y348317D01*
X385904Y349317D01*
X384904D01*
X383905Y348317D01*
Y345318D01*
X461070Y264404D02*
Y268403D01*
X460071Y269403D01*
X458071D01*
X457072Y268403D01*
Y264404D01*
X458071Y263405D01*
X460071D01*
X459071Y265404D02*
X461070Y263405D01*
X460071D02*
X461070Y264404D01*
X463070Y263405D02*
X465069D01*
X464069D01*
Y269403D01*
X463070Y268403D01*
X105315Y237205D02*
X111313D01*
Y234206D01*
X110313Y233206D01*
X108314D01*
X107314Y234206D01*
Y237205D01*
Y235205D02*
X105315Y233206D01*
X110313Y231207D02*
X111313Y230207D01*
Y228208D01*
X110313Y227208D01*
X109314D01*
X108314Y228208D01*
Y229207D01*
Y228208D01*
X107314Y227208D01*
X106315D01*
X105315Y228208D01*
Y230207D01*
X106315Y231207D01*
Y225209D02*
X105315Y224209D01*
Y222210D01*
X106315Y221210D01*
X110313D01*
X111313Y222210D01*
Y224209D01*
X110313Y225209D01*
X109314D01*
X108314Y224209D01*
Y221210D01*
X120079Y238189D02*
X126077D01*
Y235190D01*
X125077Y234190D01*
X123078D01*
X122078Y235190D01*
Y238189D01*
Y236190D02*
X120079Y234190D01*
Y229192D02*
X126077D01*
X123078Y232191D01*
Y228192D01*
X125077Y226193D02*
X126077Y225193D01*
Y223194D01*
X125077Y222194D01*
X121078D01*
X120079Y223194D01*
Y225193D01*
X121078Y226193D01*
X125077D01*
X361221Y250000D02*
Y255998D01*
X364219D01*
X365219Y254998D01*
Y252999D01*
X364219Y251999D01*
X361221D01*
X363220D02*
X365219Y250000D01*
X370218D02*
Y255998D01*
X367218Y252999D01*
X371217D01*
X373217Y250000D02*
X375216D01*
X374216D01*
Y255998D01*
X373217Y254998D01*
X382500Y264200D02*
Y270198D01*
X385499D01*
X386499Y269198D01*
Y267199D01*
X385499Y266199D01*
X382500D01*
X384499D02*
X386499Y264200D01*
X391497D02*
Y270198D01*
X388498Y267199D01*
X392497D01*
X398495Y264200D02*
X394496D01*
X398495Y268199D01*
Y269198D01*
X397495Y270198D01*
X395496D01*
X394496Y269198D01*
X441929Y223425D02*
X447927D01*
Y220426D01*
X446927Y219426D01*
X444928D01*
X443928Y220426D01*
Y223425D01*
Y221426D02*
X441929Y219426D01*
Y214428D02*
X447927D01*
X444928Y217427D01*
Y213428D01*
X446927Y211429D02*
X447927Y210429D01*
Y208430D01*
X446927Y207430D01*
X445928D01*
X444928Y208430D01*
Y209430D01*
Y208430D01*
X443928Y207430D01*
X442929D01*
X441929Y208430D01*
Y210429D01*
X442929Y211429D01*
X45500Y241500D02*
Y247498D01*
X48499D01*
X49499Y246498D01*
Y244499D01*
X48499Y243499D01*
X45500D01*
X47499D02*
X49499Y241500D01*
X54497D02*
X52498D01*
X51498Y242500D01*
Y244499D01*
X52498Y245499D01*
X54497D01*
X55497Y244499D01*
Y243499D01*
X51498D01*
X57496Y241500D02*
X60495D01*
X61495Y242500D01*
X60495Y243499D01*
X58496D01*
X57496Y244499D01*
X58496Y245499D01*
X61495D01*
X66493Y241500D02*
X64494D01*
X63494Y242500D01*
Y244499D01*
X64494Y245499D01*
X66493D01*
X67493Y244499D01*
Y243499D01*
X63494D01*
X70492Y246498D02*
Y245499D01*
X69492D01*
X71492D01*
X70492D01*
Y242500D01*
X71492Y241500D01*
X420999Y190598D02*
X419999Y191598D01*
X418000D01*
X417000Y190598D01*
Y189599D01*
X418000Y188599D01*
X419999D01*
X420999Y187599D01*
Y186600D01*
X419999Y185600D01*
X418000D01*
X417000Y186600D01*
X422998Y185600D02*
X424997D01*
X423998D01*
Y191598D01*
X422998Y190598D01*
X10827Y193990D02*
Y188992D01*
X11826Y187992D01*
X13826D01*
X14826Y188992D01*
Y193990D01*
X16825Y187992D02*
X18824D01*
X17824D01*
Y193990D01*
X16825Y192991D01*
X58071Y193990D02*
Y188992D01*
X59071Y187992D01*
X61070D01*
X62070Y188992D01*
Y193990D01*
X68068Y187992D02*
X64069D01*
X68068Y191991D01*
Y192991D01*
X67068Y193990D01*
X65069D01*
X64069Y192991D01*
X105709Y193990D02*
Y188992D01*
X106708Y187992D01*
X108708D01*
X109707Y188992D01*
Y193990D01*
X111707Y192991D02*
X112706Y193990D01*
X114706D01*
X115705Y192991D01*
Y191991D01*
X114706Y190991D01*
X113706D01*
X114706D01*
X115705Y189991D01*
Y188992D01*
X114706Y187992D01*
X112706D01*
X111707Y188992D01*
X130300Y162598D02*
Y157600D01*
X131300Y156600D01*
X133299D01*
X134299Y157600D01*
Y162598D01*
X140297D02*
X136298D01*
Y159599D01*
X138297Y160599D01*
X139297D01*
X140297Y159599D01*
Y157600D01*
X139297Y156600D01*
X137298D01*
X136298Y157600D01*
X500394Y10723D02*
Y5724D01*
X501393Y4724D01*
X503393D01*
X504392Y5724D01*
Y10723D01*
X506392D02*
X510391D01*
Y9723D01*
X506392Y5724D01*
Y4724D01*
X246063Y252061D02*
Y247063D01*
X247063Y246063D01*
X249062D01*
X250062Y247063D01*
Y252061D01*
X252061Y251061D02*
X253061Y252061D01*
X255060D01*
X256060Y251061D01*
Y250062D01*
X255060Y249062D01*
X256060Y248062D01*
Y247063D01*
X255060Y246063D01*
X253061D01*
X252061Y247063D01*
Y248062D01*
X253061Y249062D01*
X252061Y250062D01*
Y251061D01*
X253061Y249062D02*
X255060D01*
X337500Y252398D02*
Y247400D01*
X338500Y246400D01*
X340499D01*
X341499Y247400D01*
Y252398D01*
X343498Y247400D02*
X344498Y246400D01*
X346497D01*
X347497Y247400D01*
Y251398D01*
X346497Y252398D01*
X344498D01*
X343498Y251398D01*
Y250399D01*
X344498Y249399D01*
X347497D01*
X173228Y202849D02*
Y201849D01*
X175228Y199849D01*
X177227Y201849D01*
Y202849D01*
X175228Y199849D02*
Y196850D01*
X179226D02*
X181226D01*
X180226D01*
Y202849D01*
X179226Y201849D01*
X566037Y205709D02*
X561039D01*
X560039Y204709D01*
Y202710D01*
X561039Y201710D01*
X566037D01*
X560039Y196712D02*
X566037D01*
X563038Y199711D01*
Y195712D01*
X337900Y186700D02*
Y192698D01*
X340899D01*
X341899Y191698D01*
Y189699D01*
X340899Y188699D01*
X337900D01*
X339899D02*
X341899Y186700D01*
X346897D02*
Y192698D01*
X343898Y189699D01*
X347897D01*
X352895Y186700D02*
Y192698D01*
X349896Y189699D01*
X353895D01*
X470300Y157998D02*
Y153000D01*
X471300Y152000D01*
X473299D01*
X474299Y153000D01*
Y157998D01*
X480297D02*
X478297Y156998D01*
X476298Y154999D01*
Y153000D01*
X477298Y152000D01*
X479297D01*
X480297Y153000D01*
Y153999D01*
X479297Y154999D01*
X476298D01*
X55512Y43369D02*
Y39370D01*
X51513Y43369D01*
X50513D01*
X49514Y42369D01*
Y40370D01*
X50513Y39370D01*
Y45368D02*
X49514Y46368D01*
Y48367D01*
X50513Y49367D01*
X54512D01*
X55512Y48367D01*
Y46368D01*
X54512Y45368D01*
X50513D01*
X85039Y47244D02*
Y49243D01*
Y48244D01*
X79041D01*
X80041Y47244D01*
X137638Y135433D02*
Y133434D01*
Y134433D01*
X143636D01*
X142636Y135433D01*
X143636Y126436D02*
X142636Y128435D01*
X140637Y130435D01*
X138637D01*
X137638Y129435D01*
Y127436D01*
X138637Y126436D01*
X139637D01*
X140637Y127436D01*
Y130435D01*
X147480Y135433D02*
Y133434D01*
Y134433D01*
X153478D01*
X152479Y135433D01*
X153478Y126436D02*
Y130435D01*
X150479D01*
X151479Y128435D01*
Y127436D01*
X150479Y126436D01*
X148480D01*
X147480Y127436D01*
Y129435D01*
X148480Y130435D01*
X137638Y40883D02*
Y44882D01*
X141637Y40883D01*
X142636D01*
X143636Y41883D01*
Y43882D01*
X142636Y44882D01*
X149449D02*
Y42882D01*
Y43882D01*
X155447D01*
X154447Y44882D01*
X423290Y163386D02*
X419291D01*
X423290Y167385D01*
Y168384D01*
X422290Y169384D01*
X420291D01*
X419291Y168384D01*
X431287Y163386D02*
X433287D01*
X432287D01*
Y169384D01*
X431287Y168384D01*
X442284D02*
X443284Y169384D01*
X445283D01*
X446283Y168384D01*
Y167385D01*
X445283Y166385D01*
X444283D01*
X445283D01*
X446283Y165385D01*
Y164385D01*
X445283Y163386D01*
X443284D01*
X442284Y164385D01*
X494882Y257087D02*
Y263085D01*
X496881Y261085D01*
X498881Y263085D01*
Y257087D01*
X501880D02*
X503879D01*
X504879Y258086D01*
Y260086D01*
X503879Y261085D01*
X501880D01*
X500880Y260086D01*
Y258086D01*
X501880Y257087D01*
X506878D02*
X508877D01*
X507878D01*
Y261085D01*
X506878D01*
X511876Y257087D02*
Y258086D01*
X512876D01*
Y257087D01*
X511876D01*
X519685Y263749D02*
Y269747D01*
X522684D01*
X523684Y268747D01*
Y266748D01*
X522684Y265748D01*
X519685D01*
X525683Y269747D02*
Y266748D01*
X526683Y265748D01*
X529682D01*
Y269747D01*
X531681Y265748D02*
Y269747D01*
X532681D01*
X533680Y268747D01*
Y265748D01*
Y268747D01*
X534680Y269747D01*
X535680Y268747D01*
Y265748D01*
X547244Y216505D02*
Y222503D01*
X550243D01*
X551243Y221503D01*
Y219504D01*
X550243Y218504D01*
X547244D01*
X554242D02*
X556241D01*
X557241Y219504D01*
Y221503D01*
X556241Y222503D01*
X554242D01*
X553242Y221503D01*
Y219504D01*
X554242Y218504D01*
X559240Y222503D02*
Y219504D01*
X560240Y218504D01*
X561240Y219504D01*
X562239Y218504D01*
X563239Y219504D01*
Y222503D01*
X282044Y277593D02*
G03*
X282549Y285299I-514J3903D01*
G01*
X296764Y285399D02*
G03*
X296259Y277693I514J-3903D01*
G01*
X148108Y285399D02*
G03*
X147603Y277693I514J-3903D01*
G01*
X133388Y277593D02*
G03*
X133893Y285299I-514J3903D01*
G01*
X148108Y277593D02*
X282010D01*
X148108Y285399D02*
X282456D01*
X-0Y277559D02*
X34Y277593D01*
X133388D01*
X34449Y285433D02*
X133800D01*
X14764Y305118D02*
X34449Y285433D01*
X14764Y305118D02*
X34449Y324803D01*
X314961D01*
Y364173D01*
X34449D02*
X314961D01*
X14764Y383858D02*
X34449Y364173D01*
X14764Y383858D02*
X36417Y405512D01*
X393701D01*
Y285433D02*
Y405512D01*
X393667Y285399D02*
X393701Y285433D01*
X296730Y285399D02*
X393667D01*
X296730Y277593D02*
X393667D01*
X393701Y277559D01*
X570866D01*
X570866Y277559D01*
Y0D02*
Y277559D01*
X78740Y0D02*
X570866D01*
X-0Y78740D02*
X78740Y0D01*
X-0Y78740D02*
Y277559D01*
D46*
X513779Y199803D02*
X520669D01*
Y191929D02*
Y199803D01*
X513779Y191929D02*
X520669D01*
X501968Y199803D02*
X507874D01*
X500984Y198819D02*
X501968Y199803D01*
X500984Y192913D02*
Y198819D01*
Y192913D02*
X501968Y191929D01*
X507874D01*
X480315Y246063D02*
Y252953D01*
X488189D01*
Y246063D02*
Y252953D01*
X480315Y234252D02*
Y240158D01*
Y234252D02*
X481299Y233268D01*
X487205D01*
X488189Y234252D01*
Y240158D01*
X256299Y166870D02*
Y237972D01*
X283858Y166870D02*
Y237972D01*
X256299D02*
X283858D01*
X256299Y166929D02*
X283858Y166870D01*
X535630Y143701D02*
X561221D01*
X535630Y122047D02*
X561221D01*
X535630Y119685D02*
X561221D01*
X535630Y98032D02*
X561221D01*
X535630Y95669D02*
X561221D01*
X535630Y74016D02*
X561221D01*
X535630Y47638D02*
X561221D01*
X535630Y25984D02*
X561221D01*
X535630Y71653D02*
X561221D01*
X535630Y50000D02*
X561221D01*
X490945Y9646D02*
Y35236D01*
X469291Y9646D02*
Y35236D01*
X51693Y264449D02*
X111693D01*
X51693Y254449D02*
X111693D01*
Y264449D01*
X51693Y254449D02*
Y264449D01*
X493701Y225000D02*
Y250591D01*
X515354Y225000D02*
Y250591D01*
X518701Y262205D02*
X544291D01*
X518701Y240551D02*
X544291D01*
X519095Y238189D02*
X544685D01*
X519095Y216535D02*
X544685D01*
X478346Y72047D02*
X505905Y71988D01*
X478346Y143091D02*
X505905D01*
Y71988D02*
Y143091D01*
X478346Y71988D02*
Y143091D01*
X538307Y166772D02*
X558307D01*
X538307Y206772D02*
X558307D01*
Y166772D02*
Y206772D01*
X538307Y166772D02*
Y206772D01*
X495276Y17539D02*
X514764D01*
X352362Y356299D02*
X377953D01*
X352362Y334646D02*
X377953D01*
X469488Y248031D02*
Y246720D01*
Y247375D01*
X473424D01*
X472768Y248031D01*
X469488Y238192D02*
Y240816D01*
X472112Y238192D01*
X472768D01*
X473424Y238848D01*
Y240160D01*
X472768Y240816D01*
Y232944D02*
X473424Y232289D01*
Y230977D01*
X472768Y230321D01*
X472112D01*
X471456Y230977D01*
Y231633D01*
Y230977D01*
X470800Y230321D01*
X470144D01*
X469488Y230977D01*
Y232289D01*
X470144Y232944D01*
X90551Y39369D02*
Y35433D01*
X92519D01*
X93175Y36089D01*
Y38713D01*
X92519Y39369D01*
X90551D01*
X97111Y35433D02*
X94487D01*
X97111Y38057D01*
Y38713D01*
X96455Y39369D01*
X95143D01*
X94487Y38713D01*
X568110Y33465D02*
X564175D01*
Y35432D01*
X564830Y36088D01*
X566142D01*
X566798Y35432D01*
Y33465D01*
X568110Y40024D02*
Y37400D01*
X565486Y40024D01*
X564830D01*
X564175Y39368D01*
Y38056D01*
X564830Y37400D01*
X567323Y57480D02*
X563387D01*
Y59448D01*
X564043Y60104D01*
X565355D01*
X566011Y59448D01*
Y57480D01*
X564043Y61416D02*
X563387Y62072D01*
Y63384D01*
X564043Y64040D01*
X564699D01*
X565355Y63384D01*
Y62728D01*
Y63384D01*
X566011Y64040D01*
X566667D01*
X567323Y63384D01*
Y62072D01*
X566667Y61416D01*
X567717Y81496D02*
X563781D01*
Y83464D01*
X564437Y84120D01*
X565749D01*
X566405Y83464D01*
Y81496D01*
X567717Y87400D02*
X563781D01*
X565749Y85432D01*
Y88056D01*
X567717Y106299D02*
X563781D01*
Y108267D01*
X564437Y108923D01*
X565749D01*
X566405Y108267D01*
Y106299D01*
X563781Y112859D02*
Y110235D01*
X565749D01*
X565093Y111547D01*
Y112203D01*
X565749Y112859D01*
X567061D01*
X567717Y112203D01*
Y110891D01*
X567061Y110235D01*
X567323Y130709D02*
X563387D01*
Y132676D01*
X564043Y133333D01*
X565355D01*
X566011Y132676D01*
Y130709D01*
X563387Y137268D02*
X564043Y135956D01*
X565355Y134644D01*
X566667D01*
X567323Y135300D01*
Y136612D01*
X566667Y137268D01*
X566011D01*
X565355Y136612D01*
Y134644D01*
X471457Y29528D02*
Y33463D01*
X473425D01*
X474081Y32807D01*
Y31495D01*
X473425Y30839D01*
X471457D01*
X475392Y29528D02*
X476704D01*
X476048D01*
Y33463D01*
X475392Y32807D01*
X478672D02*
X479328Y33463D01*
X480640D01*
X481296Y32807D01*
Y30184D01*
X480640Y29528D01*
X479328D01*
X478672Y30184D01*
Y32807D01*
X107087Y55118D02*
Y59054D01*
X109055D01*
X109710Y58398D01*
Y57086D01*
X109055Y56430D01*
X107087D01*
X108398D02*
X109710Y55118D01*
X111022D02*
X112334D01*
X111678D01*
Y59054D01*
X111022Y58398D01*
X105905Y64567D02*
Y68503D01*
X107873D01*
X108529Y67847D01*
Y66535D01*
X107873Y65879D01*
X105905D01*
X107217D02*
X108529Y64567D01*
X112465D02*
X109841D01*
X112465Y67191D01*
Y67847D01*
X111809Y68503D01*
X110497D01*
X109841Y67847D01*
X106299Y74803D02*
Y78739D01*
X108267D01*
X108923Y78083D01*
Y76771D01*
X108267Y76115D01*
X106299D01*
X107611D02*
X108923Y74803D01*
X110235Y78083D02*
X110891Y78739D01*
X112203D01*
X112859Y78083D01*
Y77427D01*
X112203Y76771D01*
X111547D01*
X112203D01*
X112859Y76115D01*
Y75459D01*
X112203Y74803D01*
X110891D01*
X110235Y75459D01*
X105905Y85827D02*
Y89763D01*
X107873D01*
X108529Y89107D01*
Y87795D01*
X107873Y87139D01*
X105905D01*
X107217D02*
X108529Y85827D01*
X111809D02*
Y89763D01*
X109841Y87795D01*
X112465D01*
X105118Y95669D02*
Y99605D01*
X107086D01*
X107742Y98949D01*
Y97637D01*
X107086Y96981D01*
X105118D01*
X106430D02*
X107742Y95669D01*
X111678Y99605D02*
X109054D01*
Y97637D01*
X110366Y98293D01*
X111022D01*
X111678Y97637D01*
Y96325D01*
X111022Y95669D01*
X109710D01*
X109054Y96325D01*
X105512Y105118D02*
Y109054D01*
X107480D01*
X108136Y108398D01*
Y107086D01*
X107480Y106430D01*
X105512D01*
X106824D02*
X108136Y105118D01*
X112071Y109054D02*
X110759Y108398D01*
X109448Y107086D01*
Y105774D01*
X110103Y105118D01*
X111415D01*
X112071Y105774D01*
Y106430D01*
X111415Y107086D01*
X109448D01*
X105512Y115354D02*
Y119290D01*
X107480D01*
X108136Y118634D01*
Y117322D01*
X107480Y116666D01*
X105512D01*
X106824D02*
X108136Y115354D01*
X109448Y119290D02*
X112071D01*
Y118634D01*
X109448Y116010D01*
Y115354D01*
X105905Y125591D02*
Y129526D01*
X107873D01*
X108529Y128870D01*
Y127558D01*
X107873Y126902D01*
X105905D01*
X107217D02*
X108529Y125591D01*
X109841Y128870D02*
X110497Y129526D01*
X111809D01*
X112465Y128870D01*
Y128214D01*
X111809Y127558D01*
X112465Y126902D01*
Y126247D01*
X111809Y125591D01*
X110497D01*
X109841Y126247D01*
Y126902D01*
X110497Y127558D01*
X109841Y128214D01*
Y128870D01*
X110497Y127558D02*
X111809D01*
X105905Y135039D02*
Y138975D01*
X107873D01*
X108529Y138319D01*
Y137007D01*
X107873Y136351D01*
X105905D01*
X107217D02*
X108529Y135039D01*
X109841Y135695D02*
X110497Y135039D01*
X111809D01*
X112465Y135695D01*
Y138319D01*
X111809Y138975D01*
X110497D01*
X109841Y138319D01*
Y137663D01*
X110497Y137007D01*
X112465D01*
X106299Y146063D02*
Y149999D01*
X108267D01*
X108923Y149343D01*
Y148031D01*
X108267Y147375D01*
X106299D01*
X107611D02*
X108923Y146063D01*
X110235D02*
X111547D01*
X110891D01*
Y149999D01*
X110235Y149343D01*
X113515D02*
X114171Y149999D01*
X115483D01*
X116139Y149343D01*
Y146719D01*
X115483Y146063D01*
X114171D01*
X113515Y146719D01*
Y149343D01*
X21654Y145276D02*
Y149211D01*
X23621D01*
X24277Y148555D01*
Y147243D01*
X23621Y146588D01*
X21654D01*
X22965D02*
X24277Y145276D01*
X25589D02*
X26901D01*
X26245D01*
Y149211D01*
X25589Y148555D01*
X28869Y145276D02*
X30181D01*
X29525D01*
Y149211D01*
X28869Y148555D01*
X21260Y135827D02*
Y139762D01*
X23228D01*
X23884Y139107D01*
Y137795D01*
X23228Y137139D01*
X21260D01*
X22572D02*
X23884Y135827D01*
X25196D02*
X26507D01*
X25852D01*
Y139762D01*
X25196Y139107D01*
X31099Y135827D02*
X28475D01*
X31099Y138451D01*
Y139107D01*
X30443Y139762D01*
X29131D01*
X28475Y139107D01*
X21260Y124803D02*
Y128739D01*
X23228D01*
X23884Y128083D01*
Y126771D01*
X23228Y126115D01*
X21260D01*
X22572D02*
X23884Y124803D01*
X25196D02*
X26507D01*
X25852D01*
Y128739D01*
X25196Y128083D01*
X28475D02*
X29131Y128739D01*
X30443D01*
X31099Y128083D01*
Y127427D01*
X30443Y126771D01*
X29787D01*
X30443D01*
X31099Y126115D01*
Y125459D01*
X30443Y124803D01*
X29131D01*
X28475Y125459D01*
X21260Y115748D02*
Y119684D01*
X23228D01*
X23884Y119028D01*
Y117716D01*
X23228Y117060D01*
X21260D01*
X22572D02*
X23884Y115748D01*
X25196D02*
X26507D01*
X25852D01*
Y119684D01*
X25196Y119028D01*
X30443Y115748D02*
Y119684D01*
X28475Y117716D01*
X31099D01*
X20472Y105905D02*
Y109841D01*
X22440D01*
X23096Y109185D01*
Y107873D01*
X22440Y107217D01*
X20472D01*
X21784D02*
X23096Y105905D01*
X24408D02*
X25720D01*
X25064D01*
Y109841D01*
X24408Y109185D01*
X30312Y109841D02*
X27688D01*
Y107873D01*
X29000Y108529D01*
X29656D01*
X30312Y107873D01*
Y106562D01*
X29656Y105905D01*
X28344D01*
X27688Y106562D01*
X20866Y95669D02*
Y99605D01*
X22834D01*
X23490Y98949D01*
Y97637D01*
X22834Y96981D01*
X20866D01*
X22178D02*
X23490Y95669D01*
X24802D02*
X26114D01*
X25458D01*
Y99605D01*
X24802Y98949D01*
X30705Y99605D02*
X29394Y98949D01*
X28082Y97637D01*
Y96325D01*
X28738Y95669D01*
X30049D01*
X30705Y96325D01*
Y96981D01*
X30049Y97637D01*
X28082D01*
X22047Y84252D02*
Y88188D01*
X24015D01*
X24671Y87532D01*
Y86220D01*
X24015Y85564D01*
X22047D01*
X23359D02*
X24671Y84252D01*
X25983D02*
X27295D01*
X26639D01*
Y88188D01*
X25983Y87532D01*
X29263Y88188D02*
X31887D01*
Y87532D01*
X29263Y84908D01*
Y84252D01*
X21260Y74803D02*
Y78739D01*
X23228D01*
X23884Y78083D01*
Y76771D01*
X23228Y76115D01*
X21260D01*
X22572D02*
X23884Y74803D01*
X25196D02*
X26507D01*
X25852D01*
Y78739D01*
X25196Y78083D01*
X28475D02*
X29131Y78739D01*
X30443D01*
X31099Y78083D01*
Y77427D01*
X30443Y76771D01*
X31099Y76115D01*
Y75459D01*
X30443Y74803D01*
X29131D01*
X28475Y75459D01*
Y76115D01*
X29131Y76771D01*
X28475Y77427D01*
Y78083D01*
X29131Y76771D02*
X30443D01*
X21654Y65354D02*
Y69290D01*
X23621D01*
X24277Y68634D01*
Y67322D01*
X23621Y66666D01*
X21654D01*
X22965D02*
X24277Y65354D01*
X25589D02*
X26901D01*
X26245D01*
Y69290D01*
X25589Y68634D01*
X28869Y66010D02*
X29525Y65354D01*
X30837D01*
X31493Y66010D01*
Y68634D01*
X30837Y69290D01*
X29525D01*
X28869Y68634D01*
Y67978D01*
X29525Y67322D01*
X31493D01*
X34646Y49606D02*
Y53542D01*
X36614D01*
X37269Y52886D01*
Y51574D01*
X36614Y50918D01*
X34646D01*
X35958D02*
X37269Y49606D01*
X41205D02*
X38581D01*
X41205Y52230D01*
Y52886D01*
X40549Y53542D01*
X39237D01*
X38581Y52886D01*
X42517D02*
X43173Y53542D01*
X44485D01*
X45141Y52886D01*
Y50262D01*
X44485Y49606D01*
X43173D01*
X42517Y50262D01*
Y52886D01*
X498032Y161417D02*
Y165353D01*
X499999D01*
X500655Y164697D01*
Y163385D01*
X499999Y162729D01*
X498032D01*
X499343D02*
X500655Y161417D01*
X504591D02*
X501967D01*
X504591Y164041D01*
Y164697D01*
X503935Y165353D01*
X502623D01*
X501967Y164697D01*
X505903Y161417D02*
X507215D01*
X506559D01*
Y165353D01*
X505903Y164697D01*
X106693Y30709D02*
Y34644D01*
X108661D01*
X109317Y33988D01*
Y32677D01*
X108661Y32021D01*
X106693D01*
X108005D02*
X109317Y30709D01*
X113252D02*
X110629D01*
X113252Y33332D01*
Y33988D01*
X112596Y34644D01*
X111285D01*
X110629Y33988D01*
X117188Y30709D02*
X114564D01*
X117188Y33332D01*
Y33988D01*
X116532Y34644D01*
X115220D01*
X114564Y33988D01*
X106693Y19685D02*
Y23621D01*
X108661D01*
X109317Y22965D01*
Y21653D01*
X108661Y20997D01*
X106693D01*
X108005D02*
X109317Y19685D01*
X113252D02*
X110629D01*
X113252Y22309D01*
Y22965D01*
X112596Y23621D01*
X111285D01*
X110629Y22965D01*
X114564D02*
X115220Y23621D01*
X116532D01*
X117188Y22965D01*
Y22309D01*
X116532Y21653D01*
X115876D01*
X116532D01*
X117188Y20997D01*
Y20341D01*
X116532Y19685D01*
X115220D01*
X114564Y20341D01*
X106693Y2756D02*
Y6692D01*
X108661D01*
X109317Y6036D01*
Y4724D01*
X108661Y4068D01*
X106693D01*
X108005D02*
X109317Y2756D01*
X113252D02*
X110629D01*
X113252Y5380D01*
Y6036D01*
X112596Y6692D01*
X111285D01*
X110629Y6036D01*
X116532Y2756D02*
Y6692D01*
X114564Y4724D01*
X117188D01*
X526772Y23622D02*
X522836D01*
Y25590D01*
X523492Y26246D01*
X524804D01*
X525460Y25590D01*
Y23622D01*
Y24934D02*
X526772Y26246D01*
Y30182D02*
Y27558D01*
X524148Y30182D01*
X523492D01*
X522836Y29526D01*
Y28214D01*
X523492Y27558D01*
X522836Y34117D02*
Y31493D01*
X524804D01*
X524148Y32805D01*
Y33461D01*
X524804Y34117D01*
X526116D01*
X526772Y33461D01*
Y32149D01*
X526116Y31493D01*
X533858Y23622D02*
X529922D01*
Y25590D01*
X530579Y26246D01*
X531890D01*
X532546Y25590D01*
Y23622D01*
Y24934D02*
X533858Y26246D01*
Y30182D02*
Y27558D01*
X531234Y30182D01*
X530579D01*
X529922Y29526D01*
Y28214D01*
X530579Y27558D01*
X529922Y34117D02*
X530579Y32805D01*
X531890Y31493D01*
X533202D01*
X533858Y32149D01*
Y33461D01*
X533202Y34117D01*
X532546D01*
X531890Y33461D01*
Y31493D01*
X526772Y48031D02*
X522836D01*
Y49999D01*
X523492Y50655D01*
X524804D01*
X525460Y49999D01*
Y48031D01*
Y49343D02*
X526772Y50655D01*
Y54591D02*
Y51967D01*
X524148Y54591D01*
X523492D01*
X522836Y53935D01*
Y52623D01*
X523492Y51967D01*
X522836Y55903D02*
Y58527D01*
X523492D01*
X526116Y55903D01*
X526772D01*
X533465Y48228D02*
X529529D01*
Y50196D01*
X530185Y50852D01*
X531497D01*
X532153Y50196D01*
Y48228D01*
Y49540D02*
X533465Y50852D01*
Y54788D02*
Y52164D01*
X530841Y54788D01*
X530185D01*
X529529Y54132D01*
Y52820D01*
X530185Y52164D01*
Y56100D02*
X529529Y56756D01*
Y58068D01*
X530185Y58724D01*
X530841D01*
X531497Y58068D01*
X532153Y58724D01*
X532809D01*
X533465Y58068D01*
Y56756D01*
X532809Y56100D01*
X532153D01*
X531497Y56756D01*
X530841Y56100D01*
X530185D01*
X531497Y56756D02*
Y58068D01*
X526772Y71653D02*
X522836D01*
Y73621D01*
X523492Y74277D01*
X524804D01*
X525460Y73621D01*
Y71653D01*
Y72966D02*
X526772Y74277D01*
Y78213D02*
Y75589D01*
X524148Y78213D01*
X523492D01*
X522836Y77557D01*
Y76245D01*
X523492Y75589D01*
X526116Y79525D02*
X526772Y80181D01*
Y81493D01*
X526116Y82149D01*
X523492D01*
X522836Y81493D01*
Y80181D01*
X523492Y79525D01*
X524148D01*
X524804Y80181D01*
Y82149D01*
X533858Y71653D02*
X529922D01*
Y73621D01*
X530579Y74277D01*
X531890D01*
X532546Y73621D01*
Y71653D01*
Y72966D02*
X533858Y74277D01*
X530579Y75589D02*
X529922Y76245D01*
Y77557D01*
X530579Y78213D01*
X531234D01*
X531890Y77557D01*
Y76901D01*
Y77557D01*
X532546Y78213D01*
X533202D01*
X533858Y77557D01*
Y76245D01*
X533202Y75589D01*
X530579Y79525D02*
X529922Y80181D01*
Y81493D01*
X530579Y82149D01*
X533202D01*
X533858Y81493D01*
Y80181D01*
X533202Y79525D01*
X530579D01*
X526772Y96850D02*
X522836D01*
Y98818D01*
X523492Y99474D01*
X524804D01*
X525460Y98818D01*
Y96850D01*
Y98162D02*
X526772Y99474D01*
X523492Y100786D02*
X522836Y101442D01*
Y102754D01*
X523492Y103410D01*
X524148D01*
X524804Y102754D01*
Y102098D01*
Y102754D01*
X525460Y103410D01*
X526116D01*
X526772Y102754D01*
Y101442D01*
X526116Y100786D01*
X526772Y104722D02*
Y106034D01*
Y105378D01*
X522836D01*
X523492Y104722D01*
X533858Y95669D02*
X529922D01*
Y97637D01*
X530579Y98293D01*
X531890D01*
X532546Y97637D01*
Y95669D01*
Y96981D02*
X533858Y98293D01*
X530579Y99605D02*
X529922Y100261D01*
Y101573D01*
X530579Y102229D01*
X531234D01*
X531890Y101573D01*
Y100917D01*
Y101573D01*
X532546Y102229D01*
X533202D01*
X533858Y101573D01*
Y100261D01*
X533202Y99605D01*
X533858Y106165D02*
Y103541D01*
X531234Y106165D01*
X530579D01*
X529922Y105509D01*
Y104197D01*
X530579Y103541D01*
X526772Y119685D02*
X522836D01*
Y121653D01*
X523492Y122309D01*
X524804D01*
X525460Y121653D01*
Y119685D01*
Y120997D02*
X526772Y122309D01*
X523492Y123621D02*
X522836Y124277D01*
Y125589D01*
X523492Y126245D01*
X524148D01*
X524804Y125589D01*
Y124933D01*
Y125589D01*
X525460Y126245D01*
X526116D01*
X526772Y125589D01*
Y124277D01*
X526116Y123621D01*
X523492Y127557D02*
X522836Y128212D01*
Y129524D01*
X523492Y130180D01*
X524148D01*
X524804Y129524D01*
Y128868D01*
Y129524D01*
X525460Y130180D01*
X526116D01*
X526772Y129524D01*
Y128212D01*
X526116Y127557D01*
X533465Y119587D02*
X529529D01*
Y121555D01*
X530185Y122210D01*
X531497D01*
X532153Y121555D01*
Y119587D01*
Y120898D02*
X533465Y122210D01*
X530185Y123522D02*
X529529Y124178D01*
Y125490D01*
X530185Y126146D01*
X530841D01*
X531497Y125490D01*
Y124834D01*
Y125490D01*
X532153Y126146D01*
X532809D01*
X533465Y125490D01*
Y124178D01*
X532809Y123522D01*
X533465Y129426D02*
X529529D01*
X531497Y127458D01*
Y130082D01*
X483071Y57087D02*
Y61022D01*
X485039D01*
X485695Y60366D01*
Y59054D01*
X485039Y58398D01*
X483071D01*
X484383D02*
X485695Y57087D01*
X487007Y60366D02*
X487663Y61022D01*
X488975D01*
X489630Y60366D01*
Y59710D01*
X488975Y59054D01*
X488318D01*
X488975D01*
X489630Y58398D01*
Y57743D01*
X488975Y57087D01*
X487663D01*
X487007Y57743D01*
X493566Y61022D02*
X490942D01*
Y59054D01*
X492254Y59710D01*
X492910D01*
X493566Y59054D01*
Y57743D01*
X492910Y57087D01*
X491598D01*
X490942Y57743D01*
X483071Y63386D02*
Y67322D01*
X485039D01*
X485695Y66666D01*
Y65354D01*
X485039Y64698D01*
X483071D01*
X484383D02*
X485695Y63386D01*
X487007Y66666D02*
X487663Y67322D01*
X488975D01*
X489630Y66666D01*
Y66010D01*
X488975Y65354D01*
X488318D01*
X488975D01*
X489630Y64698D01*
Y64042D01*
X488975Y63386D01*
X487663D01*
X487007Y64042D01*
X493566Y67322D02*
X492254Y66666D01*
X490942Y65354D01*
Y64042D01*
X491598Y63386D01*
X492910D01*
X493566Y64042D01*
Y64698D01*
X492910Y65354D01*
X490942D01*
X490551Y37402D02*
Y41337D01*
X492519D01*
X493175Y40681D01*
Y39369D01*
X492519Y38713D01*
X490551D01*
X491863D02*
X493175Y37402D01*
X494487Y40681D02*
X495143Y41337D01*
X496455D01*
X497111Y40681D01*
Y40025D01*
X496455Y39369D01*
X495799D01*
X496455D01*
X497111Y38713D01*
Y38058D01*
X496455Y37402D01*
X495143D01*
X494487Y38058D01*
X498423Y41337D02*
X501047D01*
Y40681D01*
X498423Y38058D01*
Y37402D01*
X476378Y48228D02*
Y52164D01*
X478346D01*
X479002Y51508D01*
Y50196D01*
X478346Y49540D01*
X476378D01*
X477690D02*
X479002Y48228D01*
X480314Y51508D02*
X480970Y52164D01*
X482282D01*
X482937Y51508D01*
Y50852D01*
X482282Y50196D01*
X481626D01*
X482282D01*
X482937Y49540D01*
Y48884D01*
X482282Y48228D01*
X480970D01*
X480314Y48884D01*
X484249Y51508D02*
X484905Y52164D01*
X486217D01*
X486873Y51508D01*
Y50852D01*
X486217Y50196D01*
X486873Y49540D01*
Y48884D01*
X486217Y48228D01*
X484905D01*
X484249Y48884D01*
Y49540D01*
X484905Y50196D01*
X484249Y50852D01*
Y51508D01*
X484905Y50196D02*
X486217D01*
X470079Y7479D02*
Y3543D01*
X472703D01*
X474015Y6167D02*
Y4199D01*
X474670Y3543D01*
X476638D01*
Y6167D01*
X477950Y3543D02*
Y6167D01*
X478606D01*
X479262Y5511D01*
Y3543D01*
Y5511D01*
X479918Y6167D01*
X480574Y5511D01*
Y3543D01*
X481886D02*
Y4199D01*
X482542D01*
Y3543D01*
X481886D01*
D47*
X295669Y191831D02*
Y192717D01*
X298031Y191831D02*
Y192717D01*
X87598Y211417D02*
X88484D01*
X87598Y213779D02*
X88484D01*
X298819Y231299D02*
Y232185D01*
X296457Y231299D02*
Y232185D01*
X387248Y257858D02*
X387748D01*
X387248Y259858D02*
X387748D01*
X425394Y217520D02*
Y218406D01*
X423032Y217520D02*
Y218406D01*
X39217Y146638D02*
X39717D01*
X39217Y148638D02*
X39717D01*
X39217Y136795D02*
X39717D01*
X39217Y138795D02*
X39717D01*
X39217Y56087D02*
X39717D01*
X39217Y58087D02*
X39717D01*
X39217Y65929D02*
X39717D01*
X39217Y67929D02*
X39717D01*
X39217Y75772D02*
X39717D01*
X39217Y77772D02*
X39717D01*
X39217Y85614D02*
X39717D01*
X39217Y87614D02*
X39717D01*
X39217Y96441D02*
X39717D01*
X39217Y98441D02*
X39717D01*
X39217Y106283D02*
X39717D01*
X39217Y108283D02*
X39717D01*
X39217Y116126D02*
X39717D01*
X39217Y118126D02*
X39717D01*
X39217Y125969D02*
X39717D01*
X39217Y127969D02*
X39717D01*
X96898Y148638D02*
X97398D01*
X96898Y146638D02*
X97398D01*
X96898Y137811D02*
X97398D01*
X96898Y135811D02*
X97398D01*
X96898Y127969D02*
X97398D01*
X96898Y125969D02*
X97398D01*
X96898Y118126D02*
X97398D01*
X96898Y116126D02*
X97398D01*
X96898Y108283D02*
X97398D01*
X96898Y106283D02*
X97398D01*
X96898Y98441D02*
X97398D01*
X96898Y96441D02*
X97398D01*
X96898Y88598D02*
X97398D01*
X96898Y86598D02*
X97398D01*
X96898Y77772D02*
X97398D01*
X96898Y75772D02*
X97398D01*
X96898Y67929D02*
X97398D01*
X96898Y65929D02*
X97398D01*
X96898Y58087D02*
X97398D01*
X96898Y56087D02*
X97398D01*
X111661Y11630D02*
X112161D01*
X111661Y9630D02*
X112161D01*
X111661Y17535D02*
X112161D01*
X111661Y15535D02*
X112161D01*
X111268Y28165D02*
X111768D01*
X111268Y26165D02*
X111768D01*
X530496Y64811D02*
Y65311D01*
X532496Y64811D02*
Y65311D01*
X530496Y40402D02*
Y40902D01*
X532496Y40402D02*
Y40902D01*
X525409Y40595D02*
Y41094D01*
X523409Y40595D02*
Y41094D01*
X525409Y65004D02*
Y65504D01*
X523409Y65004D02*
Y65504D01*
X525409Y136658D02*
Y137157D01*
X523409Y136658D02*
Y137157D01*
X530496Y136465D02*
Y136965D01*
X532496Y136465D02*
Y136965D01*
X530496Y112449D02*
Y112949D01*
X532496Y112449D02*
Y112949D01*
X525409Y112642D02*
Y113142D01*
X523409Y112642D02*
Y113142D01*
X530496Y88433D02*
Y88933D01*
X532496Y88433D02*
Y88933D01*
X525409Y88626D02*
Y89126D01*
X523409Y88626D02*
Y89126D01*
X503000Y154543D02*
X503500D01*
X503000Y152543D02*
X503500D01*
X507331Y40370D02*
X507831D01*
X507331Y38370D02*
X507831D01*
X481539Y43882D02*
X482039D01*
X481539Y45882D02*
X482039D01*
X475835Y60055D02*
X476335D01*
X475835Y58055D02*
X476335D01*
X475835Y66354D02*
X476335D01*
X475835Y64354D02*
X476335D01*
X218701Y179921D02*
Y180807D01*
X216339Y179921D02*
Y180807D01*
X216339Y194783D02*
Y195669D01*
X218701Y194783D02*
Y195669D01*
X386858Y251984D02*
X387358D01*
X386858Y249984D02*
X387358D01*
X440158Y204724D02*
Y205610D01*
X437795Y204724D02*
Y205610D01*
X230315Y175984D02*
X231201D01*
X230315Y178347D02*
X231201D01*
X115142Y222488D02*
Y222988D01*
X117142Y222488D02*
Y222988D01*
X99787Y222685D02*
Y223185D01*
X101787Y222685D02*
Y223185D01*
X452772Y213035D02*
Y213535D01*
X450772Y213035D02*
Y213535D01*
D48*
X556331Y164370D02*
X557164Y163537D01*
Y161871D01*
X556331Y161038D01*
X555498D01*
X554665Y161871D01*
X553831Y161038D01*
X552998D01*
X552165Y161871D01*
Y163537D01*
X552998Y164370D01*
X553831D01*
X554665Y163537D01*
X555498Y164370D01*
X556331D01*
X554665Y163537D02*
Y161871D01*
X546337Y164370D02*
Y161038D01*
X545504D01*
X542172Y164370D01*
X541339D01*
X541307Y209772D02*
Y208105D01*
Y208939D01*
X546306D01*
X545472Y209772D01*
X551307Y208439D02*
Y211772D01*
X554639Y208439D01*
X555472D01*
X556306Y209273D01*
Y210939D01*
X555472Y211772D01*
M02*
