%FSLAX25Y25*%
%MOIN*%
G70*
G01*
G75*
G04 Layer_Color=32896*
%ADD10R,0.05118X0.05512*%
%ADD11R,0.05512X0.05118*%
%ADD12R,0.07874X0.02756*%
%ADD13R,0.03937X0.04331*%
%ADD14R,0.04331X0.03937*%
%ADD15R,0.11811X0.09055*%
%ADD16R,0.24016X0.40000*%
%ADD17R,0.07874X0.02362*%
%ADD18R,0.02362X0.06102*%
%ADD19C,0.03937*%
%ADD20C,0.01000*%
%ADD21C,0.02756*%
%ADD22C,0.05906*%
%ADD23C,0.01969*%
%ADD24C,0.07874*%
%ADD25C,0.01575*%
%ADD26C,0.27559*%
%ADD27C,0.07874*%
%ADD28O,0.05906X0.02953*%
%ADD29C,0.07087*%
%ADD30C,0.09843*%
%ADD31C,0.05906*%
%ADD32C,0.08661*%
%ADD33R,0.06299X0.06299*%
%ADD34C,0.06299*%
%ADD35R,0.06299X0.06299*%
%ADD36R,0.05906X0.05906*%
%ADD37C,0.04724*%
%ADD38C,0.01969*%
%ADD39R,0.05906X0.05906*%
%ADD40O,0.03937X0.07874*%
%ADD41O,0.07874X0.04331*%
%ADD42C,0.05000*%
%ADD43C,0.02756*%
%ADD44C,0.03543*%
%ADD45C,0.06693*%
%ADD46C,0.00787*%
%ADD47C,0.00394*%
%ADD48C,0.00800*%
%ADD49R,0.05918X0.06312*%
%ADD50R,0.06312X0.05918*%
%ADD51R,0.08674X0.03556*%
%ADD52R,0.04737X0.05131*%
%ADD53R,0.05131X0.04737*%
%ADD54R,0.12611X0.09855*%
%ADD55R,0.24816X0.40800*%
%ADD56R,0.08674X0.03162*%
%ADD57R,0.03162X0.06902*%
%ADD58C,0.08674*%
%ADD59O,0.06706X0.03753*%
%ADD60C,0.07887*%
%ADD61C,0.10642*%
%ADD62C,0.06706*%
%ADD63C,0.09461*%
%ADD64R,0.07099X0.07099*%
%ADD65C,0.07099*%
%ADD66R,0.07099X0.07099*%
%ADD67R,0.06706X0.06706*%
%ADD68C,0.05524*%
%ADD69C,0.02769*%
%ADD70R,0.06706X0.06706*%
%ADD71O,0.04737X0.08674*%
%ADD72O,0.08674X0.05131*%
%ADD73C,0.05800*%
%ADD74C,0.03556*%
%ADD75C,0.04343*%
%ADD76C,0.07493*%
D20*
X282044Y277593D02*
G03*
X282549Y285299I-514J3903D01*
G01*
X296764Y285399D02*
G03*
X296259Y277693I514J-3903D01*
G01*
X148108Y285399D02*
G03*
X147603Y277693I514J-3903D01*
G01*
X133388Y277593D02*
G03*
X133893Y285299I-514J3903D01*
G01*
X148108Y277593D02*
X282010D01*
X148108Y285399D02*
X282456D01*
X-0Y277559D02*
X34Y277593D01*
X133388D01*
X34449Y285433D02*
X133800D01*
X14764Y305118D02*
X34449Y285433D01*
X14764Y305118D02*
X34449Y324803D01*
X314961D01*
Y364173D01*
X34449D02*
X314961D01*
X14764Y383858D02*
X34449Y364173D01*
X14764Y383858D02*
X36417Y405512D01*
X393701D01*
Y285433D02*
Y405512D01*
X393667Y285399D02*
X393701Y285433D01*
X296730Y285399D02*
X393667D01*
X296730Y277593D02*
X393667D01*
X393701Y277559D01*
X570866D01*
X570866Y277559D01*
Y0D02*
Y277559D01*
X78740Y0D02*
X570866D01*
X-0Y78740D02*
X78740Y0D01*
X-0Y78740D02*
Y277559D01*
M02*
