M48
;Layer_Color=9474304
;FILE_FORMAT=4:4
METRIC,LZ
T11F00S00C5.0800
%
G90
G05
T11
G00X01449427Y-00026674
M15
G01X01450759Y-00026767
G01X0145579Y-0002611
G01X0145972Y-00024845
G01X01460695Y-00024441
G01X01465165Y-00022041
G01X01469069Y-00018801
G01X01472251Y-00014849
G01X01474441Y-00010695
G01X01474845Y-0000972
G01X01476309Y-00004862
G01X01476779Y00000004
G01X01476674Y00704428
G01X01476767Y00705758
G01X0147611Y00710789
G01X01474845Y0071472
G01X01474441Y00715695
G01X01472041Y00720166
G01X014688Y00724069
G01X01464848Y00727251
G01X01460695Y00729441
G01X0145972Y00729845
G01X01454862Y00731309
G01X01449994Y00731779
G01X01026777Y0073168
G01X01026674Y01029429
G01X01026768Y01030758
G01X0102611Y01035789
G01X01024845Y0103972
G01X01024442Y01040695
G01X01022042Y01045165
G01X01018801Y01049069
G01X01014849Y01052251
G01X01010695Y01054441
G01X0100972Y01054845
G01X01004862Y01056309
G01X00999997Y01056779
G01X00093073Y01056674
G01X00091741Y01056767
G01X00086711Y0105611
G01X0008278Y01054845
G01X00081805Y01054441
G01X00077335Y01052041
G01X00073431Y01048801
G01X00072822Y01048044
G01X00019309Y00994531
G01X00018448Y00993818
G01X00015262Y00989869
G01X00013059Y00985695
G01X00012655Y0098472
G01X00011191Y00979862
G01X00010722Y0097481
G01X00011266Y00969766
G01X00012655Y0096528
G01X00013059Y00964305
G01X00015459Y00959835
G01X00018591Y00956038
G01X00067979Y00906797
G01X00068683Y00905947
G01X00072631Y00902762
G01X00076805Y00900559
G01X0007778Y00900155
G01X00082638Y00898691
G01X00087504Y00898221
G01X00773326Y00898322
G01X00773326Y00851674
G01X00088074Y00851674
G01X00086741Y00851767
G01X00081711Y0085111
G01X0007778Y00849845
G01X00076805Y00849441
G01X00072335Y00847041
G01X00068431Y00843801
G01X00067822Y00843044
G01X00019309Y00794531
G01X00018448Y00793818
G01X00015262Y00789869
G01X00013059Y00785695
G01X00012655Y0078472
G01X00011191Y00779862
G01X00010722Y0077481
G01X00011266Y00769766
G01X00012655Y0076528
G01X00013059Y00764305
G01X00015459Y00759835
G01X00018591Y00756038
G01X00042942Y00731759
G01X00000659Y00731759
G01X-00000673Y00731853
G01X-00005704Y00731196
G01X-00009635Y00729931
G01X-0001061Y00729527
G01X-0001508Y00727127
G01X-00018984Y00723886
G01X-00019012Y00723852
G01X-00019053Y00723818
G01X-00022238Y00719869
G01X-00024441Y00715695
G01X-00024845Y0071472
G01X-00026309Y00709862
G01X-00026779Y00704995
G01X-00026674Y00200572
G01X-00026767Y00199241
G01X-0002611Y00194211
G01X-00024845Y0019028
G01X-00024441Y00189305
G01X-00022041Y00184835
G01X-00018801Y00180931
G01X-00018044Y00180322
G01X00180469Y-00018191
G01X00181182Y-00019053
G01X00185131Y-00022238
G01X00189305Y-00024441
G01X0019028Y-00024845
G01X00195138Y-00026309
G01X00200002Y-00026779
G01X01449427Y-00026674
M16
M17
M30
