%FSLAX44Y44*%
%MOMM*%
G71*
G01*
G75*
G04 Layer_Physical_Order=1*
G04 Layer_Color=255*
%ADD10R,1.4000X1.3000*%
%ADD11R,1.0000X1.1000*%
%ADD12R,0.6000X1.5500*%
%ADD13R,1.1000X1.0000*%
%ADD14R,2.0000X0.6000*%
%ADD15R,6.1000X10.1600*%
%ADD16R,3.0000X2.3000*%
%ADD17R,2.0000X0.7000*%
%ADD18R,1.3000X1.4000*%
%ADD19C,0.2540*%
%ADD20C,0.5000*%
%ADD21C,1.5000*%
%ADD22C,1.0000*%
%ADD23C,0.7000*%
%ADD24C,7.0000*%
%ADD25C,0.4000*%
%ADD26C,2.0000*%
%ADD27C,2.0000*%
%ADD28R,1.6000X1.6000*%
%ADD29R,1.6000X1.6000*%
%ADD30C,1.8000*%
%ADD31C,1.5000*%
%ADD32R,1.5000X1.5000*%
%ADD33O,2.0000X1.1000*%
%ADD34O,1.0000X2.0000*%
%ADD35C,0.5000*%
%ADD36C,1.2000*%
%ADD37C,2.5000*%
%ADD38R,1.5000X1.5000*%
%ADD39C,2.2000*%
%ADD40O,1.5000X0.7500*%
%ADD41C,0.9000*%
%ADD42C,1.2700*%
D10*
X1230000Y632500D02*
D03*
Y603500D02*
D03*
D11*
X1147500Y533000D02*
D03*
Y550000D02*
D03*
X256000Y575000D02*
D03*
Y558000D02*
D03*
X295000Y574500D02*
D03*
Y557500D02*
D03*
X1115000Y529500D02*
D03*
Y512500D02*
D03*
X552500Y487500D02*
D03*
Y504500D02*
D03*
X552500Y466500D02*
D03*
Y449500D02*
D03*
X1332000Y217000D02*
D03*
Y234000D02*
D03*
X1350000D02*
D03*
Y217000D02*
D03*
X1332000Y278000D02*
D03*
Y295000D02*
D03*
X1350000Y295000D02*
D03*
Y278000D02*
D03*
Y356000D02*
D03*
Y339000D02*
D03*
X1332000Y339000D02*
D03*
Y356000D02*
D03*
Y157000D02*
D03*
Y174000D02*
D03*
Y95000D02*
D03*
Y112000D02*
D03*
X1350000D02*
D03*
Y95000D02*
D03*
X1350000Y174000D02*
D03*
Y157000D02*
D03*
X1077500Y562000D02*
D03*
Y545000D02*
D03*
X756000Y597000D02*
D03*
Y580000D02*
D03*
X754000Y480000D02*
D03*
Y497000D02*
D03*
D12*
X64650Y457000D02*
D03*
X77350D02*
D03*
X90050D02*
D03*
X102750D02*
D03*
X115450D02*
D03*
X51950D02*
D03*
X39250D02*
D03*
X26550D02*
D03*
Y512000D02*
D03*
X39250D02*
D03*
X51950D02*
D03*
X115450D02*
D03*
X102750D02*
D03*
X90050D02*
D03*
X77350D02*
D03*
X64650D02*
D03*
X185650Y457000D02*
D03*
X198350D02*
D03*
X211050D02*
D03*
X223750D02*
D03*
X236450D02*
D03*
X172950D02*
D03*
X160250D02*
D03*
X147550D02*
D03*
Y512000D02*
D03*
X160250D02*
D03*
X172950D02*
D03*
X236450D02*
D03*
X223750D02*
D03*
X211050D02*
D03*
X198350D02*
D03*
X185650D02*
D03*
X306650Y457000D02*
D03*
X319350D02*
D03*
X332050D02*
D03*
X344750D02*
D03*
X357450D02*
D03*
X293950D02*
D03*
X281250D02*
D03*
X268550D02*
D03*
Y512000D02*
D03*
X281250D02*
D03*
X293950D02*
D03*
X357450D02*
D03*
X344750D02*
D03*
X332050D02*
D03*
X319350D02*
D03*
X306650D02*
D03*
D13*
X594500Y450000D02*
D03*
X577500D02*
D03*
X992000Y637500D02*
D03*
X975000D02*
D03*
X1218000Y166000D02*
D03*
X1201000D02*
D03*
X1218000Y150000D02*
D03*
X1201000D02*
D03*
X1215000Y114000D02*
D03*
X1232000D02*
D03*
X1298000Y100000D02*
D03*
X1281000D02*
D03*
X1287000Y390000D02*
D03*
X1270000D02*
D03*
X292000Y69000D02*
D03*
X275000D02*
D03*
X293000Y42000D02*
D03*
X276000D02*
D03*
X293000Y27000D02*
D03*
X276000D02*
D03*
X255500Y145000D02*
D03*
X238500D02*
D03*
X255500Y170000D02*
D03*
X238500D02*
D03*
X255500Y195000D02*
D03*
X238500D02*
D03*
X255500Y222500D02*
D03*
X238500D02*
D03*
X255500Y247500D02*
D03*
X238500D02*
D03*
X255500Y272500D02*
D03*
X238500D02*
D03*
X255500Y297500D02*
D03*
X238500D02*
D03*
X255500Y322500D02*
D03*
X238500D02*
D03*
X255500Y347500D02*
D03*
X238500D02*
D03*
X255500Y375000D02*
D03*
X238500D02*
D03*
X91500Y322500D02*
D03*
X108500D02*
D03*
X91500Y297500D02*
D03*
X108500D02*
D03*
X91500Y272500D02*
D03*
X108500D02*
D03*
X91500Y247500D02*
D03*
X108500D02*
D03*
X91500Y220000D02*
D03*
X108500D02*
D03*
X91500Y195000D02*
D03*
X108500D02*
D03*
X91500Y170000D02*
D03*
X108500D02*
D03*
X91500Y145000D02*
D03*
X108500D02*
D03*
X91500Y350000D02*
D03*
X108500D02*
D03*
X91500Y375000D02*
D03*
X108500D02*
D03*
X975500Y657500D02*
D03*
X992500D02*
D03*
X232000Y540000D02*
D03*
X215000D02*
D03*
D14*
X1297000Y355700D02*
D03*
X1203000D02*
D03*
Y190600D02*
D03*
Y241400D02*
D03*
Y317600D02*
D03*
Y304900D02*
D03*
Y279500D02*
D03*
Y216000D02*
D03*
Y228700D02*
D03*
Y254100D02*
D03*
Y292200D02*
D03*
Y266800D02*
D03*
Y330300D02*
D03*
Y203300D02*
D03*
Y343000D02*
D03*
X1297000D02*
D03*
Y203300D02*
D03*
Y330300D02*
D03*
Y266800D02*
D03*
Y292200D02*
D03*
Y254100D02*
D03*
Y228700D02*
D03*
Y316900D02*
D03*
Y216000D02*
D03*
Y279500D02*
D03*
Y304900D02*
D03*
Y241400D02*
D03*
Y190600D02*
D03*
D15*
X891000Y562000D02*
D03*
D16*
X129000Y587000D02*
D03*
X221000D02*
D03*
D17*
X733000Y431600D02*
D03*
Y482400D02*
D03*
Y545900D02*
D03*
Y520500D02*
D03*
Y457000D02*
D03*
Y557900D02*
D03*
Y469700D02*
D03*
Y495100D02*
D03*
Y533200D02*
D03*
Y507800D02*
D03*
Y571300D02*
D03*
Y444300D02*
D03*
Y584000D02*
D03*
X639000D02*
D03*
Y444300D02*
D03*
Y571300D02*
D03*
Y507800D02*
D03*
Y533200D02*
D03*
Y495100D02*
D03*
Y469700D02*
D03*
Y457000D02*
D03*
Y520500D02*
D03*
Y545900D02*
D03*
Y558600D02*
D03*
Y482400D02*
D03*
Y431600D02*
D03*
Y596700D02*
D03*
X733000D02*
D03*
D18*
X1312500Y497500D02*
D03*
X1283500D02*
D03*
D19*
X907500Y322500D02*
X1077500D01*
X905000Y320000D02*
X907500Y322500D01*
X679540Y432040D02*
Y501880D01*
X659730Y412230D02*
X679540Y432040D01*
X575270Y412230D02*
X659730D01*
X575000Y412500D02*
X575270Y412230D01*
X537500Y570000D02*
X537500Y570000D01*
X537500Y570000D01*
X345000Y585000D02*
X540000D01*
X319350Y559350D02*
X345000Y585000D01*
X319350Y525650D02*
Y559350D01*
X960600Y49300D02*
X961300Y50000D01*
X1310000Y375000D02*
X1315000D01*
X1410000Y420000D02*
X1420000Y430000D01*
X1195000Y420000D02*
X1410000D01*
X1167500Y447500D02*
X1195000Y420000D01*
X1396600Y425000D02*
X1406650Y435050D01*
X1200000Y425000D02*
X1396600D01*
X1150000Y475000D02*
X1200000Y425000D01*
X1195800Y459200D02*
X1380000D01*
X1165000Y490000D02*
X1195800Y459200D01*
X1145000Y470000D02*
X1167500Y447500D01*
X826421Y470000D02*
X1145000D01*
X825000Y475000D02*
X1150000D01*
X1201200Y433800D02*
X1380000D01*
X1155000Y480000D02*
X1201200Y433800D01*
X825000Y480000D02*
X1155000D01*
X1196570Y448430D02*
X1394630D01*
X1159540Y485460D02*
X1196570Y448430D01*
X833120Y485460D02*
X1159540D01*
X835000Y490000D02*
X1165000D01*
X1190000Y475000D02*
X1395000D01*
X1170460Y494540D02*
X1190000Y475000D01*
X840460Y494540D02*
X1170460D01*
X905000Y300000D02*
X1067500D01*
X1160000Y343000D02*
X1203000D01*
X914290Y97290D02*
X1160000Y343000D01*
X1171000Y348000D02*
X1178700Y355700D01*
X1158579Y348000D02*
X1171000D01*
X912410Y101830D02*
X1158579Y348000D01*
X1404600Y484600D02*
X1405400D01*
X1395000Y475000D02*
X1404600Y484600D01*
X1407731Y500000D02*
X1420000Y487731D01*
Y430000D02*
Y487731D01*
X1395400Y500000D02*
X1407731D01*
X1381250Y485850D02*
X1395400Y500000D01*
X1310380Y109620D02*
X1325000Y95000D01*
X1310380Y109620D02*
Y138985D01*
X1310460Y139065D02*
Y264540D01*
X1310380Y138985D02*
X1310460Y139065D01*
X1315000Y170000D02*
X1328000Y157000D01*
X226850Y483150D02*
X236450Y473550D01*
X185650Y483150D02*
X226850D01*
X639000Y558600D02*
X673600D01*
X660000Y640000D02*
X972500D01*
X975000Y637500D01*
X639900Y545000D02*
X660000D01*
X639000Y545900D02*
X639900Y545000D01*
X664300Y444300D02*
X665000Y445000D01*
X675000Y435000D02*
Y500000D01*
X660000Y420000D02*
X675000Y435000D01*
X620000Y420000D02*
X660000D01*
X670000Y511421D02*
Y526400D01*
Y511421D02*
X679540Y501880D01*
X654500Y520500D02*
X675000Y500000D01*
X1296300Y58000D02*
Y100000D01*
X236450Y457000D02*
Y473550D01*
X295000Y574500D02*
Y593500D01*
X733500Y457500D02*
X787500D01*
X370000Y320000D02*
X875000D01*
X354600Y305600D02*
X370000Y320000D01*
X602500Y432500D02*
X638100D01*
X639000Y431600D01*
X357450Y457000D02*
Y475050D01*
X350100Y482400D02*
X357450Y475050D01*
X308200Y482400D02*
X350100D01*
X306650Y480850D02*
X308200Y482400D01*
X64650Y482500D02*
X107500D01*
X115450Y474550D01*
Y457000D02*
Y474550D01*
X734500Y582500D02*
X756000D01*
X733000Y584000D02*
X734500Y582500D01*
X733000Y533200D02*
X761800D01*
X540000Y585000D02*
X597500Y527500D01*
Y497500D02*
Y527500D01*
Y497500D02*
X612600Y482400D01*
X639000D01*
X612600Y495100D02*
X639000D01*
X294500Y558000D02*
X295000Y557500D01*
X256000Y558000D02*
X295000D01*
X255000Y557000D02*
X256000Y558000D01*
X221000Y587000D02*
X232000Y576000D01*
Y540000D02*
Y576000D01*
X255000Y545000D02*
Y557000D01*
X250000Y540000D02*
X255000Y545000D01*
X232000Y540000D02*
X250000D01*
X90050Y492550D02*
Y512000D01*
X332050Y492950D02*
Y512000D01*
X211050Y493550D02*
Y512000D01*
X319350D02*
Y525650D01*
X315460Y529540D02*
X319350Y525650D01*
X192960Y529540D02*
X315460D01*
X293950Y512000D02*
Y521050D01*
X290000Y525000D02*
X293950Y521050D01*
X240000Y525000D02*
X290000D01*
X236450Y521450D02*
X240000Y525000D01*
X236450Y512000D02*
Y521450D01*
X198350Y512000D02*
Y524150D01*
X192960Y529540D02*
X198350Y524150D01*
X84540Y529540D02*
X192960D01*
X77350Y522350D02*
X84540Y529540D01*
X172950Y512000D02*
Y522050D01*
X170000Y525000D02*
X172950Y522050D01*
X120000Y525000D02*
X170000D01*
X115450Y512000D02*
Y520450D01*
X120000Y525000D01*
X77350Y512000D02*
Y522350D01*
X51950Y512000D02*
X52500Y512550D01*
Y640000D01*
X87500Y675000D01*
X200000D01*
X207500Y667500D01*
Y650000D02*
Y667500D01*
Y650000D02*
X215460Y642040D01*
X513301D01*
X584041Y571300D01*
X639000D01*
X510000Y632500D02*
X596600Y545900D01*
X195900Y632500D02*
X510000D01*
X169400Y659000D02*
X195900Y632500D01*
X212500Y637500D02*
X511421D01*
X194800Y655200D02*
X212500Y637500D01*
X511421D02*
X590321Y558600D01*
X639000D01*
X596600Y545900D02*
X639000D01*
X194800Y655200D02*
Y659000D01*
X271000D02*
X274500Y662500D01*
X547500D01*
X613300Y596700D01*
X639000D01*
X553000Y450000D02*
X577500D01*
X594500D02*
X600200Y444300D01*
X639000D01*
X568960Y471040D02*
X639000D01*
X552500Y487500D02*
X568960Y471040D01*
X639000Y469700D02*
Y471040D01*
X552500Y466500D02*
X606000D01*
X615500Y457000D01*
X639000D01*
X733000Y482400D02*
X751600D01*
X733000Y495100D02*
X752100D01*
X542500Y487500D02*
X552500D01*
X542500Y467500D02*
X551500D01*
X733300Y470000D02*
X775000D01*
X733000Y457000D02*
X733500Y457500D01*
X733000Y469700D02*
X733300Y470000D01*
X1220000Y203580D02*
X1239540Y223120D01*
X1220000Y203300D02*
Y203580D01*
X1203000Y203300D02*
X1220000D01*
X1200000Y405000D02*
X1250000Y355000D01*
X925000Y405000D02*
X1200000D01*
X915000Y415000D02*
X925000Y405000D01*
X1205000Y410000D02*
X1260000Y355000D01*
X926421Y410000D02*
X1205000D01*
X916421Y420000D02*
X926421Y410000D01*
X1250000Y132000D02*
Y355000D01*
X1205000Y380000D02*
X1235000Y350000D01*
X1171300Y202300D02*
X1203000D01*
X1239540Y223120D02*
Y351880D01*
X1170000Y215000D02*
X1203000D01*
X1235000Y225000D02*
Y350000D01*
X1226000Y216000D02*
X1235000Y225000D01*
X1203000Y216000D02*
X1226000D01*
X1232000Y114000D02*
X1250000Y132000D01*
X1260000Y121000D02*
Y355000D01*
Y121000D02*
X1281000Y100000D01*
X1270000Y345000D02*
X1295000D01*
X1297000Y343000D01*
X1270000Y330000D02*
X1296700D01*
X1297000Y330300D01*
X875000Y200000D02*
Y300000D01*
X840000Y165000D02*
X875000Y200000D01*
X368200Y165000D02*
X840000D01*
X920000Y140000D02*
X1110000Y330000D01*
X367800Y140000D02*
X920000D01*
X922750Y92750D02*
X1160300Y330300D01*
X932160Y88160D02*
X1160600Y316600D01*
X940620Y83620D02*
X1160900Y303900D01*
X949080Y79080D02*
X1161200Y291200D01*
X957540Y74540D02*
X1161500Y278500D01*
X965000Y70000D02*
X1160800Y265800D01*
X354600Y178600D02*
X368200Y165000D01*
X354600Y153200D02*
X367800Y140000D01*
X843200Y153200D02*
X890000Y200000D01*
X1150000Y195000D02*
X1170000Y215000D01*
X1150000Y175000D02*
Y195000D01*
Y175000D02*
X1175000Y150000D01*
Y166000D02*
X1201000D01*
X1165000Y176000D02*
X1175000Y166000D01*
X1165000Y176000D02*
Y196000D01*
X1171300Y202300D01*
X890000Y200000D02*
Y404550D01*
X327000Y70000D02*
X965000D01*
X1160600Y316600D02*
X1202000D01*
X380000Y153200D02*
X843200D01*
X339780Y104761D02*
Y184780D01*
X335240Y102880D02*
Y197240D01*
X330700Y101000D02*
Y207700D01*
X326160Y98881D02*
Y218960D01*
X321620Y97000D02*
Y229651D01*
X317080Y95000D02*
Y235280D01*
X312540Y92000D02*
Y245971D01*
X308000Y89000D02*
Y251600D01*
X303000Y192500D02*
Y428000D01*
X255500Y145000D02*
X303000Y192500D01*
X298000Y212500D02*
Y423000D01*
X255500Y170000D02*
X298000Y212500D01*
X339780Y184780D02*
X344370Y189370D01*
X335240Y197240D02*
X342000Y204000D01*
X344370Y189370D02*
X366370D01*
X342000Y204000D02*
X354600D01*
X255500Y222500D02*
X288000Y255000D01*
X711421Y420000D02*
X916421D01*
X639000Y520500D02*
X654500D01*
X663200Y533200D02*
X670000Y526400D01*
X639000Y533200D02*
X663200D01*
X293000Y27000D02*
X308000D01*
X293000Y42000D02*
X308000D01*
X292000Y69000D02*
X309000D01*
X702800Y507800D02*
X733000D01*
X690000Y495000D02*
X702800Y507800D01*
X690000Y441421D02*
Y495000D01*
Y441421D02*
X711421Y420000D01*
X639000Y584000D02*
X666000D01*
X685000Y565000D01*
Y440000D02*
Y565000D01*
Y440000D02*
X710000Y415000D01*
X915000D01*
X733000Y431600D02*
X788020D01*
X826421Y470000D01*
X733000Y571300D02*
X733070Y571230D01*
X763770D01*
X840460Y494540D01*
X733000Y545900D02*
X772680D01*
X833120Y485460D01*
X1394630Y448430D02*
X1406650Y460450D01*
X733000Y557900D02*
X767100D01*
X835000Y490000D01*
X794300Y444300D02*
X825000Y475000D01*
X733000Y444300D02*
X794300D01*
X784500Y520500D02*
X825000Y480000D01*
X733000Y520500D02*
X784500D01*
X1255000Y390000D02*
X1270000D01*
X1287000D02*
X1297000Y380000D01*
Y355700D02*
Y380000D01*
X1283000Y58000D02*
Y100000D01*
X1380600Y106400D02*
X1393000D01*
X1375000Y112000D02*
X1380600Y106400D01*
X1350000Y112000D02*
X1375000D01*
X1332000D02*
X1350000D01*
X1380600Y167400D02*
X1393000D01*
X1374000Y174000D02*
X1380600Y167400D01*
X1350000Y174000D02*
X1374000D01*
X1332000D02*
X1350000D01*
X1381600Y228400D02*
X1393000D01*
X1376000Y234000D02*
X1381600Y228400D01*
X1350000Y234000D02*
X1376000D01*
X1332000D02*
X1350000D01*
X1380600Y289400D02*
X1393000D01*
X1375000Y295000D02*
X1380600Y289400D01*
X1350000Y295000D02*
X1375000D01*
X1350000Y295000D02*
X1350000Y295000D01*
X1332000Y295000D02*
X1350000D01*
X1380600Y350400D02*
X1393000D01*
X1375000Y356000D02*
X1380600Y350400D01*
X1350000Y356000D02*
X1375000D01*
X1350000Y356000D02*
X1350000Y356000D01*
X1332000Y356000D02*
X1350000D01*
X1297000Y316900D02*
X1311900D01*
X1315000Y320000D01*
Y335000D01*
X1320000Y340000D01*
X1331000D01*
X1332000Y339000D01*
X1315000Y305000D02*
X1320000Y300000D01*
X1297100Y305000D02*
X1315000D01*
X1327000Y278000D02*
X1332000D01*
X1320000Y225000D02*
X1328000Y217000D01*
X1332000D01*
X1308200Y266800D02*
X1310460Y264540D01*
X1297000Y266800D02*
X1308200D01*
X1325000Y95000D02*
X1332000D01*
X1331000Y96000D02*
X1332000Y95000D01*
X1329000Y336000D02*
X1332000Y339000D01*
X366370Y189370D02*
X380000Y203000D01*
X367000Y217000D02*
X379400Y229400D01*
X340000Y217000D02*
X367000D01*
X338600Y231400D02*
X352600D01*
X367370Y242170D02*
X380000Y254800D01*
X334139Y242170D02*
X367370D01*
X338600Y256800D02*
X352600D01*
X379200Y280200D02*
X380000D01*
X366570Y267570D02*
X379200Y280200D01*
X334139Y267570D02*
X366570D01*
X352600Y282200D02*
X354600Y280200D01*
X338600Y282200D02*
X352600D01*
X339780Y104761D02*
X342711Y101830D01*
X912410D01*
X1178700Y355700D02*
X1203000D01*
X335240Y102880D02*
X340830Y97290D01*
X914290D01*
X330700Y207700D02*
X340000Y217000D01*
X330700Y101000D02*
X338950Y92750D01*
X922750D01*
X336880Y88160D02*
X932160D01*
X326160Y98881D02*
X336880Y88160D01*
X335000Y83620D02*
X940620D01*
X333000Y79080D02*
X949080D01*
X330000Y74540D02*
X957540D01*
X321620Y97000D02*
X335000Y83620D01*
X317080Y95000D02*
X333000Y79080D01*
X312540Y92000D02*
X330000Y74540D01*
X1160300Y330300D02*
X1203000D01*
X1160800Y265800D02*
X1202000D01*
X1161500Y278500D02*
X1202000D01*
X1161200Y291200D02*
X1202000D01*
X1160900Y303900D02*
X1202000D01*
X326160Y218960D02*
X338600Y231400D01*
X321620Y229651D02*
X334139Y242170D01*
X261000Y470000D02*
X281250Y490250D01*
X261000Y440000D02*
Y470000D01*
Y440000D02*
X288000Y413000D01*
X140000Y471000D02*
X160250Y491250D01*
X140000Y454000D02*
Y471000D01*
X80000Y394000D02*
X140000Y454000D01*
X308000Y89000D02*
X327000Y70000D01*
X317080Y235280D02*
X338600Y256800D01*
X312540Y245971D02*
X334139Y267570D01*
X308000Y251600D02*
X338600Y282200D01*
X293000Y232500D02*
Y418000D01*
X255500Y195000D02*
X293000Y232500D01*
X288000Y255000D02*
Y413000D01*
X1175000Y150000D02*
X1201000D01*
X1232000Y57400D02*
Y114000D01*
X1392400Y168000D02*
X1393000Y167400D01*
X293950Y437050D02*
X303000Y428000D01*
X281250Y439750D02*
X298000Y423000D01*
X268550Y442450D02*
X293000Y418000D01*
X266000Y426000D02*
X283000Y409000D01*
Y275000D02*
Y409000D01*
X255500Y247500D02*
X283000Y275000D01*
X264000Y420000D02*
X278000Y406000D01*
Y295000D02*
Y406000D01*
X255500Y272500D02*
X278000Y295000D01*
X261000Y414000D02*
X273350Y401650D01*
Y315350D02*
Y401650D01*
X255500Y297500D02*
X273350Y315350D01*
X258000Y408000D02*
X268810Y397190D01*
Y335810D02*
Y397190D01*
X255500Y322500D02*
X268810Y335810D01*
X251000Y402000D02*
X264270Y388730D01*
Y356270D02*
Y388730D01*
X255500Y347500D02*
X264270Y356270D01*
X20000Y472000D02*
X39250Y491250D01*
X20000Y216500D02*
Y472000D01*
Y216500D02*
X91500Y145000D01*
X234000Y42000D02*
X276000D01*
X234000Y29000D02*
X274000D01*
X234000Y68000D02*
X274000D01*
X293950Y437050D02*
Y457000D01*
X281250Y439750D02*
Y457000D01*
X268550Y442450D02*
Y457000D01*
X281250Y490250D02*
Y512000D01*
X80000Y355000D02*
Y394000D01*
X102750Y434750D02*
Y457000D01*
X74000Y406000D02*
X102750Y434750D01*
X74000Y340000D02*
Y406000D01*
X90050Y435050D02*
Y457000D01*
X67000Y412000D02*
X90050Y435050D01*
X67000Y322000D02*
Y412000D01*
X77350Y435350D02*
Y457000D01*
X60000Y418000D02*
X77350Y435350D01*
X60000Y304000D02*
Y418000D01*
X64650Y434650D02*
Y457000D01*
X53000Y423000D02*
X64650Y434650D01*
X53000Y286000D02*
Y423000D01*
X51950Y434950D02*
Y457000D01*
X46000Y429000D02*
X51950Y434950D01*
X46000Y265500D02*
Y429000D01*
Y265500D02*
X91500Y220000D01*
X53000Y286000D02*
X91500Y247500D01*
X60000Y304000D02*
X91500Y272500D01*
X67000Y322000D02*
X91500Y297500D01*
X74000Y340000D02*
X91500Y322500D01*
X39250Y247250D02*
Y457000D01*
Y247250D02*
X91500Y195000D01*
X26550Y234950D02*
Y457000D01*
Y234950D02*
X91500Y170000D01*
Y393500D02*
X147550Y449550D01*
X91500Y375000D02*
Y393500D01*
X147550Y449550D02*
Y457000D01*
X219750Y414000D02*
X261000D01*
X198350Y435400D02*
X219750Y414000D01*
X198350Y435400D02*
Y457000D01*
X199000Y396000D02*
X246000D01*
X160250Y434750D02*
X199000Y396000D01*
X160250Y434750D02*
Y457000D01*
X206000Y402000D02*
X251000D01*
X172950Y435050D02*
X206000Y402000D01*
X172950Y435050D02*
Y457000D01*
X213000Y408000D02*
X258000D01*
X185650Y435350D02*
X213000Y408000D01*
X185650Y435350D02*
Y457000D01*
X226000Y420000D02*
X264000D01*
X211050Y434950D02*
X226000Y420000D01*
X211050Y434950D02*
Y457000D01*
X233000Y426000D02*
X266000D01*
X223750Y435250D02*
X233000Y426000D01*
X223750Y435250D02*
Y457000D01*
X255500Y375000D02*
Y386500D01*
X246000Y396000D02*
X255500Y386500D01*
X160250Y491250D02*
Y512000D01*
X85000Y350000D02*
X91500D01*
X80000Y355000D02*
X85000Y350000D01*
X39250Y491250D02*
Y512000D01*
X212200Y375000D02*
X238500D01*
X211900Y347500D02*
X238500D01*
X211500Y322500D02*
X238500D01*
X211100Y297500D02*
X238500D01*
X211300Y272500D02*
X238500D01*
X211000Y246800D02*
X237800D01*
X212100Y222500D02*
X238500D01*
X212000Y195000D02*
X238500D01*
X211400Y170000D02*
X238500D01*
X211000Y145000D02*
X238500D01*
X108500D02*
X136000D01*
X108500Y170000D02*
X135600D01*
X108500Y195000D02*
X135000D01*
X108500Y220000D02*
X134600D01*
X108500Y247500D02*
X135300D01*
X108500Y272500D02*
X135700D01*
X108500Y297500D02*
X135900D01*
X108500Y322500D02*
X135500D01*
X108500Y350000D02*
X134400D01*
X109700Y373800D02*
X136000D01*
X1297000Y279500D02*
X1310500D01*
X1315000Y275000D01*
Y170000D02*
Y275000D01*
X1320000Y285000D02*
Y300000D01*
Y285000D02*
X1327000Y278000D01*
X1320000Y225000D02*
Y277000D01*
X1297000Y292200D02*
X1304800D01*
X1320000Y277000D01*
X538000Y472000D02*
X542500Y467500D01*
X538000Y483000D02*
X542500Y487500D01*
X524000Y483000D02*
X526000Y485000D01*
X524000Y483000D02*
X538000D01*
X524000Y472000D02*
X538000D01*
X950000Y380000D02*
X1205000D01*
X950000Y395000D02*
X1196421D01*
X1239540Y351880D01*
X1147500Y610000D02*
X1177500D01*
X1147500Y550000D02*
Y610000D01*
X338805Y705086D02*
G03*
X340088Y724659I-1305J9914D01*
G01*
X376195Y724914D02*
G03*
X374912Y705341I1305J-9914D01*
G01*
X753781Y724914D02*
G03*
X752498Y705341I1305J-9914D01*
G01*
X716392Y705086D02*
G03*
X717674Y724659I-1305J9914D01*
G01*
X-0Y200000D02*
Y705000D01*
Y200000D02*
X200000Y0D01*
X1450000D01*
Y705000D01*
X1450000Y705000D02*
X1450000Y705000D01*
X1000000Y705000D02*
X1450000D01*
X999915Y705086D02*
X1000000Y705000D01*
X753695Y705086D02*
X999915D01*
X753695Y724914D02*
X999914D01*
X1000000Y725000D01*
Y1030000D01*
X92500D02*
X1000000D01*
X37500Y975000D02*
X92500Y1030000D01*
X37500Y975000D02*
X87500Y925000D01*
X800000D01*
Y825000D02*
Y925000D01*
X87500Y825000D02*
X800000D01*
X37500Y775000D02*
X87500Y825000D01*
X37500Y775000D02*
X87500Y725000D01*
X339853D01*
X86Y705086D02*
X338805D01*
X-0Y705000D02*
X86Y705086D01*
X376195Y724914D02*
X717439D01*
X376195Y705086D02*
X716305D01*
D20*
X1371500Y317500D02*
X1373250D01*
X1350000Y339000D02*
X1371500Y317500D01*
X1372500Y255000D02*
Y255500D01*
X1350000Y278000D02*
X1372500Y255500D01*
X1372000Y195000D02*
X1372500D01*
X1350000Y217000D02*
X1372000Y195000D01*
X1372000Y135000D02*
X1372500D01*
X1350000Y157000D02*
X1372000Y135000D01*
X1370000Y75000D02*
X1372500D01*
X1350000Y95000D02*
X1370000Y75000D01*
X345000Y570000D02*
X537500D01*
X1297000Y177000D02*
Y190600D01*
X1285000Y165000D02*
X1297000Y177000D01*
X1275000Y165000D02*
X1285000D01*
X250000Y500000D02*
X262000Y512000D01*
X250000Y475000D02*
Y500000D01*
X245000Y475000D02*
X250000D01*
X223750Y496250D02*
X245000Y475000D01*
X223750Y496250D02*
Y512000D01*
X780000Y495000D02*
Y505000D01*
X765000Y480000D02*
X780000Y495000D01*
X754000Y480000D02*
X765000D01*
X1135000Y225000D02*
X1164100Y254100D01*
X1204150Y120000D02*
Y129150D01*
Y59850D02*
Y120000D01*
X1135000Y165000D02*
Y225000D01*
Y165000D02*
X1170000Y130000D01*
X1194150D01*
X1204150Y120000D01*
X1164100Y254100D02*
X1203000D01*
X1204150Y129150D02*
X1218000Y143000D01*
X1204150Y59850D02*
X1207000Y57000D01*
X1215000Y95000D02*
Y114000D01*
X1218000Y143000D02*
Y150000D01*
X262000Y512000D02*
X268550D01*
X137000D02*
X147550D01*
X130000Y505000D02*
X137000Y512000D01*
X130000Y485000D02*
Y505000D01*
X115000Y485000D02*
X130000D01*
X102750Y497250D02*
X115000Y485000D01*
X345000Y512250D02*
Y570000D01*
X344750Y512000D02*
X345000Y512250D01*
X102750Y497250D02*
Y512000D01*
X26550D02*
Y538450D01*
X64650Y482500D02*
Y512000D01*
X185000Y540000D02*
X215000D01*
X75500Y587000D02*
X129000D01*
X992500Y657500D02*
X1025000D01*
X1152500Y225000D02*
X1168900Y241400D01*
X1203000D01*
X1297000Y190600D02*
Y203300D01*
Y216000D01*
X1218000Y150000D02*
Y166000D01*
X306650Y480850D02*
Y512000D01*
X185650Y483150D02*
Y512000D01*
X256000Y575000D02*
Y594000D01*
X751600Y482400D02*
X754000Y480000D01*
D21*
X965000Y562000D02*
X1056000D01*
X891000D02*
X965000D01*
X927500Y890400D02*
Y940000D01*
Y805000D02*
Y865000D01*
X895000Y772500D02*
X927500Y805000D01*
X800000Y772500D02*
X895000D01*
X800000Y977500D02*
X890000D01*
X927500Y940000D01*
X511000Y432500D02*
X528000Y449500D01*
X510000Y522500D02*
X527500Y505000D01*
X1240000Y540000D02*
X1300000D01*
D22*
X965000D02*
Y562000D01*
X1205000Y500000D02*
X1283500D01*
X992000Y637500D02*
X1005900D01*
X1056000Y587400D01*
X1056100Y587500D01*
X1107500D01*
X1115000Y529500D02*
Y580000D01*
X1107500Y587500D02*
X1115000Y580000D01*
X1230000Y562500D02*
Y603500D01*
D23*
X1315000Y375000D02*
X1345000Y405000D01*
X509300Y49300D02*
X960600D01*
X528000Y449500D02*
X552500D01*
X527500Y505000D02*
X552000D01*
X756000Y580000D02*
X787500D01*
X613500Y516000D02*
Y524000D01*
Y516000D02*
X621700Y507800D01*
X639000D01*
X1115000Y512500D02*
X1130000D01*
X1069100Y536600D02*
X1077500Y545000D01*
X1056000Y536600D02*
X1069100D01*
X1056000Y562000D02*
X1077500D01*
X1080100Y512500D02*
X1115000D01*
X1056000Y536600D02*
X1080100Y512500D01*
X975000Y637500D02*
Y657000D01*
X755700Y596700D02*
X756000Y597000D01*
X733000Y596700D02*
X755700D01*
X856000Y597000D02*
X891000Y562000D01*
X756000Y597000D02*
X856000D01*
X1323900Y651400D02*
X1350000D01*
X1314750Y500000D02*
Y528750D01*
X1351000Y565000D01*
X1130000Y512500D02*
X1147500Y530000D01*
X1305000Y632500D02*
X1323900Y651400D01*
X1177500Y632500D02*
X1305000D01*
D24*
X110000Y772500D02*
X800000D01*
X105000Y980000D02*
X800000D01*
D25*
X1275000Y228700D02*
X1297000D01*
X639000Y444300D02*
X664300D01*
D26*
X405000Y450000D02*
Y505000D01*
X422500Y432500D02*
X511000D01*
X405000Y450000D02*
X422500Y432500D01*
Y522500D02*
X510000D01*
X405000Y505000D02*
X422500Y522500D01*
D27*
X1350000Y651400D02*
D03*
X1393000Y106400D02*
D03*
Y167400D02*
D03*
X1393000Y228400D02*
D03*
Y289400D02*
D03*
Y350400D02*
D03*
X1268600Y604000D02*
D03*
X1351000Y590400D02*
D03*
X927500Y890400D02*
D03*
X1232400Y57000D02*
D03*
X1177500Y632900D02*
D03*
Y582100D02*
D03*
Y607500D02*
D03*
D28*
X1350000Y626000D02*
D03*
X1393000Y81000D02*
D03*
Y142000D02*
D03*
X1393000Y203000D02*
D03*
Y264000D02*
D03*
Y325000D02*
D03*
X1351000Y565000D02*
D03*
X927500Y865000D02*
D03*
D29*
X1294000Y604000D02*
D03*
X1207000Y57000D02*
D03*
D30*
X1125400Y450000D02*
D03*
X1074600D02*
D03*
X1100000D02*
D03*
X186000Y145000D02*
D03*
Y170400D02*
D03*
Y196000D02*
D03*
Y221400D02*
D03*
Y297600D02*
D03*
Y323000D02*
D03*
Y246800D02*
D03*
Y272200D02*
D03*
Y348400D02*
D03*
Y373800D02*
D03*
X211000D02*
D03*
Y348400D02*
D03*
Y272200D02*
D03*
Y246800D02*
D03*
Y323000D02*
D03*
Y297600D02*
D03*
Y221400D02*
D03*
Y196000D02*
D03*
Y170400D02*
D03*
Y145000D02*
D03*
X136000Y373800D02*
D03*
Y348400D02*
D03*
Y272200D02*
D03*
Y246800D02*
D03*
Y323000D02*
D03*
Y297600D02*
D03*
Y221400D02*
D03*
Y196000D02*
D03*
Y170400D02*
D03*
Y145000D02*
D03*
X965000Y540000D02*
D03*
D31*
X1405400Y436300D02*
D03*
X1380000D02*
D03*
X1405400Y461700D02*
D03*
X1380000D02*
D03*
X1405400Y487100D02*
D03*
X1380000D02*
D03*
X1405400Y512500D02*
D03*
X245600Y659000D02*
D03*
X220200D02*
D03*
X194800D02*
D03*
X169400D02*
D03*
X144000D02*
D03*
X380000Y127800D02*
D03*
Y153200D02*
D03*
Y178600D02*
D03*
Y204000D02*
D03*
Y229400D02*
D03*
Y254800D02*
D03*
X354600D02*
D03*
Y305600D02*
D03*
Y280200D02*
D03*
Y127800D02*
D03*
Y229400D02*
D03*
Y204000D02*
D03*
Y178600D02*
D03*
Y153200D02*
D03*
X380000Y280200D02*
D03*
Y305600D02*
D03*
D32*
X1380000Y512500D02*
D03*
D33*
X234000Y29000D02*
D03*
Y42000D02*
D03*
Y55000D02*
D03*
Y68000D02*
D03*
D34*
X1269700Y58000D02*
D03*
X1283000D02*
D03*
X1296300D02*
D03*
D35*
X747500Y727500D02*
D03*
X739167D02*
D03*
X730833D02*
D03*
X722500D02*
D03*
Y702500D02*
D03*
X730833D02*
D03*
X739167D02*
D03*
X747500D02*
D03*
X370000D02*
D03*
X361667D02*
D03*
X353333D02*
D03*
X345000D02*
D03*
Y727500D02*
D03*
X353333D02*
D03*
X361667D02*
D03*
X370000D02*
D03*
D36*
X915400Y429950D02*
D03*
X890000Y404550D02*
D03*
X864600Y429950D02*
D03*
D37*
X170000Y80000D02*
D03*
X32000Y668000D02*
D03*
X1418000D02*
D03*
Y32000D02*
D03*
X354600Y364000D02*
D03*
X1159600D02*
D03*
Y49000D02*
D03*
X354600D02*
D03*
D38*
X271000Y659000D02*
D03*
D39*
X1056000Y536600D02*
D03*
Y587400D02*
D03*
Y562000D02*
D03*
D40*
X524000Y482600D02*
D03*
Y471900D02*
D03*
D41*
X1077500Y322500D02*
D03*
X575000Y412500D02*
D03*
X345000Y570000D02*
D03*
X537500D02*
D03*
X1067500Y300000D02*
D03*
X905000D02*
D03*
Y320000D02*
D03*
X250000Y475000D02*
D03*
X673600Y558600D02*
D03*
X660000Y640000D02*
D03*
Y545000D02*
D03*
X130000Y485000D02*
D03*
X26550Y538450D02*
D03*
X787500Y457500D02*
D03*
X602500Y432500D02*
D03*
X620000Y420000D02*
D03*
X761800Y533200D02*
D03*
X612600Y495100D02*
D03*
X332050Y492950D02*
D03*
X90050Y492550D02*
D03*
X211050Y493550D02*
D03*
X775000Y470000D02*
D03*
X1270000Y345000D02*
D03*
Y330000D02*
D03*
X875000Y320000D02*
D03*
Y300000D02*
D03*
X1110000Y330000D02*
D03*
X308000Y27000D02*
D03*
Y42000D02*
D03*
X309000Y69000D02*
D03*
X1255000Y390000D02*
D03*
X950000Y380000D02*
D03*
Y395000D02*
D03*
X1147500Y610000D02*
D03*
D42*
X1373250Y317500D02*
D03*
X1372500Y255000D02*
D03*
Y195000D02*
D03*
Y135000D02*
D03*
Y75000D02*
D03*
X1300000Y540000D02*
D03*
X1315000Y375000D02*
D03*
X105000Y980000D02*
D03*
X238000D02*
D03*
X371000D02*
D03*
X504000D02*
D03*
X770000D02*
D03*
X637000D02*
D03*
X642000Y771000D02*
D03*
X775000D02*
D03*
X509000D02*
D03*
X376000D02*
D03*
X243000D02*
D03*
X110000D02*
D03*
X1345000Y405000D02*
D03*
X961300Y50000D02*
D03*
X509300Y49300D02*
D03*
X1275000Y228700D02*
D03*
Y165000D02*
D03*
X1205000Y500000D02*
D03*
X405000Y480000D02*
D03*
X490000Y525000D02*
D03*
X435000D02*
D03*
X440000Y435000D02*
D03*
X490000D02*
D03*
X780000Y505000D02*
D03*
X665000Y445000D02*
D03*
X1215000Y95000D02*
D03*
X295000Y593500D02*
D03*
X185000Y540000D02*
D03*
X75500Y587000D02*
D03*
X1025000Y657500D02*
D03*
X1152500Y225000D02*
D03*
X64650Y482500D02*
D03*
X306650Y480850D02*
D03*
X185650Y483150D02*
D03*
X787500Y580000D02*
D03*
X613500Y524000D02*
D03*
X256000Y594000D02*
D03*
X1240000Y540000D02*
D03*
X1230000Y562500D02*
D03*
M02*
