%FSLAX44Y44*%
%MOMM*%
G71*
G01*
G75*
G04 Layer_Color=65535*
%ADD10R,1.4000X1.3000*%
%ADD11R,1.0000X1.1000*%
%ADD12R,0.6000X1.5500*%
%ADD13R,1.1000X1.0000*%
%ADD14R,2.0000X0.6000*%
%ADD15R,6.1000X10.1600*%
%ADD16R,3.0000X2.3000*%
%ADD17R,2.0000X0.7000*%
%ADD18R,1.3000X1.4000*%
%ADD19C,0.2540*%
%ADD20C,0.5000*%
%ADD21C,1.5000*%
%ADD22C,1.0000*%
%ADD23C,0.7000*%
%ADD24C,7.0000*%
%ADD25C,0.4000*%
%ADD26C,2.0000*%
%ADD27C,2.0000*%
%ADD28R,1.6000X1.6000*%
%ADD29R,1.6000X1.6000*%
%ADD30C,1.8000*%
%ADD31C,1.5000*%
%ADD32R,1.5000X1.5000*%
%ADD33O,2.0000X1.1000*%
%ADD34O,1.0000X2.0000*%
%ADD35C,0.5000*%
%ADD36C,1.2000*%
%ADD37C,2.5000*%
%ADD38R,1.5000X1.5000*%
%ADD39C,2.2000*%
%ADD40O,1.5000X0.7500*%
%ADD41C,0.9000*%
%ADD42C,1.2700*%
%ADD43C,0.2000*%
%ADD44C,0.1000*%
%ADD45C,0.2032*%
D19*
X817500Y987500D02*
G03*
X817500Y987500I-5000J0D01*
G01*
X938598Y962500D02*
G03*
X938598Y962500I-46098J0D01*
G01*
X937500Y975000D02*
G03*
X990000Y935000I46250J6250D01*
G01*
X221299Y76616D02*
G03*
X244632Y76661I11720J-27616D01*
G01*
X1307500Y48000D02*
G03*
X1258000Y48000I-24750J12344D01*
G01*
X16050Y460000D02*
G03*
X16050Y460000I-50J0D01*
G01*
X137050Y460000D02*
G03*
X137050Y460000I-50J0D01*
G01*
X258050D02*
G03*
X258050Y460000I-50J0D01*
G01*
X195000Y80000D02*
G03*
X195000Y80000I-25000J0D01*
G01*
X57000Y668000D02*
G03*
X57000Y668000I-25000J0D01*
G01*
X1443000D02*
G03*
X1443000Y668000I-25000J0D01*
G01*
Y32000D02*
G03*
X1443000Y32000I-25000J0D01*
G01*
X1382500Y611000D02*
Y666000D01*
X1317500Y611000D02*
Y666000D01*
X1360500Y66000D02*
Y121000D01*
X1425500Y66000D02*
Y121000D01*
Y127000D02*
Y182000D01*
X1360500Y127000D02*
Y182000D01*
X1360500Y188000D02*
Y243000D01*
X1425500Y188000D02*
Y243000D01*
Y249000D02*
Y304000D01*
X1360500Y249000D02*
Y304000D01*
Y310000D02*
Y365000D01*
X1425500Y310000D02*
Y365000D01*
X1254000Y636500D02*
X1309000D01*
X1254000Y571500D02*
X1309000D01*
X1318500Y550000D02*
Y605000D01*
X1383500Y550000D02*
Y605000D01*
X960000Y850000D02*
Y905000D01*
X895000Y850000D02*
Y905000D01*
X1192000Y89500D02*
X1247000D01*
X1192000Y24500D02*
X1247000D01*
X1060000Y437500D02*
X1140000D01*
X1060000D02*
Y462500D01*
X1140000D01*
Y437500D02*
Y462500D01*
X835000Y1000000D02*
X862500D01*
X805000Y1017500D02*
X822500Y1000000D01*
X835000D01*
X805000Y1007500D02*
Y1017500D01*
Y1007500D02*
X812500Y1000000D01*
X775000Y962500D02*
X812500Y1000000D01*
X770000Y962500D02*
X775000D01*
X770000Y955000D02*
Y962500D01*
Y955000D02*
X782500D01*
X802500Y952500D02*
Y952500D01*
X830000Y1000000D02*
X840000Y990000D01*
Y1000000D01*
X850000Y990000D01*
Y1000000D01*
X860000Y990000D01*
Y1000000D01*
X767500Y942500D02*
X792500D01*
X802500Y952500D01*
X767500Y942500D02*
Y952500D01*
X770000D01*
X772500Y950000D01*
X785000D01*
X787500Y952500D01*
X790000D01*
X827500Y965000D02*
X842500Y980000D01*
X862500D01*
X802500Y952500D02*
X815000Y965000D01*
X802500D02*
X815000D01*
X827500D01*
X912500Y912500D02*
Y930000D01*
X907500Y907500D02*
X912500Y912500D01*
X925000Y917500D02*
Y937500D01*
X917500Y910000D02*
X925000Y917500D01*
X870000Y920000D02*
Y930000D01*
X860000Y910000D02*
X870000Y920000D01*
X880000D02*
Y925000D01*
X870000Y910000D02*
X880000Y920000D01*
X800000Y987500D02*
Y987500D01*
X767500Y1020000D02*
X800000Y987500D01*
X767500Y1020000D02*
X806731Y993846D01*
X221299Y76731D02*
X244632D01*
X224000Y80000D02*
X244000D01*
X1263000Y33000D02*
X1303000D01*
X21000Y500000D02*
X121000D01*
Y470000D02*
Y500000D01*
X21000Y470000D02*
X121000D01*
X21000D02*
Y500000D01*
X142000Y500000D02*
X242000D01*
Y470000D02*
Y500000D01*
X142000Y470000D02*
X242000D01*
X142000D02*
Y500000D01*
X263000D02*
X363000D01*
Y470000D02*
Y500000D01*
X263000Y470000D02*
X363000D01*
X263000D02*
Y500000D01*
X857000Y395250D02*
Y425000D01*
X923000Y395000D02*
Y425000D01*
X857000Y435000D02*
Y465250D01*
X923000Y435000D02*
Y465250D01*
X860000Y395250D02*
X920000D01*
X860000Y465250D02*
X920000D01*
X1015400Y507000D02*
Y617000D01*
X856000D02*
X1015400D01*
X856000Y507000D02*
X1015400D01*
X856000D02*
Y617000D01*
X926500Y507000D02*
Y617000D01*
X146000Y604500D02*
X206000D01*
X146000Y569500D02*
X206000D01*
X1184600Y24000D02*
Y389000D01*
X329600D02*
X1184600D01*
X329600Y24000D02*
X1184600D01*
X329600Y24000D02*
Y389000D01*
X121000Y130000D02*
X226000D01*
X121000D02*
Y390000D01*
X226000D01*
Y130000D02*
Y390000D01*
X426000Y460500D02*
Y494500D01*
X509000Y482500D02*
X514000D01*
X509000Y471900D02*
X514000D01*
X426500Y460500D02*
X509000D01*
X426500Y494500D02*
X509000D01*
Y469000D02*
Y486000D01*
Y460500D02*
Y469000D01*
Y486000D02*
Y494500D01*
X1206700Y564200D02*
Y651000D01*
X1197300Y554800D02*
X1206700Y564200D01*
X1159800Y554800D02*
X1197300D01*
X1197500Y660200D02*
X1206700Y651000D01*
X1159800Y660200D02*
X1197500D01*
X1159800Y554800D02*
Y660200D01*
X1387500Y555118D02*
X1397657D01*
X1392578Y560196D02*
Y550039D01*
X1387500Y617617D02*
X1397657D01*
X1392578Y622696D02*
Y612539D01*
X622657Y685235D02*
X612500D01*
Y670000D01*
X622657D01*
X612500Y677617D02*
X617578D01*
X627735Y670000D02*
Y672539D01*
X630274D01*
Y670000D01*
X627735D01*
X648048Y685235D02*
X642970D01*
X640431Y682696D01*
Y672539D01*
X642970Y670000D01*
X648048D01*
X650588Y672539D01*
Y682696D01*
X648048Y685235D01*
X655666Y670000D02*
Y672539D01*
X658205D01*
Y670000D01*
X655666D01*
X678519Y685235D02*
X668362D01*
Y670000D01*
X678519D01*
X668362Y677617D02*
X673440D01*
X698832Y670000D02*
Y680157D01*
X703910Y685235D01*
X708989Y680157D01*
Y670000D01*
Y677617D01*
X698832D01*
X714067Y670000D02*
X719146D01*
X716606D01*
Y685235D01*
X714067D01*
X726763Y664922D02*
Y680157D01*
X734380D01*
X736920Y677617D01*
Y672539D01*
X734380Y670000D01*
X726763D01*
X741998Y685235D02*
Y670000D01*
Y677617D01*
X744537Y680157D01*
X749616D01*
X752155Y677617D01*
Y670000D01*
X759772Y680157D02*
X764851D01*
X767390Y677617D01*
Y670000D01*
X759772D01*
X757233Y672539D01*
X759772Y675078D01*
X767390D01*
X787703Y682696D02*
X790242Y685235D01*
X795321D01*
X797860Y682696D01*
Y672539D01*
X795321Y670000D01*
X790242D01*
X787703Y672539D01*
Y682696D01*
X802938Y670000D02*
Y672539D01*
X805478D01*
Y670000D01*
X802938D01*
X815634D02*
X820713D01*
X818173D01*
Y685235D01*
X815634Y682696D01*
X1075157Y415000D02*
X1065000D01*
X1075157Y425157D01*
Y427696D01*
X1072617Y430235D01*
X1067539D01*
X1065000Y427696D01*
X1095470Y415000D02*
X1100548D01*
X1098009D01*
Y430235D01*
X1095470Y427696D01*
X1123401D02*
X1125940Y430235D01*
X1131019D01*
X1133558Y427696D01*
Y425157D01*
X1131019Y422617D01*
X1128480D01*
X1131019D01*
X1133558Y420078D01*
Y417539D01*
X1131019Y415000D01*
X1125940D01*
X1123401Y417539D01*
X1220000Y665235D02*
Y650000D01*
X1227617D01*
X1230157Y652539D01*
Y662696D01*
X1227617Y665235D01*
X1220000D01*
X1235235Y650000D02*
X1240313D01*
X1237774D01*
Y665235D01*
X1235235Y662696D01*
X1194562Y401315D02*
Y388619D01*
X1197101Y386080D01*
X1202179D01*
X1204719Y388619D01*
Y401315D01*
X1219954D02*
X1214875Y398776D01*
X1209797Y393698D01*
Y388619D01*
X1212336Y386080D01*
X1217415D01*
X1219954Y388619D01*
Y391158D01*
X1217415Y393698D01*
X1209797D01*
X858266Y474218D02*
Y489453D01*
X865883D01*
X868423Y486914D01*
Y481836D01*
X865883Y479296D01*
X858266D01*
X863344D02*
X868423Y474218D01*
X881119D02*
Y489453D01*
X873501Y481836D01*
X883658D01*
X896354Y474218D02*
Y489453D01*
X888736Y481836D01*
X898893D01*
X1437735Y522500D02*
X1425039D01*
X1422500Y519961D01*
Y514883D01*
X1425039Y512343D01*
X1437735D01*
X1422500Y499647D02*
X1437735D01*
X1430117Y507265D01*
Y497108D01*
X440000Y515235D02*
Y512696D01*
X445078Y507617D01*
X450157Y512696D01*
Y515235D01*
X445078Y507617D02*
Y500000D01*
X455235D02*
X460313D01*
X457774D01*
Y515235D01*
X455235Y512696D01*
X857250Y641091D02*
Y628395D01*
X859789Y625856D01*
X864867D01*
X867407Y628395D01*
Y641091D01*
X872485Y628395D02*
X875024Y625856D01*
X880103D01*
X882642Y628395D01*
Y638552D01*
X880103Y641091D01*
X875024D01*
X872485Y638552D01*
Y636013D01*
X875024Y633474D01*
X882642D01*
X625000Y640235D02*
Y627539D01*
X627539Y625000D01*
X632617D01*
X635157Y627539D01*
Y640235D01*
X640235Y637696D02*
X642774Y640235D01*
X647853D01*
X650392Y637696D01*
Y635157D01*
X647853Y632617D01*
X650392Y630078D01*
Y627539D01*
X647853Y625000D01*
X642774D01*
X640235Y627539D01*
Y630078D01*
X642774Y632617D01*
X640235Y635157D01*
Y637696D01*
X642774Y632617D02*
X647853D01*
X1271000Y27235D02*
Y14539D01*
X1273539Y12000D01*
X1278617D01*
X1281157Y14539D01*
Y27235D01*
X1286235D02*
X1296392D01*
Y24696D01*
X1286235Y14539D01*
Y12000D01*
X330962Y412999D02*
Y400303D01*
X333501Y397764D01*
X338579D01*
X341119Y400303D01*
Y412999D01*
X356354D02*
X346197D01*
Y405382D01*
X351275Y407921D01*
X353815D01*
X356354Y405382D01*
Y400303D01*
X353815Y397764D01*
X348736D01*
X346197Y400303D01*
X268500Y492735D02*
Y480039D01*
X271039Y477500D01*
X276117D01*
X278657Y480039D01*
Y492735D01*
X283735Y490196D02*
X286274Y492735D01*
X291353D01*
X293892Y490196D01*
Y487657D01*
X291353Y485117D01*
X288813D01*
X291353D01*
X293892Y482578D01*
Y480039D01*
X291353Y477500D01*
X286274D01*
X283735Y480039D01*
X147500Y492735D02*
Y480039D01*
X150039Y477500D01*
X155118D01*
X157657Y480039D01*
Y492735D01*
X172892Y477500D02*
X162735D01*
X172892Y487657D01*
Y490196D01*
X170353Y492735D01*
X165274D01*
X162735Y490196D01*
X27500Y492735D02*
Y480039D01*
X30039Y477500D01*
X35117D01*
X37657Y480039D01*
Y492735D01*
X42735Y477500D02*
X47813D01*
X45274D01*
Y492735D01*
X42735Y490196D01*
X1071369Y484120D02*
X1068829Y486659D01*
X1063751D01*
X1061212Y484120D01*
Y481581D01*
X1063751Y479041D01*
X1068829D01*
X1071369Y476502D01*
Y473963D01*
X1068829Y471424D01*
X1063751D01*
X1061212Y473963D01*
X1076447Y471424D02*
X1081525D01*
X1078986D01*
Y486659D01*
X1076447Y484120D01*
X115570Y613410D02*
Y628645D01*
X123188D01*
X125727Y626106D01*
Y621027D01*
X123188Y618488D01*
X115570D01*
X120648D02*
X125727Y613410D01*
X138423D02*
X133344D01*
X130805Y615949D01*
Y621027D01*
X133344Y623567D01*
X138423D01*
X140962Y621027D01*
Y618488D01*
X130805D01*
X146040Y613410D02*
X153658D01*
X156197Y615949D01*
X153658Y618488D01*
X148579D01*
X146040Y621027D01*
X148579Y623567D01*
X156197D01*
X168893Y613410D02*
X163814D01*
X161275Y615949D01*
Y621027D01*
X163814Y623567D01*
X168893D01*
X171432Y621027D01*
Y618488D01*
X161275D01*
X179049Y626106D02*
Y623567D01*
X176510D01*
X181589D01*
X179049D01*
Y615949D01*
X181589Y613410D01*
X1122500Y567500D02*
X1137735D01*
Y559883D01*
X1135196Y557343D01*
X1130117D01*
X1127578Y559883D01*
Y567500D01*
Y562422D02*
X1122500Y557343D01*
Y544647D02*
X1137735D01*
X1130117Y552265D01*
Y542108D01*
X1135196Y537030D02*
X1137735Y534491D01*
Y529412D01*
X1135196Y526873D01*
X1132657D01*
X1130117Y529412D01*
Y531951D01*
Y529412D01*
X1127578Y526873D01*
X1125039D01*
X1122500Y529412D01*
Y534491D01*
X1125039Y537030D01*
X971550Y671068D02*
Y686303D01*
X979167D01*
X981707Y683764D01*
Y678686D01*
X979167Y676146D01*
X971550D01*
X976628D02*
X981707Y671068D01*
X994403D02*
Y686303D01*
X986785Y678686D01*
X996942D01*
X1012177Y671068D02*
X1002020D01*
X1012177Y681225D01*
Y683764D01*
X1009638Y686303D01*
X1004559D01*
X1002020Y683764D01*
X917500Y635000D02*
Y650235D01*
X925117D01*
X927657Y647696D01*
Y642617D01*
X925117Y640078D01*
X917500D01*
X922578D02*
X927657Y635000D01*
X940353D02*
Y650235D01*
X932735Y642617D01*
X942892D01*
X947970Y635000D02*
X953048D01*
X950509D01*
Y650235D01*
X947970Y647696D01*
X305000Y605000D02*
X320235D01*
Y597383D01*
X317696Y594843D01*
X312617D01*
X310078Y597383D01*
Y605000D01*
Y599922D02*
X305000Y594843D01*
Y582147D02*
X320235D01*
X312617Y589765D01*
Y579608D01*
X317696Y574530D02*
X320235Y571991D01*
Y566912D01*
X317696Y564373D01*
X307539D01*
X305000Y566912D01*
Y571991D01*
X307539Y574530D01*
X317696D01*
X267500Y602500D02*
X282735D01*
Y594883D01*
X280196Y592343D01*
X275117D01*
X272578Y594883D01*
Y602500D01*
Y597422D02*
X267500Y592343D01*
X280196Y587265D02*
X282735Y584726D01*
Y579647D01*
X280196Y577108D01*
X277657D01*
X275117Y579647D01*
Y582187D01*
Y579647D01*
X272578Y577108D01*
X270039D01*
X267500Y579647D01*
Y584726D01*
X270039Y587265D01*
Y572030D02*
X267500Y569491D01*
Y564412D01*
X270039Y561873D01*
X280196D01*
X282735Y564412D01*
Y569491D01*
X280196Y572030D01*
X277657D01*
X275117Y569491D01*
Y561873D01*
X1171191Y671575D02*
Y681732D01*
X1168652Y684271D01*
X1163573D01*
X1161034Y681732D01*
Y671575D01*
X1163573Y669036D01*
X1168652D01*
X1166112Y674114D02*
X1171191Y669036D01*
X1168652D02*
X1171191Y671575D01*
X1176269Y669036D02*
X1181347D01*
X1178808D01*
Y684271D01*
X1176269Y681732D01*
X967500Y902500D02*
X982735D01*
Y894883D01*
X980196Y892343D01*
X975117D01*
X972578Y894883D01*
Y902500D01*
X970039Y887265D02*
X967500Y884726D01*
Y879647D01*
X970039Y877108D01*
X980196D01*
X982735Y879647D01*
Y884726D01*
X980196Y887265D01*
X977657D01*
X975117Y884726D01*
Y877108D01*
X1390000Y585000D02*
Y600235D01*
X1397617D01*
X1400157Y597696D01*
Y592617D01*
X1397617Y590078D01*
X1390000D01*
X1405235Y597696D02*
X1407774Y600235D01*
X1412853D01*
X1415392Y597696D01*
Y595157D01*
X1412853Y592617D01*
X1415392Y590078D01*
Y587539D01*
X1412853Y585000D01*
X1407774D01*
X1405235Y587539D01*
Y590078D01*
X1407774Y592617D01*
X1405235Y595157D01*
Y597696D01*
X1407774Y592617D02*
X1412853D01*
X1261000Y547000D02*
Y562235D01*
X1268617D01*
X1271157Y559696D01*
Y554618D01*
X1268617Y552078D01*
X1261000D01*
X1276235Y562235D02*
X1286392D01*
Y559696D01*
X1276235Y549539D01*
Y547000D01*
X1387500Y625000D02*
Y640235D01*
X1395117D01*
X1397657Y637696D01*
Y632617D01*
X1395117Y630078D01*
X1387500D01*
X1402735Y625000D02*
X1407813D01*
X1405274D01*
Y640235D01*
X1402735Y637696D01*
X115157Y666235D02*
X110078D01*
X112618D01*
Y653539D01*
X110078Y651000D01*
X107539D01*
X105000Y653539D01*
X120235Y651000D02*
X125313D01*
X122774D01*
Y666235D01*
X120235Y663696D01*
X1302500Y527735D02*
Y512500D01*
X1310117D01*
X1312657Y515039D01*
Y525196D01*
X1310117Y527735D01*
X1302500D01*
X1317735Y525196D02*
X1320274Y527735D01*
X1325353D01*
X1327892Y525196D01*
Y522657D01*
X1325353Y520117D01*
X1322813D01*
X1325353D01*
X1327892Y517578D01*
Y515039D01*
X1325353Y512500D01*
X1320274D01*
X1317735Y515039D01*
X549657Y526196D02*
X547118Y528735D01*
X542039D01*
X539500Y526196D01*
Y516039D01*
X542039Y513500D01*
X547118D01*
X549657Y516039D01*
X554735D02*
X557274Y513500D01*
X562353D01*
X564892Y516039D01*
Y526196D01*
X562353Y528735D01*
X557274D01*
X554735Y526196D01*
Y523657D01*
X557274Y521118D01*
X564892D01*
X547657Y437696D02*
X545117Y440235D01*
X540039D01*
X537500Y437696D01*
Y427539D01*
X540039Y425000D01*
X545117D01*
X547657Y427539D01*
X552735Y437696D02*
X555274Y440235D01*
X560353D01*
X562892Y437696D01*
Y435157D01*
X560353Y432617D01*
X562892Y430078D01*
Y427539D01*
X560353Y425000D01*
X555274D01*
X552735Y427539D01*
Y430078D01*
X555274Y432617D01*
X552735Y435157D01*
Y437696D01*
X555274Y432617D02*
X560353D01*
X1084069Y588768D02*
X1081529Y591307D01*
X1076451D01*
X1073912Y588768D01*
Y578611D01*
X1076451Y576072D01*
X1081529D01*
X1084069Y578611D01*
X1089147Y591307D02*
X1099304D01*
Y588768D01*
X1089147Y578611D01*
Y576072D01*
X1090157Y532696D02*
X1087617Y535235D01*
X1082539D01*
X1080000Y532696D01*
Y522539D01*
X1082539Y520000D01*
X1087617D01*
X1090157Y522539D01*
X1105392Y535235D02*
X1100313Y532696D01*
X1095235Y527617D01*
Y522539D01*
X1097774Y520000D01*
X1102853D01*
X1105392Y522539D01*
Y525078D01*
X1102853Y527617D01*
X1095235D01*
X760727Y523744D02*
X758187Y526283D01*
X753109D01*
X750570Y523744D01*
Y513587D01*
X753109Y511048D01*
X758187D01*
X760727Y513587D01*
X775962Y526283D02*
X765805D01*
Y518666D01*
X770883Y521205D01*
X773423D01*
X775962Y518666D01*
Y513587D01*
X773423Y511048D01*
X768344D01*
X765805Y513587D01*
X221231Y566416D02*
X218692Y568955D01*
X213613D01*
X211074Y566416D01*
Y556259D01*
X213613Y553720D01*
X218692D01*
X221231Y556259D01*
X233927Y553720D02*
Y568955D01*
X226309Y561338D01*
X236466D01*
X580157Y437696D02*
X577617Y440235D01*
X572539D01*
X570000Y437696D01*
Y427539D01*
X572539Y425000D01*
X577617D01*
X580157Y427539D01*
X585235Y437696D02*
X587774Y440235D01*
X592853D01*
X595392Y437696D01*
Y435157D01*
X592853Y432617D01*
X590313D01*
X592853D01*
X595392Y430078D01*
Y427539D01*
X592853Y425000D01*
X587774D01*
X585235Y427539D01*
X762759Y623820D02*
X760219Y626359D01*
X755141D01*
X752602Y623820D01*
Y613663D01*
X755141Y611124D01*
X760219D01*
X762759Y613663D01*
X777994Y611124D02*
X767837D01*
X777994Y621281D01*
Y623820D01*
X775455Y626359D01*
X770376D01*
X767837Y623820D01*
X122174Y414015D02*
Y398780D01*
X129791D01*
X132331Y401319D01*
Y403858D01*
X129791Y406398D01*
X122174D01*
X129791D01*
X132331Y408937D01*
Y411476D01*
X129791Y414015D01*
X122174D01*
X137409Y398780D02*
X142487D01*
X139948D01*
Y414015D01*
X137409Y411476D01*
X1390000Y564922D02*
Y580157D01*
X1397617D01*
X1400157Y577617D01*
Y572539D01*
X1397617Y570000D01*
X1390000D01*
X1407774D02*
X1412853D01*
X1415392Y572539D01*
Y577617D01*
X1412853Y580157D01*
X1407774D01*
X1405235Y577617D01*
Y572539D01*
X1407774Y570000D01*
X1420470Y580157D02*
Y572539D01*
X1423009Y570000D01*
X1425549Y572539D01*
X1428088Y570000D01*
X1430627Y572539D01*
Y580157D01*
X1320000Y669922D02*
Y685157D01*
X1327617D01*
X1330157Y682617D01*
Y677539D01*
X1327617Y675000D01*
X1320000D01*
X1335235Y685157D02*
Y677539D01*
X1337774Y675000D01*
X1345392D01*
Y685157D01*
X1350470Y675000D02*
Y685157D01*
X1353009D01*
X1355549Y682617D01*
Y675000D01*
Y682617D01*
X1358088Y685157D01*
X1360627Y682617D01*
Y675000D01*
X1257000Y653000D02*
Y668235D01*
X1262078Y663157D01*
X1267157Y668235D01*
Y653000D01*
X1274774D02*
X1279853D01*
X1282392Y655539D01*
Y660618D01*
X1279853Y663157D01*
X1274774D01*
X1272235Y660618D01*
Y655539D01*
X1274774Y653000D01*
X1287470D02*
X1292549D01*
X1290009D01*
Y663157D01*
X1287470D01*
X1300166Y653000D02*
Y655539D01*
X1302705D01*
Y653000D01*
X1300166D01*
X379600Y114000D02*
Y108922D01*
Y111461D01*
X394835D01*
X392296Y114000D01*
X349600Y103843D02*
Y114000D01*
X359757Y103843D01*
X362296D01*
X364835Y106383D01*
Y111461D01*
X362296Y114000D01*
X374600Y344000D02*
Y338922D01*
Y341461D01*
X389835D01*
X387296Y344000D01*
X389835Y321147D02*
Y331304D01*
X382217D01*
X384757Y326226D01*
Y323687D01*
X382217Y321147D01*
X377139D01*
X374600Y323687D01*
Y328765D01*
X377139Y331304D01*
X349600Y344000D02*
Y338922D01*
Y341461D01*
X364835D01*
X362296Y344000D01*
X364835Y321147D02*
X362296Y326226D01*
X357217Y331304D01*
X352139D01*
X349600Y328765D01*
Y323687D01*
X352139Y321147D01*
X354678D01*
X357217Y323687D01*
Y331304D01*
X216000Y120000D02*
Y125078D01*
Y122539D01*
X200765D01*
X203304Y120000D01*
X141000Y110157D02*
Y100000D01*
X130843Y110157D01*
X128304D01*
X125765Y107618D01*
Y102539D01*
X128304Y100000D01*
Y115235D02*
X125765Y117774D01*
Y122853D01*
X128304Y125392D01*
X138461D01*
X141000Y122853D01*
Y117774D01*
X138461Y115235D01*
X128304D01*
X338805Y705086D02*
G03*
X340088Y724659I-1305J9914D01*
G01*
X376195Y724914D02*
G03*
X374912Y705341I1305J-9914D01*
G01*
X753781Y724914D02*
G03*
X752498Y705341I1305J-9914D01*
G01*
X716392Y705086D02*
G03*
X717674Y724659I-1305J9914D01*
G01*
X-0Y200000D02*
Y705000D01*
Y200000D02*
X200000Y0D01*
X1450000D01*
Y705000D01*
X1450000Y705000D02*
X1450000Y705000D01*
X1000000Y705000D02*
X1450000D01*
X999915Y705086D02*
X1000000Y705000D01*
X753695Y705086D02*
X999915D01*
X753695Y724914D02*
X999914D01*
X1000000Y725000D01*
Y1030000D01*
X92500D02*
X1000000D01*
X37500Y975000D02*
X92500Y1030000D01*
X37500Y975000D02*
X87500Y925000D01*
X800000D01*
Y825000D02*
Y925000D01*
X87500Y825000D02*
X800000D01*
X37500Y775000D02*
X87500Y825000D01*
X37500Y775000D02*
X87500Y725000D01*
X339853D01*
X86Y705086D02*
X338805D01*
X-0Y705000D02*
X86Y705086D01*
X376195Y724914D02*
X717439D01*
X376195Y705086D02*
X716305D01*
D22*
X1205500Y373000D02*
G03*
X1205500Y373000I-500J0D01*
G01*
X641500Y614000D02*
G03*
X641500Y614000I-500J0D01*
G01*
D43*
X1367300Y423600D02*
Y525200D01*
X1418100Y423600D02*
Y525200D01*
X1367300D02*
X1418100D01*
X1367300Y423600D02*
X1418100D01*
X1240000Y595000D02*
Y610000D01*
X1237500Y592500D02*
X1240000Y595000D01*
X1222500Y592500D02*
X1237500D01*
X1220000Y595000D02*
X1222500Y592500D01*
X1220000Y595000D02*
Y610000D01*
X1240000Y625000D02*
Y642500D01*
X1220000D02*
X1240000D01*
X1220000Y625000D02*
Y642500D01*
X1258000Y44550D02*
X1307500D01*
X1215000Y182850D02*
Y363450D01*
X1285000Y182850D02*
Y363450D01*
X1215000D02*
X1285000D01*
X1215000Y183000D02*
X1285000Y182850D01*
X131300Y646300D02*
Y671700D01*
X283700Y646300D02*
Y671700D01*
X131300Y646300D02*
X283700D01*
X131300Y671700D02*
X283700D01*
X651000Y424000D02*
X721000Y423850D01*
X651000Y604450D02*
X721000D01*
Y423850D02*
Y604450D01*
X651000Y423850D02*
Y604450D01*
X1275000Y487500D02*
X1290000D01*
X1272500Y490000D02*
X1275000Y487500D01*
X1272500Y490000D02*
Y505000D01*
X1275000Y507500D01*
X1290000D01*
X1305000Y487500D02*
X1322500D01*
Y507500D01*
X1305000D02*
X1322500D01*
X1210000Y122500D02*
Y132497D01*
X1214998D01*
X1216665Y130831D01*
Y127498D01*
X1214998Y125832D01*
X1210000D01*
X1213332D02*
X1216665Y122500D01*
X1219997Y130831D02*
X1221663Y132497D01*
X1224995D01*
X1226661Y130831D01*
Y129164D01*
X1224995Y127498D01*
X1223329D01*
X1224995D01*
X1226661Y125832D01*
Y124166D01*
X1224995Y122500D01*
X1221663D01*
X1219997Y124166D01*
X1229994Y130831D02*
X1231660Y132497D01*
X1234992D01*
X1236658Y130831D01*
Y129164D01*
X1234992Y127498D01*
X1236658Y125832D01*
Y124166D01*
X1234992Y122500D01*
X1231660D01*
X1229994Y124166D01*
Y125832D01*
X1231660Y127498D01*
X1229994Y129164D01*
Y130831D01*
X1231660Y127498D02*
X1234992D01*
X1246000Y95000D02*
Y104997D01*
X1250998D01*
X1252664Y103331D01*
Y99998D01*
X1250998Y98332D01*
X1246000D01*
X1249332D02*
X1252664Y95000D01*
X1255997Y103331D02*
X1257663Y104997D01*
X1260995D01*
X1262661Y103331D01*
Y101664D01*
X1260995Y99998D01*
X1259329D01*
X1260995D01*
X1262661Y98332D01*
Y96666D01*
X1260995Y95000D01*
X1257663D01*
X1255997Y96666D01*
X1265994Y104997D02*
X1272658D01*
Y103331D01*
X1265994Y96666D01*
Y95000D01*
X1227000Y161000D02*
Y170997D01*
X1231998D01*
X1233664Y169331D01*
Y165998D01*
X1231998Y164332D01*
X1227000D01*
X1230332D02*
X1233664Y161000D01*
X1236997Y169331D02*
X1238663Y170997D01*
X1241995D01*
X1243661Y169331D01*
Y167665D01*
X1241995Y165998D01*
X1240329D01*
X1241995D01*
X1243661Y164332D01*
Y162666D01*
X1241995Y161000D01*
X1238663D01*
X1236997Y162666D01*
X1253658Y170997D02*
X1250326Y169331D01*
X1246994Y165998D01*
Y162666D01*
X1248660Y161000D01*
X1251992D01*
X1253658Y162666D01*
Y164332D01*
X1251992Y165998D01*
X1246994D01*
X1227000Y145000D02*
Y154997D01*
X1231998D01*
X1233664Y153331D01*
Y149998D01*
X1231998Y148332D01*
X1227000D01*
X1230332D02*
X1233664Y145000D01*
X1236997Y153331D02*
X1238663Y154997D01*
X1241995D01*
X1243661Y153331D01*
Y151664D01*
X1241995Y149998D01*
X1240329D01*
X1241995D01*
X1243661Y148332D01*
Y146666D01*
X1241995Y145000D01*
X1238663D01*
X1236997Y146666D01*
X1253658Y154997D02*
X1246994D01*
Y149998D01*
X1250326Y151664D01*
X1251992D01*
X1253658Y149998D01*
Y146666D01*
X1251992Y145000D01*
X1248660D01*
X1246994Y146666D01*
X1355000Y303750D02*
X1345003D01*
Y308748D01*
X1346669Y310415D01*
X1350002D01*
X1351668Y308748D01*
Y303750D01*
Y307082D02*
X1355000Y310415D01*
X1346669Y313747D02*
X1345003Y315413D01*
Y318745D01*
X1346669Y320411D01*
X1348336D01*
X1350002Y318745D01*
Y317079D01*
Y318745D01*
X1351668Y320411D01*
X1353334D01*
X1355000Y318745D01*
Y315413D01*
X1353334Y313747D01*
X1355000Y328742D02*
X1345003D01*
X1350002Y323744D01*
Y330408D01*
X1338000Y304000D02*
X1328003D01*
Y308998D01*
X1329669Y310665D01*
X1333002D01*
X1334668Y308998D01*
Y304000D01*
Y307332D02*
X1338000Y310665D01*
X1329669Y313997D02*
X1328003Y315663D01*
Y318995D01*
X1329669Y320661D01*
X1331335D01*
X1333002Y318995D01*
Y317329D01*
Y318995D01*
X1334668Y320661D01*
X1336334D01*
X1338000Y318995D01*
Y315663D01*
X1336334Y313997D01*
X1329669Y323994D02*
X1328003Y325660D01*
Y328992D01*
X1329669Y330658D01*
X1331335D01*
X1333002Y328992D01*
Y327326D01*
Y328992D01*
X1334668Y330658D01*
X1336334D01*
X1338000Y328992D01*
Y325660D01*
X1336334Y323994D01*
X1356000Y243000D02*
X1346003D01*
Y247998D01*
X1347669Y249664D01*
X1351002D01*
X1352668Y247998D01*
Y243000D01*
Y246332D02*
X1356000Y249664D01*
X1347669Y252997D02*
X1346003Y254663D01*
Y257995D01*
X1347669Y259661D01*
X1349335D01*
X1351002Y257995D01*
Y256329D01*
Y257995D01*
X1352668Y259661D01*
X1354334D01*
X1356000Y257995D01*
Y254663D01*
X1354334Y252997D01*
X1356000Y269658D02*
Y262994D01*
X1349335Y269658D01*
X1347669D01*
X1346003Y267992D01*
Y264660D01*
X1347669Y262994D01*
X1338000Y246000D02*
X1328003D01*
Y250998D01*
X1329669Y252665D01*
X1333002D01*
X1334668Y250998D01*
Y246000D01*
Y249332D02*
X1338000Y252665D01*
X1329669Y255997D02*
X1328003Y257663D01*
Y260995D01*
X1329669Y262661D01*
X1331335D01*
X1333002Y260995D01*
Y259329D01*
Y260995D01*
X1334668Y262661D01*
X1336334D01*
X1338000Y260995D01*
Y257663D01*
X1336334Y255997D01*
X1338000Y265994D02*
Y269326D01*
Y267660D01*
X1328003D01*
X1329669Y265994D01*
X1356000Y182000D02*
X1346003D01*
Y186998D01*
X1347669Y188664D01*
X1351002D01*
X1352668Y186998D01*
Y182000D01*
Y185332D02*
X1356000Y188664D01*
X1347669Y191997D02*
X1346003Y193663D01*
Y196995D01*
X1347669Y198661D01*
X1349335D01*
X1351002Y196995D01*
Y195329D01*
Y196995D01*
X1352668Y198661D01*
X1354334D01*
X1356000Y196995D01*
Y193663D01*
X1354334Y191997D01*
X1347669Y201994D02*
X1346003Y203660D01*
Y206992D01*
X1347669Y208658D01*
X1354334D01*
X1356000Y206992D01*
Y203660D01*
X1354334Y201994D01*
X1347669D01*
X1338000Y182000D02*
X1328003D01*
Y186998D01*
X1329669Y188664D01*
X1333002D01*
X1334668Y186998D01*
Y182000D01*
Y185332D02*
X1338000Y188664D01*
Y198661D02*
Y191997D01*
X1331335Y198661D01*
X1329669D01*
X1328003Y196995D01*
Y193663D01*
X1329669Y191997D01*
X1336334Y201994D02*
X1338000Y203660D01*
Y206992D01*
X1336334Y208658D01*
X1329669D01*
X1328003Y206992D01*
Y203660D01*
X1329669Y201994D01*
X1331335D01*
X1333002Y203660D01*
Y208658D01*
X1355000Y122500D02*
X1345003D01*
Y127498D01*
X1346669Y129164D01*
X1350002D01*
X1351668Y127498D01*
Y122500D01*
Y125832D02*
X1355000Y129164D01*
Y139161D02*
Y132497D01*
X1348336Y139161D01*
X1346669D01*
X1345003Y137495D01*
Y134163D01*
X1346669Y132497D01*
Y142494D02*
X1345003Y144160D01*
Y147492D01*
X1346669Y149158D01*
X1348336D01*
X1350002Y147492D01*
X1351668Y149158D01*
X1353334D01*
X1355000Y147492D01*
Y144160D01*
X1353334Y142494D01*
X1351668D01*
X1350002Y144160D01*
X1348336Y142494D01*
X1346669D01*
X1350002Y144160D02*
Y147492D01*
X1338000Y122000D02*
X1328003D01*
Y126998D01*
X1329669Y128665D01*
X1333002D01*
X1334668Y126998D01*
Y122000D01*
Y125332D02*
X1338000Y128665D01*
Y138661D02*
Y131997D01*
X1331335Y138661D01*
X1329669D01*
X1328003Y136995D01*
Y133663D01*
X1329669Y131997D01*
X1328003Y141994D02*
Y148658D01*
X1329669D01*
X1336334Y141994D01*
X1338000D01*
X1356000Y60000D02*
X1346003D01*
Y64998D01*
X1347669Y66665D01*
X1351002D01*
X1352668Y64998D01*
Y60000D01*
Y63332D02*
X1356000Y66665D01*
Y76661D02*
Y69997D01*
X1349335Y76661D01*
X1347669D01*
X1346003Y74995D01*
Y71663D01*
X1347669Y69997D01*
X1346003Y86658D02*
X1347669Y83326D01*
X1351002Y79994D01*
X1354334D01*
X1356000Y81660D01*
Y84992D01*
X1354334Y86658D01*
X1352668D01*
X1351002Y84992D01*
Y79994D01*
X1338000Y60000D02*
X1328003D01*
Y64998D01*
X1329669Y66665D01*
X1333002D01*
X1334668Y64998D01*
Y60000D01*
Y63332D02*
X1338000Y66665D01*
Y76661D02*
Y69997D01*
X1331335Y76661D01*
X1329669D01*
X1328003Y74995D01*
Y71663D01*
X1329669Y69997D01*
X1328003Y86658D02*
Y79994D01*
X1333002D01*
X1331335Y83326D01*
Y84992D01*
X1333002Y86658D01*
X1336334D01*
X1338000Y84992D01*
Y81660D01*
X1336334Y79994D01*
X271000Y7000D02*
Y16997D01*
X275998D01*
X277665Y15331D01*
Y11998D01*
X275998Y10332D01*
X271000D01*
X274332D02*
X277665Y7000D01*
X287661D02*
X280997D01*
X287661Y13664D01*
Y15331D01*
X285995Y16997D01*
X282663D01*
X280997Y15331D01*
X295992Y7000D02*
Y16997D01*
X290994Y11998D01*
X297658D01*
X271000Y50000D02*
Y59997D01*
X275998D01*
X277665Y58331D01*
Y54998D01*
X275998Y53332D01*
X271000D01*
X274332D02*
X277665Y50000D01*
X287661D02*
X280997D01*
X287661Y56665D01*
Y58331D01*
X285995Y59997D01*
X282663D01*
X280997Y58331D01*
X290994D02*
X292660Y59997D01*
X295992D01*
X297658Y58331D01*
Y56665D01*
X295992Y54998D01*
X294326D01*
X295992D01*
X297658Y53332D01*
Y51666D01*
X295992Y50000D01*
X292660D01*
X290994Y51666D01*
X271000Y78000D02*
Y87997D01*
X275998D01*
X277665Y86331D01*
Y82998D01*
X275998Y81332D01*
X271000D01*
X274332D02*
X277665Y78000D01*
X287661D02*
X280997D01*
X287661Y84664D01*
Y86331D01*
X285995Y87997D01*
X282663D01*
X280997Y86331D01*
X297658Y78000D02*
X290994D01*
X297658Y84664D01*
Y86331D01*
X295992Y87997D01*
X292660D01*
X290994Y86331D01*
X1265000Y410000D02*
Y419997D01*
X1269998D01*
X1271665Y418331D01*
Y414998D01*
X1269998Y413332D01*
X1265000D01*
X1268332D02*
X1271665Y410000D01*
X1281661D02*
X1274997D01*
X1281661Y416665D01*
Y418331D01*
X1279995Y419997D01*
X1276663D01*
X1274997Y418331D01*
X1284993Y410000D02*
X1288326D01*
X1286660D01*
Y419997D01*
X1284993Y418331D01*
X88000Y126000D02*
Y135997D01*
X92998D01*
X94664Y134331D01*
Y130998D01*
X92998Y129332D01*
X88000D01*
X91332D02*
X94664Y126000D01*
X104661D02*
X97997D01*
X104661Y132664D01*
Y134331D01*
X102995Y135997D01*
X99663D01*
X97997Y134331D01*
X107993D02*
X109660Y135997D01*
X112992D01*
X114658Y134331D01*
Y127666D01*
X112992Y126000D01*
X109660D01*
X107993Y127666D01*
Y134331D01*
X55000Y166000D02*
Y175997D01*
X59998D01*
X61665Y174331D01*
Y170998D01*
X59998Y169332D01*
X55000D01*
X58332D02*
X61665Y166000D01*
X64997D02*
X68329D01*
X66663D01*
Y175997D01*
X64997Y174331D01*
X73327Y167666D02*
X74994Y166000D01*
X78326D01*
X79992Y167666D01*
Y174331D01*
X78326Y175997D01*
X74994D01*
X73327Y174331D01*
Y172665D01*
X74994Y170998D01*
X79992D01*
X54000Y190000D02*
Y199997D01*
X58998D01*
X60665Y198331D01*
Y194998D01*
X58998Y193332D01*
X54000D01*
X57332D02*
X60665Y190000D01*
X63997D02*
X67329D01*
X65663D01*
Y199997D01*
X63997Y198331D01*
X72327D02*
X73994Y199997D01*
X77326D01*
X78992Y198331D01*
Y196665D01*
X77326Y194998D01*
X78992Y193332D01*
Y191666D01*
X77326Y190000D01*
X73994D01*
X72327Y191666D01*
Y193332D01*
X73994Y194998D01*
X72327Y196665D01*
Y198331D01*
X73994Y194998D02*
X77326D01*
X56000Y214000D02*
Y223997D01*
X60998D01*
X62664Y222331D01*
Y218998D01*
X60998Y217332D01*
X56000D01*
X59332D02*
X62664Y214000D01*
X65997D02*
X69329D01*
X67663D01*
Y223997D01*
X65997Y222331D01*
X74327Y223997D02*
X80992D01*
Y222331D01*
X74327Y215666D01*
Y214000D01*
X53000Y243000D02*
Y252997D01*
X57998D01*
X59665Y251331D01*
Y247998D01*
X57998Y246332D01*
X53000D01*
X56332D02*
X59665Y243000D01*
X62997D02*
X66329D01*
X64663D01*
Y252997D01*
X62997Y251331D01*
X77992Y252997D02*
X74660Y251331D01*
X71327Y247998D01*
Y244666D01*
X72993Y243000D01*
X76326D01*
X77992Y244666D01*
Y246332D01*
X76326Y247998D01*
X71327D01*
X52000Y269000D02*
Y278997D01*
X56998D01*
X58664Y277331D01*
Y273998D01*
X56998Y272332D01*
X52000D01*
X55332D02*
X58664Y269000D01*
X61997D02*
X65329D01*
X63663D01*
Y278997D01*
X61997Y277331D01*
X76992Y278997D02*
X70327D01*
Y273998D01*
X73660Y275665D01*
X75326D01*
X76992Y273998D01*
Y270666D01*
X75326Y269000D01*
X71993D01*
X70327Y270666D01*
X54000Y294000D02*
Y303997D01*
X58998D01*
X60665Y302331D01*
Y298998D01*
X58998Y297332D01*
X54000D01*
X57332D02*
X60665Y294000D01*
X63997D02*
X67329D01*
X65663D01*
Y303997D01*
X63997Y302331D01*
X77326Y294000D02*
Y303997D01*
X72327Y298998D01*
X78992D01*
X54000Y317000D02*
Y326997D01*
X58998D01*
X60665Y325331D01*
Y321998D01*
X58998Y320332D01*
X54000D01*
X57332D02*
X60665Y317000D01*
X63997D02*
X67329D01*
X65663D01*
Y326997D01*
X63997Y325331D01*
X72327D02*
X73994Y326997D01*
X77326D01*
X78992Y325331D01*
Y323665D01*
X77326Y321998D01*
X75660D01*
X77326D01*
X78992Y320332D01*
Y318666D01*
X77326Y317000D01*
X73994D01*
X72327Y318666D01*
X54000Y345000D02*
Y354997D01*
X58998D01*
X60665Y353331D01*
Y349998D01*
X58998Y348332D01*
X54000D01*
X57332D02*
X60665Y345000D01*
X63997D02*
X67329D01*
X65663D01*
Y354997D01*
X63997Y353331D01*
X78992Y345000D02*
X72327D01*
X78992Y351665D01*
Y353331D01*
X77326Y354997D01*
X73994D01*
X72327Y353331D01*
X55000Y369000D02*
Y378997D01*
X59998D01*
X61665Y377331D01*
Y373998D01*
X59998Y372332D01*
X55000D01*
X58332D02*
X61665Y369000D01*
X64997D02*
X68329D01*
X66663D01*
Y378997D01*
X64997Y377331D01*
X73327Y369000D02*
X76660D01*
X74994D01*
Y378997D01*
X73327Y377331D01*
X270000Y371000D02*
Y380997D01*
X274998D01*
X276665Y379331D01*
Y375998D01*
X274998Y374332D01*
X270000D01*
X273332D02*
X276665Y371000D01*
X279997D02*
X283329D01*
X281663D01*
Y380997D01*
X279997Y379331D01*
X288327D02*
X289993Y380997D01*
X293326D01*
X294992Y379331D01*
Y372666D01*
X293326Y371000D01*
X289993D01*
X288327Y372666D01*
Y379331D01*
X269000Y343000D02*
Y352997D01*
X273998D01*
X275665Y351331D01*
Y347998D01*
X273998Y346332D01*
X269000D01*
X272332D02*
X275665Y343000D01*
X278997Y344666D02*
X280663Y343000D01*
X283995D01*
X285661Y344666D01*
Y351331D01*
X283995Y352997D01*
X280663D01*
X278997Y351331D01*
Y349664D01*
X280663Y347998D01*
X285661D01*
X269000Y319000D02*
Y328997D01*
X273998D01*
X275665Y327331D01*
Y323998D01*
X273998Y322332D01*
X269000D01*
X272332D02*
X275665Y319000D01*
X278997Y327331D02*
X280663Y328997D01*
X283995D01*
X285661Y327331D01*
Y325664D01*
X283995Y323998D01*
X285661Y322332D01*
Y320666D01*
X283995Y319000D01*
X280663D01*
X278997Y320666D01*
Y322332D01*
X280663Y323998D01*
X278997Y325664D01*
Y327331D01*
X280663Y323998D02*
X283995D01*
X268000Y293000D02*
Y302997D01*
X272998D01*
X274664Y301331D01*
Y297998D01*
X272998Y296332D01*
X268000D01*
X271332D02*
X274664Y293000D01*
X277997Y302997D02*
X284661D01*
Y301331D01*
X277997Y294666D01*
Y293000D01*
X268000Y267000D02*
Y276997D01*
X272998D01*
X274664Y275331D01*
Y271998D01*
X272998Y270332D01*
X268000D01*
X271332D02*
X274664Y267000D01*
X284661Y276997D02*
X281329Y275331D01*
X277997Y271998D01*
Y268666D01*
X279663Y267000D01*
X282995D01*
X284661Y268666D01*
Y270332D01*
X282995Y271998D01*
X277997D01*
X267000Y243000D02*
Y252997D01*
X271998D01*
X273664Y251331D01*
Y247998D01*
X271998Y246332D01*
X267000D01*
X270332D02*
X273664Y243000D01*
X283661Y252997D02*
X276997D01*
Y247998D01*
X280329Y249664D01*
X281995D01*
X283661Y247998D01*
Y244666D01*
X281995Y243000D01*
X278663D01*
X276997Y244666D01*
X269000Y218000D02*
Y227997D01*
X273998D01*
X275665Y226331D01*
Y222998D01*
X273998Y221332D01*
X269000D01*
X272332D02*
X275665Y218000D01*
X283995D02*
Y227997D01*
X278997Y222998D01*
X285661D01*
X270000Y190000D02*
Y199997D01*
X274998D01*
X276665Y198331D01*
Y194998D01*
X274998Y193332D01*
X270000D01*
X273332D02*
X276665Y190000D01*
X279997Y198331D02*
X281663Y199997D01*
X284995D01*
X286661Y198331D01*
Y196665D01*
X284995Y194998D01*
X283329D01*
X284995D01*
X286661Y193332D01*
Y191666D01*
X284995Y190000D01*
X281663D01*
X279997Y191666D01*
X269000Y164000D02*
Y173997D01*
X273998D01*
X275665Y172331D01*
Y168998D01*
X273998Y167332D01*
X269000D01*
X272332D02*
X275665Y164000D01*
X285661D02*
X278997D01*
X285661Y170665D01*
Y172331D01*
X283995Y173997D01*
X280663D01*
X278997Y172331D01*
X272000Y140000D02*
Y149997D01*
X276998D01*
X278664Y148331D01*
Y144998D01*
X276998Y143332D01*
X272000D01*
X275332D02*
X278664Y140000D01*
X281997D02*
X285329D01*
X283663D01*
Y149997D01*
X281997Y148331D01*
X1197500Y75000D02*
Y84997D01*
X1202498D01*
X1204165Y83331D01*
Y79998D01*
X1202498Y78332D01*
X1197500D01*
X1207497Y75000D02*
X1210829D01*
X1209163D01*
Y84997D01*
X1207497Y83331D01*
X1215827D02*
X1217494Y84997D01*
X1220826D01*
X1222492Y83331D01*
Y76666D01*
X1220826Y75000D01*
X1217494D01*
X1215827Y76666D01*
Y83331D01*
X1441000Y332000D02*
X1431003D01*
Y336998D01*
X1432669Y338665D01*
X1436002D01*
X1437668Y336998D01*
Y332000D01*
X1431003Y348661D02*
X1432669Y345329D01*
X1436002Y341997D01*
X1439334D01*
X1441000Y343663D01*
Y346995D01*
X1439334Y348661D01*
X1437668D01*
X1436002Y346995D01*
Y341997D01*
X1442000Y270000D02*
X1432003D01*
Y274998D01*
X1433669Y276665D01*
X1437002D01*
X1438668Y274998D01*
Y270000D01*
X1432003Y286661D02*
Y279997D01*
X1437002D01*
X1435336Y283329D01*
Y284995D01*
X1437002Y286661D01*
X1440334D01*
X1442000Y284995D01*
Y281663D01*
X1440334Y279997D01*
X1442000Y207000D02*
X1432003D01*
Y211998D01*
X1433669Y213664D01*
X1437002D01*
X1438668Y211998D01*
Y207000D01*
X1442000Y221995D02*
X1432003D01*
X1437002Y216997D01*
Y223661D01*
X1441000Y146000D02*
X1431003D01*
Y150998D01*
X1432669Y152664D01*
X1436002D01*
X1437668Y150998D01*
Y146000D01*
X1432669Y155997D02*
X1431003Y157663D01*
Y160995D01*
X1432669Y162661D01*
X1434335D01*
X1436002Y160995D01*
Y159329D01*
Y160995D01*
X1437668Y162661D01*
X1439334D01*
X1441000Y160995D01*
Y157663D01*
X1439334Y155997D01*
X1443000Y85000D02*
X1433003D01*
Y89998D01*
X1434669Y91664D01*
X1438002D01*
X1439668Y89998D01*
Y85000D01*
X1443000Y101661D02*
Y94997D01*
X1436335Y101661D01*
X1434669D01*
X1433003Y99995D01*
Y96663D01*
X1434669Y94997D01*
X230000Y99997D02*
Y90000D01*
X234998D01*
X236665Y91666D01*
Y98331D01*
X234998Y99997D01*
X230000D01*
X246661Y90000D02*
X239997D01*
X246661Y96664D01*
Y98331D01*
X244995Y99997D01*
X241663D01*
X239997Y98331D01*
X1194000Y18997D02*
Y9000D01*
X1200665D01*
X1203997Y15664D02*
Y10666D01*
X1205663Y9000D01*
X1210661D01*
Y15664D01*
X1213994Y9000D02*
Y15664D01*
X1215660D01*
X1217326Y13998D01*
Y9000D01*
Y13998D01*
X1218992Y15664D01*
X1220658Y13998D01*
Y9000D01*
X1223990D02*
Y10666D01*
X1225657D01*
Y9000D01*
X1223990D01*
X1192500Y630000D02*
Y626668D01*
Y628334D01*
X1202497D01*
X1200831Y630000D01*
X1192500Y605008D02*
Y611673D01*
X1199165Y605008D01*
X1200831D01*
X1202497Y606674D01*
Y610006D01*
X1200831Y611673D01*
Y591679D02*
X1202497Y590013D01*
Y586681D01*
X1200831Y585014D01*
X1199165D01*
X1197498Y586681D01*
Y588347D01*
Y586681D01*
X1195832Y585014D01*
X1194166D01*
X1192500Y586681D01*
Y590013D01*
X1194166Y591679D01*
D44*
X1144960Y541110D02*
Y542380D01*
X1150040Y541110D02*
Y542380D01*
X258540Y565620D02*
Y566890D01*
X253460Y565620D02*
Y566890D01*
X297540Y565120D02*
Y566390D01*
X292460Y565120D02*
Y566390D01*
X585000Y453000D02*
X587250D01*
X585000Y447000D02*
X587250D01*
X1112000Y520000D02*
Y522250D01*
X1118000Y520000D02*
Y522250D01*
X982620Y634960D02*
X983890D01*
X982620Y640040D02*
X983890D01*
X555500Y494750D02*
Y497000D01*
X549500Y494750D02*
Y497000D01*
X549500Y457000D02*
Y459250D01*
X555500Y457000D02*
Y459250D01*
X1208620Y163460D02*
X1209890D01*
X1208620Y168540D02*
X1209890D01*
X1208620Y147460D02*
X1209890D01*
X1208620Y152540D02*
X1209890D01*
X1223110Y116540D02*
X1224380D01*
X1223110Y111460D02*
X1224380D01*
X1288620Y97460D02*
X1289890D01*
X1288620Y102540D02*
X1289890D01*
X1277620Y387460D02*
X1278890D01*
X1277620Y392540D02*
X1278890D01*
X1329460Y225110D02*
Y226380D01*
X1334540Y225110D02*
Y226380D01*
X1352540Y224620D02*
Y225890D01*
X1347460Y224620D02*
Y225890D01*
X1329460Y286110D02*
Y287380D01*
X1334540Y286110D02*
Y287380D01*
X1352540Y285620D02*
Y286890D01*
X1347460Y285620D02*
Y286890D01*
X1352540Y346620D02*
Y347890D01*
X1347460Y346620D02*
Y347890D01*
X1329460Y347110D02*
Y348380D01*
X1334540Y347110D02*
Y348380D01*
X1329460Y165110D02*
Y166380D01*
X1334540Y165110D02*
Y166380D01*
X1329460Y103110D02*
Y104380D01*
X1334540Y103110D02*
Y104380D01*
X1352540Y102620D02*
Y103890D01*
X1347460Y102620D02*
Y103890D01*
X1352540Y164620D02*
Y165890D01*
X1347460Y164620D02*
Y165890D01*
X282620Y66460D02*
X283890D01*
X282620Y71540D02*
X283890D01*
X283620Y39460D02*
X284890D01*
X283620Y44540D02*
X284890D01*
X283620Y24460D02*
X284890D01*
X283620Y29540D02*
X284890D01*
X246120Y142460D02*
X247390D01*
X246120Y147540D02*
X247390D01*
X246120Y167460D02*
X247390D01*
X246120Y172540D02*
X247390D01*
X246120Y192460D02*
X247390D01*
X246120Y197540D02*
X247390D01*
X246120Y219960D02*
X247390D01*
X246120Y225040D02*
X247390D01*
X246120Y244960D02*
X247390D01*
X246120Y250040D02*
X247390D01*
X246120Y269960D02*
X247390D01*
X246120Y275040D02*
X247390D01*
X246120Y294960D02*
X247390D01*
X246120Y300040D02*
X247390D01*
X246120Y319960D02*
X247390D01*
X246120Y325040D02*
X247390D01*
X246120Y344960D02*
X247390D01*
X246120Y350040D02*
X247390D01*
X246120Y372460D02*
X247390D01*
X246120Y377540D02*
X247390D01*
X99610Y325040D02*
X100880D01*
X99610Y319960D02*
X100880D01*
X99610Y300040D02*
X100880D01*
X99610Y294960D02*
X100880D01*
X99610Y275040D02*
X100880D01*
X99610Y269960D02*
X100880D01*
X99610Y250040D02*
X100880D01*
X99610Y244960D02*
X100880D01*
X99610Y222540D02*
X100880D01*
X99610Y217460D02*
X100880D01*
X99610Y197540D02*
X100880D01*
X99610Y192460D02*
X100880D01*
X99610Y172540D02*
X100880D01*
X99610Y167460D02*
X100880D01*
X99610Y147540D02*
X100880D01*
X99610Y142460D02*
X100880D01*
X99610Y352540D02*
X100880D01*
X99610Y347460D02*
X100880D01*
X99610Y377540D02*
X100880D01*
X99610Y372460D02*
X100880D01*
X1074500Y552500D02*
Y554750D01*
X1080500Y552500D02*
Y554750D01*
X983610Y660040D02*
X984880D01*
X983610Y654960D02*
X984880D01*
X753000Y587500D02*
Y589750D01*
X759000Y587500D02*
Y589750D01*
X222500Y543000D02*
X224750D01*
X222500Y537000D02*
X224750D01*
X757000Y487250D02*
Y489500D01*
X751000Y487250D02*
Y489500D01*
D45*
X1400320Y529436D02*
Y537900D01*
X1408784Y529436D01*
X1410900D01*
X1413016Y531552D01*
Y535784D01*
X1410900Y537900D01*
X1374920Y532820D02*
Y528588D01*
Y530704D01*
X1387616D01*
X1385500Y532820D01*
X1387696Y417500D02*
Y409036D01*
X1385580D01*
X1377116Y417500D01*
X1375000D01*
X1410580D02*
X1412696Y415384D01*
Y411152D01*
X1410580Y409036D01*
X1408464D01*
X1406348Y411152D01*
X1404232Y409036D01*
X1402116D01*
X1400000Y411152D01*
Y415384D01*
X1402116Y417500D01*
X1404232D01*
X1406348Y415384D01*
X1408464Y417500D01*
X1410580D01*
X1406348Y415384D02*
Y411152D01*
M02*
