%FSLAX44Y44*%
%MOMM*%
G71*
G01*
G75*
G04 Layer_Color=8388736*
%ADD10R,1.4000X1.3000*%
%ADD11R,1.0000X1.1000*%
%ADD12R,0.6000X1.5500*%
%ADD13R,1.1000X1.0000*%
%ADD14R,2.0000X0.6000*%
%ADD15R,6.1000X10.1600*%
%ADD16R,3.0000X2.3000*%
%ADD17R,2.0000X0.7000*%
%ADD18R,1.3000X1.4000*%
%ADD19C,0.2540*%
%ADD20C,0.5000*%
%ADD21C,1.5000*%
%ADD22C,1.0000*%
%ADD23C,0.7000*%
%ADD24C,7.0000*%
%ADD25C,0.4000*%
%ADD26C,2.0000*%
%ADD27C,2.0000*%
%ADD28R,1.6000X1.6000*%
%ADD29R,1.6000X1.6000*%
%ADD30C,1.8000*%
%ADD31C,1.5000*%
%ADD32R,1.5000X1.5000*%
%ADD33O,2.0000X1.1000*%
%ADD34O,1.0000X2.0000*%
%ADD35C,0.5000*%
%ADD36C,1.2000*%
%ADD37C,2.5000*%
%ADD38R,1.5000X1.5000*%
%ADD39C,2.2000*%
%ADD40O,1.5000X0.7500*%
%ADD41C,0.9000*%
%ADD42C,1.2700*%
%ADD43C,0.2000*%
%ADD44C,0.1000*%
%ADD45C,0.2032*%
%ADD46R,1.6032X1.5032*%
%ADD47R,1.2032X1.3032*%
%ADD48R,0.8032X1.7532*%
%ADD49R,1.3032X1.2032*%
%ADD50R,2.2032X0.8032*%
%ADD51R,6.3032X10.3632*%
%ADD52R,3.2032X2.5032*%
%ADD53R,2.2032X0.9032*%
%ADD54R,1.5032X1.6032*%
%ADD55C,2.2032*%
%ADD56R,1.8032X1.8032*%
%ADD57R,1.8032X1.8032*%
%ADD58C,2.0032*%
%ADD59C,1.7032*%
%ADD60R,1.7032X1.7032*%
%ADD61O,2.2032X1.3032*%
%ADD62O,1.2032X2.2032*%
%ADD63C,0.7032*%
%ADD64C,1.4032*%
%ADD65C,2.7032*%
%ADD66R,1.7032X1.7032*%
%ADD67C,2.4032*%
%ADD68O,1.7032X0.9532*%
%ADD69C,1.1032*%
%ADD70C,1.4732*%
D19*
X338805Y705086D02*
G03*
X340088Y724659I-1305J9914D01*
G01*
X376195Y724914D02*
G03*
X374912Y705341I1305J-9914D01*
G01*
X753781Y724914D02*
G03*
X752498Y705341I1305J-9914D01*
G01*
X716392Y705086D02*
G03*
X717674Y724659I-1305J9914D01*
G01*
X-0Y200000D02*
Y705000D01*
Y200000D02*
X200000Y0D01*
X1450000D01*
Y705000D01*
X1450000Y705000D02*
X1450000Y705000D01*
X1000000Y705000D02*
X1450000D01*
X999915Y705086D02*
X1000000Y705000D01*
X753695Y705086D02*
X999915D01*
X753695Y724914D02*
X999914D01*
X1000000Y725000D01*
Y1030000D01*
X92500D02*
X1000000D01*
X37500Y975000D02*
X92500Y1030000D01*
X37500Y975000D02*
X87500Y925000D01*
X800000D01*
Y825000D02*
Y925000D01*
X87500Y825000D02*
X800000D01*
X37500Y775000D02*
X87500Y825000D01*
X37500Y775000D02*
X87500Y725000D01*
X339853D01*
X86Y705086D02*
X338805D01*
X-0Y705000D02*
X86Y705086D01*
X376195Y724914D02*
X717439D01*
X376195Y705086D02*
X716305D01*
D46*
X1230000Y632500D02*
D03*
Y603500D02*
D03*
D47*
X1147500Y533000D02*
D03*
Y550000D02*
D03*
X256000Y575000D02*
D03*
Y558000D02*
D03*
X295000Y574500D02*
D03*
Y557500D02*
D03*
X1115000Y529500D02*
D03*
Y512500D02*
D03*
X552500Y487500D02*
D03*
Y504500D02*
D03*
X552500Y466500D02*
D03*
Y449500D02*
D03*
X1332000Y217000D02*
D03*
Y234000D02*
D03*
X1350000D02*
D03*
Y217000D02*
D03*
X1332000Y278000D02*
D03*
Y295000D02*
D03*
X1350000Y295000D02*
D03*
Y278000D02*
D03*
Y356000D02*
D03*
Y339000D02*
D03*
X1332000Y339000D02*
D03*
Y356000D02*
D03*
Y157000D02*
D03*
Y174000D02*
D03*
Y95000D02*
D03*
Y112000D02*
D03*
X1350000D02*
D03*
Y95000D02*
D03*
X1350000Y174000D02*
D03*
Y157000D02*
D03*
X1077500Y562000D02*
D03*
Y545000D02*
D03*
X756000Y597000D02*
D03*
Y580000D02*
D03*
X754000Y480000D02*
D03*
Y497000D02*
D03*
D48*
X64650Y457000D02*
D03*
X77350D02*
D03*
X90050D02*
D03*
X102750D02*
D03*
X115450D02*
D03*
X51950D02*
D03*
X39250D02*
D03*
X26550D02*
D03*
Y512000D02*
D03*
X39250D02*
D03*
X51950D02*
D03*
X115450D02*
D03*
X102750D02*
D03*
X90050D02*
D03*
X77350D02*
D03*
X64650D02*
D03*
X185650Y457000D02*
D03*
X198350D02*
D03*
X211050D02*
D03*
X223750D02*
D03*
X236450D02*
D03*
X172950D02*
D03*
X160250D02*
D03*
X147550D02*
D03*
Y512000D02*
D03*
X160250D02*
D03*
X172950D02*
D03*
X236450D02*
D03*
X223750D02*
D03*
X211050D02*
D03*
X198350D02*
D03*
X185650D02*
D03*
X306650Y457000D02*
D03*
X319350D02*
D03*
X332050D02*
D03*
X344750D02*
D03*
X357450D02*
D03*
X293950D02*
D03*
X281250D02*
D03*
X268550D02*
D03*
Y512000D02*
D03*
X281250D02*
D03*
X293950D02*
D03*
X357450D02*
D03*
X344750D02*
D03*
X332050D02*
D03*
X319350D02*
D03*
X306650D02*
D03*
D49*
X594500Y450000D02*
D03*
X577500D02*
D03*
X992000Y637500D02*
D03*
X975000D02*
D03*
X1218000Y166000D02*
D03*
X1201000D02*
D03*
X1218000Y150000D02*
D03*
X1201000D02*
D03*
X1215000Y114000D02*
D03*
X1232000D02*
D03*
X1298000Y100000D02*
D03*
X1281000D02*
D03*
X1287000Y390000D02*
D03*
X1270000D02*
D03*
X292000Y69000D02*
D03*
X275000D02*
D03*
X293000Y42000D02*
D03*
X276000D02*
D03*
X293000Y27000D02*
D03*
X276000D02*
D03*
X255500Y145000D02*
D03*
X238500D02*
D03*
X255500Y170000D02*
D03*
X238500D02*
D03*
X255500Y195000D02*
D03*
X238500D02*
D03*
X255500Y222500D02*
D03*
X238500D02*
D03*
X255500Y247500D02*
D03*
X238500D02*
D03*
X255500Y272500D02*
D03*
X238500D02*
D03*
X255500Y297500D02*
D03*
X238500D02*
D03*
X255500Y322500D02*
D03*
X238500D02*
D03*
X255500Y347500D02*
D03*
X238500D02*
D03*
X255500Y375000D02*
D03*
X238500D02*
D03*
X91500Y322500D02*
D03*
X108500D02*
D03*
X91500Y297500D02*
D03*
X108500D02*
D03*
X91500Y272500D02*
D03*
X108500D02*
D03*
X91500Y247500D02*
D03*
X108500D02*
D03*
X91500Y220000D02*
D03*
X108500D02*
D03*
X91500Y195000D02*
D03*
X108500D02*
D03*
X91500Y170000D02*
D03*
X108500D02*
D03*
X91500Y145000D02*
D03*
X108500D02*
D03*
X91500Y350000D02*
D03*
X108500D02*
D03*
X91500Y375000D02*
D03*
X108500D02*
D03*
X975500Y657500D02*
D03*
X992500D02*
D03*
X232000Y540000D02*
D03*
X215000D02*
D03*
D50*
X1297000Y355700D02*
D03*
X1203000D02*
D03*
Y190600D02*
D03*
Y241400D02*
D03*
Y317600D02*
D03*
Y304900D02*
D03*
Y279500D02*
D03*
Y216000D02*
D03*
Y228700D02*
D03*
Y254100D02*
D03*
Y292200D02*
D03*
Y266800D02*
D03*
Y330300D02*
D03*
Y203300D02*
D03*
Y343000D02*
D03*
X1297000D02*
D03*
Y203300D02*
D03*
Y330300D02*
D03*
Y266800D02*
D03*
Y292200D02*
D03*
Y254100D02*
D03*
Y228700D02*
D03*
Y316900D02*
D03*
Y216000D02*
D03*
Y279500D02*
D03*
Y304900D02*
D03*
Y241400D02*
D03*
Y190600D02*
D03*
D51*
X891000Y562000D02*
D03*
D52*
X129000Y587000D02*
D03*
X221000D02*
D03*
D53*
X733000Y431600D02*
D03*
Y482400D02*
D03*
Y545900D02*
D03*
Y520500D02*
D03*
Y457000D02*
D03*
Y557900D02*
D03*
Y469700D02*
D03*
Y495100D02*
D03*
Y533200D02*
D03*
Y507800D02*
D03*
Y571300D02*
D03*
Y444300D02*
D03*
Y584000D02*
D03*
X639000D02*
D03*
Y444300D02*
D03*
Y571300D02*
D03*
Y507800D02*
D03*
Y533200D02*
D03*
Y495100D02*
D03*
Y469700D02*
D03*
Y457000D02*
D03*
Y520500D02*
D03*
Y545900D02*
D03*
Y558600D02*
D03*
Y482400D02*
D03*
Y431600D02*
D03*
Y596700D02*
D03*
X733000D02*
D03*
D54*
X1312500Y497500D02*
D03*
X1283500D02*
D03*
D55*
X1350000Y651400D02*
D03*
X1393000Y106400D02*
D03*
Y167400D02*
D03*
X1393000Y228400D02*
D03*
Y289400D02*
D03*
Y350400D02*
D03*
X1268600Y604000D02*
D03*
X1351000Y590400D02*
D03*
X927500Y890400D02*
D03*
X1232400Y57000D02*
D03*
X1177500Y632900D02*
D03*
Y582100D02*
D03*
Y607500D02*
D03*
D56*
X1350000Y626000D02*
D03*
X1393000Y81000D02*
D03*
Y142000D02*
D03*
X1393000Y203000D02*
D03*
Y264000D02*
D03*
Y325000D02*
D03*
X1351000Y565000D02*
D03*
X927500Y865000D02*
D03*
D57*
X1294000Y604000D02*
D03*
X1207000Y57000D02*
D03*
D58*
X1125400Y450000D02*
D03*
X1074600D02*
D03*
X1100000D02*
D03*
X186000Y145000D02*
D03*
Y170400D02*
D03*
Y196000D02*
D03*
Y221400D02*
D03*
Y297600D02*
D03*
Y323000D02*
D03*
Y246800D02*
D03*
Y272200D02*
D03*
Y348400D02*
D03*
Y373800D02*
D03*
X211000D02*
D03*
Y348400D02*
D03*
Y272200D02*
D03*
Y246800D02*
D03*
Y323000D02*
D03*
Y297600D02*
D03*
Y221400D02*
D03*
Y196000D02*
D03*
Y170400D02*
D03*
Y145000D02*
D03*
X136000Y373800D02*
D03*
Y348400D02*
D03*
Y272200D02*
D03*
Y246800D02*
D03*
Y323000D02*
D03*
Y297600D02*
D03*
Y221400D02*
D03*
Y196000D02*
D03*
Y170400D02*
D03*
Y145000D02*
D03*
X965000Y540000D02*
D03*
D59*
X1405400Y436300D02*
D03*
X1380000D02*
D03*
X1405400Y461700D02*
D03*
X1380000D02*
D03*
X1405400Y487100D02*
D03*
X1380000D02*
D03*
X1405400Y512500D02*
D03*
X245600Y659000D02*
D03*
X220200D02*
D03*
X194800D02*
D03*
X169400D02*
D03*
X144000D02*
D03*
X380000Y127800D02*
D03*
Y153200D02*
D03*
Y178600D02*
D03*
Y204000D02*
D03*
Y229400D02*
D03*
Y254800D02*
D03*
X354600D02*
D03*
Y305600D02*
D03*
Y280200D02*
D03*
Y127800D02*
D03*
Y229400D02*
D03*
Y204000D02*
D03*
Y178600D02*
D03*
Y153200D02*
D03*
X380000Y280200D02*
D03*
Y305600D02*
D03*
D60*
X1380000Y512500D02*
D03*
D61*
X234000Y29000D02*
D03*
Y42000D02*
D03*
Y55000D02*
D03*
Y68000D02*
D03*
D62*
X1269700Y58000D02*
D03*
X1283000D02*
D03*
X1296300D02*
D03*
D63*
X747500Y727500D02*
D03*
X739167D02*
D03*
X730833D02*
D03*
X722500D02*
D03*
Y702500D02*
D03*
X730833D02*
D03*
X739167D02*
D03*
X747500D02*
D03*
X370000D02*
D03*
X361667D02*
D03*
X353333D02*
D03*
X345000D02*
D03*
Y727500D02*
D03*
X353333D02*
D03*
X361667D02*
D03*
X370000D02*
D03*
D64*
X915400Y429950D02*
D03*
X890000Y404550D02*
D03*
X864600Y429950D02*
D03*
D65*
X170000Y80000D02*
D03*
X32000Y668000D02*
D03*
X1418000D02*
D03*
Y32000D02*
D03*
X354600Y364000D02*
D03*
X1159600D02*
D03*
Y49000D02*
D03*
X354600D02*
D03*
D66*
X271000Y659000D02*
D03*
D67*
X1056000Y536600D02*
D03*
Y587400D02*
D03*
Y562000D02*
D03*
D68*
X524000Y482600D02*
D03*
Y471900D02*
D03*
D69*
X1077500Y322500D02*
D03*
X575000Y412500D02*
D03*
X345000Y570000D02*
D03*
X537500D02*
D03*
X1067500Y300000D02*
D03*
X905000D02*
D03*
Y320000D02*
D03*
X250000Y475000D02*
D03*
X673600Y558600D02*
D03*
X660000Y640000D02*
D03*
Y545000D02*
D03*
X130000Y485000D02*
D03*
X26550Y538450D02*
D03*
X787500Y457500D02*
D03*
X602500Y432500D02*
D03*
X620000Y420000D02*
D03*
X761800Y533200D02*
D03*
X612600Y495100D02*
D03*
X332050Y492950D02*
D03*
X90050Y492550D02*
D03*
X211050Y493550D02*
D03*
X775000Y470000D02*
D03*
X1270000Y345000D02*
D03*
Y330000D02*
D03*
X875000Y320000D02*
D03*
Y300000D02*
D03*
X1110000Y330000D02*
D03*
X308000Y27000D02*
D03*
Y42000D02*
D03*
X309000Y69000D02*
D03*
X1255000Y390000D02*
D03*
X950000Y380000D02*
D03*
Y395000D02*
D03*
X1147500Y610000D02*
D03*
D70*
X1373250Y317500D02*
D03*
X1372500Y255000D02*
D03*
Y195000D02*
D03*
Y135000D02*
D03*
Y75000D02*
D03*
X1300000Y540000D02*
D03*
X1315000Y375000D02*
D03*
X105000Y980000D02*
D03*
X238000D02*
D03*
X371000D02*
D03*
X504000D02*
D03*
X770000D02*
D03*
X637000D02*
D03*
X642000Y771000D02*
D03*
X775000D02*
D03*
X509000D02*
D03*
X376000D02*
D03*
X243000D02*
D03*
X110000D02*
D03*
X1345000Y405000D02*
D03*
X961300Y50000D02*
D03*
X509300Y49300D02*
D03*
X1275000Y228700D02*
D03*
Y165000D02*
D03*
X1205000Y500000D02*
D03*
X405000Y480000D02*
D03*
X490000Y525000D02*
D03*
X435000D02*
D03*
X440000Y435000D02*
D03*
X490000D02*
D03*
X780000Y505000D02*
D03*
X665000Y445000D02*
D03*
X1215000Y95000D02*
D03*
X295000Y593500D02*
D03*
X185000Y540000D02*
D03*
X75500Y587000D02*
D03*
X1025000Y657500D02*
D03*
X1152500Y225000D02*
D03*
X64650Y482500D02*
D03*
X306650Y480850D02*
D03*
X185650Y483150D02*
D03*
X787500Y580000D02*
D03*
X613500Y524000D02*
D03*
X256000Y594000D02*
D03*
X1240000Y540000D02*
D03*
X1230000Y562500D02*
D03*
M02*
