%FSLAX25Y25*%
%MOIN*%
G70*
G01*
G75*
G04 Layer_Color=32768*
%ADD10R,0.12992X0.09449*%
%ADD11R,0.02362X0.06102*%
%ADD12R,0.03937X0.04331*%
%ADD13R,0.04331X0.03937*%
%ADD14R,0.07874X0.02362*%
%ADD15R,0.24016X0.40000*%
%ADD16R,0.09449X0.12992*%
%ADD17R,0.11811X0.09055*%
%ADD18R,0.07874X0.02756*%
%ADD19C,0.01000*%
%ADD20C,0.05906*%
%ADD21C,0.27559*%
%ADD22C,0.01575*%
%ADD23C,0.01969*%
%ADD24C,0.02756*%
%ADD25C,0.03937*%
%ADD26C,0.07874*%
%ADD27C,0.06299*%
%ADD28R,0.06299X0.06299*%
%ADD29O,0.07874X0.04331*%
%ADD30O,0.03937X0.07874*%
%ADD31C,0.05906*%
%ADD32R,0.05906X0.05906*%
%ADD33C,0.01969*%
%ADD34C,0.04724*%
%ADD35C,0.09843*%
%ADD36R,0.06299X0.06299*%
%ADD37R,0.05906X0.05906*%
%ADD38O,0.07874X0.03937*%
%ADD39O,0.07874X0.03937*%
%ADD40C,0.08661*%
%ADD41C,0.07087*%
%ADD42O,0.05906X0.02953*%
%ADD43C,0.05000*%
%ADD44C,0.03543*%
%ADD45C,0.02756*%
%ADD46C,0.06693*%
%ADD47C,0.00787*%
%ADD48C,0.00394*%
%ADD49C,0.00800*%
%ADD50C,0.00591*%
%ADD51R,0.13792X0.10249*%
%ADD52R,0.03162X0.06902*%
%ADD53R,0.04737X0.05131*%
%ADD54R,0.05131X0.04737*%
%ADD55R,0.08674X0.03162*%
%ADD56R,0.24816X0.40800*%
%ADD57R,0.10249X0.13792*%
%ADD58R,0.12611X0.09855*%
%ADD59R,0.08674X0.03556*%
%ADD60C,0.07099*%
%ADD61R,0.07099X0.07099*%
%ADD62O,0.08674X0.05131*%
%ADD63O,0.04737X0.08674*%
%ADD64C,0.06706*%
%ADD65R,0.06706X0.06706*%
%ADD66C,0.02769*%
%ADD67C,0.05524*%
%ADD68C,0.10642*%
%ADD69R,0.07099X0.07099*%
%ADD70R,0.06706X0.06706*%
%ADD71O,0.08674X0.04737*%
%ADD72O,0.08674X0.04737*%
%ADD73C,0.09461*%
%ADD74C,0.07887*%
%ADD75O,0.06706X0.03753*%
%ADD76C,0.05800*%
%ADD77C,0.04343*%
%ADD78C,0.03556*%
%ADD79C,0.07493*%
D19*
X133388Y277593D02*
G03*
X133893Y285299I-514J3903D01*
G01*
X148108Y285399D02*
G03*
X147603Y277693I514J-3903D01*
G01*
X296764Y285399D02*
G03*
X296259Y277693I514J-3903D01*
G01*
X282044Y277593D02*
G03*
X282549Y285299I-514J3903D01*
G01*
X-0Y78740D02*
Y277559D01*
Y78740D02*
X78740Y0D01*
X570866D01*
Y275590D01*
X570866Y275590D02*
X570866Y275590D01*
X393701Y275590D02*
X570866D01*
X393701D02*
Y277559D01*
X393667Y277593D02*
X393701Y277559D01*
X296730Y277593D02*
X393667D01*
X296730Y285399D02*
X393667D01*
X393701Y285433D01*
Y405512D01*
X36417D02*
X393701D01*
X14764Y383858D02*
X36417Y405512D01*
X14764Y383858D02*
X34449Y364173D01*
X314961D01*
Y324803D02*
Y364173D01*
X34449Y324803D02*
X314961D01*
X14764Y305118D02*
X34449Y324803D01*
X14764Y305118D02*
X34449Y285433D01*
X133800D01*
X34Y277593D02*
X133388D01*
X-0Y277559D02*
X34Y277593D01*
X148108Y285399D02*
X282456D01*
X148108Y277593D02*
X282010D01*
D48*
X465551Y246063D02*
X469488D01*
X467520Y244094D02*
Y248031D01*
M02*
