%FSLAX25Y25*%
%MOIN*%
G70*
G01*
G75*
G04 Layer_Physical_Order=2*
G04 Layer_Color=16711680*
%ADD10R,0.03937X0.04331*%
%ADD11R,0.04331X0.03937*%
%ADD12R,0.11811X0.09055*%
%ADD13R,0.07874X0.02756*%
%ADD14R,0.09449X0.12992*%
%ADD15R,0.24016X0.40000*%
%ADD16R,0.12992X0.09449*%
%ADD17R,0.07874X0.02362*%
%ADD18R,0.02362X0.06102*%
%ADD19C,0.01000*%
%ADD20C,0.02756*%
%ADD21C,0.03937*%
%ADD22C,0.05906*%
%ADD23C,0.01969*%
%ADD24C,0.07874*%
%ADD25C,0.01575*%
%ADD26C,0.27559*%
%ADD27C,0.07087*%
%ADD28C,0.09843*%
%ADD29C,0.05906*%
%ADD30C,0.08661*%
%ADD31O,0.07874X0.03937*%
%ADD32O,0.07874X0.03937*%
%ADD33R,0.06299X0.06299*%
%ADD34C,0.06299*%
%ADD35R,0.06299X0.06299*%
%ADD36R,0.05906X0.05906*%
%ADD37C,0.04724*%
%ADD38C,0.01969*%
%ADD39R,0.05906X0.05906*%
%ADD40O,0.03937X0.07874*%
%ADD41O,0.07874X0.04331*%
%ADD42C,0.03937*%
%ADD43C,0.02756*%
%ADD44C,0.05000*%
%ADD45C,0.03543*%
%ADD46C,0.06693*%
G36*
X566929Y3937D02*
X82677D01*
X5906Y80709D01*
X3937D01*
Y271654D01*
X566929D01*
Y3937D01*
D02*
G37*
%LPC*%
G36*
X149606Y104087D02*
X148630Y103959D01*
X147720Y103582D01*
X146939Y102982D01*
X146339Y102201D01*
X145962Y101291D01*
X145834Y100315D01*
X145962Y99339D01*
X146339Y98429D01*
X146939Y97648D01*
X147720Y97048D01*
X148630Y96671D01*
X149606Y96543D01*
X150583Y96671D01*
X151493Y97048D01*
X152274Y97648D01*
X152873Y98429D01*
X153250Y99339D01*
X153379Y100315D01*
X153250Y101291D01*
X152873Y102201D01*
X152274Y102982D01*
X151493Y103582D01*
X150583Y103959D01*
X149606Y104087D01*
D02*
G37*
G36*
X72728Y101682D02*
X72042Y101592D01*
X70937Y101134D01*
X69988Y100406D01*
X69260Y99457D01*
X68802Y98351D01*
X68712Y97665D01*
X72728D01*
Y101682D01*
D02*
G37*
G36*
X83071Y101533D02*
X81940Y101385D01*
X80887Y100948D01*
X79982Y100254D01*
X79288Y99349D01*
X78852Y98296D01*
X78703Y97165D01*
X78852Y96035D01*
X79288Y94981D01*
X79982Y94077D01*
X80887Y93383D01*
X81940Y92946D01*
X83071Y92797D01*
X84201Y92946D01*
X85255Y93383D01*
X86160Y94077D01*
X86854Y94981D01*
X87290Y96035D01*
X87439Y97165D01*
X87290Y98296D01*
X86854Y99349D01*
X86160Y100254D01*
X85255Y100948D01*
X84201Y101385D01*
X83071Y101533D01*
D02*
G37*
G36*
X139606Y104087D02*
X138630Y103959D01*
X137720Y103582D01*
X136939Y102982D01*
X136339Y102201D01*
X135962Y101291D01*
X135834Y100315D01*
X135962Y99339D01*
X136339Y98429D01*
X136939Y97648D01*
X137720Y97048D01*
X138630Y96671D01*
X139606Y96543D01*
X140583Y96671D01*
X141492Y97048D01*
X142274Y97648D01*
X142873Y98429D01*
X143250Y99339D01*
X143379Y100315D01*
X143250Y101291D01*
X142873Y102201D01*
X142274Y102982D01*
X141492Y103582D01*
X140583Y103959D01*
X139606Y104087D01*
D02*
G37*
G36*
X77745Y106665D02*
X73728D01*
Y102649D01*
X74414Y102739D01*
X75520Y103197D01*
X76469Y103925D01*
X77197Y104874D01*
X77655Y105979D01*
X77745Y106665D01*
D02*
G37*
G36*
X53543Y111533D02*
X52413Y111385D01*
X51359Y110948D01*
X50455Y110254D01*
X49760Y109349D01*
X49324Y108296D01*
X49175Y107165D01*
X49324Y106035D01*
X49760Y104981D01*
X50455Y104077D01*
X51359Y103383D01*
X52413Y102946D01*
X53543Y102797D01*
X54674Y102946D01*
X55727Y103383D01*
X56632Y104077D01*
X57326Y104981D01*
X57762Y106035D01*
X57911Y107165D01*
X57762Y108296D01*
X57326Y109349D01*
X56632Y110254D01*
X55727Y110948D01*
X54674Y111385D01*
X53543Y111533D01*
D02*
G37*
G36*
X73728Y101682D02*
Y97665D01*
X77745D01*
X77655Y98351D01*
X77197Y99457D01*
X76469Y100406D01*
X75520Y101134D01*
X74414Y101592D01*
X73728Y101682D01*
D02*
G37*
G36*
X72728Y106665D02*
X68712D01*
X68802Y105979D01*
X69260Y104874D01*
X69988Y103925D01*
X70937Y103197D01*
X72042Y102739D01*
X72728Y102649D01*
Y106665D01*
D02*
G37*
G36*
X149606Y94087D02*
X148630Y93959D01*
X147720Y93582D01*
X146939Y92983D01*
X146339Y92201D01*
X145962Y91291D01*
X145834Y90315D01*
X145962Y89339D01*
X146339Y88429D01*
X146939Y87647D01*
X147720Y87048D01*
X148630Y86671D01*
X149606Y86542D01*
X150583Y86671D01*
X151493Y87048D01*
X152274Y87647D01*
X152873Y88429D01*
X153250Y89339D01*
X153379Y90315D01*
X153250Y91291D01*
X152873Y92201D01*
X152274Y92983D01*
X151493Y93582D01*
X150583Y93959D01*
X149606Y94087D01*
D02*
G37*
G36*
X72728Y91682D02*
X72042Y91592D01*
X70937Y91134D01*
X69988Y90406D01*
X69260Y89457D01*
X68802Y88351D01*
X68712Y87665D01*
X72728D01*
Y91682D01*
D02*
G37*
G36*
X83071Y91533D02*
X81940Y91385D01*
X80887Y90948D01*
X79982Y90254D01*
X79288Y89349D01*
X78852Y88296D01*
X78703Y87165D01*
X78852Y86035D01*
X79288Y84981D01*
X79982Y84077D01*
X80887Y83382D01*
X81940Y82946D01*
X83071Y82797D01*
X84201Y82946D01*
X85255Y83382D01*
X86160Y84077D01*
X86854Y84981D01*
X87290Y86035D01*
X87439Y87165D01*
X87290Y88296D01*
X86854Y89349D01*
X86160Y90254D01*
X85255Y90948D01*
X84201Y91385D01*
X83071Y91533D01*
D02*
G37*
G36*
X139606Y94087D02*
X138630Y93959D01*
X137720Y93582D01*
X136939Y92983D01*
X136339Y92201D01*
X135962Y91291D01*
X135834Y90315D01*
X135962Y89339D01*
X136339Y88429D01*
X136939Y87647D01*
X137720Y87048D01*
X138630Y86671D01*
X139606Y86542D01*
X140583Y86671D01*
X141492Y87048D01*
X142274Y87647D01*
X142873Y88429D01*
X143250Y89339D01*
X143379Y90315D01*
X143250Y91291D01*
X142873Y92201D01*
X142274Y92983D01*
X141492Y93582D01*
X140583Y93959D01*
X139606Y94087D01*
D02*
G37*
G36*
X77745Y96665D02*
X73728D01*
Y92649D01*
X74414Y92739D01*
X75520Y93197D01*
X76469Y93925D01*
X77197Y94874D01*
X77655Y95979D01*
X77745Y96665D01*
D02*
G37*
G36*
X53543Y101533D02*
X52413Y101385D01*
X51359Y100948D01*
X50455Y100254D01*
X49760Y99349D01*
X49324Y98296D01*
X49175Y97165D01*
X49324Y96035D01*
X49760Y94981D01*
X50455Y94077D01*
X51359Y93383D01*
X52413Y92946D01*
X53543Y92797D01*
X54674Y92946D01*
X55727Y93383D01*
X56632Y94077D01*
X57326Y94981D01*
X57762Y96035D01*
X57911Y97165D01*
X57762Y98296D01*
X57326Y99349D01*
X56632Y100254D01*
X55727Y100948D01*
X54674Y101385D01*
X53543Y101533D01*
D02*
G37*
G36*
X73728Y91682D02*
Y87665D01*
X77745D01*
X77655Y88351D01*
X77197Y89457D01*
X76469Y90406D01*
X75520Y91134D01*
X74414Y91592D01*
X73728Y91682D01*
D02*
G37*
G36*
X72728Y96665D02*
X68712D01*
X68802Y95979D01*
X69260Y94874D01*
X69988Y93925D01*
X70937Y93197D01*
X72042Y92739D01*
X72728Y92649D01*
Y96665D01*
D02*
G37*
G36*
X73728Y121682D02*
Y117665D01*
X77745D01*
X77655Y118351D01*
X77197Y119457D01*
X76469Y120406D01*
X75520Y121134D01*
X74414Y121592D01*
X73728Y121682D01*
D02*
G37*
G36*
X72728Y126665D02*
X68712D01*
X68802Y125979D01*
X69260Y124874D01*
X69988Y123925D01*
X70937Y123197D01*
X72042Y122739D01*
X72728Y122649D01*
Y126665D01*
D02*
G37*
G36*
X139606Y124087D02*
X138630Y123959D01*
X137720Y123582D01*
X136939Y122983D01*
X136339Y122201D01*
X135962Y121291D01*
X135834Y120315D01*
X135962Y119339D01*
X136339Y118429D01*
X136939Y117648D01*
X137720Y117048D01*
X138630Y116671D01*
X139606Y116542D01*
X140583Y116671D01*
X141492Y117048D01*
X142274Y117648D01*
X142873Y118429D01*
X143250Y119339D01*
X143379Y120315D01*
X143250Y121291D01*
X142873Y122201D01*
X142274Y122983D01*
X141492Y123582D01*
X140583Y123959D01*
X139606Y124087D01*
D02*
G37*
G36*
X72728Y121682D02*
X72042Y121592D01*
X70937Y121134D01*
X69988Y120406D01*
X69260Y119457D01*
X68802Y118351D01*
X68712Y117665D01*
X72728D01*
Y121682D01*
D02*
G37*
G36*
X83071Y131533D02*
X81940Y131385D01*
X80887Y130948D01*
X79982Y130254D01*
X79288Y129349D01*
X78852Y128296D01*
X78703Y127165D01*
X78852Y126035D01*
X79288Y124981D01*
X79982Y124077D01*
X80887Y123382D01*
X81940Y122946D01*
X83071Y122797D01*
X84201Y122946D01*
X85255Y123382D01*
X86160Y124077D01*
X86854Y124981D01*
X87290Y126035D01*
X87439Y127165D01*
X87290Y128296D01*
X86854Y129349D01*
X86160Y130254D01*
X85255Y130948D01*
X84201Y131385D01*
X83071Y131533D01*
D02*
G37*
G36*
X72728Y131682D02*
X72042Y131592D01*
X70937Y131134D01*
X69988Y130406D01*
X69260Y129457D01*
X68802Y128351D01*
X68712Y127665D01*
X72728D01*
Y131682D01*
D02*
G37*
G36*
X77745Y126665D02*
X73728D01*
Y122649D01*
X74414Y122739D01*
X75520Y123197D01*
X76469Y123925D01*
X77197Y124874D01*
X77655Y125979D01*
X77745Y126665D01*
D02*
G37*
G36*
X53543Y131533D02*
X52413Y131385D01*
X51359Y130948D01*
X50455Y130254D01*
X49760Y129349D01*
X49324Y128296D01*
X49175Y127165D01*
X49324Y126035D01*
X49760Y124981D01*
X50455Y124077D01*
X51359Y123382D01*
X52413Y122946D01*
X53543Y122797D01*
X54674Y122946D01*
X55727Y123382D01*
X56632Y124077D01*
X57326Y124981D01*
X57762Y126035D01*
X57911Y127165D01*
X57762Y128296D01*
X57326Y129349D01*
X56632Y130254D01*
X55727Y130948D01*
X54674Y131385D01*
X53543Y131533D01*
D02*
G37*
G36*
X72728Y111682D02*
X72042Y111592D01*
X70937Y111134D01*
X69988Y110406D01*
X69260Y109457D01*
X68802Y108351D01*
X68712Y107665D01*
X72728D01*
Y111682D01*
D02*
G37*
G36*
X73728D02*
Y107665D01*
X77745D01*
X77655Y108351D01*
X77197Y109457D01*
X76469Y110406D01*
X75520Y111134D01*
X74414Y111592D01*
X73728Y111682D01*
D02*
G37*
G36*
X83071Y111533D02*
X81940Y111385D01*
X80887Y110948D01*
X79982Y110254D01*
X79288Y109349D01*
X78852Y108296D01*
X78703Y107165D01*
X78852Y106035D01*
X79288Y104981D01*
X79982Y104077D01*
X80887Y103383D01*
X81940Y102946D01*
X83071Y102797D01*
X84201Y102946D01*
X85255Y103383D01*
X86160Y104077D01*
X86854Y104981D01*
X87290Y106035D01*
X87439Y107165D01*
X87290Y108296D01*
X86854Y109349D01*
X86160Y110254D01*
X85255Y110948D01*
X84201Y111385D01*
X83071Y111533D01*
D02*
G37*
G36*
X139606Y114087D02*
X138630Y113959D01*
X137720Y113582D01*
X136939Y112982D01*
X136339Y112201D01*
X135962Y111291D01*
X135834Y110315D01*
X135962Y109339D01*
X136339Y108429D01*
X136939Y107648D01*
X137720Y107048D01*
X138630Y106671D01*
X139606Y106543D01*
X140583Y106671D01*
X141492Y107048D01*
X142274Y107648D01*
X142873Y108429D01*
X143250Y109339D01*
X143379Y110315D01*
X143250Y111291D01*
X142873Y112201D01*
X142274Y112982D01*
X141492Y113582D01*
X140583Y113959D01*
X139606Y114087D01*
D02*
G37*
G36*
X53543Y121533D02*
X52413Y121385D01*
X51359Y120948D01*
X50455Y120254D01*
X49760Y119349D01*
X49324Y118296D01*
X49175Y117165D01*
X49324Y116035D01*
X49760Y114981D01*
X50455Y114077D01*
X51359Y113382D01*
X52413Y112946D01*
X53543Y112797D01*
X54674Y112946D01*
X55727Y113382D01*
X56632Y114077D01*
X57326Y114981D01*
X57762Y116035D01*
X57911Y117165D01*
X57762Y118296D01*
X57326Y119349D01*
X56632Y120254D01*
X55727Y120948D01*
X54674Y121385D01*
X53543Y121533D01*
D02*
G37*
G36*
X83071D02*
X81940Y121385D01*
X80887Y120948D01*
X79982Y120254D01*
X79288Y119349D01*
X78852Y118296D01*
X78703Y117165D01*
X78852Y116035D01*
X79288Y114981D01*
X79982Y114077D01*
X80887Y113382D01*
X81940Y112946D01*
X83071Y112797D01*
X84201Y112946D01*
X85255Y113382D01*
X86160Y114077D01*
X86854Y114981D01*
X87290Y116035D01*
X87439Y117165D01*
X87290Y118296D01*
X86854Y119349D01*
X86160Y120254D01*
X85255Y120948D01*
X84201Y121385D01*
X83071Y121533D01*
D02*
G37*
G36*
X72728Y116665D02*
X68712D01*
X68802Y115979D01*
X69260Y114874D01*
X69988Y113925D01*
X70937Y113197D01*
X72042Y112739D01*
X72728Y112649D01*
Y116665D01*
D02*
G37*
G36*
X77745D02*
X73728D01*
Y112649D01*
X74414Y112739D01*
X75520Y113197D01*
X76469Y113925D01*
X77197Y114874D01*
X77655Y115979D01*
X77745Y116665D01*
D02*
G37*
G36*
X83071Y61455D02*
X81940Y61306D01*
X80887Y60869D01*
X79982Y60175D01*
X79288Y59271D01*
X78852Y58217D01*
X78703Y57087D01*
X78852Y55956D01*
X79288Y54903D01*
X79982Y53998D01*
X80887Y53304D01*
X81940Y52867D01*
X83071Y52719D01*
X84201Y52867D01*
X85255Y53304D01*
X86160Y53998D01*
X86854Y54903D01*
X87290Y55956D01*
X87439Y57087D01*
X87290Y58217D01*
X86854Y59271D01*
X86160Y60175D01*
X85255Y60869D01*
X84201Y61306D01*
X83071Y61455D01*
D02*
G37*
G36*
X139606Y64087D02*
X138630Y63959D01*
X137720Y63582D01*
X136939Y62982D01*
X136339Y62201D01*
X135962Y61291D01*
X135834Y60315D01*
X135962Y59339D01*
X136339Y58429D01*
X136939Y57648D01*
X137720Y57048D01*
X138630Y56671D01*
X139606Y56542D01*
X140583Y56671D01*
X141492Y57048D01*
X142274Y57648D01*
X142873Y58429D01*
X143250Y59339D01*
X143379Y60315D01*
X143250Y61291D01*
X142873Y62201D01*
X142274Y62982D01*
X141492Y63582D01*
X140583Y63959D01*
X139606Y64087D01*
D02*
G37*
G36*
X77745Y56587D02*
X73728D01*
Y52570D01*
X74414Y52660D01*
X75520Y53118D01*
X76469Y53846D01*
X77197Y54795D01*
X77655Y55901D01*
X77745Y56587D01*
D02*
G37*
G36*
X53543Y61455D02*
X52413Y61306D01*
X51359Y60869D01*
X50455Y60175D01*
X49760Y59271D01*
X49324Y58217D01*
X49175Y57087D01*
X49324Y55956D01*
X49760Y54903D01*
X50455Y53998D01*
X51359Y53304D01*
X52413Y52867D01*
X53543Y52719D01*
X54674Y52867D01*
X55727Y53304D01*
X56632Y53998D01*
X57326Y54903D01*
X57762Y55956D01*
X57911Y57087D01*
X57762Y58217D01*
X57326Y59271D01*
X56632Y60175D01*
X55727Y60869D01*
X54674Y61306D01*
X53543Y61455D01*
D02*
G37*
G36*
X72728Y66587D02*
X68712D01*
X68802Y65901D01*
X69260Y64795D01*
X69988Y63846D01*
X70937Y63118D01*
X72042Y62660D01*
X72728Y62570D01*
Y66587D01*
D02*
G37*
G36*
X77745D02*
X73728D01*
Y62570D01*
X74414Y62660D01*
X75520Y63118D01*
X76469Y63846D01*
X77197Y64795D01*
X77655Y65901D01*
X77745Y66587D01*
D02*
G37*
G36*
X72728Y61603D02*
X72042Y61513D01*
X70937Y61055D01*
X69988Y60327D01*
X69260Y59378D01*
X68802Y58273D01*
X68712Y57587D01*
X72728D01*
Y61603D01*
D02*
G37*
G36*
X73728D02*
Y57587D01*
X77745D01*
X77655Y58273D01*
X77197Y59378D01*
X76469Y60327D01*
X75520Y61055D01*
X74414Y61513D01*
X73728Y61603D01*
D02*
G37*
G36*
X139606Y25049D02*
X138116Y24853D01*
X136727Y24278D01*
X135535Y23363D01*
X134620Y22170D01*
X134045Y20782D01*
X133848Y19291D01*
X134045Y17801D01*
X134620Y16412D01*
X135535Y15220D01*
X136727Y14305D01*
X138116Y13730D01*
X139606Y13533D01*
X141097Y13730D01*
X142485Y14305D01*
X143678Y15220D01*
X144593Y16412D01*
X145168Y17801D01*
X145364Y19291D01*
X145168Y20782D01*
X144593Y22170D01*
X143678Y23363D01*
X142485Y24278D01*
X141097Y24853D01*
X139606Y25049D01*
D02*
G37*
G36*
X93898Y29750D02*
X90354D01*
X89583Y29648D01*
X88865Y29351D01*
X88248Y28878D01*
X87775Y28261D01*
X87478Y27542D01*
X87376Y26772D01*
X87478Y26001D01*
X87775Y25282D01*
X88248Y24666D01*
X88339Y24597D01*
Y24097D01*
X88097Y23911D01*
X87589Y23250D01*
X87270Y22480D01*
X87227Y22153D01*
X97025D01*
X96982Y22480D01*
X96663Y23250D01*
X96155Y23911D01*
X95913Y24097D01*
Y24597D01*
X96004Y24666D01*
X96477Y25282D01*
X96774Y26001D01*
X96876Y26772D01*
X96774Y27542D01*
X96477Y28261D01*
X96004Y28878D01*
X95387Y29351D01*
X94669Y29648D01*
X93898Y29750D01*
D02*
G37*
G36*
X558268Y18356D02*
X556777Y18160D01*
X555389Y17585D01*
X554196Y16670D01*
X553281Y15477D01*
X552706Y14089D01*
X552510Y12598D01*
X552706Y11108D01*
X553281Y9719D01*
X554196Y8527D01*
X555389Y7612D01*
X556777Y7037D01*
X558268Y6841D01*
X559758Y7037D01*
X561147Y7612D01*
X562339Y8527D01*
X563254Y9719D01*
X563829Y11108D01*
X564026Y12598D01*
X563829Y14089D01*
X563254Y15477D01*
X562339Y16670D01*
X561147Y17585D01*
X559758Y18160D01*
X558268Y18356D01*
D02*
G37*
G36*
X97025Y21154D02*
X87227D01*
X87270Y20827D01*
X87589Y20057D01*
X88097Y19396D01*
X88339Y19210D01*
Y18711D01*
X88248Y18641D01*
X87775Y18024D01*
X87478Y17306D01*
X87376Y16535D01*
X87478Y15765D01*
X87775Y15046D01*
X88248Y14430D01*
X88513Y14226D01*
Y13726D01*
X88248Y13523D01*
X87775Y12906D01*
X87478Y12188D01*
X87376Y11417D01*
X87478Y10646D01*
X87775Y9928D01*
X88248Y9311D01*
X88865Y8838D01*
X89583Y8541D01*
X90354Y8439D01*
X93898D01*
X94669Y8541D01*
X95387Y8838D01*
X96004Y9311D01*
X96477Y9928D01*
X96774Y10646D01*
X96876Y11417D01*
X96774Y12188D01*
X96477Y12906D01*
X96004Y13523D01*
X95739Y13726D01*
Y14226D01*
X96004Y14430D01*
X96477Y15046D01*
X96774Y15765D01*
X96876Y16535D01*
X96774Y17306D01*
X96477Y18024D01*
X96004Y18641D01*
X95913Y18711D01*
Y19210D01*
X96155Y19396D01*
X96663Y20057D01*
X96982Y20827D01*
X97025Y21154D01*
D02*
G37*
G36*
X150106Y54236D02*
Y50815D01*
X153527D01*
X153457Y51347D01*
X153059Y52308D01*
X152425Y53134D01*
X151600Y53768D01*
X150638Y54166D01*
X150106Y54236D01*
D02*
G37*
G36*
X72728Y56587D02*
X68712D01*
X68802Y55901D01*
X69260Y54795D01*
X69988Y53846D01*
X70937Y53118D01*
X72042Y52660D01*
X72728Y52570D01*
Y56587D01*
D02*
G37*
G36*
X499382Y27731D02*
X499107Y27695D01*
X498385Y27396D01*
X497765Y26920D01*
X497289Y26300D01*
X496990Y25578D01*
X496888Y24803D01*
Y23335D01*
X499382D01*
Y27731D01*
D02*
G37*
G36*
X66929Y37254D02*
X65439Y37058D01*
X64050Y36483D01*
X62858Y35568D01*
X61943Y34375D01*
X61367Y32986D01*
X61171Y31496D01*
X61367Y30006D01*
X61943Y28617D01*
X62858Y27425D01*
X64050Y26510D01*
X65439Y25934D01*
X66929Y25738D01*
X68419Y25934D01*
X69808Y26510D01*
X71001Y27425D01*
X71916Y28617D01*
X72491Y30006D01*
X72687Y31496D01*
X72491Y32986D01*
X71916Y34375D01*
X71001Y35568D01*
X69808Y36483D01*
X68419Y37058D01*
X66929Y37254D01*
D02*
G37*
G36*
X149606Y84087D02*
X148630Y83959D01*
X147720Y83582D01*
X146939Y82982D01*
X146339Y82201D01*
X145962Y81291D01*
X145834Y80315D01*
X145962Y79339D01*
X146339Y78429D01*
X146939Y77648D01*
X147720Y77048D01*
X148630Y76671D01*
X149606Y76543D01*
X150583Y76671D01*
X151493Y77048D01*
X152274Y77648D01*
X152873Y78429D01*
X153250Y79339D01*
X153379Y80315D01*
X153250Y81291D01*
X152873Y82201D01*
X152274Y82982D01*
X151493Y83582D01*
X150583Y83959D01*
X149606Y84087D01*
D02*
G37*
G36*
X72728Y81682D02*
X72042Y81592D01*
X70937Y81134D01*
X69988Y80406D01*
X69260Y79457D01*
X68802Y78351D01*
X68712Y77665D01*
X72728D01*
Y81682D01*
D02*
G37*
G36*
X83071Y81533D02*
X81940Y81385D01*
X80887Y80948D01*
X79982Y80254D01*
X79288Y79349D01*
X78852Y78296D01*
X78703Y77165D01*
X78852Y76035D01*
X79288Y74981D01*
X79982Y74077D01*
X80887Y73383D01*
X81940Y72946D01*
X83071Y72797D01*
X84201Y72946D01*
X85255Y73383D01*
X86160Y74077D01*
X86854Y74981D01*
X87290Y76035D01*
X87439Y77165D01*
X87290Y78296D01*
X86854Y79349D01*
X86160Y80254D01*
X85255Y80948D01*
X84201Y81385D01*
X83071Y81533D01*
D02*
G37*
G36*
X139606Y84087D02*
X138630Y83959D01*
X137720Y83582D01*
X136939Y82982D01*
X136339Y82201D01*
X135962Y81291D01*
X135834Y80315D01*
X135962Y79339D01*
X136339Y78429D01*
X136939Y77648D01*
X137720Y77048D01*
X138630Y76671D01*
X139606Y76543D01*
X140583Y76671D01*
X141492Y77048D01*
X142274Y77648D01*
X142873Y78429D01*
X143250Y79339D01*
X143379Y80315D01*
X143250Y81291D01*
X142873Y82201D01*
X142274Y82982D01*
X141492Y83582D01*
X140583Y83959D01*
X139606Y84087D01*
D02*
G37*
G36*
X77745Y86665D02*
X73728D01*
Y82649D01*
X74414Y82739D01*
X75520Y83197D01*
X76469Y83925D01*
X77197Y84874D01*
X77655Y85979D01*
X77745Y86665D01*
D02*
G37*
G36*
X53543Y91533D02*
X52413Y91385D01*
X51359Y90948D01*
X50455Y90254D01*
X49760Y89349D01*
X49324Y88296D01*
X49175Y87165D01*
X49324Y86035D01*
X49760Y84981D01*
X50455Y84077D01*
X51359Y83382D01*
X52413Y82946D01*
X53543Y82797D01*
X54674Y82946D01*
X55727Y83382D01*
X56632Y84077D01*
X57326Y84981D01*
X57762Y86035D01*
X57911Y87165D01*
X57762Y88296D01*
X57326Y89349D01*
X56632Y90254D01*
X55727Y90948D01*
X54674Y91385D01*
X53543Y91533D01*
D02*
G37*
G36*
X73728Y81682D02*
Y77665D01*
X77745D01*
X77655Y78351D01*
X77197Y79457D01*
X76469Y80406D01*
X75520Y81134D01*
X74414Y81592D01*
X73728Y81682D01*
D02*
G37*
G36*
X72728Y86665D02*
X68712D01*
X68802Y85979D01*
X69260Y84874D01*
X69988Y83925D01*
X70937Y83197D01*
X72042Y82739D01*
X72728Y82649D01*
Y86665D01*
D02*
G37*
G36*
X139606Y74087D02*
X138630Y73959D01*
X137720Y73582D01*
X136939Y72983D01*
X136339Y72201D01*
X135962Y71291D01*
X135834Y70315D01*
X135962Y69339D01*
X136339Y68429D01*
X136939Y67647D01*
X137720Y67048D01*
X138630Y66671D01*
X139606Y66543D01*
X140583Y66671D01*
X141492Y67048D01*
X142274Y67647D01*
X142873Y68429D01*
X143250Y69339D01*
X143379Y70315D01*
X143250Y71291D01*
X142873Y72201D01*
X142274Y72983D01*
X141492Y73582D01*
X140583Y73959D01*
X139606Y74087D01*
D02*
G37*
G36*
X72728Y71603D02*
X72042Y71513D01*
X70937Y71055D01*
X69988Y70327D01*
X69260Y69378D01*
X68802Y68273D01*
X68712Y67587D01*
X72728D01*
Y71603D01*
D02*
G37*
G36*
X53543Y71455D02*
X52413Y71306D01*
X51359Y70869D01*
X50455Y70175D01*
X49760Y69271D01*
X49324Y68217D01*
X49175Y67087D01*
X49324Y65956D01*
X49760Y64903D01*
X50455Y63998D01*
X51359Y63304D01*
X52413Y62867D01*
X53543Y62718D01*
X54674Y62867D01*
X55727Y63304D01*
X56632Y63998D01*
X57326Y64903D01*
X57762Y65956D01*
X57911Y67087D01*
X57762Y68217D01*
X57326Y69271D01*
X56632Y70175D01*
X55727Y70869D01*
X54674Y71306D01*
X53543Y71455D01*
D02*
G37*
G36*
X83071D02*
X81940Y71306D01*
X80887Y70869D01*
X79982Y70175D01*
X79288Y69271D01*
X78852Y68217D01*
X78703Y67087D01*
X78852Y65956D01*
X79288Y64903D01*
X79982Y63998D01*
X80887Y63304D01*
X81940Y62867D01*
X83071Y62718D01*
X84201Y62867D01*
X85255Y63304D01*
X86160Y63998D01*
X86854Y64903D01*
X87290Y65956D01*
X87439Y67087D01*
X87290Y68217D01*
X86854Y69271D01*
X86160Y70175D01*
X85255Y70869D01*
X84201Y71306D01*
X83071Y71455D01*
D02*
G37*
G36*
X77745Y76665D02*
X73728D01*
Y72649D01*
X74414Y72739D01*
X75520Y73197D01*
X76469Y73925D01*
X77197Y74874D01*
X77655Y75979D01*
X77745Y76665D01*
D02*
G37*
G36*
X53543Y81533D02*
X52413Y81385D01*
X51359Y80948D01*
X50455Y80254D01*
X49760Y79349D01*
X49324Y78296D01*
X49175Y77165D01*
X49324Y76035D01*
X49760Y74981D01*
X50455Y74077D01*
X51359Y73383D01*
X52413Y72946D01*
X53543Y72797D01*
X54674Y72946D01*
X55727Y73383D01*
X56632Y74077D01*
X57326Y74981D01*
X57762Y76035D01*
X57911Y77165D01*
X57762Y78296D01*
X57326Y79349D01*
X56632Y80254D01*
X55727Y80948D01*
X54674Y81385D01*
X53543Y81533D01*
D02*
G37*
G36*
X73728Y71603D02*
Y67587D01*
X77745D01*
X77655Y68273D01*
X77197Y69378D01*
X76469Y70327D01*
X75520Y71055D01*
X74414Y71513D01*
X73728Y71603D01*
D02*
G37*
G36*
X72728Y76665D02*
X68712D01*
X68802Y75979D01*
X69260Y74874D01*
X69988Y73925D01*
X70937Y73197D01*
X72042Y72739D01*
X72728Y72649D01*
Y76665D01*
D02*
G37*
G36*
X531390Y231941D02*
X527770D01*
X527847Y231358D01*
X528265Y230348D01*
X528930Y229481D01*
X529797Y228816D01*
X530806Y228398D01*
X531390Y228321D01*
Y231941D01*
D02*
G37*
G36*
X536009D02*
X532390D01*
Y228321D01*
X532973Y228398D01*
X533983Y228816D01*
X534849Y229481D01*
X535514Y230348D01*
X535933Y231358D01*
X536009Y231941D01*
D02*
G37*
G36*
X535827Y226378D02*
X527953D01*
Y218504D01*
X535827D01*
Y226378D01*
D02*
G37*
G36*
X96693Y263221D02*
X95717Y263093D01*
X94807Y262716D01*
X94025Y262116D01*
X93426Y261335D01*
X93049Y260425D01*
X92921Y259449D01*
X93049Y258472D01*
X93426Y257563D01*
X94025Y256781D01*
X94807Y256182D01*
X94886Y256149D01*
Y251732D01*
X95024Y251041D01*
X95416Y250455D01*
X98981Y246890D01*
Y236616D01*
X98443Y236203D01*
X97916Y235516D01*
X97585Y234716D01*
X97472Y233858D01*
X97585Y233000D01*
X97916Y232200D01*
X98443Y231514D01*
X98587Y231403D01*
Y227710D01*
X98507Y227677D01*
X97872Y227189D01*
X29528D01*
X28808Y227094D01*
X28138Y226817D01*
X27562Y226375D01*
X27403Y226216D01*
X15748D01*
X15748Y226216D01*
X15057Y226078D01*
X14471Y225687D01*
X9176Y220392D01*
X8784Y219805D01*
X8646Y219114D01*
Y213828D01*
X8628Y213813D01*
X8217Y213279D01*
X7960Y212656D01*
X7872Y211988D01*
X7960Y211320D01*
X8217Y210698D01*
X8628Y210163D01*
X9162Y209753D01*
X9785Y209495D01*
X10453Y209407D01*
X11121Y209495D01*
X11743Y209753D01*
X12278Y210163D01*
X12688Y210698D01*
X12946Y211320D01*
X13034Y211988D01*
X12946Y212656D01*
X12688Y213279D01*
X12278Y213813D01*
X12259Y213828D01*
Y218366D01*
X16496Y222603D01*
X23137D01*
X23328Y222141D01*
X17719Y216532D01*
X17278Y215957D01*
X17000Y215286D01*
X16905Y214567D01*
Y181102D01*
X17000Y180383D01*
X17278Y179712D01*
X17719Y179137D01*
X19688Y177168D01*
X20264Y176727D01*
X20934Y176449D01*
X21654Y176354D01*
X88583D01*
X89302Y176449D01*
X89973Y176727D01*
X90548Y177168D01*
X90990Y177744D01*
X91268Y178414D01*
X91362Y179134D01*
X91336Y179333D01*
X96932Y184928D01*
X97135Y184773D01*
X97757Y184515D01*
X98425Y184427D01*
X99093Y184515D01*
X99716Y184773D01*
X100250Y185183D01*
X100661Y185717D01*
X100918Y186340D01*
X101006Y187008D01*
X100918Y187676D01*
X100661Y188298D01*
X100250Y188833D01*
X99716Y189243D01*
X99093Y189501D01*
X98425Y189589D01*
X97757Y189501D01*
X97135Y189243D01*
X96600Y188833D01*
X96586Y188814D01*
X96457D01*
X95765Y188677D01*
X95179Y188285D01*
X88782Y181887D01*
X88583Y181913D01*
X52987D01*
Y189105D01*
X53006Y189120D01*
X53416Y189654D01*
X53674Y190277D01*
X53762Y190945D01*
X53674Y191613D01*
X53416Y192235D01*
X53215Y192498D01*
X53461Y192998D01*
X81363D01*
X81529Y192750D01*
X82246Y192271D01*
X83091Y192103D01*
X83935Y192271D01*
X84652Y192750D01*
X84818Y192998D01*
X128843D01*
X129167Y192514D01*
X129884Y192035D01*
X130728Y191867D01*
X131573Y192035D01*
X132290Y192514D01*
X132768Y193230D01*
X132936Y194075D01*
X132773Y194893D01*
X153103Y215223D01*
X219023D01*
X239032Y195214D01*
X238973Y194921D01*
X239141Y194076D01*
X239620Y193360D01*
X240336Y192882D01*
X241181Y192713D01*
X242026Y192882D01*
X242742Y193360D01*
X243221Y194076D01*
X243389Y194921D01*
X243221Y195766D01*
X242742Y196482D01*
X242026Y196961D01*
X241181Y197129D01*
X240888Y197071D01*
X220495Y217464D01*
X220069Y217748D01*
X219567Y217848D01*
X152559D01*
X152057Y217748D01*
X151631Y217464D01*
X130381Y196213D01*
X129884Y196115D01*
X129167Y195636D01*
X129159Y195624D01*
X84818D01*
X84652Y195872D01*
X83935Y196351D01*
X83091Y196519D01*
X82246Y196351D01*
X81529Y195872D01*
X81363Y195624D01*
X36797D01*
X36298Y195957D01*
X35453Y196125D01*
X34608Y195957D01*
X33892Y195478D01*
X33413Y194762D01*
X33245Y193917D01*
X33413Y193072D01*
X33892Y192356D01*
X34608Y191878D01*
X35453Y191709D01*
X36298Y191878D01*
X37014Y192356D01*
X37443Y192998D01*
X48901D01*
X49148Y192498D01*
X48946Y192235D01*
X48688Y191613D01*
X48600Y190945D01*
X48688Y190277D01*
X48946Y189654D01*
X49356Y189120D01*
X49375Y189105D01*
Y181913D01*
X22805D01*
X22465Y182254D01*
Y213416D01*
X30679Y221630D01*
X97872D01*
X98507Y221142D01*
X99417Y220766D01*
X100394Y220637D01*
X144595D01*
X144786Y220175D01*
X139787Y215177D01*
X139764Y215180D01*
X139096Y215092D01*
X138473Y214834D01*
X137939Y214424D01*
X137529Y213889D01*
X137271Y213266D01*
X137183Y212598D01*
X137271Y211930D01*
X137529Y211308D01*
X137939Y210773D01*
X138473Y210363D01*
X139096Y210105D01*
X139764Y210017D01*
X140432Y210105D01*
X141054Y210363D01*
X141589Y210773D01*
X141999Y211308D01*
X142257Y211930D01*
X142345Y212598D01*
X142342Y212622D01*
X150357Y220637D01*
X236626D01*
X269271Y187992D01*
X259144Y177864D01*
X259143Y177864D01*
X258544Y177083D01*
X258167Y176173D01*
X258039Y175197D01*
X258167Y174221D01*
X258544Y173311D01*
X259143Y172529D01*
X259925Y171930D01*
X260835Y171553D01*
X261811Y171424D01*
X261811D01*
X262787Y171553D01*
X263697Y171930D01*
X264478Y172529D01*
X277274Y185325D01*
X277274Y185325D01*
X277274Y185325D01*
X279122Y187172D01*
X303513D01*
X303665Y186672D01*
X303557Y186600D01*
X303078Y185884D01*
X302910Y185039D01*
X303078Y184195D01*
X303557Y183478D01*
X303805Y183312D01*
Y164370D01*
X303905Y163868D01*
X304190Y163442D01*
X318954Y148678D01*
X319380Y148394D01*
X319882Y148294D01*
X372289D01*
X372455Y148045D01*
X373171Y147567D01*
X374016Y147398D01*
X374861Y147567D01*
X375577Y148045D01*
X376056Y148761D01*
X376223Y149606D01*
X376056Y150451D01*
X375577Y151167D01*
X375432Y151264D01*
Y151764D01*
X375758Y151982D01*
X376237Y152698D01*
X376405Y153543D01*
X376237Y154388D01*
X375758Y155104D01*
X375042Y155583D01*
X374197Y155751D01*
X373352Y155583D01*
X372636Y155104D01*
X372470Y154856D01*
X320426D01*
X311352Y163929D01*
Y178391D01*
X311600Y178557D01*
X312079Y179273D01*
X312247Y180118D01*
X312079Y180963D01*
X311600Y181679D01*
X310884Y182158D01*
X310039Y182326D01*
X309194Y182158D01*
X308478Y181679D01*
X308000Y180963D01*
X307832Y180118D01*
X308000Y179273D01*
X308478Y178557D01*
X308727Y178391D01*
Y163386D01*
X308742Y163310D01*
X308281Y163063D01*
X306431Y164914D01*
Y183312D01*
X306679Y183478D01*
X307158Y184195D01*
X307326Y185039D01*
X307158Y185884D01*
X306679Y186600D01*
X306572Y186672D01*
X306723Y187172D01*
X352306D01*
X352498Y186711D01*
X337726Y171939D01*
X337127Y171158D01*
X336750Y170248D01*
X336621Y169272D01*
X336750Y168295D01*
X337127Y167385D01*
X337726Y166604D01*
X338508Y166005D01*
X339417Y165628D01*
X340394Y165499D01*
X341370Y165628D01*
X342280Y166005D01*
X343061Y166604D01*
X364734Y188277D01*
X364735Y188277D01*
X382589Y206132D01*
X383188Y206913D01*
X383565Y207823D01*
X383694Y208799D01*
Y218778D01*
X383949Y219393D01*
X384091Y220472D01*
X383949Y221552D01*
X383532Y222557D01*
X382870Y223421D01*
X382006Y224083D01*
X381000Y224500D01*
X379921Y224642D01*
X378842Y224500D01*
X377836Y224083D01*
X376973Y223421D01*
X376310Y222557D01*
X375894Y221552D01*
X375752Y220472D01*
X375894Y219393D01*
X376149Y218778D01*
Y210362D01*
X360504Y194717D01*
X277559D01*
X276583Y194589D01*
X276050Y194368D01*
X275673Y194212D01*
X274892Y193612D01*
X274856Y193577D01*
X274356D01*
X240857Y227077D01*
X240075Y227677D01*
X239165Y228053D01*
X238189Y228182D01*
X102200D01*
Y230885D01*
X102445Y230987D01*
X103132Y231514D01*
X103659Y232200D01*
X103990Y233000D01*
X104103Y233858D01*
X103990Y234716D01*
X103659Y235516D01*
X103132Y236203D01*
X102594Y236616D01*
Y247638D01*
X102456Y248329D01*
X102065Y248915D01*
X98499Y252481D01*
Y256149D01*
X98579Y256182D01*
X99360Y256781D01*
X99960Y257563D01*
X100337Y258472D01*
X100465Y259449D01*
X100337Y260425D01*
X99960Y261335D01*
X99360Y262116D01*
X98579Y262716D01*
X97669Y263093D01*
X96693Y263221D01*
D02*
G37*
G36*
X532390Y236561D02*
Y232941D01*
X536009D01*
X535933Y233524D01*
X535514Y234534D01*
X534849Y235401D01*
X533983Y236066D01*
X532973Y236484D01*
X532390Y236561D01*
D02*
G37*
G36*
X497047Y267061D02*
X305118D01*
X304616Y266961D01*
X304190Y266676D01*
X298993Y261479D01*
X298709Y261053D01*
X298609Y260551D01*
Y211648D01*
X298360Y211482D01*
X297882Y210766D01*
X297713Y209921D01*
X297882Y209076D01*
X298360Y208360D01*
X299076Y207882D01*
X299921Y207714D01*
X300766Y207882D01*
X301482Y208360D01*
X301961Y209076D01*
X302129Y209921D01*
X301961Y210766D01*
X301482Y211482D01*
X301234Y211648D01*
Y260008D01*
X305662Y264435D01*
X496503D01*
X508136Y252803D01*
Y241732D01*
X505512D01*
Y234087D01*
X502254D01*
X502085Y234587D01*
X502408Y234836D01*
X503074Y235703D01*
X503492Y236712D01*
X503568Y237295D01*
X495329D01*
X495406Y236712D01*
X495824Y235703D01*
X496489Y234836D01*
X496813Y234587D01*
X496643Y234087D01*
X420030D01*
X419398Y234910D01*
X418329Y235731D01*
X417084Y236246D01*
X415748Y236422D01*
X414412Y236246D01*
X413167Y235731D01*
X412257Y235032D01*
X404488D01*
X403512Y234904D01*
X402602Y234527D01*
X401821Y233927D01*
X401221Y233146D01*
X400844Y232236D01*
X400716Y231260D01*
Y195748D01*
X400844Y194772D01*
X401221Y193862D01*
X401821Y193080D01*
X424755Y170146D01*
X424757Y170129D01*
X425194Y169076D01*
X425888Y168171D01*
X426792Y167477D01*
X427846Y167041D01*
X428976Y166892D01*
X430107Y167041D01*
X431160Y167477D01*
X432065Y168171D01*
X432759Y169076D01*
X433196Y170129D01*
X433344Y171260D01*
X433196Y172390D01*
X432759Y173444D01*
X432065Y174348D01*
X431160Y175043D01*
X430107Y175479D01*
X430090Y175481D01*
X408261Y197311D01*
Y227487D01*
X412257D01*
X413167Y226789D01*
X413792Y226530D01*
Y225989D01*
X413167Y225730D01*
X412098Y224910D01*
X411277Y223841D01*
X410762Y222596D01*
X410586Y221260D01*
X410762Y219924D01*
X411277Y218679D01*
X412098Y217610D01*
X413167Y216789D01*
X413563Y216625D01*
Y216125D01*
X413060Y215916D01*
X411946Y215062D01*
X411092Y213948D01*
X410555Y212651D01*
X410437Y211760D01*
X421059D01*
X420941Y212651D01*
X420404Y213948D01*
X419550Y215062D01*
X418436Y215916D01*
X417933Y216125D01*
Y216625D01*
X418329Y216789D01*
X419239Y217487D01*
X483477D01*
X491033Y209931D01*
X491815Y209331D01*
X492191Y209175D01*
X492724Y208955D01*
X493701Y208826D01*
X508039D01*
Y139764D01*
Y114173D01*
Y93812D01*
X501968D01*
X500992Y93683D01*
X500082Y93306D01*
X499301Y92707D01*
X498701Y91926D01*
X498325Y91016D01*
X498196Y90039D01*
X498325Y89063D01*
X498701Y88153D01*
X499301Y87372D01*
X500082Y86772D01*
X500992Y86396D01*
X501968Y86267D01*
X508039D01*
Y66929D01*
Y43307D01*
X508167Y42331D01*
X508544Y41421D01*
X509143Y40640D01*
X509925Y40040D01*
X510835Y39663D01*
X511811Y39535D01*
X535445D01*
X543090Y31890D01*
X530130Y18930D01*
X515583D01*
Y22835D01*
X515455Y23811D01*
X515078Y24721D01*
X514478Y25502D01*
X513697Y26102D01*
X512787Y26478D01*
X512515Y26514D01*
X512320Y26769D01*
X511744Y27210D01*
X511074Y27488D01*
X510354Y27583D01*
X509635Y27488D01*
X508964Y27210D01*
X508389Y26769D01*
X508025Y26294D01*
X507795Y26248D01*
X507677D01*
X507448Y26294D01*
X507084Y26769D01*
X506508Y27210D01*
X505837Y27488D01*
X505118Y27583D01*
X504399Y27488D01*
X503728Y27210D01*
X503153Y26769D01*
X502938Y26489D01*
X502864Y26459D01*
X502319Y26504D01*
X501999Y26920D01*
X501379Y27396D01*
X500657Y27695D01*
X500382Y27731D01*
Y22835D01*
X499882D01*
Y22335D01*
X496888D01*
Y20866D01*
X496990Y20091D01*
X497264Y19430D01*
X497083Y18951D01*
X497072Y18930D01*
X487910D01*
X487740Y19430D01*
X488005Y19633D01*
X488636Y20456D01*
X489033Y21413D01*
X489168Y22441D01*
X489033Y23469D01*
X488636Y24426D01*
X488005Y25249D01*
X487182Y25880D01*
X486225Y26277D01*
X485197Y26412D01*
X484169Y26277D01*
X483211Y25880D01*
X482389Y25249D01*
X481758Y24426D01*
X481361Y23469D01*
X481257Y22679D01*
X480733Y22496D01*
X479134Y24095D01*
Y26378D01*
X478969D01*
Y28740D01*
X478841Y29717D01*
X478464Y30626D01*
X477864Y31408D01*
X477083Y32007D01*
X476173Y32384D01*
X475197Y32513D01*
X178969D01*
Y44724D01*
X178841Y45701D01*
X178464Y46611D01*
X177864Y47392D01*
X165898Y59358D01*
Y107795D01*
X165770Y108772D01*
X165393Y109681D01*
X164794Y110463D01*
X152274Y122983D01*
X151493Y123582D01*
X150583Y123959D01*
X149606Y124087D01*
X148630Y123959D01*
X147720Y123582D01*
X146939Y122983D01*
X146339Y122201D01*
X145962Y121291D01*
X145834Y120315D01*
X145962Y119339D01*
X146339Y118429D01*
X146939Y117648D01*
X150053Y114533D01*
X149820Y114059D01*
X149606Y114087D01*
X148630Y113959D01*
X147720Y113582D01*
X146939Y112982D01*
X146339Y112201D01*
X145962Y111291D01*
X145834Y110315D01*
X145962Y109339D01*
X146339Y108429D01*
X146939Y107648D01*
X147720Y107048D01*
X148630Y106671D01*
X149606Y106543D01*
X150583Y106671D01*
X151493Y107048D01*
X152274Y107648D01*
X152873Y108429D01*
X153250Y109339D01*
X153379Y110315D01*
X153351Y110529D01*
X153824Y110762D01*
X158354Y106233D01*
Y67556D01*
X157892Y67365D01*
X152274Y72983D01*
X151493Y73582D01*
X150583Y73959D01*
X149606Y74087D01*
X148630Y73959D01*
X147720Y73582D01*
X146939Y72983D01*
X146339Y72201D01*
X145962Y71291D01*
X145834Y70315D01*
X145962Y69339D01*
X146339Y68429D01*
X146939Y67647D01*
X150053Y64533D01*
X149820Y64059D01*
X149606Y64087D01*
X148630Y63959D01*
X147720Y63582D01*
X146939Y62982D01*
X146339Y62201D01*
X145962Y61291D01*
X145834Y60315D01*
X145962Y59339D01*
X146339Y58429D01*
X146939Y57648D01*
X147720Y57048D01*
X148630Y56671D01*
X149606Y56542D01*
X150583Y56671D01*
X151493Y57048D01*
X152274Y57648D01*
X152873Y58429D01*
X153250Y59339D01*
X153379Y60315D01*
X153351Y60528D01*
X153824Y60762D01*
X159458Y55128D01*
X159458Y55128D01*
X171424Y43162D01*
Y32513D01*
X162744D01*
X149375Y45881D01*
X149526Y46187D01*
X149632Y46332D01*
X150638Y46464D01*
X151600Y46862D01*
X152425Y47496D01*
X153059Y48322D01*
X153457Y49283D01*
X153527Y49815D01*
X149606D01*
Y50315D01*
X149106D01*
Y54236D01*
X148574Y54166D01*
X147613Y53768D01*
X146787Y53134D01*
X146154Y52308D01*
X145755Y51347D01*
X145623Y50341D01*
X145478Y50235D01*
X145172Y50084D01*
X142274Y52982D01*
X141492Y53582D01*
X140583Y53959D01*
X139606Y54087D01*
X138630Y53959D01*
X137720Y53582D01*
X136939Y52982D01*
X136339Y52201D01*
X135962Y51291D01*
X135834Y50315D01*
X135962Y49339D01*
X136339Y48429D01*
X136939Y47648D01*
X158514Y26073D01*
X159295Y25473D01*
X159672Y25317D01*
X160205Y25096D01*
X161181Y24968D01*
X454015D01*
X454115Y24468D01*
X453656Y24278D01*
X452464Y23363D01*
X451549Y22170D01*
X450974Y20782D01*
X450777Y19291D01*
X450974Y17801D01*
X451549Y16412D01*
X452464Y15220D01*
X453656Y14305D01*
X455045Y13730D01*
X456535Y13533D01*
X458026Y13730D01*
X459414Y14305D01*
X460607Y15220D01*
X461522Y16412D01*
X462097Y17801D01*
X462293Y19291D01*
X462097Y20782D01*
X461522Y22170D01*
X460607Y23363D01*
X459414Y24278D01*
X458956Y24468D01*
X459055Y24968D01*
X471260D01*
Y18504D01*
X474055D01*
X480069Y12490D01*
X480851Y11891D01*
X481760Y11514D01*
X482737Y11385D01*
X531693D01*
X532669Y11514D01*
X533579Y11891D01*
X534360Y12490D01*
X549823Y27953D01*
X552362D01*
Y35827D01*
X549823D01*
X548176Y37474D01*
X548322Y37770D01*
X548437Y37920D01*
X549453Y38054D01*
X550411Y38451D01*
X551233Y39082D01*
X551864Y39904D01*
X552261Y40862D01*
X552396Y41890D01*
X552261Y42917D01*
X551864Y43875D01*
X551233Y44698D01*
X550411Y45329D01*
X549453Y45725D01*
X548425Y45861D01*
X547397Y45725D01*
X546440Y45329D01*
X545617Y44698D01*
X544986Y43875D01*
X544590Y42917D01*
X544456Y41901D01*
X544305Y41786D01*
X544009Y41640D01*
X539675Y45975D01*
X538894Y46574D01*
X537984Y46951D01*
X537008Y47080D01*
X515583D01*
Y63157D01*
X535839D01*
X544488Y54507D01*
Y51968D01*
X552362D01*
Y59842D01*
X549823D01*
X548176Y61490D01*
X548322Y61786D01*
X548437Y61936D01*
X549453Y62070D01*
X550411Y62467D01*
X551233Y63098D01*
X551864Y63920D01*
X552261Y64878D01*
X552396Y65905D01*
X552261Y66933D01*
X551864Y67891D01*
X551233Y68713D01*
X550411Y69345D01*
X549453Y69741D01*
X548425Y69876D01*
X547397Y69741D01*
X546440Y69345D01*
X545617Y68713D01*
X544986Y67891D01*
X544590Y66933D01*
X544456Y65917D01*
X544305Y65802D01*
X544009Y65656D01*
X540069Y69597D01*
X539288Y70196D01*
X538378Y70573D01*
X537402Y70701D01*
X515583D01*
Y84810D01*
X538201D01*
X544488Y78523D01*
Y75984D01*
X552362D01*
Y83858D01*
X549823D01*
X548176Y85506D01*
X548322Y85801D01*
X548437Y85952D01*
X549453Y86086D01*
X550411Y86482D01*
X551233Y87113D01*
X551864Y87936D01*
X552261Y88894D01*
X552396Y89921D01*
X552261Y90949D01*
X551864Y91907D01*
X551233Y92729D01*
X550411Y93360D01*
X549453Y93757D01*
X548425Y93892D01*
X547397Y93757D01*
X546440Y93360D01*
X545617Y92729D01*
X544986Y91907D01*
X544590Y90949D01*
X544456Y89933D01*
X544305Y89818D01*
X544009Y89672D01*
X542431Y91250D01*
X541650Y91850D01*
X540740Y92227D01*
X539764Y92355D01*
X515583D01*
Y110401D01*
X536626D01*
X544488Y102539D01*
Y100000D01*
X552362D01*
Y107874D01*
X549823D01*
X548176Y109521D01*
X548322Y109817D01*
X548437Y109968D01*
X549453Y110101D01*
X550411Y110498D01*
X551233Y111129D01*
X551864Y111951D01*
X552261Y112909D01*
X552396Y113937D01*
X552261Y114965D01*
X551864Y115922D01*
X551233Y116745D01*
X550411Y117376D01*
X549453Y117773D01*
X548425Y117908D01*
X547397Y117773D01*
X546440Y117376D01*
X545617Y116745D01*
X544986Y115922D01*
X544590Y114965D01*
X544456Y113949D01*
X544305Y113834D01*
X544009Y113688D01*
X540857Y116841D01*
X540075Y117440D01*
X539165Y117817D01*
X538189Y117946D01*
X515583D01*
Y135991D01*
X535052D01*
X544488Y126555D01*
Y124016D01*
X552362D01*
Y131890D01*
X549823D01*
X548176Y133537D01*
X548322Y133833D01*
X548437Y133983D01*
X549453Y134117D01*
X550411Y134514D01*
X551233Y135145D01*
X551864Y135967D01*
X552261Y136925D01*
X552396Y137953D01*
X552261Y138980D01*
X551864Y139938D01*
X551233Y140761D01*
X550411Y141392D01*
X549453Y141788D01*
X548425Y141924D01*
X547397Y141788D01*
X546440Y141392D01*
X545617Y140761D01*
X544986Y139938D01*
X544590Y138980D01*
X544456Y137964D01*
X544305Y137849D01*
X544009Y137704D01*
X539282Y142431D01*
X538500Y143031D01*
X537591Y143408D01*
X536614Y143536D01*
X515583D01*
Y208826D01*
X546666D01*
X549535Y205957D01*
Y201772D01*
X549663Y200795D01*
X550040Y199885D01*
X550640Y199104D01*
X551421Y198505D01*
X552331Y198128D01*
X553307Y197999D01*
X554284Y198128D01*
X555193Y198505D01*
X555975Y199104D01*
X556574Y199885D01*
X556951Y200795D01*
X557080Y201772D01*
Y207520D01*
X556951Y208496D01*
X556574Y209406D01*
X555975Y210187D01*
X550896Y215266D01*
X550114Y215865D01*
X549205Y216242D01*
X548228Y216371D01*
X495263D01*
X487707Y223927D01*
X486926Y224527D01*
X486016Y224904D01*
X485039Y225032D01*
X419239D01*
X418329Y225730D01*
X418159Y225801D01*
X418044Y226390D01*
X418199Y226542D01*
X515354D01*
X516331Y226671D01*
X517240Y227048D01*
X518022Y227647D01*
X532894Y242520D01*
X535433D01*
Y250394D01*
X527559D01*
Y247855D01*
X513886Y234181D01*
X513386Y234314D01*
Y241732D01*
X510761D01*
Y253346D01*
X510662Y253849D01*
X510377Y254275D01*
X497975Y266676D01*
X497550Y266961D01*
X497047Y267061D01*
D02*
G37*
G36*
X110433Y263189D02*
X102953D01*
Y255709D01*
X105971D01*
Y250000D01*
X106071Y249498D01*
X106355Y249072D01*
X114829Y240598D01*
Y236676D01*
X114484Y236533D01*
X113797Y236006D01*
X113270Y235319D01*
X112939Y234520D01*
X112826Y233661D01*
X112939Y232803D01*
X113270Y232003D01*
X113797Y231317D01*
X114484Y230790D01*
X115284Y230459D01*
X116142Y230346D01*
X117000Y230459D01*
X117800Y230790D01*
X118486Y231317D01*
X119013Y232003D01*
X119344Y232803D01*
X119457Y233661D01*
X119344Y234520D01*
X119013Y235319D01*
X118486Y236006D01*
X117800Y236533D01*
X117454Y236676D01*
Y241142D01*
X117354Y241644D01*
X117070Y242070D01*
X108596Y250544D01*
Y255709D01*
X110433D01*
Y263189D01*
D02*
G37*
G36*
X531390Y236561D02*
X530806Y236484D01*
X529797Y236066D01*
X528930Y235401D01*
X528265Y234534D01*
X527847Y233524D01*
X527770Y232941D01*
X531390D01*
Y236561D01*
D02*
G37*
G36*
X547260Y201272D02*
X543807D01*
Y197819D01*
X547260D01*
Y201272D01*
D02*
G37*
G36*
X542807Y205724D02*
X539354D01*
Y202272D01*
X542807D01*
Y205724D01*
D02*
G37*
G36*
X474409Y200166D02*
X473551Y200053D01*
X472752Y199722D01*
X472632Y199630D01*
X458661D01*
X457942Y199535D01*
X457272Y199258D01*
X456696Y198816D01*
X437011Y179131D01*
X436569Y178555D01*
X436291Y177885D01*
X436197Y177165D01*
Y174586D01*
X435888Y174348D01*
X435193Y173444D01*
X434757Y172390D01*
X434608Y171260D01*
X434757Y170129D01*
X435193Y169076D01*
X435888Y168171D01*
X436792Y167477D01*
X437846Y167041D01*
X438976Y166892D01*
X440107Y167041D01*
X441160Y167477D01*
X442065Y168171D01*
X442759Y169076D01*
X443196Y170129D01*
X443344Y171260D01*
X443196Y172390D01*
X442759Y173444D01*
X442065Y174348D01*
X441756Y174586D01*
Y176014D01*
X459813Y194071D01*
X472632D01*
X472752Y193979D01*
X473551Y193648D01*
X474409Y193535D01*
X475268Y193648D01*
X476067Y193979D01*
X476754Y194506D01*
X477281Y195193D01*
X477612Y195992D01*
X477725Y196850D01*
X477612Y197709D01*
X477281Y198508D01*
X476754Y199195D01*
X476067Y199722D01*
X475268Y200053D01*
X474409Y200166D01*
D02*
G37*
G36*
X542807Y201272D02*
X539354D01*
Y197819D01*
X542807D01*
Y201272D01*
D02*
G37*
G36*
X421059Y210760D02*
X416248D01*
Y205949D01*
X417140Y206066D01*
X418436Y206604D01*
X419550Y207458D01*
X420404Y208572D01*
X420941Y209868D01*
X421059Y210760D01*
D02*
G37*
G36*
X259842Y254176D02*
X258998Y254008D01*
X258281Y253530D01*
X257803Y252813D01*
X257635Y251969D01*
X257803Y251124D01*
X258281Y250407D01*
X258530Y250241D01*
Y219213D01*
Y216294D01*
X258281Y216128D01*
X257803Y215412D01*
X257635Y214567D01*
X257803Y213722D01*
X258281Y213006D01*
X258998Y212527D01*
X259842Y212359D01*
X260687Y212527D01*
X261404Y213006D01*
X261882Y213722D01*
X262050Y214567D01*
X261882Y215412D01*
X261404Y216128D01*
X261155Y216294D01*
Y219213D01*
Y250241D01*
X261404Y250407D01*
X261882Y251124D01*
X262050Y251969D01*
X261882Y252813D01*
X261404Y253530D01*
X260687Y254008D01*
X259842Y254176D01*
D02*
G37*
G36*
X547260Y205724D02*
X543807D01*
Y202272D01*
X547260D01*
Y205724D01*
D02*
G37*
G36*
X415248Y210760D02*
X410437D01*
X410555Y209868D01*
X411092Y208572D01*
X411946Y207458D01*
X413060Y206604D01*
X414356Y206066D01*
X415248Y205949D01*
Y210760D01*
D02*
G37*
G36*
X66693Y263221D02*
X65716Y263093D01*
X64807Y262716D01*
X64025Y262116D01*
X63426Y261335D01*
X63049Y260425D01*
X62920Y259449D01*
X63049Y258472D01*
X63426Y257563D01*
X64025Y256781D01*
X64807Y256182D01*
X65716Y255805D01*
X66693Y255676D01*
X67669Y255805D01*
X68579Y256182D01*
X69360Y256781D01*
X69960Y257563D01*
X70337Y258472D01*
X70465Y259449D01*
X70337Y260425D01*
X69960Y261335D01*
X69360Y262116D01*
X68579Y262716D01*
X67669Y263093D01*
X66693Y263221D01*
D02*
G37*
G36*
X76693D02*
X75717Y263093D01*
X74807Y262716D01*
X74025Y262116D01*
X73426Y261335D01*
X73049Y260425D01*
X72921Y259449D01*
X73049Y258472D01*
X73426Y257563D01*
X74025Y256781D01*
X74807Y256182D01*
X75717Y255805D01*
X76693Y255676D01*
X77669Y255805D01*
X78579Y256182D01*
X79360Y256781D01*
X79960Y257563D01*
X80337Y258472D01*
X80465Y259449D01*
X80337Y260425D01*
X79960Y261335D01*
X79360Y262116D01*
X78579Y262716D01*
X77669Y263093D01*
X76693Y263221D01*
D02*
G37*
G36*
X90614Y258949D02*
X87193D01*
Y255528D01*
X87725Y255598D01*
X88686Y255996D01*
X89512Y256630D01*
X90146Y257455D01*
X90544Y258417D01*
X90614Y258949D01*
D02*
G37*
G36*
X56693Y263221D02*
X55717Y263093D01*
X54807Y262716D01*
X54025Y262116D01*
X53426Y261335D01*
X53049Y260425D01*
X52921Y259449D01*
X53049Y258472D01*
X53426Y257563D01*
X54025Y256781D01*
X54807Y256182D01*
X55717Y255805D01*
X56693Y255676D01*
X57669Y255805D01*
X58579Y256182D01*
X59360Y256781D01*
X59960Y257563D01*
X60337Y258472D01*
X60465Y259449D01*
X60337Y260425D01*
X59960Y261335D01*
X59360Y262116D01*
X58579Y262716D01*
X57669Y263093D01*
X56693Y263221D01*
D02*
G37*
G36*
X86193Y263370D02*
X85661Y263300D01*
X84699Y262901D01*
X83874Y262268D01*
X83240Y261442D01*
X82842Y260481D01*
X82772Y259949D01*
X86193D01*
Y263370D01*
D02*
G37*
G36*
X87193D02*
Y259949D01*
X90614D01*
X90544Y260481D01*
X90146Y261442D01*
X89512Y262268D01*
X88686Y262901D01*
X87725Y263300D01*
X87193Y263370D01*
D02*
G37*
G36*
X12598Y268750D02*
X11108Y268554D01*
X9719Y267979D01*
X8527Y267064D01*
X7612Y265871D01*
X7037Y264482D01*
X6841Y262992D01*
X7037Y261502D01*
X7612Y260113D01*
X8527Y258921D01*
X9719Y258006D01*
X11108Y257430D01*
X12598Y257234D01*
X14089Y257430D01*
X15477Y258006D01*
X16670Y258921D01*
X17585Y260113D01*
X18160Y261502D01*
X18356Y262992D01*
X18160Y264482D01*
X17585Y265871D01*
X16670Y267064D01*
X15477Y267979D01*
X14089Y268554D01*
X12598Y268750D01*
D02*
G37*
G36*
X558268D02*
X556777Y268554D01*
X555389Y267979D01*
X554196Y267064D01*
X553281Y265871D01*
X552706Y264482D01*
X552510Y262992D01*
X552706Y261502D01*
X553281Y260113D01*
X554196Y258921D01*
X555389Y258006D01*
X556777Y257430D01*
X558268Y257234D01*
X559758Y257430D01*
X561147Y258006D01*
X562339Y258921D01*
X563254Y260113D01*
X563829Y261502D01*
X564026Y262992D01*
X563829Y264482D01*
X563254Y265871D01*
X562339Y267064D01*
X561147Y267979D01*
X559758Y268554D01*
X558268Y268750D01*
D02*
G37*
G36*
X472416Y240563D02*
X468020D01*
Y238069D01*
X469488D01*
X470263Y238171D01*
X470985Y238470D01*
X471605Y238946D01*
X472081Y239566D01*
X472380Y240288D01*
X472416Y240563D01*
D02*
G37*
G36*
X498949Y241915D02*
X498366Y241838D01*
X497356Y241420D01*
X496489Y240755D01*
X495824Y239888D01*
X495406Y238878D01*
X495329Y238295D01*
X498949D01*
Y241915D01*
D02*
G37*
G36*
X456693Y242365D02*
X455848Y242197D01*
X455132Y241719D01*
X454966Y241470D01*
X340551D01*
X340049Y241370D01*
X339623Y241086D01*
X304574Y206037D01*
X280937D01*
X267346Y219628D01*
X267405Y219921D01*
X267237Y220766D01*
X266758Y221482D01*
X266042Y221961D01*
X265197Y222129D01*
X264352Y221961D01*
X263636Y221482D01*
X263157Y220766D01*
X262989Y219921D01*
X263157Y219076D01*
X263636Y218360D01*
X264352Y217882D01*
X265197Y217713D01*
X265490Y217772D01*
X279466Y203796D01*
X279891Y203512D01*
X280394Y203412D01*
X305118D01*
X305620Y203512D01*
X306046Y203796D01*
X341095Y238845D01*
X454966D01*
X455132Y238596D01*
X455848Y238118D01*
X456693Y237950D01*
X457538Y238118D01*
X458254Y238596D01*
X458733Y239313D01*
X458901Y240158D01*
X458733Y241002D01*
X458254Y241719D01*
X457538Y242197D01*
X456693Y242365D01*
D02*
G37*
G36*
X467020Y240563D02*
X462623D01*
X462659Y240288D01*
X462958Y239566D01*
X463434Y238946D01*
X464054Y238470D01*
X464776Y238171D01*
X465551Y238069D01*
X467020D01*
Y240563D01*
D02*
G37*
G36*
X531496Y260428D02*
X530468Y260292D01*
X529511Y259896D01*
X528688Y259265D01*
X528057Y258442D01*
X527660Y257485D01*
X527525Y256457D01*
X527660Y255429D01*
X528057Y254471D01*
X528688Y253649D01*
X529511Y253018D01*
X530468Y252621D01*
X531496Y252486D01*
X532524Y252621D01*
X533482Y253018D01*
X534304Y253649D01*
X534935Y254471D01*
X535332Y255429D01*
X535467Y256457D01*
X535332Y257485D01*
X534935Y258442D01*
X534304Y259265D01*
X533482Y259896D01*
X532524Y260292D01*
X531496Y260428D01*
D02*
G37*
G36*
X86193Y258949D02*
X82772D01*
X82842Y258417D01*
X83240Y257455D01*
X83874Y256630D01*
X84699Y255996D01*
X85661Y255598D01*
X86193Y255528D01*
Y258949D01*
D02*
G37*
G36*
X499949Y241915D02*
Y238295D01*
X503568D01*
X503492Y238878D01*
X503074Y239888D01*
X502408Y240755D01*
X501542Y241420D01*
X500532Y241838D01*
X499949Y241915D01*
D02*
G37*
G36*
X469488Y253843D02*
X465551D01*
X464832Y253748D01*
X464161Y253470D01*
X463586Y253028D01*
X463144Y252453D01*
X462866Y251782D01*
X462772Y251063D01*
X462866Y250344D01*
X463144Y249673D01*
X463586Y249097D01*
X463878Y248873D01*
Y248253D01*
X463586Y248028D01*
X463144Y247453D01*
X462866Y246782D01*
X462772Y246063D01*
X462866Y245344D01*
X463144Y244673D01*
X463586Y244097D01*
X463697Y244012D01*
Y243382D01*
X463434Y243180D01*
X462958Y242560D01*
X462659Y241838D01*
X462623Y241563D01*
X472416D01*
X472380Y241838D01*
X472081Y242560D01*
X471605Y243180D01*
X471343Y243382D01*
Y244012D01*
X471454Y244097D01*
X471896Y244673D01*
X472173Y245344D01*
X472268Y246063D01*
X472173Y246782D01*
X471896Y247453D01*
X471454Y248028D01*
X471161Y248253D01*
Y248873D01*
X471454Y249097D01*
X471896Y249673D01*
X472173Y250344D01*
X472268Y251063D01*
X472173Y251782D01*
X471896Y252453D01*
X471454Y253028D01*
X470878Y253470D01*
X470208Y253748D01*
X469488Y253843D01*
D02*
G37*
G36*
X206299Y194709D02*
X205580Y194614D01*
X204909Y194336D01*
X204334Y193895D01*
X203892Y193319D01*
X203614Y192649D01*
X203520Y191929D01*
X203614Y191210D01*
X203892Y190539D01*
X204334Y189964D01*
X204909Y189522D01*
X205580Y189244D01*
X206299Y189149D01*
X207019Y189244D01*
X207689Y189522D01*
X208265Y189964D01*
X208706Y190539D01*
X208984Y191210D01*
X209079Y191929D01*
X208984Y192649D01*
X208706Y193319D01*
X208265Y193895D01*
X207689Y194336D01*
X207019Y194614D01*
X206299Y194709D01*
D02*
G37*
G36*
X53543Y151533D02*
X52413Y151385D01*
X51359Y150948D01*
X50455Y150254D01*
X49760Y149349D01*
X49324Y148296D01*
X49175Y147165D01*
X49324Y146035D01*
X49760Y144981D01*
X50455Y144077D01*
X51359Y143383D01*
X52413Y142946D01*
X53543Y142797D01*
X54674Y142946D01*
X55727Y143383D01*
X56632Y144077D01*
X57326Y144981D01*
X57762Y146035D01*
X57911Y147165D01*
X57762Y148296D01*
X57326Y149349D01*
X56632Y150254D01*
X55727Y150948D01*
X54674Y151385D01*
X53543Y151533D01*
D02*
G37*
G36*
X83071D02*
X81940Y151385D01*
X80887Y150948D01*
X79982Y150254D01*
X79288Y149349D01*
X78852Y148296D01*
X78703Y147165D01*
X78852Y146035D01*
X79288Y144981D01*
X79982Y144077D01*
X80887Y143383D01*
X81940Y142946D01*
X83071Y142797D01*
X84201Y142946D01*
X85255Y143383D01*
X86160Y144077D01*
X86854Y144981D01*
X87290Y146035D01*
X87439Y147165D01*
X87290Y148296D01*
X86854Y149349D01*
X86160Y150254D01*
X85255Y150948D01*
X84201Y151385D01*
X83071Y151533D01*
D02*
G37*
G36*
X72728Y146665D02*
X68712D01*
X68802Y145979D01*
X69260Y144874D01*
X69988Y143925D01*
X70937Y143197D01*
X72042Y142739D01*
X72728Y142649D01*
Y146665D01*
D02*
G37*
G36*
X77745D02*
X73728D01*
Y142649D01*
X74414Y142739D01*
X75520Y143197D01*
X76469Y143925D01*
X77197Y144874D01*
X77655Y145979D01*
X77745Y146665D01*
D02*
G37*
G36*
X494095Y155751D02*
X493250Y155583D01*
X492533Y155104D01*
X492367Y154856D01*
X451772D01*
X451269Y154756D01*
X451099Y154642D01*
X450843Y154472D01*
X423669Y127297D01*
X346215D01*
X346049Y127545D01*
X345333Y128024D01*
X344488Y128192D01*
X343643Y128024D01*
X342927Y127545D01*
X342448Y126829D01*
X342280Y125984D01*
X342448Y125139D01*
X342927Y124423D01*
X343643Y123944D01*
X344488Y123776D01*
X345333Y123944D01*
X346049Y124423D01*
X346215Y124672D01*
X424213D01*
X424289Y124687D01*
X424535Y124226D01*
X419732Y119423D01*
X346215D01*
X346049Y119671D01*
X345333Y120150D01*
X344488Y120318D01*
X343643Y120150D01*
X342927Y119671D01*
X342448Y118955D01*
X342280Y118110D01*
X342448Y117265D01*
X342927Y116549D01*
X343643Y116070D01*
X344488Y115902D01*
X345333Y116070D01*
X346049Y116549D01*
X346215Y116798D01*
X420276D01*
X420778Y116897D01*
X421204Y117182D01*
X434377Y130355D01*
X434837Y130109D01*
X434800Y129921D01*
X434968Y129076D01*
X435447Y128360D01*
X436163Y127882D01*
X437008Y127714D01*
X437853Y127882D01*
X438569Y128360D01*
X438735Y128609D01*
X498273D01*
X498439Y128360D01*
X499155Y127882D01*
X500000Y127714D01*
X500845Y127882D01*
X501561Y128360D01*
X502040Y129076D01*
X502208Y129921D01*
X502040Y130766D01*
X501561Y131482D01*
X500845Y131961D01*
X500000Y132129D01*
X499155Y131961D01*
X498439Y131482D01*
X498273Y131234D01*
X438735D01*
X438569Y131482D01*
X437853Y131961D01*
X437008Y132129D01*
X436821Y132092D01*
X436574Y132553D01*
X438536Y134514D01*
X498273D01*
X498439Y134266D01*
X499155Y133787D01*
X500000Y133619D01*
X500845Y133787D01*
X501561Y134266D01*
X502040Y134982D01*
X502208Y135827D01*
X502040Y136672D01*
X501561Y137388D01*
X500845Y137866D01*
X500000Y138034D01*
X499155Y137866D01*
X498439Y137388D01*
X498273Y137139D01*
X457254D01*
X457221Y137639D01*
X458026Y137745D01*
X459414Y138321D01*
X460607Y139236D01*
X461522Y140428D01*
X462097Y141817D01*
X462293Y143307D01*
X462097Y144797D01*
X461522Y146186D01*
X460607Y147379D01*
X459414Y148294D01*
X458026Y148869D01*
X456535Y149065D01*
X455045Y148869D01*
X453656Y148294D01*
X452464Y147379D01*
X451549Y146186D01*
X450974Y144797D01*
X450777Y143307D01*
X450974Y141817D01*
X451549Y140428D01*
X452464Y139236D01*
X453656Y138321D01*
X455045Y137745D01*
X455850Y137639D01*
X455817Y137139D01*
X437992D01*
X437916Y137124D01*
X437670Y137585D01*
X452315Y152231D01*
X492367D01*
X492533Y151982D01*
X493250Y151504D01*
X494095Y151336D01*
X494939Y151504D01*
X495656Y151982D01*
X496134Y152698D01*
X496302Y153543D01*
X496134Y154388D01*
X495656Y155104D01*
X494939Y155583D01*
X494095Y155751D01*
D02*
G37*
G36*
X350394Y162448D02*
X349571Y162340D01*
X348805Y162023D01*
X348147Y161518D01*
X347642Y160860D01*
X347325Y160094D01*
X347217Y159272D01*
X347325Y158449D01*
X347642Y157683D01*
X348147Y157025D01*
X348805Y156520D01*
X349571Y156203D01*
X350394Y156095D01*
X351216Y156203D01*
X351982Y156520D01*
X352640Y157025D01*
X353145Y157683D01*
X353462Y158449D01*
X353571Y159272D01*
X353462Y160094D01*
X353145Y160860D01*
X352640Y161518D01*
X351982Y162023D01*
X351216Y162340D01*
X350394Y162448D01*
D02*
G37*
G36*
X72728Y151682D02*
X72042Y151592D01*
X70937Y151134D01*
X69988Y150406D01*
X69260Y149457D01*
X68802Y148351D01*
X68712Y147665D01*
X72728D01*
Y151682D01*
D02*
G37*
G36*
X73728D02*
Y147665D01*
X77745D01*
X77655Y148351D01*
X77197Y149457D01*
X76469Y150406D01*
X75520Y151134D01*
X74414Y151592D01*
X73728Y151682D01*
D02*
G37*
G36*
X77745Y136665D02*
X73728D01*
Y132649D01*
X74414Y132739D01*
X75520Y133197D01*
X76469Y133925D01*
X77197Y134874D01*
X77655Y135979D01*
X77745Y136665D01*
D02*
G37*
G36*
X53543Y141533D02*
X52413Y141385D01*
X51359Y140948D01*
X50455Y140254D01*
X49760Y139349D01*
X49324Y138296D01*
X49175Y137165D01*
X49324Y136035D01*
X49760Y134981D01*
X50455Y134077D01*
X51359Y133382D01*
X52413Y132946D01*
X53543Y132797D01*
X54674Y132946D01*
X55727Y133382D01*
X56632Y134077D01*
X57326Y134981D01*
X57762Y136035D01*
X57911Y137165D01*
X57762Y138296D01*
X57326Y139349D01*
X56632Y140254D01*
X55727Y140948D01*
X54674Y141385D01*
X53543Y141533D01*
D02*
G37*
G36*
X73728Y131682D02*
Y127665D01*
X77745D01*
X77655Y128351D01*
X77197Y129457D01*
X76469Y130406D01*
X75520Y131134D01*
X74414Y131592D01*
X73728Y131682D01*
D02*
G37*
G36*
X72728Y136665D02*
X68712D01*
X68802Y135979D01*
X69260Y134874D01*
X69988Y133925D01*
X70937Y133197D01*
X72042Y132739D01*
X72728Y132649D01*
Y136665D01*
D02*
G37*
G36*
Y141682D02*
X72042Y141592D01*
X70937Y141134D01*
X69988Y140406D01*
X69260Y139457D01*
X68802Y138351D01*
X68712Y137665D01*
X72728D01*
Y141682D01*
D02*
G37*
G36*
X73728D02*
Y137665D01*
X77745D01*
X77655Y138351D01*
X77197Y139457D01*
X76469Y140406D01*
X75520Y141134D01*
X74414Y141592D01*
X73728Y141682D01*
D02*
G37*
G36*
X83071Y141533D02*
X81940Y141385D01*
X80887Y140948D01*
X79982Y140254D01*
X79288Y139349D01*
X78852Y138296D01*
X78703Y137165D01*
X78852Y136035D01*
X79288Y134981D01*
X79982Y134077D01*
X80887Y133382D01*
X81940Y132946D01*
X83071Y132797D01*
X84201Y132946D01*
X85255Y133382D01*
X86160Y134077D01*
X86854Y134981D01*
X87290Y136035D01*
X87439Y137165D01*
X87290Y138296D01*
X86854Y139349D01*
X86160Y140254D01*
X85255Y140948D01*
X84201Y141385D01*
X83071Y141533D01*
D02*
G37*
G36*
X139606Y149065D02*
X138116Y148869D01*
X136727Y148294D01*
X135535Y147379D01*
X134620Y146186D01*
X134045Y144797D01*
X133848Y143307D01*
X134045Y141817D01*
X134620Y140428D01*
X135535Y139236D01*
X136727Y138321D01*
X138116Y137745D01*
X139606Y137549D01*
X141097Y137745D01*
X142485Y138321D01*
X143678Y139236D01*
X144593Y140428D01*
X145168Y141817D01*
X145364Y143307D01*
X145168Y144797D01*
X144593Y146186D01*
X143678Y147379D01*
X142485Y148294D01*
X141097Y148869D01*
X139606Y149065D01*
D02*
G37*
G36*
X449476Y175777D02*
Y171760D01*
X453493D01*
X453403Y172446D01*
X452945Y173551D01*
X452217Y174500D01*
X451268Y175228D01*
X450162Y175686D01*
X449476Y175777D01*
D02*
G37*
G36*
X543307Y185544D02*
X542331Y185415D01*
X541421Y185039D01*
X540640Y184439D01*
X540040Y183658D01*
X539663Y182748D01*
X539535Y181772D01*
X539663Y180795D01*
X540040Y179885D01*
X540640Y179104D01*
X541421Y178505D01*
X542331Y178128D01*
X543307Y177999D01*
X544283Y178128D01*
X545193Y178505D01*
X545975Y179104D01*
X546574Y179885D01*
X546951Y180795D01*
X547080Y181772D01*
X546951Y182748D01*
X546574Y183658D01*
X545975Y184439D01*
X545193Y185039D01*
X544283Y185415D01*
X543307Y185544D01*
D02*
G37*
G36*
X360894Y172597D02*
Y169772D01*
X363719D01*
X363669Y170149D01*
X363331Y170967D01*
X362792Y171670D01*
X362089Y172208D01*
X361271Y172547D01*
X360894Y172597D01*
D02*
G37*
G36*
X448476Y175777D02*
X447790Y175686D01*
X446685Y175228D01*
X445736Y174500D01*
X445008Y173551D01*
X444550Y172446D01*
X444460Y171760D01*
X448476D01*
Y175777D01*
D02*
G37*
G36*
X543307Y195544D02*
X542331Y195415D01*
X541421Y195039D01*
X540640Y194439D01*
X540040Y193658D01*
X539663Y192748D01*
X539535Y191772D01*
X539663Y190795D01*
X540040Y189885D01*
X540640Y189104D01*
X541421Y188505D01*
X542331Y188128D01*
X543307Y187999D01*
X544283Y188128D01*
X545193Y188505D01*
X545975Y189104D01*
X546574Y189885D01*
X546951Y190795D01*
X547080Y191772D01*
X546951Y192748D01*
X546574Y193658D01*
X545975Y194439D01*
X545193Y195039D01*
X544283Y195415D01*
X543307Y195544D01*
D02*
G37*
G36*
X553307D02*
X552331Y195415D01*
X551421Y195039D01*
X550640Y194439D01*
X550040Y193658D01*
X549663Y192748D01*
X549535Y191772D01*
X549663Y190795D01*
X550040Y189885D01*
X550640Y189104D01*
X551421Y188505D01*
X552331Y188128D01*
X553307Y187999D01*
X554284Y188128D01*
X555193Y188505D01*
X555975Y189104D01*
X556574Y189885D01*
X556951Y190795D01*
X557080Y191772D01*
X556951Y192748D01*
X556574Y193658D01*
X555975Y194439D01*
X555193Y195039D01*
X554284Y195415D01*
X553307Y195544D01*
D02*
G37*
G36*
Y185544D02*
X552331Y185415D01*
X551421Y185039D01*
X550640Y184439D01*
X550040Y183658D01*
X549663Y182748D01*
X549535Y181772D01*
X549663Y180795D01*
X550040Y179885D01*
X550640Y179104D01*
X551421Y178505D01*
X552331Y178128D01*
X553307Y177999D01*
X554284Y178128D01*
X555193Y178505D01*
X555975Y179104D01*
X556574Y179885D01*
X556951Y180795D01*
X557080Y181772D01*
X556951Y182748D01*
X556574Y183658D01*
X555975Y184439D01*
X555193Y185039D01*
X554284Y185415D01*
X553307Y185544D01*
D02*
G37*
G36*
X206299Y186835D02*
X205580Y186740D01*
X204909Y186462D01*
X204334Y186021D01*
X203892Y185445D01*
X203614Y184774D01*
X203520Y184055D01*
X203614Y183336D01*
X203892Y182665D01*
X204334Y182090D01*
X204909Y181648D01*
X205580Y181370D01*
X206299Y181275D01*
X207019Y181370D01*
X207689Y181648D01*
X208265Y182090D01*
X208706Y182665D01*
X208984Y183336D01*
X209079Y184055D01*
X208984Y184774D01*
X208706Y185445D01*
X208265Y186021D01*
X207689Y186462D01*
X207019Y186740D01*
X206299Y186835D01*
D02*
G37*
G36*
X363719Y168772D02*
X360894D01*
Y165946D01*
X361271Y165996D01*
X362089Y166335D01*
X362792Y166874D01*
X363331Y167576D01*
X363669Y168394D01*
X363719Y168772D01*
D02*
G37*
G36*
X448476Y170760D02*
X444460D01*
X444550Y170074D01*
X445008Y168969D01*
X445736Y168019D01*
X446685Y167291D01*
X447790Y166833D01*
X448476Y166743D01*
Y170760D01*
D02*
G37*
G36*
X237205Y172483D02*
X236360Y172315D01*
X235644Y171837D01*
X235165Y171121D01*
X234997Y170276D01*
X235165Y169431D01*
X235644Y168714D01*
X235892Y168548D01*
Y166882D01*
X228937Y159927D01*
X228586Y159966D01*
X228343Y160461D01*
X228418Y160572D01*
X228586Y161417D01*
X228418Y162262D01*
X227939Y162978D01*
X227223Y163457D01*
X226378Y163625D01*
X225533Y163457D01*
X224817Y162978D01*
X224651Y162730D01*
X136811D01*
X136309Y162630D01*
X135883Y162346D01*
X120725Y147188D01*
X120441Y146762D01*
X120341Y146260D01*
Y28892D01*
X120092Y28727D01*
X119614Y28010D01*
X119446Y27165D01*
X119614Y26320D01*
X120092Y25604D01*
X120809Y25126D01*
X121653Y24958D01*
X122498Y25126D01*
X123187Y25586D01*
X123476Y25525D01*
X123687Y25461D01*
Y20229D01*
X122046Y18587D01*
X121260Y18743D01*
X120415Y18575D01*
X119699Y18097D01*
X119220Y17380D01*
X119052Y16535D01*
X119220Y15690D01*
X119699Y14974D01*
X120415Y14496D01*
X121260Y14328D01*
X122105Y14496D01*
X122821Y14974D01*
X123300Y15690D01*
X123408Y16237D01*
X125194Y18023D01*
X125656Y17831D01*
Y16882D01*
X121553Y12779D01*
X121260Y12838D01*
X120415Y12670D01*
X119699Y12191D01*
X119220Y11475D01*
X119052Y10630D01*
X119220Y9785D01*
X119699Y9069D01*
X120415Y8590D01*
X121260Y8422D01*
X122105Y8590D01*
X122821Y9069D01*
X123300Y9785D01*
X123468Y10630D01*
X123409Y10923D01*
X127897Y15410D01*
X128181Y15836D01*
X128281Y16339D01*
Y145126D01*
X138059Y154904D01*
X230035D01*
X230538Y155004D01*
X230963Y155288D01*
X239717Y164042D01*
X242367D01*
X242533Y163793D01*
X243250Y163315D01*
X244094Y163147D01*
X244939Y163315D01*
X245656Y163793D01*
X246134Y164509D01*
X246302Y165354D01*
X246134Y166199D01*
X245656Y166916D01*
X244939Y167394D01*
X244094Y167562D01*
X243250Y167394D01*
X242533Y166916D01*
X242367Y166667D01*
X239173D01*
X239017Y166636D01*
X238517Y167020D01*
Y168548D01*
X238766Y168714D01*
X239244Y169431D01*
X239412Y170276D01*
X239244Y171121D01*
X238766Y171837D01*
X238050Y172315D01*
X237205Y172483D01*
D02*
G37*
G36*
X359894Y168772D02*
X357068D01*
X357118Y168394D01*
X357457Y167576D01*
X357996Y166874D01*
X358698Y166335D01*
X359516Y165996D01*
X359894Y165946D01*
Y168772D01*
D02*
G37*
G36*
X553307Y175544D02*
X552331Y175416D01*
X551421Y175039D01*
X550640Y174439D01*
X550040Y173658D01*
X549663Y172748D01*
X549535Y171772D01*
X549663Y170795D01*
X550040Y169885D01*
X550640Y169104D01*
X551421Y168505D01*
X552331Y168128D01*
X553307Y167999D01*
X554284Y168128D01*
X555193Y168505D01*
X555975Y169104D01*
X556574Y169885D01*
X556951Y170795D01*
X557080Y171772D01*
X556951Y172748D01*
X556574Y173658D01*
X555975Y174439D01*
X555193Y175039D01*
X554284Y175416D01*
X553307Y175544D01*
D02*
G37*
G36*
X359894Y172597D02*
X359516Y172547D01*
X358698Y172208D01*
X357996Y171670D01*
X357457Y170967D01*
X357118Y170149D01*
X357068Y169772D01*
X359894D01*
Y172597D01*
D02*
G37*
G36*
X453493Y170760D02*
X449476D01*
Y166743D01*
X450162Y166833D01*
X451268Y167291D01*
X452217Y168019D01*
X452945Y168969D01*
X453403Y170074D01*
X453493Y170760D01*
D02*
G37*
G36*
X543307Y175544D02*
X542331Y175416D01*
X541421Y175039D01*
X540640Y174439D01*
X540040Y173658D01*
X539663Y172748D01*
X539535Y171772D01*
X539663Y170795D01*
X540040Y169885D01*
X540640Y169104D01*
X541421Y168505D01*
X542331Y168128D01*
X543307Y167999D01*
X544283Y168128D01*
X545193Y168505D01*
X545975Y169104D01*
X546574Y169885D01*
X546951Y170795D01*
X547080Y171772D01*
X546951Y172748D01*
X546574Y173658D01*
X545975Y174439D01*
X545193Y175039D01*
X544283Y175416D01*
X543307Y175544D01*
D02*
G37*
%LPD*%
D19*
X34862Y194311D02*
X83091D01*
X107283Y250000D02*
Y258858D01*
X106693Y259449D02*
X107283Y258858D01*
X219567Y216535D02*
X241181Y194921D01*
X152559Y216535D02*
X219567D01*
X130728Y194705D02*
X152559Y216535D01*
X130728Y194075D02*
Y194311D01*
Y194705D01*
X83091Y194311D02*
X130728D01*
X121260Y16535D02*
X121850D01*
X125000Y19685D01*
X229331Y158465D02*
X237205Y166339D01*
Y170276D01*
X239173Y165354D02*
X244094D01*
X230035Y156216D02*
X239173Y165354D01*
X137516Y156216D02*
X230035D01*
X121653Y27165D02*
Y146260D01*
X136811Y161417D01*
X226378D01*
X125000Y19685D02*
Y146653D01*
X136811Y158465D01*
X229331D01*
X126969Y145669D02*
X137516Y156216D01*
X126969Y16339D02*
Y145669D01*
X121260Y10630D02*
X126969Y16339D01*
X344488Y118110D02*
X420276D01*
X437992Y135827D01*
X500000D01*
X344488Y125984D02*
X424213D01*
X451772Y153543D01*
X494095D01*
X437008Y129921D02*
X500000D01*
X319882Y149606D02*
X374016D01*
X305118Y164370D02*
X319882Y149606D01*
X305118Y164370D02*
Y185039D01*
X319882Y153543D02*
X374197D01*
X310039Y163386D02*
X319882Y153543D01*
X310039Y163386D02*
Y180118D01*
X299921Y209921D02*
Y260551D01*
X305118Y265748D01*
X497047D01*
X509449Y253346D01*
Y237795D02*
Y253346D01*
X107283Y250000D02*
X116142Y241142D01*
Y233661D02*
Y241142D01*
X259842Y219213D02*
Y251969D01*
Y214567D02*
Y219213D01*
X265197Y219921D02*
X280394Y204724D01*
X305118D01*
X340551Y240158D01*
X456693D01*
X282044Y277593D02*
G03*
X282549Y285299I-514J3903D01*
G01*
X296764Y285399D02*
G03*
X296259Y277693I514J-3903D01*
G01*
X148108Y285399D02*
G03*
X147603Y277693I514J-3903D01*
G01*
X133388Y277593D02*
G03*
X133893Y285299I-514J3903D01*
G01*
X148108Y277593D02*
X282010D01*
X148108Y285399D02*
X282456D01*
X-0Y277559D02*
X34Y277593D01*
X133388D01*
X34449Y285433D02*
X133800D01*
X14764Y305118D02*
X34449Y285433D01*
X14764Y305118D02*
X34449Y324803D01*
X314961D01*
Y364173D01*
X34449D02*
X314961D01*
X14764Y383858D02*
X34449Y364173D01*
X14764Y383858D02*
X36417Y405512D01*
X393701D01*
Y285433D02*
Y405512D01*
X393667Y285399D02*
X393701Y285433D01*
X296730Y285399D02*
X393667D01*
X296730Y277593D02*
X393667D01*
X393701Y277559D01*
Y275590D02*
Y277559D01*
Y275590D02*
X570866D01*
X570866Y275590D01*
Y0D02*
Y275590D01*
X78740Y0D02*
X570866D01*
X-0Y78740D02*
X78740Y0D01*
X-0Y78740D02*
Y277559D01*
D21*
X509842Y15157D02*
Y17517D01*
X510827Y18502D01*
Y22835D01*
X19685Y214567D02*
X29528Y224409D01*
X19685Y181102D02*
Y214567D01*
Y181102D02*
X21654Y179134D01*
X29528Y224409D02*
X100394D01*
X21654Y179134D02*
X51181D01*
X88583D01*
X438976Y171260D02*
Y177165D01*
X458661Y196850D01*
X474409D01*
D22*
X415748Y221260D02*
X485039D01*
X493701Y212598D01*
X475453Y22441D02*
X482737Y15157D01*
X475197Y22441D02*
X475453D01*
X482737Y15157D02*
X509842D01*
X139606Y50315D02*
X161181Y28740D01*
X175197D01*
X162126Y57795D02*
Y107795D01*
X149606Y120315D02*
X162126Y107795D01*
X149606Y70315D02*
X162126Y57795D01*
X175197Y44724D01*
X509842Y15157D02*
X531693D01*
X175197Y28740D02*
Y44724D01*
X277559Y190945D02*
X362067D01*
X261811Y175197D02*
X261811D01*
X238189Y224409D02*
X274606Y187992D01*
X261811Y175197D02*
X274606Y187992D01*
X277559Y190945D01*
X100394Y224409D02*
X151575D01*
X238189D01*
X515354Y230315D02*
X531496Y246457D01*
X340394Y169272D02*
X362067Y190945D01*
X379921Y208799D01*
Y220472D01*
X404488Y231260D02*
X415748D01*
Y230315D02*
X515354D01*
X404488Y195748D02*
Y231260D01*
Y195748D02*
X428976Y171260D01*
X493701Y212598D02*
X511811D01*
X531693Y15157D02*
X548425Y31890D01*
X175197Y28740D02*
X475197D01*
Y22441D02*
Y28740D01*
X537008Y43307D02*
X548425Y31890D01*
X511811Y43307D02*
X537008D01*
X511811Y15157D02*
Y22835D01*
X537402Y66929D02*
X548425Y55905D01*
X511811Y66929D02*
X537402D01*
X511811Y43307D02*
Y66929D01*
X539764Y88583D02*
X548425Y79921D01*
X511811Y88583D02*
X539764D01*
X511811Y66929D02*
Y88583D01*
X538189Y114173D02*
X548425Y103937D01*
X511811Y114173D02*
X538189D01*
X511811Y88583D02*
Y114173D01*
X536614Y139764D02*
X548425Y127953D01*
X511811Y139764D02*
X536614D01*
X511811Y114173D02*
Y139764D01*
Y212598D01*
X510354Y90039D02*
X511811Y88583D01*
X501968Y90039D02*
X510354D01*
X511811Y212598D02*
X548228D01*
X553307Y207520D01*
Y201772D02*
Y207520D01*
X350394Y384842D02*
X365158Y370079D01*
X314961Y384842D02*
X350394D01*
X314961Y304134D02*
X352362D01*
X365158Y316929D01*
Y340551D01*
Y350551D02*
Y370079D01*
D23*
X100787Y233858D02*
Y247638D01*
X96693Y251732D02*
X100787Y247638D01*
X96693Y251732D02*
Y259449D01*
X10453Y211988D02*
Y219114D01*
X15748Y224410D01*
X15748Y224409D01*
X100394D02*
Y233465D01*
X15748Y224409D02*
X29528D01*
X139764Y212598D02*
X139764D01*
X151575Y224409D01*
X51181Y179134D02*
Y190945D01*
X88583Y179134D02*
X96457Y187008D01*
X98425D01*
D26*
X41339Y385827D02*
X314961D01*
X43307Y304134D02*
X314961D01*
D27*
X53543Y57087D02*
D03*
Y67087D02*
D03*
Y77165D02*
D03*
Y87165D02*
D03*
Y117165D02*
D03*
Y127165D02*
D03*
Y97165D02*
D03*
Y107165D02*
D03*
Y137165D02*
D03*
Y147165D02*
D03*
X83071Y57087D02*
D03*
Y67087D02*
D03*
Y77165D02*
D03*
Y87165D02*
D03*
Y117165D02*
D03*
Y127165D02*
D03*
Y97165D02*
D03*
Y107165D02*
D03*
Y137165D02*
D03*
Y147165D02*
D03*
X73228D02*
D03*
Y137165D02*
D03*
Y107165D02*
D03*
Y97165D02*
D03*
Y127165D02*
D03*
Y117165D02*
D03*
Y87165D02*
D03*
Y77165D02*
D03*
Y67087D02*
D03*
Y57087D02*
D03*
X438976Y171260D02*
D03*
X428976D02*
D03*
X448976D02*
D03*
D28*
X139606Y19291D02*
D03*
X456535D02*
D03*
Y143307D02*
D03*
X139606D02*
D03*
X558268Y12598D02*
D03*
Y262992D02*
D03*
X12598D02*
D03*
X66929Y31496D02*
D03*
D29*
X149606Y120315D02*
D03*
Y110315D02*
D03*
X139606Y60315D02*
D03*
Y70315D02*
D03*
Y80315D02*
D03*
Y90315D02*
D03*
Y50315D02*
D03*
Y110315D02*
D03*
Y120315D02*
D03*
Y100315D02*
D03*
X149606D02*
D03*
Y90315D02*
D03*
Y80315D02*
D03*
Y70315D02*
D03*
Y60315D02*
D03*
Y50315D02*
D03*
X56693Y259449D02*
D03*
X66693D02*
D03*
X76693D02*
D03*
X86693D02*
D03*
X96693D02*
D03*
X553307Y201772D02*
D03*
X543307Y191772D02*
D03*
X553307D02*
D03*
X543307Y181772D02*
D03*
X553307D02*
D03*
X543307Y171772D02*
D03*
X553307D02*
D03*
D30*
X415748Y221260D02*
D03*
Y231260D02*
D03*
Y211260D02*
D03*
D31*
X467520Y241063D02*
D03*
Y246063D02*
D03*
D32*
Y251063D02*
D03*
D33*
X548425Y127953D02*
D03*
Y103937D02*
D03*
Y79921D02*
D03*
X548425Y31890D02*
D03*
Y55905D02*
D03*
X531496Y246457D02*
D03*
X531890Y222441D02*
D03*
X365158Y340551D02*
D03*
D34*
X548425Y137953D02*
D03*
Y113937D02*
D03*
Y89921D02*
D03*
X548425Y41890D02*
D03*
Y65905D02*
D03*
X485197Y22441D02*
D03*
X499449Y237795D02*
D03*
X531496Y256457D02*
D03*
X531890Y232441D02*
D03*
X365158Y350551D02*
D03*
D35*
X475197Y22441D02*
D03*
X509449Y237795D02*
D03*
D36*
X106693Y259449D02*
D03*
D37*
X340394Y169272D02*
D03*
X350394Y159272D02*
D03*
X360394Y169272D02*
D03*
D38*
X145669Y286417D02*
D03*
X142388D02*
D03*
X139108D02*
D03*
X135827D02*
D03*
Y276575D02*
D03*
X139108D02*
D03*
X142388D02*
D03*
X145669D02*
D03*
X294291D02*
D03*
X291010D02*
D03*
X287730D02*
D03*
X284449D02*
D03*
Y286417D02*
D03*
X287730D02*
D03*
X291010D02*
D03*
X294291D02*
D03*
D39*
X543307Y201772D02*
D03*
D40*
X510354Y22835D02*
D03*
X505118D02*
D03*
X499882D02*
D03*
D41*
X92126Y26772D02*
D03*
Y21654D02*
D03*
Y16535D02*
D03*
Y11417D02*
D03*
D42*
X206299Y191929D02*
D03*
Y184055D02*
D03*
D43*
X494095Y153543D02*
D03*
X121653Y27165D02*
D03*
X121260Y16535D02*
D03*
Y10630D02*
D03*
X437008Y129921D02*
D03*
X344488Y118110D02*
D03*
Y125984D02*
D03*
X500000Y129921D02*
D03*
Y135827D02*
D03*
X374197Y153543D02*
D03*
X374016Y149606D02*
D03*
X305118Y185039D02*
D03*
X83091Y194311D02*
D03*
X35453Y193917D02*
D03*
X130728Y194075D02*
D03*
X241181Y194921D02*
D03*
X299921Y209921D02*
D03*
X226378Y161417D02*
D03*
X244094Y165354D02*
D03*
X237205Y170276D02*
D03*
X310039Y180118D02*
D03*
X259842Y214567D02*
D03*
Y251969D02*
D03*
X265197Y219921D02*
D03*
X456693Y240158D02*
D03*
D44*
X100787Y233858D02*
D03*
X241535Y206299D02*
D03*
X310039Y228346D02*
D03*
X73090Y190217D02*
D03*
X120728Y189311D02*
D03*
X25453Y189961D02*
D03*
X453740Y88583D02*
D03*
X403543Y258858D02*
D03*
X29724Y231102D02*
D03*
X72835Y212598D02*
D03*
X116142Y233661D02*
D03*
X478346Y37402D02*
D03*
X261811Y175197D02*
D03*
X307087Y198819D02*
D03*
X192913Y171260D02*
D03*
X173228D02*
D03*
X171260Y206693D02*
D03*
X192913D02*
D03*
X159449Y188976D02*
D03*
X474409Y196850D02*
D03*
X501968Y64961D02*
D03*
X531496Y29528D02*
D03*
X531496Y55118D02*
D03*
X531496Y78740D02*
D03*
Y102362D02*
D03*
Y125984D02*
D03*
X501968Y90039D02*
D03*
D45*
X10453Y211988D02*
D03*
X139764Y212598D02*
D03*
X51181Y190945D02*
D03*
X98425Y187008D02*
D03*
D46*
X379921Y220472D02*
D03*
M02*
