%FSLAX25Y25*%
%MOIN*%
G70*
G01*
G75*
G04 Layer_Color=12632256*
%ADD10R,0.12992X0.09449*%
%ADD11R,0.02362X0.06102*%
%ADD12R,0.03937X0.04331*%
%ADD13R,0.04331X0.03937*%
%ADD14R,0.07874X0.02362*%
%ADD15R,0.24016X0.40000*%
%ADD16R,0.09449X0.12992*%
%ADD17R,0.11811X0.09055*%
%ADD18R,0.07874X0.02756*%
%ADD19C,0.01000*%
%ADD20C,0.05906*%
%ADD21C,0.27559*%
%ADD22C,0.01575*%
%ADD23C,0.01969*%
%ADD24C,0.02756*%
%ADD25C,0.03937*%
%ADD26C,0.07874*%
%ADD27C,0.06299*%
%ADD28R,0.06299X0.06299*%
%ADD29O,0.07874X0.04331*%
%ADD30O,0.03937X0.07874*%
%ADD31C,0.05906*%
%ADD32R,0.05906X0.05906*%
%ADD33C,0.01969*%
%ADD34C,0.04724*%
%ADD35C,0.09843*%
%ADD36R,0.06299X0.06299*%
%ADD37R,0.05906X0.05906*%
%ADD38O,0.07874X0.03937*%
%ADD39O,0.07874X0.03937*%
%ADD40C,0.08661*%
%ADD41C,0.07087*%
%ADD42O,0.05906X0.02953*%
%ADD43C,0.05000*%
%ADD44C,0.03543*%
%ADD45C,0.02756*%
%ADD46C,0.06693*%
%ADD47C,0.00787*%
%ADD48C,0.00394*%
%ADD49C,0.00800*%
%ADD50C,0.00591*%
%ADD51R,0.13792X0.10249*%
%ADD52R,0.03162X0.06902*%
%ADD53R,0.04737X0.05131*%
%ADD54R,0.05131X0.04737*%
%ADD55R,0.08674X0.03162*%
%ADD56R,0.24816X0.40800*%
%ADD57R,0.10249X0.13792*%
%ADD58R,0.12611X0.09855*%
%ADD59R,0.08674X0.03556*%
%ADD60C,0.07099*%
%ADD61R,0.07099X0.07099*%
%ADD62O,0.08674X0.05131*%
%ADD63O,0.04737X0.08674*%
%ADD64C,0.06706*%
%ADD65R,0.06706X0.06706*%
%ADD66C,0.02769*%
%ADD67C,0.05524*%
%ADD68C,0.10642*%
%ADD69R,0.07099X0.07099*%
%ADD70R,0.06706X0.06706*%
%ADD71O,0.08674X0.04737*%
%ADD72O,0.08674X0.04737*%
%ADD73C,0.09461*%
%ADD74C,0.07887*%
%ADD75O,0.06706X0.03753*%
%ADD76C,0.05800*%
%ADD77C,0.04343*%
%ADD78C,0.03556*%
%ADD79C,0.07493*%
D19*
X133388Y277593D02*
G03*
X133893Y285299I-514J3903D01*
G01*
X148108Y285399D02*
G03*
X147603Y277693I514J-3903D01*
G01*
X296764Y285399D02*
G03*
X296259Y277693I514J-3903D01*
G01*
X282044Y277593D02*
G03*
X282549Y285299I-514J3903D01*
G01*
X-0Y78740D02*
Y277559D01*
Y78740D02*
X78740Y0D01*
X570866D01*
Y275590D01*
X570866Y275590D02*
X570866Y275590D01*
X393701Y275590D02*
X570866D01*
X393701D02*
Y277559D01*
X393667Y277593D02*
X393701Y277559D01*
X296730Y277593D02*
X393667D01*
X296730Y285399D02*
X393667D01*
X393701Y285433D01*
Y405512D01*
X36417D02*
X393701D01*
X14764Y383858D02*
X36417Y405512D01*
X14764Y383858D02*
X34449Y364173D01*
X314961D01*
Y324803D02*
Y364173D01*
X34449Y324803D02*
X314961D01*
X14764Y305118D02*
X34449Y324803D01*
X14764Y305118D02*
X34449Y285433D01*
X133800D01*
X34Y277593D02*
X133388D01*
X-0Y277559D02*
X34Y277593D01*
X148108Y285399D02*
X282456D01*
X148108Y277593D02*
X282010D01*
D27*
X365158Y350551D02*
D03*
X531890Y232441D02*
D03*
X531496Y256457D02*
D03*
X499449Y237795D02*
D03*
X485197Y22441D02*
D03*
X548425Y65905D02*
D03*
Y41890D02*
D03*
X548425Y89921D02*
D03*
Y113937D02*
D03*
Y137953D02*
D03*
D28*
X365158Y340551D02*
D03*
X531890Y222441D02*
D03*
X531496Y246457D02*
D03*
X548425Y55905D02*
D03*
Y31890D02*
D03*
X548425Y79921D02*
D03*
Y103937D02*
D03*
Y127953D02*
D03*
D29*
X92126Y11417D02*
D03*
Y16535D02*
D03*
Y21654D02*
D03*
Y26772D02*
D03*
D30*
X499882Y22835D02*
D03*
X505118D02*
D03*
X510354D02*
D03*
D31*
X553307Y171772D02*
D03*
X543307D02*
D03*
X553307Y181772D02*
D03*
X543307D02*
D03*
X553307Y191772D02*
D03*
X543307D02*
D03*
X553307Y201772D02*
D03*
X96693Y259449D02*
D03*
X86693D02*
D03*
X76693D02*
D03*
X66693D02*
D03*
X56693D02*
D03*
X149606Y50315D02*
D03*
Y60315D02*
D03*
Y70315D02*
D03*
Y80315D02*
D03*
Y90315D02*
D03*
Y100315D02*
D03*
X139606D02*
D03*
Y120315D02*
D03*
Y110315D02*
D03*
Y50315D02*
D03*
Y90315D02*
D03*
Y80315D02*
D03*
Y70315D02*
D03*
Y60315D02*
D03*
X149606Y110315D02*
D03*
Y120315D02*
D03*
D32*
X543307Y201772D02*
D03*
D33*
X294291Y286417D02*
D03*
X291010D02*
D03*
X287730D02*
D03*
X284449D02*
D03*
Y276575D02*
D03*
X287730D02*
D03*
X291010D02*
D03*
X294291D02*
D03*
X145669D02*
D03*
X142388D02*
D03*
X139108D02*
D03*
X135827D02*
D03*
Y286417D02*
D03*
X139108D02*
D03*
X142388D02*
D03*
X145669D02*
D03*
D34*
X360394Y169272D02*
D03*
X350394Y159272D02*
D03*
X340394Y169272D02*
D03*
D35*
X66929Y31496D02*
D03*
X12598Y262992D02*
D03*
X558268D02*
D03*
Y12598D02*
D03*
X139606Y143307D02*
D03*
X456535D02*
D03*
Y19291D02*
D03*
X139606D02*
D03*
D36*
X509449Y237795D02*
D03*
X475197Y22441D02*
D03*
D37*
X106693Y259449D02*
D03*
D38*
X467520Y251063D02*
D03*
D39*
Y246063D02*
D03*
Y241063D02*
D03*
D40*
X415748Y211260D02*
D03*
Y231260D02*
D03*
Y221260D02*
D03*
D41*
X448976Y171260D02*
D03*
X428976D02*
D03*
X438976D02*
D03*
X73228Y57087D02*
D03*
Y67087D02*
D03*
Y77165D02*
D03*
Y87165D02*
D03*
Y117165D02*
D03*
Y127165D02*
D03*
Y97165D02*
D03*
Y107165D02*
D03*
Y137165D02*
D03*
Y147165D02*
D03*
X83071D02*
D03*
Y137165D02*
D03*
Y107165D02*
D03*
Y97165D02*
D03*
Y127165D02*
D03*
Y117165D02*
D03*
Y87165D02*
D03*
Y77165D02*
D03*
Y67087D02*
D03*
Y57087D02*
D03*
X53543Y147165D02*
D03*
Y137165D02*
D03*
Y107165D02*
D03*
Y97165D02*
D03*
Y127165D02*
D03*
Y117165D02*
D03*
Y87165D02*
D03*
Y77165D02*
D03*
Y67087D02*
D03*
Y57087D02*
D03*
D42*
X206299Y190000D02*
D03*
Y185787D02*
D03*
M02*
