%FSLAX25Y25*%
%MOIN*%
G70*
G01*
G75*
G04 Layer_Color=2752767*
%ADD10R,0.03937X0.04331*%
%ADD11R,0.04331X0.03937*%
%ADD12R,0.11811X0.09055*%
%ADD13R,0.07874X0.02756*%
%ADD14R,0.09449X0.12992*%
%ADD15R,0.24016X0.40000*%
%ADD16R,0.12992X0.09449*%
%ADD17R,0.07874X0.02362*%
%ADD18R,0.02362X0.06102*%
%ADD19C,0.01000*%
%ADD20C,0.02756*%
%ADD21C,0.03937*%
%ADD22C,0.05906*%
%ADD23C,0.01969*%
%ADD24C,0.07874*%
%ADD25C,0.01575*%
%ADD26C,0.27559*%
%ADD27C,0.07087*%
%ADD28C,0.09843*%
%ADD29C,0.05906*%
%ADD30C,0.08661*%
%ADD31O,0.07874X0.03937*%
%ADD32O,0.07874X0.03937*%
%ADD33R,0.06299X0.06299*%
%ADD34C,0.06299*%
%ADD35R,0.06299X0.06299*%
%ADD36R,0.05906X0.05906*%
%ADD37C,0.04724*%
%ADD38C,0.01969*%
%ADD39R,0.05906X0.05906*%
%ADD40O,0.03937X0.07874*%
%ADD41O,0.07874X0.04331*%
%ADD42C,0.03937*%
%ADD43C,0.02756*%
%ADD44C,0.05000*%
%ADD45C,0.03543*%
%ADD46C,0.06693*%
%ADD47C,0.00394*%
%ADD48C,0.00787*%
%ADD49C,0.00591*%
%ADD50C,0.00800*%
%ADD51R,0.04737X0.05131*%
%ADD52R,0.05131X0.04737*%
%ADD53R,0.12611X0.09855*%
%ADD54R,0.08674X0.03556*%
%ADD55R,0.10249X0.13792*%
%ADD56R,0.24816X0.40800*%
%ADD57R,0.13792X0.10249*%
%ADD58R,0.08674X0.03162*%
%ADD59R,0.03162X0.06902*%
%ADD60C,0.07887*%
%ADD61C,0.10642*%
%ADD62C,0.06706*%
%ADD63C,0.09461*%
%ADD64O,0.08674X0.04737*%
%ADD65O,0.08674X0.04737*%
%ADD66R,0.07099X0.07099*%
%ADD67C,0.07099*%
%ADD68R,0.07099X0.07099*%
%ADD69R,0.06706X0.06706*%
%ADD70C,0.05524*%
%ADD71C,0.02769*%
%ADD72R,0.06706X0.06706*%
%ADD73O,0.04737X0.08674*%
%ADD74O,0.08674X0.05131*%
%ADD75C,0.04737*%
%ADD76C,0.03556*%
%ADD77C,0.05800*%
%ADD78C,0.04343*%
%ADD79C,0.07493*%
%ADD80C,0.00333*%
%ADD81C,0.01500*%
%ADD82C,0.01600*%
D19*
X282044Y277593D02*
G03*
X282549Y285299I-514J3903D01*
G01*
X296764Y285399D02*
G03*
X296259Y277693I514J-3903D01*
G01*
X148108Y285399D02*
G03*
X147603Y277693I514J-3903D01*
G01*
X133388Y277593D02*
G03*
X133893Y285299I-514J3903D01*
G01*
X148108Y277593D02*
X282010D01*
X148108Y285399D02*
X282456D01*
X-0Y277559D02*
X34Y277593D01*
X133388D01*
X34449Y285433D02*
X133800D01*
X14764Y305118D02*
X34449Y285433D01*
X14764Y305118D02*
X34449Y324803D01*
X314961D01*
Y364173D01*
X34449D02*
X314961D01*
X14764Y383858D02*
X34449Y364173D01*
X14764Y383858D02*
X36417Y405512D01*
X393701D01*
Y285433D02*
Y405512D01*
X393667Y285399D02*
X393701Y285433D01*
X296730Y285399D02*
X393667D01*
X296730Y277593D02*
X393667D01*
X393701Y277559D01*
Y275590D02*
Y277559D01*
Y275590D02*
X570866D01*
X570866Y275590D01*
Y0D02*
Y275590D01*
X78740Y0D02*
X570866D01*
X-0Y78740D02*
X78740Y0D01*
X-0Y78740D02*
Y277559D01*
X972449Y249252D02*
Y255250D01*
X975448D01*
X976448Y254250D01*
Y252251D01*
X975448Y251251D01*
X972449D01*
X974448D02*
X976448Y249252D01*
X979447D02*
X981446D01*
X982446Y250252D01*
Y252251D01*
X981446Y253251D01*
X979447D01*
X978447Y252251D01*
Y250252D01*
X979447Y249252D01*
X984445Y253251D02*
Y250252D01*
X985445Y249252D01*
X988444D01*
Y253251D01*
X990443Y249252D02*
Y253251D01*
X993442D01*
X994442Y252251D01*
Y249252D01*
X1000440Y255250D02*
Y249252D01*
X997441D01*
X996441Y250252D01*
Y252251D01*
X997441Y253251D01*
X1000440D01*
X972449Y234252D02*
Y240250D01*
X975448D01*
X976448Y239250D01*
Y237251D01*
X975448Y236251D01*
X972449D01*
X974448D02*
X976448Y234252D01*
X979447D02*
X981446D01*
X982446Y235252D01*
Y237251D01*
X981446Y238251D01*
X979447D01*
X978447Y237251D01*
Y235252D01*
X979447Y234252D01*
X984445Y238251D02*
Y235252D01*
X985445Y234252D01*
X988444D01*
Y238251D01*
X990443Y234252D02*
Y238251D01*
X993442D01*
X994442Y237251D01*
Y234252D01*
X1000440Y240250D02*
Y234252D01*
X997441D01*
X996441Y235252D01*
Y237251D01*
X997441Y238251D01*
X1000440D01*
X972449Y219252D02*
Y225250D01*
X975448D01*
X976448Y224250D01*
Y222251D01*
X975448Y221251D01*
X972449D01*
X974448D02*
X976448Y219252D01*
X979447D02*
X981446D01*
X982446Y220252D01*
Y222251D01*
X981446Y223251D01*
X979447D01*
X978447Y222251D01*
Y220252D01*
X979447Y219252D01*
X984445Y223251D02*
Y220252D01*
X985445Y219252D01*
X988444D01*
Y223251D01*
X990443Y219252D02*
Y223251D01*
X993442D01*
X994442Y222251D01*
Y219252D01*
X1000440Y225250D02*
Y219252D01*
X997441D01*
X996441Y220252D01*
Y222251D01*
X997441Y223251D01*
X1000440D01*
X972449Y204252D02*
Y210250D01*
X975448D01*
X976448Y209250D01*
Y207251D01*
X975448Y206251D01*
X972449D01*
X974448D02*
X976448Y204252D01*
X979447D02*
X981446D01*
X982446Y205252D01*
Y207251D01*
X981446Y208251D01*
X979447D01*
X978447Y207251D01*
Y205252D01*
X979447Y204252D01*
X984445Y208251D02*
Y205252D01*
X985445Y204252D01*
X988444D01*
Y208251D01*
X990443Y204252D02*
Y208251D01*
X993442D01*
X994442Y207251D01*
Y204252D01*
X1000440Y210250D02*
Y204252D01*
X997441D01*
X996441Y205252D01*
Y207251D01*
X997441Y208251D01*
X1000440D01*
X972449Y189252D02*
Y195250D01*
X975448D01*
X976448Y194250D01*
Y192251D01*
X975448Y191251D01*
X972449D01*
X974448D02*
X976448Y189252D01*
X979447D02*
X981446D01*
X982446Y190252D01*
Y192251D01*
X981446Y193251D01*
X979447D01*
X978447Y192251D01*
Y190252D01*
X979447Y189252D01*
X984445Y193251D02*
Y190252D01*
X985445Y189252D01*
X988444D01*
Y193251D01*
X990443Y189252D02*
Y193251D01*
X993442D01*
X994442Y192251D01*
Y189252D01*
X1000440Y195250D02*
Y189252D01*
X997441D01*
X996441Y190252D01*
Y192251D01*
X997441Y193251D01*
X1000440D01*
X972449Y174252D02*
Y180250D01*
X975448D01*
X976448Y179250D01*
Y177251D01*
X975448Y176251D01*
X972449D01*
X974448D02*
X976448Y174252D01*
X979447D02*
X981446D01*
X982446Y175252D01*
Y177251D01*
X981446Y178251D01*
X979447D01*
X978447Y177251D01*
Y175252D01*
X979447Y174252D01*
X984445Y178251D02*
Y175252D01*
X985445Y174252D01*
X988444D01*
Y178251D01*
X990443Y174252D02*
Y178251D01*
X993442D01*
X994442Y177251D01*
Y174252D01*
X1000440Y180250D02*
Y174252D01*
X997441D01*
X996441Y175252D01*
Y177251D01*
X997441Y178251D01*
X1000440D01*
X972449Y159252D02*
Y165250D01*
X975448D01*
X976448Y164250D01*
Y162251D01*
X975448Y161251D01*
X972449D01*
X974448D02*
X976448Y159252D01*
X979447D02*
X981446D01*
X982446Y160252D01*
Y162251D01*
X981446Y163251D01*
X979447D01*
X978447Y162251D01*
Y160252D01*
X979447Y159252D01*
X984445Y163251D02*
Y160252D01*
X985445Y159252D01*
X988444D01*
Y163251D01*
X990443Y159252D02*
Y163251D01*
X993442D01*
X994442Y162251D01*
Y159252D01*
X1000440Y165250D02*
Y159252D01*
X997441D01*
X996441Y160252D01*
Y162251D01*
X997441Y163251D01*
X1000440D01*
X972449Y144252D02*
Y150250D01*
X975448D01*
X976448Y149250D01*
Y147251D01*
X975448Y146251D01*
X972449D01*
X974448D02*
X976448Y144252D01*
X979447D02*
X981446D01*
X982446Y145252D01*
Y147251D01*
X981446Y148251D01*
X979447D01*
X978447Y147251D01*
Y145252D01*
X979447Y144252D01*
X984445Y148251D02*
Y145252D01*
X985445Y144252D01*
X988444D01*
Y148251D01*
X990443Y144252D02*
Y148251D01*
X993442D01*
X994442Y147251D01*
Y144252D01*
X1000440Y150250D02*
Y144252D01*
X997441D01*
X996441Y145252D01*
Y147251D01*
X997441Y148251D01*
X1000440D01*
X972449Y129252D02*
Y135250D01*
X975448D01*
X976448Y134250D01*
Y132251D01*
X975448Y131251D01*
X972449D01*
X974448D02*
X976448Y129252D01*
X979447D02*
X981446D01*
X982446Y130252D01*
Y132251D01*
X981446Y133251D01*
X979447D01*
X978447Y132251D01*
Y130252D01*
X979447Y129252D01*
X984445Y133251D02*
Y130252D01*
X985445Y129252D01*
X988444D01*
Y133251D01*
X990443Y129252D02*
Y133251D01*
X993442D01*
X994442Y132251D01*
Y129252D01*
X1000440Y135250D02*
Y129252D01*
X997441D01*
X996441Y130252D01*
Y132251D01*
X997441Y133251D01*
X1000440D01*
X972449Y114252D02*
Y120250D01*
X975448D01*
X976448Y119250D01*
Y117251D01*
X975448Y116251D01*
X972449D01*
X974448D02*
X976448Y114252D01*
X979447D02*
X981446D01*
X982446Y115252D01*
Y117251D01*
X981446Y118251D01*
X979447D01*
X978447Y117251D01*
Y115252D01*
X979447Y114252D01*
X984445Y118251D02*
Y115252D01*
X985445Y114252D01*
X988444D01*
Y118251D01*
X990443Y114252D02*
Y118251D01*
X993442D01*
X994442Y117251D01*
Y114252D01*
X1000440Y120250D02*
Y114252D01*
X997441D01*
X996441Y115252D01*
Y117251D01*
X997441Y118251D01*
X1000440D01*
X972449Y99252D02*
Y105250D01*
X975448D01*
X976448Y104250D01*
Y102251D01*
X975448Y101251D01*
X972449D01*
X974448D02*
X976448Y99252D01*
X979447D02*
X981446D01*
X982446Y100252D01*
Y102251D01*
X981446Y103251D01*
X979447D01*
X978447Y102251D01*
Y100252D01*
X979447Y99252D01*
X984445Y103251D02*
Y100252D01*
X985445Y99252D01*
X988444D01*
Y103251D01*
X990443Y99252D02*
Y103251D01*
X993442D01*
X994442Y102251D01*
Y99252D01*
X1000440Y105250D02*
Y99252D01*
X997441D01*
X996441Y100252D01*
Y102251D01*
X997441Y103251D01*
X1000440D01*
X972449Y84252D02*
Y90250D01*
X975448D01*
X976448Y89250D01*
Y87251D01*
X975448Y86251D01*
X972449D01*
X974448D02*
X976448Y84252D01*
X979447D02*
X981446D01*
X982446Y85252D01*
Y87251D01*
X981446Y88251D01*
X979447D01*
X978447Y87251D01*
Y85252D01*
X979447Y84252D01*
X984445Y88251D02*
Y85252D01*
X985445Y84252D01*
X988444D01*
Y88251D01*
X990443Y84252D02*
Y88251D01*
X993442D01*
X994442Y87251D01*
Y84252D01*
X1000440Y90250D02*
Y84252D01*
X997441D01*
X996441Y85252D01*
Y87251D01*
X997441Y88251D01*
X1000440D01*
X921861Y249252D02*
Y255250D01*
X924860D01*
X925860Y254250D01*
Y252251D01*
X924860Y251251D01*
X921861D01*
X927859Y255250D02*
X931858D01*
X929859D01*
Y249252D01*
X933858Y255250D02*
Y249252D01*
Y252251D01*
X937856D01*
Y255250D01*
Y249252D01*
X921861Y234252D02*
Y240250D01*
X924860D01*
X925860Y239250D01*
Y237251D01*
X924860Y236251D01*
X921861D01*
X927859Y240250D02*
X931858D01*
X929859D01*
Y234252D01*
X933858Y240250D02*
Y234252D01*
Y237251D01*
X937856D01*
Y240250D01*
Y234252D01*
X921861Y219252D02*
Y225250D01*
X924860D01*
X925860Y224250D01*
Y222251D01*
X924860Y221251D01*
X921861D01*
X927859Y225250D02*
X931858D01*
X929859D01*
Y219252D01*
X933858Y225250D02*
Y219252D01*
Y222251D01*
X937856D01*
Y225250D01*
Y219252D01*
X921861Y204252D02*
Y210250D01*
X924860D01*
X925860Y209250D01*
Y207251D01*
X924860Y206251D01*
X921861D01*
X927859Y210250D02*
X931858D01*
X929859D01*
Y204252D01*
X933858Y210250D02*
Y204252D01*
Y207251D01*
X937856D01*
Y210250D01*
Y204252D01*
X921861Y189252D02*
Y195250D01*
X924860D01*
X925860Y194250D01*
Y192251D01*
X924860Y191251D01*
X921861D01*
X927859Y195250D02*
X931858D01*
X929859D01*
Y189252D01*
X933858Y195250D02*
Y189252D01*
Y192251D01*
X937856D01*
Y195250D01*
Y189252D01*
X921861Y174252D02*
Y180250D01*
X925860Y174252D01*
Y180250D01*
X927859Y174252D02*
Y180250D01*
X930859D01*
X931858Y179250D01*
Y177251D01*
X930859Y176251D01*
X927859D01*
X933858Y180250D02*
X937856D01*
X935857D01*
Y174252D01*
X939856Y180250D02*
Y174252D01*
Y177251D01*
X943854D01*
Y180250D01*
Y174252D01*
X921861Y159252D02*
Y165250D01*
X925860Y159252D01*
Y165250D01*
X927859Y159252D02*
Y165250D01*
X930859D01*
X931858Y164250D01*
Y162251D01*
X930859Y161251D01*
X927859D01*
X933858Y165250D02*
X937856D01*
X935857D01*
Y159252D01*
X939856Y165250D02*
Y159252D01*
Y162251D01*
X943854D01*
Y165250D01*
Y159252D01*
X921861Y144252D02*
Y150250D01*
X924860D01*
X925860Y149250D01*
Y147251D01*
X924860Y146251D01*
X921861D01*
X927859Y150250D02*
X931858D01*
X929859D01*
Y144252D01*
X933858Y150250D02*
Y144252D01*
Y147251D01*
X937856D01*
Y150250D01*
Y144252D01*
X921861Y129252D02*
Y135250D01*
X924860D01*
X925860Y134250D01*
Y132251D01*
X924860Y131251D01*
X921861D01*
X927859Y135250D02*
X931858D01*
X929859D01*
Y129252D01*
X933858Y135250D02*
Y129252D01*
Y132251D01*
X937856D01*
Y135250D01*
Y129252D01*
X921861Y114252D02*
Y120250D01*
X924860D01*
X925860Y119250D01*
Y117251D01*
X924860Y116251D01*
X921861D01*
X927859Y120250D02*
X931858D01*
X929859D01*
Y114252D01*
X933858Y120250D02*
Y114252D01*
Y117251D01*
X937856D01*
Y120250D01*
Y114252D01*
X921861Y99252D02*
Y105250D01*
X924860D01*
X925860Y104250D01*
Y102251D01*
X924860Y101251D01*
X921861D01*
X927859Y105250D02*
X931858D01*
X929859D01*
Y99252D01*
X933858Y105250D02*
Y99252D01*
Y102251D01*
X937856D01*
Y105250D01*
Y99252D01*
X921861Y84252D02*
Y90250D01*
X924860D01*
X925860Y89250D01*
Y87251D01*
X924860Y86251D01*
X921861D01*
X927859Y90250D02*
X931858D01*
X929859D01*
Y84252D01*
X933858Y90250D02*
Y84252D01*
Y87251D01*
X937856D01*
Y90250D01*
Y84252D01*
X787301Y249252D02*
X789300D01*
X788301D01*
Y255250D01*
X787301Y254250D01*
X792299Y249252D02*
Y250252D01*
X793299D01*
Y249252D01*
X792299D01*
X801297Y255250D02*
X797298D01*
Y252251D01*
X799297Y253251D01*
X800297D01*
X801297Y252251D01*
Y250252D01*
X800297Y249252D01*
X798298D01*
X797298Y250252D01*
X803296Y254250D02*
X804296Y255250D01*
X806295D01*
X807295Y254250D01*
Y250252D01*
X806295Y249252D01*
X804296D01*
X803296Y250252D01*
Y254250D01*
X809294D02*
X810294Y255250D01*
X812293D01*
X813293Y254250D01*
Y250252D01*
X812293Y249252D01*
X810294D01*
X809294Y250252D01*
Y254250D01*
X815292Y249252D02*
Y253251D01*
X816292D01*
X817291Y252251D01*
Y249252D01*
Y252251D01*
X818291Y253251D01*
X819291Y252251D01*
Y249252D01*
X821290D02*
Y253251D01*
X822290D01*
X823289Y252251D01*
Y249252D01*
Y252251D01*
X824289Y253251D01*
X825289Y252251D01*
Y249252D01*
X835285D02*
X833286Y251251D01*
Y253251D01*
X835285Y255250D01*
X842283D02*
X838284D01*
Y252251D01*
X840284Y253251D01*
X841284D01*
X842283Y252251D01*
Y250252D01*
X841284Y249252D01*
X839284D01*
X838284Y250252D01*
X844283D02*
X845282Y249252D01*
X847282D01*
X848281Y250252D01*
Y254250D01*
X847282Y255250D01*
X845282D01*
X844283Y254250D01*
Y253251D01*
X845282Y252251D01*
X848281D01*
X850281Y249252D02*
Y250252D01*
X851280D01*
Y249252D01*
X850281D01*
X855279Y254250D02*
X856279Y255250D01*
X858278D01*
X859278Y254250D01*
Y250252D01*
X858278Y249252D01*
X856279D01*
X855279Y250252D01*
Y254250D01*
X865276Y255250D02*
X863276Y254250D01*
X861277Y252251D01*
Y250252D01*
X862277Y249252D01*
X864276D01*
X865276Y250252D01*
Y251251D01*
X864276Y252251D01*
X861277D01*
X867275Y249252D02*
Y253251D01*
X868275D01*
X869275Y252251D01*
Y249252D01*
Y252251D01*
X870274Y253251D01*
X871274Y252251D01*
Y249252D01*
X873273D02*
X875273D01*
X874273D01*
Y253251D01*
X873273D01*
X878272Y249252D02*
X880271D01*
X879271D01*
Y255250D01*
X878272D01*
X883270Y249252D02*
X885269Y251251D01*
Y253251D01*
X883270Y255250D01*
X787301Y239250D02*
X788301Y240250D01*
X790300D01*
X791300Y239250D01*
Y235252D01*
X790300Y234252D01*
X788301D01*
X787301Y235252D01*
Y239250D01*
X793299Y234252D02*
Y235252D01*
X794299D01*
Y234252D01*
X793299D01*
X798298Y240250D02*
X802296D01*
Y239250D01*
X798298Y235252D01*
Y234252D01*
X804296Y239250D02*
X805295Y240250D01*
X807295D01*
X808294Y239250D01*
Y235252D01*
X807295Y234252D01*
X805295D01*
X804296Y235252D01*
Y239250D01*
X810294D02*
X811293Y240250D01*
X813293D01*
X814292Y239250D01*
Y235252D01*
X813293Y234252D01*
X811293D01*
X810294Y235252D01*
Y239250D01*
X816292Y234252D02*
Y238251D01*
X817291D01*
X818291Y237251D01*
Y234252D01*
Y237251D01*
X819291Y238251D01*
X820290Y237251D01*
Y234252D01*
X822290D02*
Y238251D01*
X823289D01*
X824289Y237251D01*
Y234252D01*
Y237251D01*
X825289Y238251D01*
X826288Y237251D01*
Y234252D01*
X836285D02*
X834286Y236251D01*
Y238251D01*
X836285Y240250D01*
X843283Y234252D02*
X839284D01*
X843283Y238251D01*
Y239250D01*
X842283Y240250D01*
X840284D01*
X839284Y239250D01*
X845282Y240250D02*
X849281D01*
Y239250D01*
X845282Y235252D01*
Y234252D01*
X851280D02*
Y235252D01*
X852280D01*
Y234252D01*
X851280D01*
X860277Y240250D02*
X856279D01*
Y237251D01*
X858278Y238251D01*
X859278D01*
X860277Y237251D01*
Y235252D01*
X859278Y234252D01*
X857278D01*
X856279Y235252D01*
X866276Y240250D02*
X864276Y239250D01*
X862277Y237251D01*
Y235252D01*
X863276Y234252D01*
X865276D01*
X866276Y235252D01*
Y236251D01*
X865276Y237251D01*
X862277D01*
X868275Y234252D02*
Y238251D01*
X869275D01*
X870274Y237251D01*
Y234252D01*
Y237251D01*
X871274Y238251D01*
X872274Y237251D01*
Y234252D01*
X874273D02*
X876272D01*
X875273D01*
Y238251D01*
X874273D01*
X879271Y234252D02*
X881271D01*
X880271D01*
Y240250D01*
X879271D01*
X884270Y234252D02*
X886269Y236251D01*
Y238251D01*
X884270Y240250D01*
X787301Y224250D02*
X788301Y225250D01*
X790300D01*
X791300Y224250D01*
Y220252D01*
X790300Y219252D01*
X788301D01*
X787301Y220252D01*
Y224250D01*
X793299Y219252D02*
Y220252D01*
X794299D01*
Y219252D01*
X793299D01*
X798298Y224250D02*
X799297Y225250D01*
X801297D01*
X802296Y224250D01*
Y223251D01*
X801297Y222251D01*
X802296Y221251D01*
Y220252D01*
X801297Y219252D01*
X799297D01*
X798298Y220252D01*
Y221251D01*
X799297Y222251D01*
X798298Y223251D01*
Y224250D01*
X799297Y222251D02*
X801297D01*
X804296Y224250D02*
X805295Y225250D01*
X807295D01*
X808294Y224250D01*
Y220252D01*
X807295Y219252D01*
X805295D01*
X804296Y220252D01*
Y224250D01*
X810294D02*
X811293Y225250D01*
X813293D01*
X814292Y224250D01*
Y220252D01*
X813293Y219252D01*
X811293D01*
X810294Y220252D01*
Y224250D01*
X816292Y219252D02*
Y223251D01*
X817291D01*
X818291Y222251D01*
Y219252D01*
Y222251D01*
X819291Y223251D01*
X820290Y222251D01*
Y219252D01*
X822290D02*
Y223251D01*
X823289D01*
X824289Y222251D01*
Y219252D01*
Y222251D01*
X825289Y223251D01*
X826288Y222251D01*
Y219252D01*
X836285D02*
X834286Y221251D01*
Y223251D01*
X836285Y225250D01*
X839284Y224250D02*
X840284Y225250D01*
X842283D01*
X843283Y224250D01*
Y223251D01*
X842283Y222251D01*
X841284D01*
X842283D01*
X843283Y221251D01*
Y220252D01*
X842283Y219252D01*
X840284D01*
X839284Y220252D01*
X845282Y219252D02*
X847282D01*
X846282D01*
Y225250D01*
X845282Y224250D01*
X850281Y219252D02*
Y220252D01*
X851280D01*
Y219252D01*
X850281D01*
X859278Y225250D02*
X855279D01*
Y222251D01*
X857278Y223251D01*
X858278D01*
X859278Y222251D01*
Y220252D01*
X858278Y219252D01*
X856279D01*
X855279Y220252D01*
X861277Y224250D02*
X862277Y225250D01*
X864276D01*
X865276Y224250D01*
Y220252D01*
X864276Y219252D01*
X862277D01*
X861277Y220252D01*
Y224250D01*
X867275Y219252D02*
Y223251D01*
X868275D01*
X869275Y222251D01*
Y219252D01*
Y222251D01*
X870274Y223251D01*
X871274Y222251D01*
Y219252D01*
X873273D02*
X875273D01*
X874273D01*
Y223251D01*
X873273D01*
X878272Y219252D02*
X880271D01*
X879271D01*
Y225250D01*
X878272D01*
X883270Y219252D02*
X885269Y221251D01*
Y223251D01*
X883270Y225250D01*
X787301Y204252D02*
X789300D01*
X788301D01*
Y210250D01*
X787301Y209250D01*
X792299Y204252D02*
Y205252D01*
X793299D01*
Y204252D01*
X792299D01*
X800297D02*
Y210250D01*
X797298Y207251D01*
X801297D01*
X803296Y209250D02*
X804296Y210250D01*
X806295D01*
X807295Y209250D01*
Y205252D01*
X806295Y204252D01*
X804296D01*
X803296Y205252D01*
Y209250D01*
X809294D02*
X810294Y210250D01*
X812293D01*
X813293Y209250D01*
Y205252D01*
X812293Y204252D01*
X810294D01*
X809294Y205252D01*
Y209250D01*
X815292Y204252D02*
Y208251D01*
X816292D01*
X817291Y207251D01*
Y204252D01*
Y207251D01*
X818291Y208251D01*
X819291Y207251D01*
Y204252D01*
X821290D02*
Y208251D01*
X822290D01*
X823289Y207251D01*
Y204252D01*
Y207251D01*
X824289Y208251D01*
X825289Y207251D01*
Y204252D01*
X835285D02*
X833286Y206251D01*
Y208251D01*
X835285Y210250D01*
X842283D02*
X838284D01*
Y207251D01*
X840284Y208251D01*
X841284D01*
X842283Y207251D01*
Y205252D01*
X841284Y204252D01*
X839284D01*
X838284Y205252D01*
X848281Y210250D02*
X844283D01*
Y207251D01*
X846282Y208251D01*
X847282D01*
X848281Y207251D01*
Y205252D01*
X847282Y204252D01*
X845282D01*
X844283Y205252D01*
X850281Y204252D02*
Y205252D01*
X851280D01*
Y204252D01*
X850281D01*
X855279D02*
X857278D01*
X856279D01*
Y210250D01*
X855279Y209250D01*
X864276Y204252D02*
X860277D01*
X864276Y208251D01*
Y209250D01*
X863276Y210250D01*
X861277D01*
X860277Y209250D01*
X866276Y204252D02*
Y208251D01*
X867275D01*
X868275Y207251D01*
Y204252D01*
Y207251D01*
X869275Y208251D01*
X870274Y207251D01*
Y204252D01*
X872274D02*
X874273D01*
X873273D01*
Y208251D01*
X872274D01*
X877272Y204252D02*
X879271D01*
X878272D01*
Y210250D01*
X877272D01*
X882270Y204252D02*
X884270Y206251D01*
Y208251D01*
X882270Y210250D01*
X787301Y194250D02*
X788301Y195250D01*
X790300D01*
X791300Y194250D01*
Y190252D01*
X790300Y189252D01*
X788301D01*
X787301Y190252D01*
Y194250D01*
X793299Y189252D02*
Y190252D01*
X794299D01*
Y189252D01*
X793299D01*
X802296Y195250D02*
X798298D01*
Y192251D01*
X800297Y193251D01*
X801297D01*
X802296Y192251D01*
Y190252D01*
X801297Y189252D01*
X799297D01*
X798298Y190252D01*
X804296Y194250D02*
X805295Y195250D01*
X807295D01*
X808294Y194250D01*
Y190252D01*
X807295Y189252D01*
X805295D01*
X804296Y190252D01*
Y194250D01*
X810294D02*
X811293Y195250D01*
X813293D01*
X814292Y194250D01*
Y190252D01*
X813293Y189252D01*
X811293D01*
X810294Y190252D01*
Y194250D01*
X816292Y189252D02*
Y193251D01*
X817291D01*
X818291Y192251D01*
Y189252D01*
Y192251D01*
X819291Y193251D01*
X820290Y192251D01*
Y189252D01*
X822290D02*
Y193251D01*
X823289D01*
X824289Y192251D01*
Y189252D01*
Y192251D01*
X825289Y193251D01*
X826288Y192251D01*
Y189252D01*
X836285D02*
X834286Y191251D01*
Y193251D01*
X836285Y195250D01*
X839284Y189252D02*
X841284D01*
X840284D01*
Y195250D01*
X839284Y194250D01*
X844283Y190252D02*
X845282Y189252D01*
X847282D01*
X848281Y190252D01*
Y194250D01*
X847282Y195250D01*
X845282D01*
X844283Y194250D01*
Y193251D01*
X845282Y192251D01*
X848281D01*
X850281Y189252D02*
Y190252D01*
X851280D01*
Y189252D01*
X850281D01*
X859278Y195250D02*
X857278Y194250D01*
X855279Y192251D01*
Y190252D01*
X856279Y189252D01*
X858278D01*
X859278Y190252D01*
Y191251D01*
X858278Y192251D01*
X855279D01*
X861277Y190252D02*
X862277Y189252D01*
X864276D01*
X865276Y190252D01*
Y194250D01*
X864276Y195250D01*
X862277D01*
X861277Y194250D01*
Y193251D01*
X862277Y192251D01*
X865276D01*
X867275Y189252D02*
Y193251D01*
X868275D01*
X869275Y192251D01*
Y189252D01*
Y192251D01*
X870274Y193251D01*
X871274Y192251D01*
Y189252D01*
X873273D02*
X875273D01*
X874273D01*
Y193251D01*
X873273D01*
X878272Y189252D02*
X880271D01*
X879271D01*
Y195250D01*
X878272D01*
X883270Y189252D02*
X885269Y191251D01*
Y193251D01*
X883270Y195250D01*
X791300Y174252D02*
X787301D01*
X791300Y178251D01*
Y179250D01*
X790300Y180250D01*
X788301D01*
X787301Y179250D01*
X793299Y174252D02*
Y175252D01*
X794299D01*
Y174252D01*
X793299D01*
X802296Y180250D02*
X798298D01*
Y177251D01*
X800297Y178251D01*
X801297D01*
X802296Y177251D01*
Y175252D01*
X801297Y174252D01*
X799297D01*
X798298Y175252D01*
X804296Y179250D02*
X805295Y180250D01*
X807295D01*
X808294Y179250D01*
Y175252D01*
X807295Y174252D01*
X805295D01*
X804296Y175252D01*
Y179250D01*
X810294D02*
X811293Y180250D01*
X813293D01*
X814292Y179250D01*
Y175252D01*
X813293Y174252D01*
X811293D01*
X810294Y175252D01*
Y179250D01*
X816292Y174252D02*
Y178251D01*
X817291D01*
X818291Y177251D01*
Y174252D01*
Y177251D01*
X819291Y178251D01*
X820290Y177251D01*
Y174252D01*
X822290D02*
Y178251D01*
X823289D01*
X824289Y177251D01*
Y174252D01*
Y177251D01*
X825289Y178251D01*
X826288Y177251D01*
Y174252D01*
X836285D02*
X834286Y176251D01*
Y178251D01*
X836285Y180250D01*
X839284Y175252D02*
X840284Y174252D01*
X842283D01*
X843283Y175252D01*
Y179250D01*
X842283Y180250D01*
X840284D01*
X839284Y179250D01*
Y178251D01*
X840284Y177251D01*
X843283D01*
X845282Y179250D02*
X846282Y180250D01*
X848281D01*
X849281Y179250D01*
Y178251D01*
X848281Y177251D01*
X849281Y176251D01*
Y175252D01*
X848281Y174252D01*
X846282D01*
X845282Y175252D01*
Y176251D01*
X846282Y177251D01*
X845282Y178251D01*
Y179250D01*
X846282Y177251D02*
X848281D01*
X851280Y174252D02*
Y175252D01*
X852280D01*
Y174252D01*
X851280D01*
X859278D02*
Y180250D01*
X856279Y177251D01*
X860277D01*
X862277Y179250D02*
X863276Y180250D01*
X865276D01*
X866276Y179250D01*
Y178251D01*
X865276Y177251D01*
X864276D01*
X865276D01*
X866276Y176251D01*
Y175252D01*
X865276Y174252D01*
X863276D01*
X862277Y175252D01*
X868275Y174252D02*
Y178251D01*
X869275D01*
X870274Y177251D01*
Y174252D01*
Y177251D01*
X871274Y178251D01*
X872274Y177251D01*
Y174252D01*
X874273D02*
X876272D01*
X875273D01*
Y178251D01*
X874273D01*
X879271Y174252D02*
X881271D01*
X880271D01*
Y180250D01*
X879271D01*
X884270Y174252D02*
X886269Y176251D01*
Y178251D01*
X884270Y180250D01*
X787301Y164250D02*
X788301Y165250D01*
X790300D01*
X791300Y164250D01*
Y160252D01*
X790300Y159252D01*
X788301D01*
X787301Y160252D01*
Y164250D01*
X793299Y159252D02*
Y160252D01*
X794299D01*
Y159252D01*
X793299D01*
X802296Y165250D02*
X798298D01*
Y162251D01*
X800297Y163251D01*
X801297D01*
X802296Y162251D01*
Y160252D01*
X801297Y159252D01*
X799297D01*
X798298Y160252D01*
X804296Y164250D02*
X805295Y165250D01*
X807295D01*
X808294Y164250D01*
Y160252D01*
X807295Y159252D01*
X805295D01*
X804296Y160252D01*
Y164250D01*
X810294D02*
X811293Y165250D01*
X813293D01*
X814292Y164250D01*
Y160252D01*
X813293Y159252D01*
X811293D01*
X810294Y160252D01*
Y164250D01*
X816292Y159252D02*
Y163251D01*
X817291D01*
X818291Y162251D01*
Y159252D01*
Y162251D01*
X819291Y163251D01*
X820290Y162251D01*
Y159252D01*
X822290D02*
Y163251D01*
X823289D01*
X824289Y162251D01*
Y159252D01*
Y162251D01*
X825289Y163251D01*
X826288Y162251D01*
Y159252D01*
X836285D02*
X834286Y161251D01*
Y163251D01*
X836285Y165250D01*
X839284Y159252D02*
X841284D01*
X840284D01*
Y165250D01*
X839284Y164250D01*
X844283Y160252D02*
X845282Y159252D01*
X847282D01*
X848281Y160252D01*
Y164250D01*
X847282Y165250D01*
X845282D01*
X844283Y164250D01*
Y163251D01*
X845282Y162251D01*
X848281D01*
X850281Y159252D02*
Y160252D01*
X851280D01*
Y159252D01*
X850281D01*
X859278Y165250D02*
X857278Y164250D01*
X855279Y162251D01*
Y160252D01*
X856279Y159252D01*
X858278D01*
X859278Y160252D01*
Y161251D01*
X858278Y162251D01*
X855279D01*
X861277Y160252D02*
X862277Y159252D01*
X864276D01*
X865276Y160252D01*
Y164250D01*
X864276Y165250D01*
X862277D01*
X861277Y164250D01*
Y163251D01*
X862277Y162251D01*
X865276D01*
X867275Y159252D02*
Y163251D01*
X868275D01*
X869275Y162251D01*
Y159252D01*
Y162251D01*
X870274Y163251D01*
X871274Y162251D01*
Y159252D01*
X873273D02*
X875273D01*
X874273D01*
Y163251D01*
X873273D01*
X878272Y159252D02*
X880271D01*
X879271D01*
Y165250D01*
X878272D01*
X883270Y159252D02*
X885269Y161251D01*
Y163251D01*
X883270Y165250D01*
X787301Y144252D02*
X789300D01*
X788301D01*
Y150250D01*
X787301Y149250D01*
X792299Y144252D02*
Y145252D01*
X793299D01*
Y144252D01*
X792299D01*
X797298D02*
X799297D01*
X798298D01*
Y150250D01*
X797298Y149250D01*
X802296D02*
X803296Y150250D01*
X805295D01*
X806295Y149250D01*
Y145252D01*
X805295Y144252D01*
X803296D01*
X802296Y145252D01*
Y149250D01*
X808294D02*
X809294Y150250D01*
X811293D01*
X812293Y149250D01*
Y145252D01*
X811293Y144252D01*
X809294D01*
X808294Y145252D01*
Y149250D01*
X814292Y144252D02*
Y148251D01*
X815292D01*
X816292Y147251D01*
Y144252D01*
Y147251D01*
X817291Y148251D01*
X818291Y147251D01*
Y144252D01*
X820290D02*
Y148251D01*
X821290D01*
X822290Y147251D01*
Y144252D01*
Y147251D01*
X823289Y148251D01*
X824289Y147251D01*
Y144252D01*
X834286D02*
X832286Y146251D01*
Y148251D01*
X834286Y150250D01*
X840284Y144252D02*
Y150250D01*
X837285Y147251D01*
X841284D01*
X843283Y149250D02*
X844283Y150250D01*
X846282D01*
X847282Y149250D01*
Y148251D01*
X846282Y147251D01*
X845282D01*
X846282D01*
X847282Y146251D01*
Y145252D01*
X846282Y144252D01*
X844283D01*
X843283Y145252D01*
X849281Y144252D02*
Y145252D01*
X850281D01*
Y144252D01*
X849281D01*
X854279Y149250D02*
X855279Y150250D01*
X857278D01*
X858278Y149250D01*
Y148251D01*
X857278Y147251D01*
X856279D01*
X857278D01*
X858278Y146251D01*
Y145252D01*
X857278Y144252D01*
X855279D01*
X854279Y145252D01*
X860277Y144252D02*
X862277D01*
X861277D01*
Y150250D01*
X860277Y149250D01*
X865276Y144252D02*
Y148251D01*
X866276D01*
X867275Y147251D01*
Y144252D01*
Y147251D01*
X868275Y148251D01*
X869275Y147251D01*
Y144252D01*
X871274D02*
X873273D01*
X872274D01*
Y148251D01*
X871274D01*
X876272Y144252D02*
X878272D01*
X877272D01*
Y150250D01*
X876272D01*
X881271Y144252D02*
X883270Y146251D01*
Y148251D01*
X881271Y150250D01*
X787301Y134250D02*
X788301Y135250D01*
X790300D01*
X791300Y134250D01*
Y130252D01*
X790300Y129252D01*
X788301D01*
X787301Y130252D01*
Y134250D01*
X793299Y129252D02*
Y130252D01*
X794299D01*
Y129252D01*
X793299D01*
X798298Y134250D02*
X799297Y135250D01*
X801297D01*
X802296Y134250D01*
Y133251D01*
X801297Y132251D01*
X800297D01*
X801297D01*
X802296Y131251D01*
Y130252D01*
X801297Y129252D01*
X799297D01*
X798298Y130252D01*
X804296Y134250D02*
X805295Y135250D01*
X807295D01*
X808294Y134250D01*
Y130252D01*
X807295Y129252D01*
X805295D01*
X804296Y130252D01*
Y134250D01*
X810294D02*
X811293Y135250D01*
X813293D01*
X814292Y134250D01*
Y130252D01*
X813293Y129252D01*
X811293D01*
X810294Y130252D01*
Y134250D01*
X816292Y129252D02*
Y133251D01*
X817291D01*
X818291Y132251D01*
Y129252D01*
Y132251D01*
X819291Y133251D01*
X820290Y132251D01*
Y129252D01*
X822290D02*
Y133251D01*
X823289D01*
X824289Y132251D01*
Y129252D01*
Y132251D01*
X825289Y133251D01*
X826288Y132251D01*
Y129252D01*
X836285D02*
X834286Y131251D01*
Y133251D01*
X836285Y135250D01*
X839284Y129252D02*
X841284D01*
X840284D01*
Y135250D01*
X839284Y134250D01*
X844283Y129252D02*
X846282D01*
X845282D01*
Y135250D01*
X844283Y134250D01*
X849281Y129252D02*
Y130252D01*
X850281D01*
Y129252D01*
X849281D01*
X854279Y134250D02*
X855279Y135250D01*
X857278D01*
X858278Y134250D01*
Y133251D01*
X857278Y132251D01*
X858278Y131251D01*
Y130252D01*
X857278Y129252D01*
X855279D01*
X854279Y130252D01*
Y131251D01*
X855279Y132251D01*
X854279Y133251D01*
Y134250D01*
X855279Y132251D02*
X857278D01*
X860277Y129252D02*
X862277D01*
X861277D01*
Y135250D01*
X860277Y134250D01*
X865276Y129252D02*
Y133251D01*
X866276D01*
X867275Y132251D01*
Y129252D01*
Y132251D01*
X868275Y133251D01*
X869275Y132251D01*
Y129252D01*
X871274D02*
X873273D01*
X872274D01*
Y133251D01*
X871274D01*
X876272Y129252D02*
X878272D01*
X877272D01*
Y135250D01*
X876272D01*
X881271Y129252D02*
X883270Y131251D01*
Y133251D01*
X881271Y135250D01*
X787301Y119250D02*
X788301Y120250D01*
X790300D01*
X791300Y119250D01*
Y115252D01*
X790300Y114252D01*
X788301D01*
X787301Y115252D01*
Y119250D01*
X793299Y114252D02*
Y115252D01*
X794299D01*
Y114252D01*
X793299D01*
X798298Y120250D02*
X802296D01*
Y119250D01*
X798298Y115252D01*
Y114252D01*
X804296D02*
X806295D01*
X805295D01*
Y120250D01*
X804296Y119250D01*
X809294Y114252D02*
X811293D01*
X810294D01*
Y120250D01*
X809294Y119250D01*
X814292Y114252D02*
Y118251D01*
X815292D01*
X816292Y117251D01*
Y114252D01*
Y117251D01*
X817291Y118251D01*
X818291Y117251D01*
Y114252D01*
X820290D02*
Y118251D01*
X821290D01*
X822290Y117251D01*
Y114252D01*
Y117251D01*
X823289Y118251D01*
X824289Y117251D01*
Y114252D01*
X834286D02*
X832286Y116251D01*
Y118251D01*
X834286Y120250D01*
X841284Y114252D02*
X837285D01*
X841284Y118251D01*
Y119250D01*
X840284Y120250D01*
X838284D01*
X837285Y119250D01*
X843283D02*
X844283Y120250D01*
X846282D01*
X847282Y119250D01*
Y118251D01*
X846282Y117251D01*
X847282Y116251D01*
Y115252D01*
X846282Y114252D01*
X844283D01*
X843283Y115252D01*
Y116251D01*
X844283Y117251D01*
X843283Y118251D01*
Y119250D01*
X844283Y117251D02*
X846282D01*
X849281Y114252D02*
Y115252D01*
X850281D01*
Y114252D01*
X849281D01*
X854279Y119250D02*
X855279Y120250D01*
X857278D01*
X858278Y119250D01*
Y115252D01*
X857278Y114252D01*
X855279D01*
X854279Y115252D01*
Y119250D01*
X860277D02*
X861277Y120250D01*
X863276D01*
X864276Y119250D01*
Y115252D01*
X863276Y114252D01*
X861277D01*
X860277Y115252D01*
Y119250D01*
X866276Y114252D02*
Y118251D01*
X867275D01*
X868275Y117251D01*
Y114252D01*
Y117251D01*
X869275Y118251D01*
X870274Y117251D01*
Y114252D01*
X872274D02*
X874273D01*
X873273D01*
Y118251D01*
X872274D01*
X877272Y114252D02*
X879271D01*
X878272D01*
Y120250D01*
X877272D01*
X882270Y114252D02*
X884270Y116251D01*
Y118251D01*
X882270Y120250D01*
X787301Y99252D02*
X789300D01*
X788301D01*
Y105250D01*
X787301Y104250D01*
X792299Y99252D02*
Y100252D01*
X793299D01*
Y99252D01*
X792299D01*
X797298Y104250D02*
X798298Y105250D01*
X800297D01*
X801297Y104250D01*
Y100252D01*
X800297Y99252D01*
X798298D01*
X797298Y100252D01*
Y104250D01*
X803296D02*
X804296Y105250D01*
X806295D01*
X807295Y104250D01*
Y100252D01*
X806295Y99252D01*
X804296D01*
X803296Y100252D01*
Y104250D01*
X809294D02*
X810294Y105250D01*
X812293D01*
X813293Y104250D01*
Y100252D01*
X812293Y99252D01*
X810294D01*
X809294Y100252D01*
Y104250D01*
X815292Y99252D02*
Y103251D01*
X816292D01*
X817291Y102251D01*
Y99252D01*
Y102251D01*
X818291Y103251D01*
X819291Y102251D01*
Y99252D01*
X821290D02*
Y103251D01*
X822290D01*
X823289Y102251D01*
Y99252D01*
Y102251D01*
X824289Y103251D01*
X825289Y102251D01*
Y99252D01*
X835285D02*
X833286Y101251D01*
Y103251D01*
X835285Y105250D01*
X838284Y104250D02*
X839284Y105250D01*
X841284D01*
X842283Y104250D01*
Y103251D01*
X841284Y102251D01*
X840284D01*
X841284D01*
X842283Y101251D01*
Y100252D01*
X841284Y99252D01*
X839284D01*
X838284Y100252D01*
X844283D02*
X845282Y99252D01*
X847282D01*
X848281Y100252D01*
Y104250D01*
X847282Y105250D01*
X845282D01*
X844283Y104250D01*
Y103251D01*
X845282Y102251D01*
X848281D01*
X850281Y99252D02*
Y100252D01*
X851280D01*
Y99252D01*
X850281D01*
X855279Y104250D02*
X856279Y105250D01*
X858278D01*
X859278Y104250D01*
Y103251D01*
X858278Y102251D01*
X857278D01*
X858278D01*
X859278Y101251D01*
Y100252D01*
X858278Y99252D01*
X856279D01*
X855279Y100252D01*
X861277Y105250D02*
X865276D01*
Y104250D01*
X861277Y100252D01*
Y99252D01*
X867275D02*
Y103251D01*
X868275D01*
X869275Y102251D01*
Y99252D01*
Y102251D01*
X870274Y103251D01*
X871274Y102251D01*
Y99252D01*
X873273D02*
X875273D01*
X874273D01*
Y103251D01*
X873273D01*
X878272Y99252D02*
X880271D01*
X879271D01*
Y105250D01*
X878272D01*
X883270Y99252D02*
X885269Y101251D01*
Y103251D01*
X883270Y105250D01*
X787301Y89250D02*
X788301Y90250D01*
X790300D01*
X791300Y89250D01*
Y85252D01*
X790300Y84252D01*
X788301D01*
X787301Y85252D01*
Y89250D01*
X793299Y84252D02*
Y85252D01*
X794299D01*
Y84252D01*
X793299D01*
X798298Y85252D02*
X799297Y84252D01*
X801297D01*
X802296Y85252D01*
Y89250D01*
X801297Y90250D01*
X799297D01*
X798298Y89250D01*
Y88251D01*
X799297Y87251D01*
X802296D01*
X804296Y89250D02*
X805295Y90250D01*
X807295D01*
X808294Y89250D01*
Y85252D01*
X807295Y84252D01*
X805295D01*
X804296Y85252D01*
Y89250D01*
X810294D02*
X811293Y90250D01*
X813293D01*
X814292Y89250D01*
Y85252D01*
X813293Y84252D01*
X811293D01*
X810294Y85252D01*
Y89250D01*
X816292Y84252D02*
Y88251D01*
X817291D01*
X818291Y87251D01*
Y84252D01*
Y87251D01*
X819291Y88251D01*
X820290Y87251D01*
Y84252D01*
X822290D02*
Y88251D01*
X823289D01*
X824289Y87251D01*
Y84252D01*
Y87251D01*
X825289Y88251D01*
X826288Y87251D01*
Y84252D01*
X836285D02*
X834286Y86251D01*
Y88251D01*
X836285Y90250D01*
X839284Y89250D02*
X840284Y90250D01*
X842283D01*
X843283Y89250D01*
Y88251D01*
X842283Y87251D01*
X841284D01*
X842283D01*
X843283Y86251D01*
Y85252D01*
X842283Y84252D01*
X840284D01*
X839284Y85252D01*
X849281Y90250D02*
X845282D01*
Y87251D01*
X847282Y88251D01*
X848281D01*
X849281Y87251D01*
Y85252D01*
X848281Y84252D01*
X846282D01*
X845282Y85252D01*
X851280Y84252D02*
Y85252D01*
X852280D01*
Y84252D01*
X851280D01*
X859278D02*
Y90250D01*
X856279Y87251D01*
X860277D01*
X862277Y89250D02*
X863276Y90250D01*
X865276D01*
X866276Y89250D01*
Y88251D01*
X865276Y87251D01*
X864276D01*
X865276D01*
X866276Y86251D01*
Y85252D01*
X865276Y84252D01*
X863276D01*
X862277Y85252D01*
X868275Y84252D02*
Y88251D01*
X869275D01*
X870274Y87251D01*
Y84252D01*
Y87251D01*
X871274Y88251D01*
X872274Y87251D01*
Y84252D01*
X874273D02*
X876272D01*
X875273D01*
Y88251D01*
X874273D01*
X879271Y84252D02*
X881271D01*
X880271D01*
Y90250D01*
X879271D01*
X884270Y84252D02*
X886269Y86251D01*
Y88251D01*
X884270Y90250D01*
X717520Y69252D02*
X719519D01*
X718519D01*
Y75250D01*
X717520Y74250D01*
X722518D02*
X723518Y75250D01*
X725517D01*
X726517Y74250D01*
Y73251D01*
X725517Y72251D01*
X726517Y71251D01*
Y70252D01*
X725517Y69252D01*
X723518D01*
X722518Y70252D01*
Y71251D01*
X723518Y72251D01*
X722518Y73251D01*
Y74250D01*
X723518Y72251D02*
X725517D01*
X732515Y69252D02*
X728516D01*
X732515Y73251D01*
Y74250D01*
X731515Y75250D01*
X729516D01*
X728516Y74250D01*
X740512Y75250D02*
X744511D01*
X742512D01*
Y69252D01*
X747510D02*
X749509D01*
X750509Y70252D01*
Y72251D01*
X749509Y73251D01*
X747510D01*
X746510Y72251D01*
Y70252D01*
X747510Y69252D01*
X753508Y74250D02*
Y73251D01*
X752508D01*
X754508D01*
X753508D01*
Y70252D01*
X754508Y69252D01*
X758506Y73251D02*
X760506D01*
X761506Y72251D01*
Y69252D01*
X758506D01*
X757507Y70252D01*
X758506Y71251D01*
X761506D01*
X763505Y69252D02*
X765504D01*
X764504D01*
Y75250D01*
X763505D01*
X717520Y249252D02*
X719519D01*
X718519D01*
Y255250D01*
X717520Y254250D01*
Y239250D02*
X718519Y240250D01*
X720519D01*
X721518Y239250D01*
Y238251D01*
X720519Y237251D01*
X719519D01*
X720519D01*
X721518Y236251D01*
Y235252D01*
X720519Y234252D01*
X718519D01*
X717520Y235252D01*
Y224250D02*
X718519Y225250D01*
X720519D01*
X721518Y224250D01*
Y223251D01*
X720519Y222251D01*
X719519D01*
X720519D01*
X721518Y221251D01*
Y220252D01*
X720519Y219252D01*
X718519D01*
X717520Y220252D01*
Y209250D02*
X718519Y210250D01*
X720519D01*
X721518Y209250D01*
Y208251D01*
X720519Y207251D01*
X719519D01*
X720519D01*
X721518Y206251D01*
Y205252D01*
X720519Y204252D01*
X718519D01*
X717520Y205252D01*
X721518Y195250D02*
X719519Y194250D01*
X717520Y192251D01*
Y190252D01*
X718519Y189252D01*
X720519D01*
X721518Y190252D01*
Y191251D01*
X720519Y192251D01*
X717520D01*
Y179250D02*
X718519Y180250D01*
X720519D01*
X721518Y179250D01*
Y178251D01*
X720519Y177251D01*
X721518Y176251D01*
Y175252D01*
X720519Y174252D01*
X718519D01*
X717520Y175252D01*
Y176251D01*
X718519Y177251D01*
X717520Y178251D01*
Y179250D01*
X718519Y177251D02*
X720519D01*
X717520Y159252D02*
X719519D01*
X718519D01*
Y165250D01*
X717520Y164250D01*
X726517Y165250D02*
X724517Y164250D01*
X722518Y162251D01*
Y160252D01*
X723518Y159252D01*
X725517D01*
X726517Y160252D01*
Y161251D01*
X725517Y162251D01*
X722518D01*
X721518Y144252D02*
X717520D01*
X721518Y148251D01*
Y149250D01*
X720519Y150250D01*
X718519D01*
X717520Y149250D01*
X723518D02*
X724517Y150250D01*
X726517D01*
X727517Y149250D01*
Y145252D01*
X726517Y144252D01*
X724517D01*
X723518Y145252D01*
Y149250D01*
X721518Y129252D02*
X717520D01*
X721518Y133251D01*
Y134250D01*
X720519Y135250D01*
X718519D01*
X717520Y134250D01*
X727517Y135250D02*
X723518D01*
Y132251D01*
X725517Y133251D01*
X726517D01*
X727517Y132251D01*
Y130252D01*
X726517Y129252D01*
X724517D01*
X723518Y130252D01*
X721518Y114252D02*
X717520D01*
X721518Y118251D01*
Y119250D01*
X720519Y120250D01*
X718519D01*
X717520Y119250D01*
X723518Y120250D02*
X727517D01*
Y119250D01*
X723518Y115252D01*
Y114252D01*
X717520Y104250D02*
X718519Y105250D01*
X720519D01*
X721518Y104250D01*
Y103251D01*
X720519Y102251D01*
X719519D01*
X720519D01*
X721518Y101251D01*
Y100252D01*
X720519Y99252D01*
X718519D01*
X717520Y100252D01*
X726517Y99252D02*
Y105250D01*
X723518Y102251D01*
X727517D01*
X717520Y89250D02*
X718519Y90250D01*
X720519D01*
X721518Y89250D01*
Y88251D01*
X720519Y87251D01*
X719519D01*
X720519D01*
X721518Y86251D01*
Y85252D01*
X720519Y84252D01*
X718519D01*
X717520Y85252D01*
X727517Y90250D02*
X725517Y89250D01*
X723518Y87251D01*
Y85252D01*
X724517Y84252D01*
X726517D01*
X727517Y85252D01*
Y86251D01*
X726517Y87251D01*
X723518D01*
D80*
X669745Y236752D02*
G03*
X669745Y236752I-2500J0D01*
G01*
X668745Y116752D02*
G03*
X668745Y116752I-1500J0D01*
G01*
X669745D02*
G03*
X669745Y116752I-2500J0D01*
G01*
X502969Y90039D02*
G03*
X502969Y90039I-1000J0D01*
G01*
X503635D02*
G03*
X503635Y90039I-1667J0D01*
G01*
X532496Y125984D02*
G03*
X532496Y125984I-1000J0D01*
G01*
X533163D02*
G03*
X533163Y125984I-1667J0D01*
G01*
X532496Y102362D02*
G03*
X532496Y102362I-1000J0D01*
G01*
X533163D02*
G03*
X533163Y102362I-1667J0D01*
G01*
X532496Y78740D02*
G03*
X532496Y78740I-1000J0D01*
G01*
X533163D02*
G03*
X533163Y78740I-1667J0D01*
G01*
X532496Y55118D02*
G03*
X532496Y55118I-1000J0D01*
G01*
X533163D02*
G03*
X533163Y55118I-1667J0D01*
G01*
X532496Y29528D02*
G03*
X532496Y29528I-1000J0D01*
G01*
X533163D02*
G03*
X533163Y29528I-1667J0D01*
G01*
X502969Y64961D02*
G03*
X502969Y64961I-1000J0D01*
G01*
X503635D02*
G03*
X503635Y64961I-1667J0D01*
G01*
X475410Y196850D02*
G03*
X475410Y196850I-1000J0D01*
G01*
X476076D02*
G03*
X476076Y196850I-1667J0D01*
G01*
X160449Y188976D02*
G03*
X160449Y188976I-1000J0D01*
G01*
X161116D02*
G03*
X161116Y188976I-1667J0D01*
G01*
X193913Y206693D02*
G03*
X193913Y206693I-1000J0D01*
G01*
X194580D02*
G03*
X194580Y206693I-1667J0D01*
G01*
X172260D02*
G03*
X172260Y206693I-1000J0D01*
G01*
X172926D02*
G03*
X172926Y206693I-1667J0D01*
G01*
X174228Y171260D02*
G03*
X174228Y171260I-1000J0D01*
G01*
X174895D02*
G03*
X174895Y171260I-1667J0D01*
G01*
X193913D02*
G03*
X193913Y171260I-1000J0D01*
G01*
X194580D02*
G03*
X194580Y171260I-1667J0D01*
G01*
X308087Y198819D02*
G03*
X308087Y198819I-1000J0D01*
G01*
X308753D02*
G03*
X308753Y198819I-1667J0D01*
G01*
X262811Y175197D02*
G03*
X262811Y175197I-1000J0D01*
G01*
X263478D02*
G03*
X263478Y175197I-1667J0D01*
G01*
X479347Y37402D02*
G03*
X479347Y37402I-1000J0D01*
G01*
X480013D02*
G03*
X480013Y37402I-1667J0D01*
G01*
X117142Y233661D02*
G03*
X117142Y233661I-1000J0D01*
G01*
X117808D02*
G03*
X117808Y233661I-1667J0D01*
G01*
X73835Y212598D02*
G03*
X73835Y212598I-1000J0D01*
G01*
X74501D02*
G03*
X74501Y212598I-1667J0D01*
G01*
X30724Y231102D02*
G03*
X30724Y231102I-1000J0D01*
G01*
X31391D02*
G03*
X31391Y231102I-1667J0D01*
G01*
X404543Y258858D02*
G03*
X404543Y258858I-1000J0D01*
G01*
X405210D02*
G03*
X405210Y258858I-1667J0D01*
G01*
X454740Y88583D02*
G03*
X454740Y88583I-1000J0D01*
G01*
X455407D02*
G03*
X455407Y88583I-1667J0D01*
G01*
X26453Y189961D02*
G03*
X26453Y189961I-1000J0D01*
G01*
X27119D02*
G03*
X27119Y189961I-1667J0D01*
G01*
X121728Y189311D02*
G03*
X121728Y189311I-1000J0D01*
G01*
X122395D02*
G03*
X122395Y189311I-1667J0D01*
G01*
X74090Y190217D02*
G03*
X74090Y190217I-1000J0D01*
G01*
X74757D02*
G03*
X74757Y190217I-1667J0D01*
G01*
X311039Y228346D02*
G03*
X311039Y228346I-1000J0D01*
G01*
X311706D02*
G03*
X311706Y228346I-1667J0D01*
G01*
X242535Y206299D02*
G03*
X242535Y206299I-1000J0D01*
G01*
X243202D02*
G03*
X243202Y206299I-1667J0D01*
G01*
X101787Y233858D02*
G03*
X101787Y233858I-1000J0D01*
G01*
X102454D02*
G03*
X102454Y233858I-1667J0D01*
G01*
X362060Y169272D02*
G03*
X362060Y169272I-1667J0D01*
G01*
X352060Y159272D02*
G03*
X352060Y159272I-1667J0D01*
G01*
X342060Y169272D02*
G03*
X342060Y169272I-1667J0D01*
G01*
X666495Y251002D02*
X667245Y250252D01*
X665745Y251002D02*
X666495D01*
X665745D02*
X666495Y251752D01*
X665745Y252502D02*
X666495Y251752D01*
X665745Y252502D02*
X666495D01*
X667245Y253252D01*
X667995Y252502D01*
X668745D01*
X667995Y251752D02*
X668745Y252502D01*
X667995Y251752D02*
X668745Y251002D01*
X667995D02*
X668745D01*
X667245Y250252D02*
X667995Y251002D01*
X665995Y250502D02*
X667245Y249252D01*
X664745Y250502D02*
X665995D01*
X664745D02*
X665995Y251752D01*
X664745Y253002D02*
X665995Y251752D01*
X664745Y253002D02*
X665995D01*
X667245Y254252D01*
X668495Y253002D01*
X669745D01*
X668495Y251752D02*
X669745Y253002D01*
X668495Y251752D02*
X669745Y250502D01*
X668495D02*
X669745D01*
X667245Y249252D02*
X668495Y250502D01*
X665745Y220252D02*
X667245Y221002D01*
X668745Y220252D01*
X667995Y221752D02*
X668745Y220252D01*
X667995Y221752D02*
X668745Y223252D01*
X667245Y222502D02*
X668745Y223252D01*
X665745D02*
X667245Y222502D01*
X665745Y223252D02*
X666495Y221752D01*
X665745Y220252D02*
X666495Y221752D01*
X664745Y219252D02*
X667245Y220502D01*
X669745Y219252D01*
X668495Y221752D02*
X669745Y219252D01*
X668495Y221752D02*
X669745Y224252D01*
X667245Y223002D02*
X669745Y224252D01*
X664745D02*
X667245Y223002D01*
X664745Y224252D02*
X665995Y221752D01*
X664745Y219252D02*
X665995Y221752D01*
X664745Y204252D02*
Y205502D01*
X665995Y206752D01*
X664745Y208002D02*
X665995Y206752D01*
X664745Y208002D02*
Y209252D01*
X665995D01*
X667245Y208002D01*
X668495Y209252D01*
X669745D01*
Y208002D02*
Y209252D01*
X668495Y206752D02*
X669745Y208002D01*
X668495Y206752D02*
X669745Y205502D01*
Y204252D02*
Y205502D01*
X668495Y204252D02*
X669745D01*
X667245Y205502D02*
X668495Y204252D01*
X665995D02*
X667245Y205502D01*
X664745Y204252D02*
X665995D01*
X664745Y189252D02*
X669745D01*
Y194252D01*
X664745D02*
X669745D01*
X664745Y189252D02*
Y194252D01*
X667245Y175252D02*
X668745Y178252D01*
X665745D02*
X668745D01*
X665745D02*
X667245Y175252D01*
Y174252D02*
X669745Y179252D01*
X664745D02*
X669745D01*
X664745D02*
X667245Y174252D01*
X664745Y161752D02*
X667245Y159252D01*
X669745Y161752D01*
X667245Y164252D02*
X669745Y161752D01*
X664745D02*
X667245Y164252D01*
X664745Y145502D02*
X665995D01*
X664745D02*
Y148002D01*
X665995D01*
Y149252D01*
X668495D01*
Y148002D02*
Y149252D01*
Y148002D02*
X669745D01*
Y145502D02*
Y148002D01*
X668495Y145502D02*
X669745D01*
X668495Y144252D02*
Y145502D01*
X665995Y144252D02*
X668495D01*
X665995D02*
Y145502D01*
X665745Y130252D02*
X668745D01*
Y133252D01*
X665745D02*
X668745D01*
X665745Y130252D02*
Y133252D01*
X664745Y129252D02*
X669745D01*
Y134252D01*
X664745D02*
X669745D01*
X664745Y129252D02*
Y134252D01*
Y99252D02*
X667245Y100502D01*
X669745Y99252D01*
X668495Y101752D02*
X669745Y99252D01*
X668495Y101752D02*
X669745Y104252D01*
X667245Y103002D02*
X669745Y104252D01*
X664745D02*
X667245Y103002D01*
X664745Y104252D02*
X665995Y101752D01*
X664745Y99252D02*
X665995Y101752D01*
Y85502D02*
X667245Y84252D01*
X664745Y85502D02*
X665995D01*
X664745D02*
X665995Y86752D01*
X664745Y88002D02*
X665995Y86752D01*
X664745Y88002D02*
X665995D01*
X667245Y89252D01*
X668495Y88002D01*
X669745D01*
X668495Y86752D02*
X669745Y88002D01*
X668495Y86752D02*
X669745Y85502D01*
X668495D02*
X669745D01*
X667245Y84252D02*
X668495Y85502D01*
X96759Y185341D02*
X100092D01*
Y188674D01*
X96759D02*
X100092D01*
X96759Y185341D02*
Y188674D01*
X455693Y239158D02*
X457693D01*
Y241158D01*
X455693D02*
X457693D01*
X455693Y239158D02*
Y241158D01*
X455026Y238491D02*
X458360D01*
Y241824D01*
X455026D02*
X458360D01*
X455026Y238491D02*
Y241824D01*
X264197Y218921D02*
X266197D01*
Y220921D01*
X264197D02*
X266197D01*
X264197Y218921D02*
Y220921D01*
X263530Y218255D02*
X266863D01*
Y221588D01*
X263530D02*
X266863D01*
X263530Y218255D02*
Y221588D01*
X258842Y250969D02*
X260842D01*
Y252969D01*
X258842D02*
X260842D01*
X258842Y250969D02*
Y252969D01*
X258176Y250302D02*
X261509D01*
Y253635D01*
X258176D02*
X261509D01*
X258176Y250302D02*
Y253635D01*
X258842Y213567D02*
X260842D01*
Y215567D01*
X258842D02*
X260842D01*
X258842Y213567D02*
Y215567D01*
X258176Y212900D02*
X261509D01*
Y216234D01*
X258176D02*
X261509D01*
X258176Y212900D02*
Y216234D01*
X379421Y219972D02*
X379921Y219472D01*
X378921Y219972D02*
X379421D01*
X378921D02*
X379421Y220472D01*
X378921Y220972D02*
X379421Y220472D01*
X378921Y220972D02*
X379421D01*
X379921Y221472D01*
X380421Y220972D01*
X380921D01*
X380421Y220472D02*
X380921Y220972D01*
X380421Y220472D02*
X380921Y219972D01*
X380421D02*
X380921D01*
X379921Y219472D02*
X380421Y219972D01*
X379088Y219639D02*
X379921Y218806D01*
X378255Y219639D02*
X379088D01*
X378255D02*
X379088Y220472D01*
X378255Y221306D02*
X379088Y220472D01*
X378255Y221306D02*
X379088D01*
X379921Y222139D01*
X380755Y221306D01*
X381588D01*
X380755Y220472D02*
X381588Y221306D01*
X380755Y220472D02*
X381588Y219639D01*
X380755D02*
X381588D01*
X379921Y218806D02*
X380755Y219639D01*
X49514Y189278D02*
X52848D01*
Y192612D01*
X49514D02*
X52848D01*
X49514Y189278D02*
Y192612D01*
X138097Y210932D02*
X141430D01*
Y214265D01*
X138097D02*
X141430D01*
X138097Y210932D02*
Y214265D01*
X8786Y210321D02*
X12119D01*
Y213655D01*
X8786D02*
X12119D01*
X8786Y210321D02*
Y213655D01*
X309039Y179118D02*
X311039D01*
Y181118D01*
X309039D02*
X311039D01*
X309039Y179118D02*
Y181118D01*
X308373Y178451D02*
X311706D01*
Y181785D01*
X308373D02*
X311706D01*
X308373Y178451D02*
Y181785D01*
X236205Y169276D02*
X238205D01*
Y171276D01*
X236205D02*
X238205D01*
X236205Y169276D02*
Y171276D01*
X235538Y168609D02*
X238871D01*
Y171942D01*
X235538D02*
X238871D01*
X235538Y168609D02*
Y171942D01*
X243094Y164354D02*
X245094D01*
Y166354D01*
X243094D02*
X245094D01*
X243094Y164354D02*
Y166354D01*
X242428Y163688D02*
X245761D01*
Y167021D01*
X242428D02*
X245761D01*
X242428Y163688D02*
Y167021D01*
X225378Y160417D02*
X227378D01*
Y162417D01*
X225378D02*
X227378D01*
X225378Y160417D02*
Y162417D01*
X224711Y159751D02*
X228045D01*
Y163084D01*
X224711D02*
X228045D01*
X224711Y159751D02*
Y163084D01*
X298921Y208921D02*
X300921D01*
Y210921D01*
X298921D02*
X300921D01*
X298921Y208921D02*
Y210921D01*
X298255Y208255D02*
X301588D01*
Y211588D01*
X298255D02*
X301588D01*
X298255Y208255D02*
Y211588D01*
X240181Y193921D02*
X242181D01*
Y195921D01*
X240181D02*
X242181D01*
X240181Y193921D02*
Y195921D01*
X239514Y193255D02*
X242848D01*
Y196588D01*
X239514D02*
X242848D01*
X239514Y193255D02*
Y196588D01*
X129728Y193075D02*
X131728D01*
Y195075D01*
X129728D02*
X131728D01*
X129728Y193075D02*
Y195075D01*
X129062Y192408D02*
X132395D01*
Y195741D01*
X129062D02*
X132395D01*
X129062Y192408D02*
Y195741D01*
X34453Y192917D02*
X36453D01*
Y194917D01*
X34453D02*
X36453D01*
X34453Y192917D02*
Y194917D01*
X33786Y192251D02*
X37119D01*
Y195584D01*
X33786D02*
X37119D01*
X33786Y192251D02*
Y195584D01*
X82091Y193311D02*
X84091D01*
Y195311D01*
X82091D02*
X84091D01*
X82091Y193311D02*
Y195311D01*
X81424Y192644D02*
X84757D01*
Y195978D01*
X81424D02*
X84757D01*
X81424Y192644D02*
Y195978D01*
X304118Y184039D02*
X306118D01*
Y186039D01*
X304118D02*
X306118D01*
X304118Y184039D02*
Y186039D01*
X303451Y183373D02*
X306785D01*
Y186706D01*
X303451D02*
X306785D01*
X303451Y183373D02*
Y186706D01*
X373016Y148606D02*
X375016D01*
Y150606D01*
X373016D02*
X375016D01*
X373016Y148606D02*
Y150606D01*
X372349Y147940D02*
X375682D01*
Y151273D01*
X372349D02*
X375682D01*
X372349Y147940D02*
Y151273D01*
X373197Y152543D02*
X375197D01*
Y154543D01*
X373197D02*
X375197D01*
X373197Y152543D02*
Y154543D01*
X372530Y151877D02*
X375864D01*
Y155210D01*
X372530D02*
X375864D01*
X372530Y151877D02*
Y155210D01*
X499000Y134827D02*
X501000D01*
Y136827D01*
X499000D02*
X501000D01*
X499000Y134827D02*
Y136827D01*
X498333Y134160D02*
X501667D01*
Y137493D01*
X498333D02*
X501667D01*
X498333Y134160D02*
Y137493D01*
X499000Y128921D02*
X501000D01*
Y130921D01*
X499000D02*
X501000D01*
X499000Y128921D02*
Y130921D01*
X498333Y128255D02*
X501667D01*
Y131588D01*
X498333D02*
X501667D01*
X498333Y128255D02*
Y131588D01*
X343488Y124984D02*
X345488D01*
Y126984D01*
X343488D02*
X345488D01*
X343488Y124984D02*
Y126984D01*
X342822Y124318D02*
X346155D01*
Y127651D01*
X342822D02*
X346155D01*
X342822Y124318D02*
Y127651D01*
X343488Y117110D02*
X345488D01*
Y119110D01*
X343488D02*
X345488D01*
X343488Y117110D02*
Y119110D01*
X342822Y116444D02*
X346155D01*
Y119777D01*
X342822D02*
X346155D01*
X342822Y116444D02*
Y119777D01*
X436008Y128921D02*
X438008D01*
Y130921D01*
X436008D02*
X438008D01*
X436008Y128921D02*
Y130921D01*
X435341Y128255D02*
X438674D01*
Y131588D01*
X435341D02*
X438674D01*
X435341Y128255D02*
Y131588D01*
X120260Y9630D02*
X122260D01*
Y11630D01*
X120260D02*
X122260D01*
X120260Y9630D02*
Y11630D01*
X119593Y8963D02*
X122926D01*
Y12297D01*
X119593D02*
X122926D01*
X119593Y8963D02*
Y12297D01*
X120260Y15535D02*
X122260D01*
Y17535D01*
X120260D02*
X122260D01*
X120260Y15535D02*
Y17535D01*
X119593Y14869D02*
X122926D01*
Y18202D01*
X119593D02*
X122926D01*
X119593Y14869D02*
Y18202D01*
X120653Y26165D02*
X122653D01*
Y28165D01*
X120653D02*
X122653D01*
X120653Y26165D02*
Y28165D01*
X119987Y25499D02*
X123320D01*
Y28832D01*
X119987D02*
X123320D01*
X119987Y25499D02*
Y28832D01*
X493094Y152543D02*
X495094D01*
Y154543D01*
X493094D02*
X495094D01*
X493094Y152543D02*
Y154543D01*
X492428Y151877D02*
X495761D01*
Y155210D01*
X492428D02*
X495761D01*
X492428Y151877D02*
Y155210D01*
X363491Y349718D02*
X364324D01*
X363491D02*
Y351384D01*
X364324D01*
Y352218D01*
X365991D01*
Y351384D02*
Y352218D01*
Y351384D02*
X366824D01*
Y349718D02*
Y351384D01*
X365991Y349718D02*
X366824D01*
X365991Y348885D02*
Y349718D01*
X364324Y348885D02*
X365991D01*
X364324D02*
Y349718D01*
X363491Y339718D02*
X364324D01*
X363491D02*
Y341385D01*
X364324D01*
Y342218D01*
X365991D01*
Y341385D02*
Y342218D01*
Y341385D02*
X366824D01*
Y339718D02*
Y341385D01*
X365991Y339718D02*
X366824D01*
X365991Y338884D02*
Y339718D01*
X364324Y338884D02*
X365991D01*
X364324D02*
Y339718D01*
X204632Y182388D02*
X207966D01*
Y185722D01*
X204632D02*
X207966D01*
X204632Y182388D02*
Y185722D01*
Y190262D02*
X207966D01*
Y193596D01*
X204632D02*
X207966D01*
X204632Y190262D02*
Y193596D01*
X91293Y10584D02*
X92126Y9751D01*
X90459Y10584D02*
X91293D01*
X90459D02*
X91293Y11417D01*
X90459Y12251D02*
X91293Y11417D01*
X90459Y12251D02*
X91293D01*
X92126Y13084D01*
X92959Y12251D01*
X93793D01*
X92959Y11417D02*
X93793Y12251D01*
X92959Y11417D02*
X93793Y10584D01*
X92959D02*
X93793D01*
X92126Y9751D02*
X92959Y10584D01*
X91293Y15702D02*
X92126Y14869D01*
X90459Y15702D02*
X91293D01*
X90459D02*
X91293Y16535D01*
X90459Y17369D02*
X91293Y16535D01*
X90459Y17369D02*
X91293D01*
X92126Y18202D01*
X92959Y17369D01*
X93793D01*
X92959Y16535D02*
X93793Y17369D01*
X92959Y16535D02*
X93793Y15702D01*
X92959D02*
X93793D01*
X92126Y14869D02*
X92959Y15702D01*
X91293Y20820D02*
X92126Y19987D01*
X90459Y20820D02*
X91293D01*
X90459D02*
X91293Y21654D01*
X90459Y22487D02*
X91293Y21654D01*
X90459Y22487D02*
X91293D01*
X92126Y23320D01*
X92959Y22487D01*
X93793D01*
X92959Y21654D02*
X93793Y22487D01*
X92959Y21654D02*
X93793Y20820D01*
X92959D02*
X93793D01*
X92126Y19987D02*
X92959Y20820D01*
X91293Y25938D02*
X92126Y25105D01*
X90459Y25938D02*
X91293D01*
X90459D02*
X91293Y26772D01*
X90459Y27605D02*
X91293Y26772D01*
X90459Y27605D02*
X91293D01*
X92126Y28438D01*
X92959Y27605D01*
X93793D01*
X92959Y26772D02*
X93793Y27605D01*
X92959Y26772D02*
X93793Y25938D01*
X92959D02*
X93793D01*
X92126Y25105D02*
X92959Y25938D01*
X499049Y22001D02*
X499882Y21168D01*
X498215Y22001D02*
X499049D01*
X498215D02*
X499049Y22835D01*
X498215Y23668D02*
X499049Y22835D01*
X498215Y23668D02*
X499049D01*
X499882Y24501D01*
X500715Y23668D01*
X501548D01*
X500715Y22835D02*
X501548Y23668D01*
X500715Y22835D02*
X501548Y22001D01*
X500715D02*
X501548D01*
X499882Y21168D02*
X500715Y22001D01*
X504285D02*
X505118Y21168D01*
X503451Y22001D02*
X504285D01*
X503451D02*
X504285Y22835D01*
X503451Y23668D02*
X504285Y22835D01*
X503451Y23668D02*
X504285D01*
X505118Y24501D01*
X505951Y23668D01*
X506785D01*
X505951Y22835D02*
X506785Y23668D01*
X505951Y22835D02*
X506785Y22001D01*
X505951D02*
X506785D01*
X505118Y21168D02*
X505951Y22001D01*
X509521D02*
X510354Y21168D01*
X508688Y22001D02*
X509521D01*
X508688D02*
X509521Y22835D01*
X508688Y23668D02*
X509521Y22835D01*
X508688Y23668D02*
X509521D01*
X510354Y24501D01*
X511188Y23668D01*
X512021D01*
X511188Y22835D02*
X512021Y23668D01*
X511188Y22835D02*
X512021Y22001D01*
X511188D02*
X512021D01*
X510354Y21168D02*
X511188Y22001D01*
X552474Y170938D02*
X553307Y170105D01*
X551640Y170938D02*
X552474D01*
X551640D02*
X552474Y171772D01*
X551640Y172605D02*
X552474Y171772D01*
X551640Y172605D02*
X552474D01*
X553307Y173438D01*
X554140Y172605D01*
X554974D01*
X554140Y171772D02*
X554974Y172605D01*
X554140Y171772D02*
X554974Y170938D01*
X554140D02*
X554974D01*
X553307Y170105D02*
X554140Y170938D01*
X542474D02*
X543307Y170105D01*
X541640Y170938D02*
X542474D01*
X541640D02*
X542474Y171772D01*
X541640Y172605D02*
X542474Y171772D01*
X541640Y172605D02*
X542474D01*
X543307Y173438D01*
X544140Y172605D01*
X544974D01*
X544140Y171772D02*
X544974Y172605D01*
X544140Y171772D02*
X544974Y170938D01*
X544140D02*
X544974D01*
X543307Y170105D02*
X544140Y170938D01*
X552474Y180938D02*
X553307Y180105D01*
X551640Y180938D02*
X552474D01*
X551640D02*
X552474Y181772D01*
X551640Y182605D02*
X552474Y181772D01*
X551640Y182605D02*
X552474D01*
X553307Y183438D01*
X554140Y182605D01*
X554974D01*
X554140Y181772D02*
X554974Y182605D01*
X554140Y181772D02*
X554974Y180938D01*
X554140D02*
X554974D01*
X553307Y180105D02*
X554140Y180938D01*
X542474D02*
X543307Y180105D01*
X541640Y180938D02*
X542474D01*
X541640D02*
X542474Y181772D01*
X541640Y182605D02*
X542474Y181772D01*
X541640Y182605D02*
X542474D01*
X543307Y183438D01*
X544140Y182605D01*
X544974D01*
X544140Y181772D02*
X544974Y182605D01*
X544140Y181772D02*
X544974Y180938D01*
X544140D02*
X544974D01*
X543307Y180105D02*
X544140Y180938D01*
X552474Y190938D02*
X553307Y190105D01*
X551640Y190938D02*
X552474D01*
X551640D02*
X552474Y191772D01*
X551640Y192605D02*
X552474Y191772D01*
X551640Y192605D02*
X552474D01*
X553307Y193438D01*
X554140Y192605D01*
X554974D01*
X554140Y191772D02*
X554974Y192605D01*
X554140Y191772D02*
X554974Y190938D01*
X554140D02*
X554974D01*
X553307Y190105D02*
X554140Y190938D01*
X542474D02*
X543307Y190105D01*
X541640Y190938D02*
X542474D01*
X541640D02*
X542474Y191772D01*
X541640Y192605D02*
X542474Y191772D01*
X541640Y192605D02*
X542474D01*
X543307Y193438D01*
X544140Y192605D01*
X544974D01*
X544140Y191772D02*
X544974Y192605D01*
X544140Y191772D02*
X544974Y190938D01*
X544140D02*
X544974D01*
X543307Y190105D02*
X544140Y190938D01*
X552474Y200938D02*
X553307Y200105D01*
X551640Y200938D02*
X552474D01*
X551640D02*
X552474Y201772D01*
X551640Y202605D02*
X552474Y201772D01*
X551640Y202605D02*
X552474D01*
X553307Y203438D01*
X554140Y202605D01*
X554974D01*
X554140Y201772D02*
X554974Y202605D01*
X554140Y201772D02*
X554974Y200938D01*
X554140D02*
X554974D01*
X553307Y200105D02*
X554140Y200938D01*
X542474D02*
X543307Y200105D01*
X541640Y200938D02*
X542474D01*
X541640D02*
X542474Y201772D01*
X541640Y202605D02*
X542474Y201772D01*
X541640Y202605D02*
X542474D01*
X543307Y203438D01*
X544140Y202605D01*
X544974D01*
X544140Y201772D02*
X544974Y202605D01*
X544140Y201772D02*
X544974Y200938D01*
X544140D02*
X544974D01*
X543307Y200105D02*
X544140Y200938D01*
X292625Y286417D02*
X294291Y284751D01*
X295958Y286417D01*
X294291Y288084D02*
X295958Y286417D01*
X292625D02*
X294291Y288084D01*
X289344Y286417D02*
X291010Y284751D01*
X292677Y286417D01*
X291010Y288084D02*
X292677Y286417D01*
X289344D02*
X291010Y288084D01*
X286063Y286417D02*
X287730Y284751D01*
X289396Y286417D01*
X287730Y288084D02*
X289396Y286417D01*
X286063D02*
X287730Y288084D01*
X282782Y286417D02*
X284449Y284751D01*
X286116Y286417D01*
X284449Y288084D02*
X286116Y286417D01*
X282782D02*
X284449Y288084D01*
X282782Y276575D02*
X284449Y274908D01*
X286116Y276575D01*
X284449Y278241D02*
X286116Y276575D01*
X282782D02*
X284449Y278241D01*
X286063Y276575D02*
X287730Y274908D01*
X289396Y276575D01*
X287730Y278241D02*
X289396Y276575D01*
X286063D02*
X287730Y278241D01*
X289344Y276575D02*
X291010Y274908D01*
X292677Y276575D01*
X291010Y278241D02*
X292677Y276575D01*
X289344D02*
X291010Y278241D01*
X292625Y276575D02*
X294291Y274908D01*
X295958Y276575D01*
X294291Y278241D02*
X295958Y276575D01*
X292625D02*
X294291Y278241D01*
X144003Y276575D02*
X145669Y274908D01*
X147336Y276575D01*
X145669Y278241D02*
X147336Y276575D01*
X144003D02*
X145669Y278241D01*
X140722Y276575D02*
X142388Y274908D01*
X144055Y276575D01*
X142388Y278241D02*
X144055Y276575D01*
X140722D02*
X142388Y278241D01*
X137441Y276575D02*
X139108Y274908D01*
X140774Y276575D01*
X139108Y278241D02*
X140774Y276575D01*
X137441D02*
X139108Y278241D01*
X134160Y276575D02*
X135827Y274908D01*
X137493Y276575D01*
X135827Y278241D02*
X137493Y276575D01*
X134160D02*
X135827Y278241D01*
X134160Y286417D02*
X135827Y284751D01*
X137493Y286417D01*
X135827Y288084D02*
X137493Y286417D01*
X134160D02*
X135827Y288084D01*
X137441Y286417D02*
X139108Y284751D01*
X140774Y286417D01*
X139108Y288084D02*
X140774Y286417D01*
X137441D02*
X139108Y288084D01*
X140722Y286417D02*
X142388Y284751D01*
X144055Y286417D01*
X142388Y288084D02*
X144055Y286417D01*
X140722D02*
X142388Y288084D01*
X144003Y286417D02*
X145669Y284751D01*
X147336Y286417D01*
X145669Y288084D02*
X147336Y286417D01*
X144003D02*
X145669Y288084D01*
X66929Y30496D02*
X67929Y32496D01*
X65929D02*
X67929D01*
X65929D02*
X66929Y30496D01*
Y29829D02*
X68596Y33163D01*
X65263D02*
X68596D01*
X65263D02*
X66929Y29829D01*
X530223Y231608D02*
X531056D01*
X530223D02*
Y233274D01*
X531056D01*
Y234108D01*
X532723D01*
Y233274D02*
Y234108D01*
Y233274D02*
X533556D01*
Y231608D02*
Y233274D01*
X532723Y231608D02*
X533556D01*
X532723Y230774D02*
Y231608D01*
X531056Y230774D02*
X532723D01*
X531056D02*
Y231608D01*
X530223Y221608D02*
X531056D01*
X530223D02*
Y223274D01*
X531056D01*
Y224108D01*
X532723D01*
Y223274D02*
Y224108D01*
Y223274D02*
X533556D01*
Y221608D02*
Y223274D01*
X532723Y221608D02*
X533556D01*
X532723Y220774D02*
Y221608D01*
X531056Y220774D02*
X532723D01*
X531056D02*
Y221608D01*
X529829Y255623D02*
X530663D01*
X529829D02*
Y257290D01*
X530663D01*
Y258123D01*
X532329D01*
Y257290D02*
Y258123D01*
Y257290D02*
X533163D01*
Y255623D02*
Y257290D01*
X532329Y255623D02*
X533163D01*
X532329Y254790D02*
Y255623D01*
X530663Y254790D02*
X532329D01*
X530663D02*
Y255623D01*
X529829Y245623D02*
X530663D01*
X529829D02*
Y247290D01*
X530663D01*
Y248123D01*
X532329D01*
Y247290D02*
Y248123D01*
Y247290D02*
X533163D01*
Y245623D02*
Y247290D01*
X532329Y245623D02*
X533163D01*
X532329Y244790D02*
Y245623D01*
X530663Y244790D02*
X532329D01*
X530663D02*
Y245623D01*
X497782Y236962D02*
X498616D01*
X497782D02*
Y238629D01*
X498616D01*
Y239462D01*
X500282D01*
Y238629D02*
Y239462D01*
Y238629D02*
X501116D01*
Y236962D02*
Y238629D01*
X500282Y236962D02*
X501116D01*
X500282Y236129D02*
Y236962D01*
X498616Y236129D02*
X500282D01*
X498616D02*
Y236962D01*
X507782D02*
X508615D01*
X507782D02*
Y238629D01*
X508615D01*
Y239462D01*
X510282D01*
Y238629D02*
Y239462D01*
Y238629D02*
X511116D01*
Y236962D02*
Y238629D01*
X510282Y236962D02*
X511116D01*
X510282Y236129D02*
Y236962D01*
X508615Y236129D02*
X510282D01*
X508615D02*
Y236962D01*
X105860Y258615D02*
X106693Y257782D01*
X105026Y258615D02*
X105860D01*
X105026D02*
X105860Y259449D01*
X105026Y260282D02*
X105860Y259449D01*
X105026Y260282D02*
X105860D01*
X106693Y261116D01*
X107526Y260282D01*
X108360D01*
X107526Y259449D02*
X108360Y260282D01*
X107526Y259449D02*
X108360Y258615D01*
X107526D02*
X108360D01*
X106693Y257782D02*
X107526Y258615D01*
X95860D02*
X96693Y257782D01*
X95026Y258615D02*
X95860D01*
X95026D02*
X95860Y259449D01*
X95026Y260282D02*
X95860Y259449D01*
X95026Y260282D02*
X95860D01*
X96693Y261116D01*
X97526Y260282D01*
X98360D01*
X97526Y259449D02*
X98360Y260282D01*
X97526Y259449D02*
X98360Y258615D01*
X97526D02*
X98360D01*
X96693Y257782D02*
X97526Y258615D01*
X85860D02*
X86693Y257782D01*
X85026Y258615D02*
X85860D01*
X85026D02*
X85860Y259449D01*
X85026Y260282D02*
X85860Y259449D01*
X85026Y260282D02*
X85860D01*
X86693Y261116D01*
X87526Y260282D01*
X88360D01*
X87526Y259449D02*
X88360Y260282D01*
X87526Y259449D02*
X88360Y258615D01*
X87526D02*
X88360D01*
X86693Y257782D02*
X87526Y258615D01*
X75860D02*
X76693Y257782D01*
X75026Y258615D02*
X75860D01*
X75026D02*
X75860Y259449D01*
X75026Y260282D02*
X75860Y259449D01*
X75026Y260282D02*
X75860D01*
X76693Y261116D01*
X77526Y260282D01*
X78360D01*
X77526Y259449D02*
X78360Y260282D01*
X77526Y259449D02*
X78360Y258615D01*
X77526D02*
X78360D01*
X76693Y257782D02*
X77526Y258615D01*
X65860D02*
X66693Y257782D01*
X65026Y258615D02*
X65860D01*
X65026D02*
X65860Y259449D01*
X65026Y260282D02*
X65860Y259449D01*
X65026Y260282D02*
X65860D01*
X66693Y261116D01*
X67526Y260282D01*
X68360D01*
X67526Y259449D02*
X68360Y260282D01*
X67526Y259449D02*
X68360Y258615D01*
X67526D02*
X68360D01*
X66693Y257782D02*
X67526Y258615D01*
X55860D02*
X56693Y257782D01*
X55026Y258615D02*
X55860D01*
X55026D02*
X55860Y259449D01*
X55026Y260282D02*
X55860Y259449D01*
X55026Y260282D02*
X55860D01*
X56693Y261116D01*
X57526Y260282D01*
X58360D01*
X57526Y259449D02*
X58360Y260282D01*
X57526Y259449D02*
X58360Y258615D01*
X57526D02*
X58360D01*
X56693Y257782D02*
X57526Y258615D01*
X483530Y21608D02*
X484364D01*
X483530D02*
Y23274D01*
X484364D01*
Y24108D01*
X486030D01*
Y23274D02*
Y24108D01*
Y23274D02*
X486864D01*
Y21608D02*
Y23274D01*
X486030Y21608D02*
X486864D01*
X486030Y20774D02*
Y21608D01*
X484364Y20774D02*
X486030D01*
X484364D02*
Y21608D01*
X473530D02*
X474364D01*
X473530D02*
Y23274D01*
X474364D01*
Y24108D01*
X476030D01*
Y23274D02*
Y24108D01*
Y23274D02*
X476863D01*
Y21608D02*
Y23274D01*
X476030Y21608D02*
X476863D01*
X476030Y20774D02*
Y21608D01*
X474364Y20774D02*
X476030D01*
X474364D02*
Y21608D01*
X546759Y65072D02*
X547592D01*
X546759D02*
Y66739D01*
X547592D01*
Y67572D01*
X549259D01*
Y66739D02*
Y67572D01*
Y66739D02*
X550092D01*
Y65072D02*
Y66739D01*
X549259Y65072D02*
X550092D01*
X549259Y64239D02*
Y65072D01*
X547592Y64239D02*
X549259D01*
X547592D02*
Y65072D01*
X546759Y55072D02*
X547592D01*
X546759D02*
Y56739D01*
X547592D01*
Y57572D01*
X549259D01*
Y56739D02*
Y57572D01*
Y56739D02*
X550092D01*
Y55072D02*
Y56739D01*
X549259Y55072D02*
X550092D01*
X549259Y54239D02*
Y55072D01*
X547592Y54239D02*
X549259D01*
X547592D02*
Y55072D01*
X546759Y41056D02*
X547592D01*
X546759D02*
Y42723D01*
X547592D01*
Y43556D01*
X549259D01*
Y42723D02*
Y43556D01*
Y42723D02*
X550092D01*
Y41056D02*
Y42723D01*
X549259Y41056D02*
X550092D01*
X549259Y40223D02*
Y41056D01*
X547592Y40223D02*
X549259D01*
X547592D02*
Y41056D01*
X546759Y31056D02*
X547592D01*
X546759D02*
Y32723D01*
X547592D01*
Y33556D01*
X549259D01*
Y32723D02*
Y33556D01*
Y32723D02*
X550092D01*
Y31056D02*
Y32723D01*
X549259Y31056D02*
X550092D01*
X549259Y30223D02*
Y31056D01*
X547592Y30223D02*
X549259D01*
X547592D02*
Y31056D01*
X546759Y89088D02*
X547592D01*
X546759D02*
Y90755D01*
X547592D01*
Y91588D01*
X549259D01*
Y90755D02*
Y91588D01*
Y90755D02*
X550092D01*
Y89088D02*
Y90755D01*
X549259Y89088D02*
X550092D01*
X549259Y88255D02*
Y89088D01*
X547592Y88255D02*
X549259D01*
X547592D02*
Y89088D01*
X546759Y79088D02*
X547592D01*
X546759D02*
Y80755D01*
X547592D01*
Y81588D01*
X549259D01*
Y80755D02*
Y81588D01*
Y80755D02*
X550092D01*
Y79088D02*
Y80755D01*
X549259Y79088D02*
X550092D01*
X549259Y78255D02*
Y79088D01*
X547592Y78255D02*
X549259D01*
X547592D02*
Y79088D01*
X546759Y113104D02*
X547592D01*
X546759D02*
Y114770D01*
X547592D01*
Y115604D01*
X549259D01*
Y114770D02*
Y115604D01*
Y114770D02*
X550092D01*
Y113104D02*
Y114770D01*
X549259Y113104D02*
X550092D01*
X549259Y112270D02*
Y113104D01*
X547592Y112270D02*
X549259D01*
X547592D02*
Y113104D01*
X546759Y103104D02*
X547592D01*
X546759D02*
Y104770D01*
X547592D01*
Y105604D01*
X549259D01*
Y104770D02*
Y105604D01*
Y104770D02*
X550092D01*
Y103104D02*
Y104770D01*
X549259Y103104D02*
X550092D01*
X549259Y102270D02*
Y103104D01*
X547592Y102270D02*
X549259D01*
X547592D02*
Y103104D01*
X546759Y137119D02*
X547592D01*
X546759D02*
Y138786D01*
X547592D01*
Y139619D01*
X549259D01*
Y138786D02*
Y139619D01*
Y138786D02*
X550092D01*
Y137119D02*
Y138786D01*
X549259Y137119D02*
X550092D01*
X549259Y136286D02*
Y137119D01*
X547592Y136286D02*
X549259D01*
X547592D02*
Y137119D01*
X546759Y127119D02*
X547592D01*
X546759D02*
Y128786D01*
X547592D01*
Y129619D01*
X549259D01*
Y128786D02*
Y129619D01*
Y128786D02*
X550092D01*
Y127119D02*
Y128786D01*
X549259Y127119D02*
X550092D01*
X549259Y126286D02*
Y127119D01*
X547592Y126286D02*
X549259D01*
X547592D02*
Y127119D01*
X12598Y261992D02*
X13598Y263992D01*
X11598D02*
X13598D01*
X11598D02*
X12598Y261992D01*
Y261326D02*
X14265Y264659D01*
X10932D02*
X14265D01*
X10932D02*
X12598Y261326D01*
X558268Y261992D02*
X559268Y263992D01*
X557268D02*
X559268D01*
X557268D02*
X558268Y261992D01*
Y261326D02*
X559934Y264659D01*
X556601D02*
X559934D01*
X556601D02*
X558268Y261326D01*
Y11598D02*
X559268Y13598D01*
X557268D02*
X559268D01*
X557268D02*
X558268Y11598D01*
Y10932D02*
X559934Y14265D01*
X556601D02*
X559934D01*
X556601D02*
X558268Y10932D01*
X466520Y250063D02*
X467520Y250563D01*
X468520Y250063D01*
X468020Y251063D02*
X468520Y250063D01*
X468020Y251063D02*
X468520Y252063D01*
X467520Y251563D02*
X468520Y252063D01*
X466520D02*
X467520Y251563D01*
X466520Y252063D02*
X467020Y251063D01*
X466520Y250063D02*
X467020Y251063D01*
X465853Y249396D02*
X467520Y250230D01*
X469186Y249396D01*
X468353Y251063D02*
X469186Y249396D01*
X468353Y251063D02*
X469186Y252730D01*
X467520Y251896D02*
X469186Y252730D01*
X465853D02*
X467520Y251896D01*
X465853Y252730D02*
X466686Y251063D01*
X465853Y249396D02*
X466686Y251063D01*
X466520Y245063D02*
X467520Y245563D01*
X468520Y245063D01*
X468020Y246063D02*
X468520Y245063D01*
X468020Y246063D02*
X468520Y247063D01*
X467520Y246563D02*
X468520Y247063D01*
X466520D02*
X467520Y246563D01*
X466520Y247063D02*
X467020Y246063D01*
X466520Y245063D02*
X467020Y246063D01*
X465853Y244396D02*
X467520Y245230D01*
X469186Y244396D01*
X468353Y246063D02*
X469186Y244396D01*
X468353Y246063D02*
X469186Y247730D01*
X467520Y246896D02*
X469186Y247730D01*
X465853D02*
X467520Y246896D01*
X465853Y247730D02*
X466686Y246063D01*
X465853Y244396D02*
X466686Y246063D01*
X466520Y240063D02*
X467520Y240563D01*
X468520Y240063D01*
X468020Y241063D02*
X468520Y240063D01*
X468020Y241063D02*
X468520Y242063D01*
X467520Y241563D02*
X468520Y242063D01*
X466520D02*
X467520Y241563D01*
X466520Y242063D02*
X467020Y241063D01*
X466520Y240063D02*
X467020Y241063D01*
X465853Y239396D02*
X467520Y240230D01*
X469186Y239396D01*
X468353Y241063D02*
X469186Y239396D01*
X468353Y241063D02*
X469186Y242730D01*
X467520Y241896D02*
X469186Y242730D01*
X465853D02*
X467520Y241896D01*
X465853Y242730D02*
X466686Y241063D01*
X465853Y239396D02*
X466686Y241063D01*
X414081Y209593D02*
Y210426D01*
X414915Y211260D01*
X414081Y212093D02*
X414915Y211260D01*
X414081Y212093D02*
Y212927D01*
X414915D01*
X415748Y212093D01*
X416581Y212927D01*
X417415D01*
Y212093D02*
Y212927D01*
X416581Y211260D02*
X417415Y212093D01*
X416581Y211260D02*
X417415Y210426D01*
Y209593D02*
Y210426D01*
X416581Y209593D02*
X417415D01*
X415748Y210426D02*
X416581Y209593D01*
X414915D02*
X415748Y210426D01*
X414081Y209593D02*
X414915D01*
X414081Y229593D02*
Y230427D01*
X414915Y231260D01*
X414081Y232093D02*
X414915Y231260D01*
X414081Y232093D02*
Y232927D01*
X414915D01*
X415748Y232093D01*
X416581Y232927D01*
X417415D01*
Y232093D02*
Y232927D01*
X416581Y231260D02*
X417415Y232093D01*
X416581Y231260D02*
X417415Y230427D01*
Y229593D02*
Y230427D01*
X416581Y229593D02*
X417415D01*
X415748Y230427D02*
X416581Y229593D01*
X414915D02*
X415748Y230427D01*
X414081Y229593D02*
X414915D01*
X414081Y219593D02*
Y220427D01*
X414915Y221260D01*
X414081Y222093D02*
X414915Y221260D01*
X414081Y222093D02*
Y222926D01*
X414915D01*
X415748Y222093D01*
X416581Y222926D01*
X417415D01*
Y222093D02*
Y222926D01*
X416581Y221260D02*
X417415Y222093D01*
X416581Y221260D02*
X417415Y220427D01*
Y219593D02*
Y220427D01*
X416581Y219593D02*
X417415D01*
X415748Y220427D02*
X416581Y219593D01*
X414915D02*
X415748Y220427D01*
X414081Y219593D02*
X414915D01*
X447310Y169593D02*
X448976Y170426D01*
X450643Y169593D01*
X449810Y171260D02*
X450643Y169593D01*
X449810Y171260D02*
X450643Y172926D01*
X448976Y172093D02*
X450643Y172926D01*
X447310D02*
X448976Y172093D01*
X447310Y172926D02*
X448143Y171260D01*
X447310Y169593D02*
X448143Y171260D01*
X427310Y169593D02*
X428976Y170426D01*
X430643Y169593D01*
X429810Y171260D02*
X430643Y169593D01*
X429810Y171260D02*
X430643Y172926D01*
X428976Y172093D02*
X430643Y172926D01*
X427310D02*
X428976Y172093D01*
X427310Y172926D02*
X428143Y171260D01*
X427310Y169593D02*
X428143Y171260D01*
X437310Y169593D02*
X438976Y170426D01*
X440643Y169593D01*
X439810Y171260D02*
X440643Y169593D01*
X439810Y171260D02*
X440643Y172926D01*
X438976Y172093D02*
X440643Y172926D01*
X437310D02*
X438976Y172093D01*
X437310Y172926D02*
X438143Y171260D01*
X437310Y169593D02*
X438143Y171260D01*
X148773Y49482D02*
X149606Y48648D01*
X147940Y49482D02*
X148773D01*
X147940D02*
X148773Y50315D01*
X147940Y51148D02*
X148773Y50315D01*
X147940Y51148D02*
X148773D01*
X149606Y51982D01*
X150440Y51148D01*
X151273D01*
X150440Y50315D02*
X151273Y51148D01*
X150440Y50315D02*
X151273Y49482D01*
X150440D02*
X151273D01*
X149606Y48648D02*
X150440Y49482D01*
X148773Y59482D02*
X149606Y58648D01*
X147940Y59482D02*
X148773D01*
X147940D02*
X148773Y60315D01*
X147940Y61148D02*
X148773Y60315D01*
X147940Y61148D02*
X148773D01*
X149606Y61982D01*
X150440Y61148D01*
X151273D01*
X150440Y60315D02*
X151273Y61148D01*
X150440Y60315D02*
X151273Y59482D01*
X150440D02*
X151273D01*
X149606Y58648D02*
X150440Y59482D01*
X148773Y69482D02*
X149606Y68648D01*
X147940Y69482D02*
X148773D01*
X147940D02*
X148773Y70315D01*
X147940Y71148D02*
X148773Y70315D01*
X147940Y71148D02*
X148773D01*
X149606Y71982D01*
X150440Y71148D01*
X151273D01*
X150440Y70315D02*
X151273Y71148D01*
X150440Y70315D02*
X151273Y69482D01*
X150440D02*
X151273D01*
X149606Y68648D02*
X150440Y69482D01*
X148773Y79482D02*
X149606Y78648D01*
X147940Y79482D02*
X148773D01*
X147940D02*
X148773Y80315D01*
X147940Y81148D02*
X148773Y80315D01*
X147940Y81148D02*
X148773D01*
X149606Y81982D01*
X150440Y81148D01*
X151273D01*
X150440Y80315D02*
X151273Y81148D01*
X150440Y80315D02*
X151273Y79482D01*
X150440D02*
X151273D01*
X149606Y78648D02*
X150440Y79482D01*
X148773Y89482D02*
X149606Y88648D01*
X147940Y89482D02*
X148773D01*
X147940D02*
X148773Y90315D01*
X147940Y91148D02*
X148773Y90315D01*
X147940Y91148D02*
X148773D01*
X149606Y91982D01*
X150440Y91148D01*
X151273D01*
X150440Y90315D02*
X151273Y91148D01*
X150440Y90315D02*
X151273Y89482D01*
X150440D02*
X151273D01*
X149606Y88648D02*
X150440Y89482D01*
X148773Y99482D02*
X149606Y98648D01*
X147940Y99482D02*
X148773D01*
X147940D02*
X148773Y100315D01*
X147940Y101148D02*
X148773Y100315D01*
X147940Y101148D02*
X148773D01*
X149606Y101982D01*
X150440Y101148D01*
X151273D01*
X150440Y100315D02*
X151273Y101148D01*
X150440Y100315D02*
X151273Y99482D01*
X150440D02*
X151273D01*
X149606Y98648D02*
X150440Y99482D01*
X138773D02*
X139606Y98648D01*
X137940Y99482D02*
X138773D01*
X137940D02*
X138773Y100315D01*
X137940Y101148D02*
X138773Y100315D01*
X137940Y101148D02*
X138773D01*
X139606Y101982D01*
X140440Y101148D01*
X141273D01*
X140440Y100315D02*
X141273Y101148D01*
X140440Y100315D02*
X141273Y99482D01*
X140440D02*
X141273D01*
X139606Y98648D02*
X140440Y99482D01*
X138773Y119482D02*
X139606Y118648D01*
X137940Y119482D02*
X138773D01*
X137940D02*
X138773Y120315D01*
X137940Y121148D02*
X138773Y120315D01*
X137940Y121148D02*
X138773D01*
X139606Y121982D01*
X140440Y121148D01*
X141273D01*
X140440Y120315D02*
X141273Y121148D01*
X140440Y120315D02*
X141273Y119482D01*
X140440D02*
X141273D01*
X139606Y118648D02*
X140440Y119482D01*
X138773Y109482D02*
X139606Y108648D01*
X137940Y109482D02*
X138773D01*
X137940D02*
X138773Y110315D01*
X137940Y111148D02*
X138773Y110315D01*
X137940Y111148D02*
X138773D01*
X139606Y111982D01*
X140440Y111148D01*
X141273D01*
X140440Y110315D02*
X141273Y111148D01*
X140440Y110315D02*
X141273Y109482D01*
X140440D02*
X141273D01*
X139606Y108648D02*
X140440Y109482D01*
X138773Y49482D02*
X139606Y48648D01*
X137940Y49482D02*
X138773D01*
X137940D02*
X138773Y50315D01*
X137940Y51148D02*
X138773Y50315D01*
X137940Y51148D02*
X138773D01*
X139606Y51982D01*
X140440Y51148D01*
X141273D01*
X140440Y50315D02*
X141273Y51148D01*
X140440Y50315D02*
X141273Y49482D01*
X140440D02*
X141273D01*
X139606Y48648D02*
X140440Y49482D01*
X138773Y89482D02*
X139606Y88648D01*
X137940Y89482D02*
X138773D01*
X137940D02*
X138773Y90315D01*
X137940Y91148D02*
X138773Y90315D01*
X137940Y91148D02*
X138773D01*
X139606Y91982D01*
X140440Y91148D01*
X141273D01*
X140440Y90315D02*
X141273Y91148D01*
X140440Y90315D02*
X141273Y89482D01*
X140440D02*
X141273D01*
X139606Y88648D02*
X140440Y89482D01*
X138773Y79482D02*
X139606Y78648D01*
X137940Y79482D02*
X138773D01*
X137940D02*
X138773Y80315D01*
X137940Y81148D02*
X138773Y80315D01*
X137940Y81148D02*
X138773D01*
X139606Y81982D01*
X140440Y81148D01*
X141273D01*
X140440Y80315D02*
X141273Y81148D01*
X140440Y80315D02*
X141273Y79482D01*
X140440D02*
X141273D01*
X139606Y78648D02*
X140440Y79482D01*
X138773Y69482D02*
X139606Y68648D01*
X137940Y69482D02*
X138773D01*
X137940D02*
X138773Y70315D01*
X137940Y71148D02*
X138773Y70315D01*
X137940Y71148D02*
X138773D01*
X139606Y71982D01*
X140440Y71148D01*
X141273D01*
X140440Y70315D02*
X141273Y71148D01*
X140440Y70315D02*
X141273Y69482D01*
X140440D02*
X141273D01*
X139606Y68648D02*
X140440Y69482D01*
X138773Y59482D02*
X139606Y58648D01*
X137940Y59482D02*
X138773D01*
X137940D02*
X138773Y60315D01*
X137940Y61148D02*
X138773Y60315D01*
X137940Y61148D02*
X138773D01*
X139606Y61982D01*
X140440Y61148D01*
X141273D01*
X140440Y60315D02*
X141273Y61148D01*
X140440Y60315D02*
X141273Y59482D01*
X140440D02*
X141273D01*
X139606Y58648D02*
X140440Y59482D01*
X148773Y109482D02*
X149606Y108648D01*
X147940Y109482D02*
X148773D01*
X147940D02*
X148773Y110315D01*
X147940Y111148D02*
X148773Y110315D01*
X147940Y111148D02*
X148773D01*
X149606Y111982D01*
X150440Y111148D01*
X151273D01*
X150440Y110315D02*
X151273Y111148D01*
X150440Y110315D02*
X151273Y109482D01*
X150440D02*
X151273D01*
X149606Y108648D02*
X150440Y109482D01*
X147940Y118648D02*
X149606Y119482D01*
X151273Y118648D01*
X150440Y120315D02*
X151273Y118648D01*
X150440Y120315D02*
X151273Y121982D01*
X149606Y121148D02*
X151273Y121982D01*
X147940D02*
X149606Y121148D01*
X147940Y121982D02*
X148773Y120315D01*
X147940Y118648D02*
X148773Y120315D01*
X139606Y142307D02*
X140606Y144307D01*
X138606D02*
X140606D01*
X138606D02*
X139606Y142307D01*
Y141640D02*
X141273Y144974D01*
X137940D02*
X141273D01*
X137940D02*
X139606Y141640D01*
X456535Y142307D02*
X457535Y144307D01*
X455535D02*
X457535D01*
X455535D02*
X456535Y142307D01*
Y141640D02*
X458202Y144974D01*
X454869D02*
X458202D01*
X454869D02*
X456535Y141640D01*
Y18291D02*
X457535Y20291D01*
X455535D02*
X457535D01*
X455535D02*
X456535Y18291D01*
Y17625D02*
X458202Y20958D01*
X454869D02*
X458202D01*
X454869D02*
X456535Y17625D01*
X139606Y18291D02*
X140606Y20291D01*
X138606D02*
X140606D01*
X138606D02*
X139606Y18291D01*
Y17625D02*
X141273Y20958D01*
X137940D02*
X141273D01*
X137940D02*
X139606Y17625D01*
X71562Y55420D02*
X73228Y56253D01*
X74895Y55420D01*
X74062Y57087D02*
X74895Y55420D01*
X74062Y57087D02*
X74895Y58753D01*
X73228Y57920D02*
X74895Y58753D01*
X71562D02*
X73228Y57920D01*
X71562Y58753D02*
X72395Y57087D01*
X71562Y55420D02*
X72395Y57087D01*
X71562Y65420D02*
X73228Y66253D01*
X74895Y65420D01*
X74062Y67087D02*
X74895Y65420D01*
X74062Y67087D02*
X74895Y68753D01*
X73228Y67920D02*
X74895Y68753D01*
X71562D02*
X73228Y67920D01*
X71562Y68753D02*
X72395Y67087D01*
X71562Y65420D02*
X72395Y67087D01*
X71562Y75499D02*
X73228Y76332D01*
X74895Y75499D01*
X74062Y77165D02*
X74895Y75499D01*
X74062Y77165D02*
X74895Y78832D01*
X73228Y77999D02*
X74895Y78832D01*
X71562D02*
X73228Y77999D01*
X71562Y78832D02*
X72395Y77165D01*
X71562Y75499D02*
X72395Y77165D01*
X71562Y85499D02*
X73228Y86332D01*
X74895Y85499D01*
X74062Y87165D02*
X74895Y85499D01*
X74062Y87165D02*
X74895Y88832D01*
X73228Y87999D02*
X74895Y88832D01*
X71562D02*
X73228Y87999D01*
X71562Y88832D02*
X72395Y87165D01*
X71562Y85499D02*
X72395Y87165D01*
X71562Y115499D02*
X73228Y116332D01*
X74895Y115499D01*
X74062Y117165D02*
X74895Y115499D01*
X74062Y117165D02*
X74895Y118832D01*
X73228Y117999D02*
X74895Y118832D01*
X71562D02*
X73228Y117999D01*
X71562Y118832D02*
X72395Y117165D01*
X71562Y115499D02*
X72395Y117165D01*
X71562Y125499D02*
X73228Y126332D01*
X74895Y125499D01*
X74062Y127165D02*
X74895Y125499D01*
X74062Y127165D02*
X74895Y128832D01*
X73228Y127999D02*
X74895Y128832D01*
X71562D02*
X73228Y127999D01*
X71562Y128832D02*
X72395Y127165D01*
X71562Y125499D02*
X72395Y127165D01*
X71562Y95499D02*
X73228Y96332D01*
X74895Y95499D01*
X74062Y97165D02*
X74895Y95499D01*
X74062Y97165D02*
X74895Y98832D01*
X73228Y97999D02*
X74895Y98832D01*
X71562D02*
X73228Y97999D01*
X71562Y98832D02*
X72395Y97165D01*
X71562Y95499D02*
X72395Y97165D01*
X71562Y105499D02*
X73228Y106332D01*
X74895Y105499D01*
X74062Y107165D02*
X74895Y105499D01*
X74062Y107165D02*
X74895Y108832D01*
X73228Y107999D02*
X74895Y108832D01*
X71562D02*
X73228Y107999D01*
X71562Y108832D02*
X72395Y107165D01*
X71562Y105499D02*
X72395Y107165D01*
X71562Y135499D02*
X73228Y136332D01*
X74895Y135499D01*
X74062Y137165D02*
X74895Y135499D01*
X74062Y137165D02*
X74895Y138832D01*
X73228Y137999D02*
X74895Y138832D01*
X71562D02*
X73228Y137999D01*
X71562Y138832D02*
X72395Y137165D01*
X71562Y135499D02*
X72395Y137165D01*
X71562Y145499D02*
X73228Y146332D01*
X74895Y145499D01*
X74062Y147165D02*
X74895Y145499D01*
X74062Y147165D02*
X74895Y148832D01*
X73228Y147999D02*
X74895Y148832D01*
X71562D02*
X73228Y147999D01*
X71562Y148832D02*
X72395Y147165D01*
X71562Y145499D02*
X72395Y147165D01*
X81404Y145499D02*
X83071Y146332D01*
X84737Y145499D01*
X83904Y147165D02*
X84737Y145499D01*
X83904Y147165D02*
X84737Y148832D01*
X83071Y147999D02*
X84737Y148832D01*
X81404D02*
X83071Y147999D01*
X81404Y148832D02*
X82237Y147165D01*
X81404Y145499D02*
X82237Y147165D01*
X81404Y135499D02*
X83071Y136332D01*
X84737Y135499D01*
X83904Y137165D02*
X84737Y135499D01*
X83904Y137165D02*
X84737Y138832D01*
X83071Y137999D02*
X84737Y138832D01*
X81404D02*
X83071Y137999D01*
X81404Y138832D02*
X82237Y137165D01*
X81404Y135499D02*
X82237Y137165D01*
X81404Y105499D02*
X83071Y106332D01*
X84737Y105499D01*
X83904Y107165D02*
X84737Y105499D01*
X83904Y107165D02*
X84737Y108832D01*
X83071Y107999D02*
X84737Y108832D01*
X81404D02*
X83071Y107999D01*
X81404Y108832D02*
X82237Y107165D01*
X81404Y105499D02*
X82237Y107165D01*
X81404Y95499D02*
X83071Y96332D01*
X84737Y95499D01*
X83904Y97165D02*
X84737Y95499D01*
X83904Y97165D02*
X84737Y98832D01*
X83071Y97999D02*
X84737Y98832D01*
X81404D02*
X83071Y97999D01*
X81404Y98832D02*
X82237Y97165D01*
X81404Y95499D02*
X82237Y97165D01*
X81404Y125499D02*
X83071Y126332D01*
X84737Y125499D01*
X83904Y127165D02*
X84737Y125499D01*
X83904Y127165D02*
X84737Y128832D01*
X83071Y127999D02*
X84737Y128832D01*
X81404D02*
X83071Y127999D01*
X81404Y128832D02*
X82237Y127165D01*
X81404Y125499D02*
X82237Y127165D01*
X81404Y115499D02*
X83071Y116332D01*
X84737Y115499D01*
X83904Y117165D02*
X84737Y115499D01*
X83904Y117165D02*
X84737Y118832D01*
X83071Y117999D02*
X84737Y118832D01*
X81404D02*
X83071Y117999D01*
X81404Y118832D02*
X82237Y117165D01*
X81404Y115499D02*
X82237Y117165D01*
X81404Y85499D02*
X83071Y86332D01*
X84737Y85499D01*
X83904Y87165D02*
X84737Y85499D01*
X83904Y87165D02*
X84737Y88832D01*
X83071Y87999D02*
X84737Y88832D01*
X81404D02*
X83071Y87999D01*
X81404Y88832D02*
X82237Y87165D01*
X81404Y85499D02*
X82237Y87165D01*
X81404Y75499D02*
X83071Y76332D01*
X84737Y75499D01*
X83904Y77165D02*
X84737Y75499D01*
X83904Y77165D02*
X84737Y78832D01*
X83071Y77999D02*
X84737Y78832D01*
X81404D02*
X83071Y77999D01*
X81404Y78832D02*
X82237Y77165D01*
X81404Y75499D02*
X82237Y77165D01*
X81404Y65420D02*
X83071Y66253D01*
X84737Y65420D01*
X83904Y67087D02*
X84737Y65420D01*
X83904Y67087D02*
X84737Y68753D01*
X83071Y67920D02*
X84737Y68753D01*
X81404D02*
X83071Y67920D01*
X81404Y68753D02*
X82237Y67087D01*
X81404Y65420D02*
X82237Y67087D01*
X81404Y55420D02*
X83071Y56253D01*
X84737Y55420D01*
X83904Y57087D02*
X84737Y55420D01*
X83904Y57087D02*
X84737Y58753D01*
X83071Y57920D02*
X84737Y58753D01*
X81404D02*
X83071Y57920D01*
X81404Y58753D02*
X82237Y57087D01*
X81404Y55420D02*
X82237Y57087D01*
X51877Y145499D02*
X53543Y146332D01*
X55210Y145499D01*
X54377Y147165D02*
X55210Y145499D01*
X54377Y147165D02*
X55210Y148832D01*
X53543Y147999D02*
X55210Y148832D01*
X51877D02*
X53543Y147999D01*
X51877Y148832D02*
X52710Y147165D01*
X51877Y145499D02*
X52710Y147165D01*
X51877Y135499D02*
X53543Y136332D01*
X55210Y135499D01*
X54377Y137165D02*
X55210Y135499D01*
X54377Y137165D02*
X55210Y138832D01*
X53543Y137999D02*
X55210Y138832D01*
X51877D02*
X53543Y137999D01*
X51877Y138832D02*
X52710Y137165D01*
X51877Y135499D02*
X52710Y137165D01*
X51877Y105499D02*
X53543Y106332D01*
X55210Y105499D01*
X54377Y107165D02*
X55210Y105499D01*
X54377Y107165D02*
X55210Y108832D01*
X53543Y107999D02*
X55210Y108832D01*
X51877D02*
X53543Y107999D01*
X51877Y108832D02*
X52710Y107165D01*
X51877Y105499D02*
X52710Y107165D01*
X51877Y95499D02*
X53543Y96332D01*
X55210Y95499D01*
X54377Y97165D02*
X55210Y95499D01*
X54377Y97165D02*
X55210Y98832D01*
X53543Y97999D02*
X55210Y98832D01*
X51877D02*
X53543Y97999D01*
X51877Y98832D02*
X52710Y97165D01*
X51877Y95499D02*
X52710Y97165D01*
X51877Y125499D02*
X53543Y126332D01*
X55210Y125499D01*
X54377Y127165D02*
X55210Y125499D01*
X54377Y127165D02*
X55210Y128832D01*
X53543Y127999D02*
X55210Y128832D01*
X51877D02*
X53543Y127999D01*
X51877Y128832D02*
X52710Y127165D01*
X51877Y125499D02*
X52710Y127165D01*
X51877Y115499D02*
X53543Y116332D01*
X55210Y115499D01*
X54377Y117165D02*
X55210Y115499D01*
X54377Y117165D02*
X55210Y118832D01*
X53543Y117999D02*
X55210Y118832D01*
X51877D02*
X53543Y117999D01*
X51877Y118832D02*
X52710Y117165D01*
X51877Y115499D02*
X52710Y117165D01*
X51877Y85499D02*
X53543Y86332D01*
X55210Y85499D01*
X54377Y87165D02*
X55210Y85499D01*
X54377Y87165D02*
X55210Y88832D01*
X53543Y87999D02*
X55210Y88832D01*
X51877D02*
X53543Y87999D01*
X51877Y88832D02*
X52710Y87165D01*
X51877Y85499D02*
X52710Y87165D01*
X51877Y75499D02*
X53543Y76332D01*
X55210Y75499D01*
X54377Y77165D02*
X55210Y75499D01*
X54377Y77165D02*
X55210Y78832D01*
X53543Y77999D02*
X55210Y78832D01*
X51877D02*
X53543Y77999D01*
X51877Y78832D02*
X52710Y77165D01*
X51877Y75499D02*
X52710Y77165D01*
X51877Y65420D02*
X53543Y66253D01*
X55210Y65420D01*
X54377Y67087D02*
X55210Y65420D01*
X54377Y67087D02*
X55210Y68753D01*
X53543Y67920D02*
X55210Y68753D01*
X51877D02*
X53543Y67920D01*
X51877Y68753D02*
X52710Y67087D01*
X51877Y65420D02*
X52710Y67087D01*
X51877Y55420D02*
X53543Y56253D01*
X55210Y55420D01*
X54377Y57087D02*
X55210Y55420D01*
X54377Y57087D02*
X55210Y58753D01*
X53543Y57920D02*
X55210Y58753D01*
X51877D02*
X53543Y57920D01*
X51877Y58753D02*
X52710Y57087D01*
X51877Y55420D02*
X52710Y57087D01*
D81*
X657932Y259752D02*
X1045829D01*
X657932Y79752D02*
X1045829D01*
X657932Y64752D02*
X1045829D01*
Y274752D01*
X657932D02*
X1045829D01*
X657932Y64752D02*
Y274752D01*
X967949Y64752D02*
Y274752D01*
X917361Y64752D02*
Y274752D01*
X782801Y64752D02*
Y274752D01*
X713020Y64752D02*
Y274752D01*
D82*
X972449Y271450D02*
Y264252D01*
Y267851D01*
X977248D01*
Y271450D01*
Y264252D01*
X980846D02*
X983245D01*
X984445Y265452D01*
Y267851D01*
X983245Y269050D01*
X980846D01*
X979647Y267851D01*
Y265452D01*
X980846Y264252D01*
X986844D02*
X989244D01*
X988044D01*
Y271450D01*
X986844D01*
X996441Y264252D02*
X994042D01*
X992842Y265452D01*
Y267851D01*
X994042Y269050D01*
X996441D01*
X997641Y267851D01*
Y266651D01*
X992842D01*
X1007238Y271450D02*
X1012036D01*
X1009637D01*
Y264252D01*
X1014435Y269050D02*
Y265452D01*
X1015635Y264252D01*
X1019234D01*
Y263052D01*
X1018034Y261853D01*
X1016835D01*
X1019234Y264252D02*
Y269050D01*
X1021633Y261853D02*
Y269050D01*
X1025232D01*
X1026432Y267851D01*
Y265452D01*
X1025232Y264252D01*
X1021633D01*
X1032430D02*
X1030030D01*
X1028831Y265452D01*
Y267851D01*
X1030030Y269050D01*
X1032430D01*
X1033629Y267851D01*
Y266651D01*
X1028831D01*
X921861Y264252D02*
Y271450D01*
X925460D01*
X926660Y270250D01*
Y267851D01*
X925460Y266651D01*
X921861D01*
X929059Y264252D02*
X931458D01*
X930259D01*
Y271450D01*
X929059D01*
X936257Y269050D02*
X938656D01*
X939856Y267851D01*
Y264252D01*
X936257D01*
X935057Y265452D01*
X936257Y266651D01*
X939856D01*
X943454Y270250D02*
Y269050D01*
X942255D01*
X944654D01*
X943454D01*
Y265452D01*
X944654Y264252D01*
X951852D02*
X949452D01*
X948253Y265452D01*
Y267851D01*
X949452Y269050D01*
X951852D01*
X953051Y267851D01*
Y266651D01*
X948253D01*
X960249Y271450D02*
Y264252D01*
X956650D01*
X955451Y265452D01*
Y267851D01*
X956650Y269050D01*
X960249D01*
X792100Y271450D02*
X787301D01*
Y267851D01*
X789700D01*
X787301D01*
Y264252D01*
X794499D02*
X796898D01*
X795698D01*
Y269050D01*
X794499D01*
X800497Y264252D02*
Y269050D01*
X804096D01*
X805295Y267851D01*
Y264252D01*
X807694D02*
X810094D01*
X808894D01*
Y269050D01*
X807694D01*
X813692Y264252D02*
X817291D01*
X818491Y265452D01*
X817291Y266651D01*
X814892D01*
X813692Y267851D01*
X814892Y269050D01*
X818491D01*
X820890Y271450D02*
Y264252D01*
Y267851D01*
X822090Y269050D01*
X824489D01*
X825689Y267851D01*
Y264252D01*
X831687D02*
X829288D01*
X828088Y265452D01*
Y267851D01*
X829288Y269050D01*
X831687D01*
X832886Y267851D01*
Y266651D01*
X828088D01*
X840084Y271450D02*
Y264252D01*
X836485D01*
X835285Y265452D01*
Y267851D01*
X836485Y269050D01*
X840084D01*
X849681Y271450D02*
Y264252D01*
Y267851D01*
X854479D01*
Y271450D01*
Y264252D01*
X858078D02*
X860477D01*
X861677Y265452D01*
Y267851D01*
X860477Y269050D01*
X858078D01*
X856878Y267851D01*
Y265452D01*
X858078Y264252D01*
X864076D02*
X866475D01*
X865276D01*
Y271450D01*
X864076D01*
X873673Y264252D02*
X871274D01*
X870074Y265452D01*
Y267851D01*
X871274Y269050D01*
X873673D01*
X874873Y267851D01*
Y266651D01*
X870074D01*
X889268Y270250D02*
X888068Y271450D01*
X885669D01*
X884470Y270250D01*
Y269050D01*
X885669Y267851D01*
X888068D01*
X889268Y266651D01*
Y265452D01*
X888068Y264252D01*
X885669D01*
X884470Y265452D01*
X891667Y264252D02*
X894067D01*
X892867D01*
Y269050D01*
X891667D01*
X897665D02*
X902464D01*
X897665Y264252D01*
X902464D01*
X908462D02*
X906063D01*
X904863Y265452D01*
Y267851D01*
X906063Y269050D01*
X908462D01*
X909661Y267851D01*
Y266651D01*
X904863D01*
X717520Y271450D02*
Y264252D01*
Y267851D01*
X722318D01*
Y271450D01*
Y264252D01*
X724717D02*
X727117D01*
X725917D01*
Y269050D01*
X724717D01*
X731915Y270250D02*
Y269050D01*
X730715D01*
X733115D01*
X731915D01*
Y265452D01*
X733115Y264252D01*
X748710Y270250D02*
X747510Y271450D01*
X745111D01*
X743911Y270250D01*
Y265452D01*
X745111Y264252D01*
X747510D01*
X748710Y265452D01*
X752308Y264252D02*
X754708D01*
X755907Y265452D01*
Y267851D01*
X754708Y269050D01*
X752308D01*
X751109Y267851D01*
Y265452D01*
X752308Y264252D01*
X758307Y269050D02*
Y265452D01*
X759506Y264252D01*
X763105D01*
Y269050D01*
X765504Y264252D02*
Y269050D01*
X769103D01*
X770303Y267851D01*
Y264252D01*
X773901Y270250D02*
Y269050D01*
X772702D01*
X775101D01*
X773901D01*
Y265452D01*
X775101Y264252D01*
X671731Y270250D02*
X670531Y271450D01*
X668132D01*
X666932Y270250D01*
Y269050D01*
X668132Y267851D01*
X670531D01*
X671731Y266651D01*
Y265452D01*
X670531Y264252D01*
X668132D01*
X666932Y265452D01*
X674130Y269050D02*
Y265452D01*
X675329Y264252D01*
X678928D01*
Y263052D01*
X677729Y261853D01*
X676529D01*
X678928Y264252D02*
Y269050D01*
X681327Y264252D02*
Y269050D01*
X682527D01*
X683727Y267851D01*
Y264252D01*
Y267851D01*
X684926Y269050D01*
X686126Y267851D01*
Y264252D01*
X688525Y271450D02*
Y264252D01*
X692124D01*
X693324Y265452D01*
Y266651D01*
Y267851D01*
X692124Y269050D01*
X688525D01*
X696922Y264252D02*
X699322D01*
X700521Y265452D01*
Y267851D01*
X699322Y269050D01*
X696922D01*
X695723Y267851D01*
Y265452D01*
X696922Y264252D01*
X702920D02*
X705320D01*
X704120D01*
Y271450D01*
X702920D01*
M02*
