%FSLAX25Y25*%
%MOIN*%
G70*
G01*
G75*
G04 Layer_Physical_Order=1*
G04 Layer_Color=255*
%ADD10R,0.12992X0.09449*%
%ADD11R,0.02362X0.06102*%
%ADD12R,0.03937X0.04331*%
%ADD13R,0.04331X0.03937*%
%ADD14R,0.07874X0.02362*%
%ADD15R,0.24016X0.40000*%
%ADD16R,0.09449X0.12992*%
%ADD17R,0.11811X0.09055*%
%ADD18R,0.07874X0.02756*%
%ADD19C,0.01000*%
%ADD20C,0.05906*%
%ADD21C,0.27559*%
%ADD22C,0.01575*%
%ADD23C,0.01969*%
%ADD24C,0.02756*%
%ADD25C,0.03937*%
%ADD26C,0.07874*%
%ADD27C,0.06299*%
%ADD28R,0.06299X0.06299*%
%ADD29O,0.07874X0.04331*%
%ADD30O,0.03937X0.07874*%
%ADD31C,0.05906*%
%ADD32R,0.05906X0.05906*%
%ADD33C,0.01969*%
%ADD34C,0.04724*%
%ADD35C,0.09843*%
%ADD36R,0.06299X0.06299*%
%ADD37R,0.05906X0.05906*%
%ADD38O,0.07874X0.03937*%
%ADD39O,0.07874X0.03937*%
%ADD40C,0.08661*%
%ADD41C,0.07087*%
%ADD42O,0.05906X0.02953*%
%ADD43C,0.05000*%
%ADD44C,0.03543*%
%ADD45C,0.02756*%
%ADD46C,0.06693*%
D10*
X438976Y248917D02*
D03*
Y221555D02*
D03*
D11*
X25453Y179921D02*
D03*
X30453D02*
D03*
X35453D02*
D03*
X40453D02*
D03*
X45453D02*
D03*
X20453D02*
D03*
X15453D02*
D03*
X10453D02*
D03*
Y201575D02*
D03*
X15453D02*
D03*
X20453D02*
D03*
X45453D02*
D03*
X40453D02*
D03*
X35453D02*
D03*
X30453D02*
D03*
X25453D02*
D03*
X73090Y179921D02*
D03*
X78091D02*
D03*
X83091D02*
D03*
X88090D02*
D03*
X93090D02*
D03*
X68090D02*
D03*
X63090D02*
D03*
X58091D02*
D03*
Y201575D02*
D03*
X63090D02*
D03*
X68090D02*
D03*
X93090D02*
D03*
X88090D02*
D03*
X83091D02*
D03*
X78091D02*
D03*
X73090D02*
D03*
X120728Y179921D02*
D03*
X125728D02*
D03*
X130728D02*
D03*
X135728D02*
D03*
X140728D02*
D03*
X115728D02*
D03*
X110728D02*
D03*
X105728D02*
D03*
Y201575D02*
D03*
X110728D02*
D03*
X115728D02*
D03*
X140728D02*
D03*
X135728D02*
D03*
X130728D02*
D03*
X125728D02*
D03*
X120728D02*
D03*
D12*
X100787Y226378D02*
D03*
Y219685D02*
D03*
X116142Y226181D02*
D03*
Y219488D02*
D03*
X438976Y208465D02*
D03*
Y201772D02*
D03*
X217520Y191929D02*
D03*
Y198622D02*
D03*
X217520Y183661D02*
D03*
Y176969D02*
D03*
X524409Y85433D02*
D03*
Y92126D02*
D03*
X531496D02*
D03*
Y85433D02*
D03*
X524409Y109449D02*
D03*
Y116142D02*
D03*
X531496Y116142D02*
D03*
Y109449D02*
D03*
Y140157D02*
D03*
Y133465D02*
D03*
X524409Y133465D02*
D03*
Y140157D02*
D03*
Y61811D02*
D03*
Y68504D02*
D03*
Y37402D02*
D03*
Y44094D02*
D03*
X531496D02*
D03*
Y37402D02*
D03*
X531496Y68504D02*
D03*
Y61811D02*
D03*
X466535Y205118D02*
D03*
Y211811D02*
D03*
X424213Y221260D02*
D03*
Y214567D02*
D03*
X297638Y235039D02*
D03*
Y228346D02*
D03*
X296850Y188976D02*
D03*
Y195669D02*
D03*
D13*
X234055Y177165D02*
D03*
X227362D02*
D03*
X390551Y250984D02*
D03*
X383858D02*
D03*
X479528Y65354D02*
D03*
X472835D02*
D03*
X479528Y59055D02*
D03*
X472835D02*
D03*
X478346Y44882D02*
D03*
X485039D02*
D03*
X511024Y39370D02*
D03*
X504331D02*
D03*
X506693Y153543D02*
D03*
X500000D02*
D03*
X114961Y27165D02*
D03*
X108268D02*
D03*
X115354Y16535D02*
D03*
X108661D02*
D03*
X115354Y10630D02*
D03*
X108661D02*
D03*
X100591Y57087D02*
D03*
X93898D02*
D03*
X100591Y66929D02*
D03*
X93898D02*
D03*
X100591Y76772D02*
D03*
X93898D02*
D03*
X100591Y87598D02*
D03*
X93898D02*
D03*
X100591Y97441D02*
D03*
X93898D02*
D03*
X100591Y107283D02*
D03*
X93898D02*
D03*
X100591Y117126D02*
D03*
X93898D02*
D03*
X100591Y126969D02*
D03*
X93898D02*
D03*
X100591Y136811D02*
D03*
X93898D02*
D03*
X100591Y147638D02*
D03*
X93898D02*
D03*
X36024Y126969D02*
D03*
X42717D02*
D03*
X36024Y117126D02*
D03*
X42717D02*
D03*
X36024Y107283D02*
D03*
X42717D02*
D03*
X36024Y97441D02*
D03*
X42717D02*
D03*
X36024Y86614D02*
D03*
X42717D02*
D03*
X36024Y76772D02*
D03*
X42717D02*
D03*
X36024Y66929D02*
D03*
X42717D02*
D03*
X36024Y57087D02*
D03*
X42717D02*
D03*
X36024Y137795D02*
D03*
X42717D02*
D03*
X36024Y147638D02*
D03*
X42717D02*
D03*
X384055Y258858D02*
D03*
X390748D02*
D03*
X91339Y212598D02*
D03*
X84646D02*
D03*
D14*
X510630Y140039D02*
D03*
X473622D02*
D03*
Y75039D02*
D03*
Y95039D02*
D03*
Y125039D02*
D03*
Y120039D02*
D03*
Y110039D02*
D03*
Y85039D02*
D03*
Y90039D02*
D03*
Y100039D02*
D03*
Y115039D02*
D03*
Y105039D02*
D03*
Y130039D02*
D03*
Y80039D02*
D03*
Y135039D02*
D03*
X510630D02*
D03*
Y80039D02*
D03*
Y130039D02*
D03*
Y105039D02*
D03*
Y115039D02*
D03*
Y100039D02*
D03*
Y90039D02*
D03*
Y124764D02*
D03*
Y85039D02*
D03*
Y110039D02*
D03*
Y120039D02*
D03*
Y95039D02*
D03*
Y75039D02*
D03*
D15*
X350787Y221260D02*
D03*
D16*
X517618Y196850D02*
D03*
X490256D02*
D03*
D17*
X50787Y231102D02*
D03*
X87008D02*
D03*
D18*
X288583Y169921D02*
D03*
Y189921D02*
D03*
Y214921D02*
D03*
Y204921D02*
D03*
Y179921D02*
D03*
Y219646D02*
D03*
Y184921D02*
D03*
Y194921D02*
D03*
Y209921D02*
D03*
Y199921D02*
D03*
Y224921D02*
D03*
Y174921D02*
D03*
Y229921D02*
D03*
X251575D02*
D03*
Y174921D02*
D03*
Y224921D02*
D03*
Y199921D02*
D03*
Y209921D02*
D03*
Y194921D02*
D03*
Y184921D02*
D03*
Y179921D02*
D03*
Y204921D02*
D03*
Y214921D02*
D03*
Y219921D02*
D03*
Y189921D02*
D03*
Y169921D02*
D03*
Y234921D02*
D03*
X288583D02*
D03*
D19*
X456693Y135039D02*
X473622D01*
X359957Y38303D02*
X456693Y135039D01*
X461024Y137008D02*
X464055Y140039D01*
X456134Y137008D02*
X461024D01*
X359216Y40091D02*
X456134Y137008D01*
X552992Y190787D02*
X553307D01*
X549213Y187008D02*
X552992Y190787D01*
X554225Y196850D02*
X559055Y192020D01*
Y169291D02*
Y192020D01*
X553150Y163386D02*
X559055Y169291D01*
X468504Y187008D02*
X549213D01*
X460811Y194701D02*
X468504Y187008D01*
X549370Y196850D02*
X554225D01*
X543799Y191279D02*
X549370Y196850D01*
X515898Y43158D02*
X521654Y37402D01*
X515898Y43158D02*
Y54718D01*
X515929Y54750D02*
Y104150D01*
X515898Y54718D02*
X515929Y54750D01*
X517717Y66929D02*
X522835Y61811D01*
X89311Y190217D02*
X93090Y186437D01*
X73090Y190217D02*
X89311D01*
X251575Y219921D02*
X265197D01*
X259842Y251969D02*
X382874D01*
X383858Y250984D01*
X251929Y214567D02*
X259842D01*
X251575Y214921D02*
X251929Y214567D01*
X470787Y180787D02*
X543307D01*
X469122Y176547D02*
X549067D01*
X458661Y192913D02*
X470787Y180787D01*
X454543Y191126D02*
X469122Y176547D01*
X468976Y170787D02*
X543307D01*
X450787Y188976D02*
X468976Y170787D01*
X226378Y161417D02*
X258433D01*
X261535Y174921D02*
X261811Y175197D01*
X267535Y170519D02*
Y197591D01*
X258433Y161417D02*
X267535Y170519D01*
X265748Y171260D02*
Y196850D01*
X259842Y165354D02*
X265748Y171260D01*
X244094Y165354D02*
X259842D01*
X263779Y201347D02*
Y207244D01*
Y201347D02*
X267535Y197591D01*
X257677Y204921D02*
X265748Y196850D01*
X510354Y22835D02*
Y39370D01*
X93090Y179921D02*
Y186437D01*
X116142Y226181D02*
Y233661D01*
X288779Y180118D02*
X310039D01*
X145669Y125984D02*
X344488D01*
X139606Y120315D02*
X145669Y125984D01*
X237205Y170276D02*
X251220D01*
X251575Y169921D01*
X140728Y179921D02*
Y187028D01*
X137835Y189921D02*
X140728Y187028D01*
X121339Y189921D02*
X137835D01*
X120728Y189311D02*
X121339Y189921D01*
X25453Y189961D02*
X42323D01*
X45453Y186831D01*
Y179921D02*
Y186831D01*
X289173Y229331D02*
X297638D01*
X288583Y229921D02*
X289173Y229331D01*
X288583Y209921D02*
X299921D01*
X212598Y230315D02*
X235236Y207677D01*
X148622Y230315D02*
X212598D01*
X125728Y207421D02*
X148622Y230315D01*
X125728Y206949D02*
Y207421D01*
X235236Y195866D02*
Y207677D01*
Y195866D02*
X241181Y189921D01*
X251575D01*
X241181Y194921D02*
X251575D01*
X115945Y219685D02*
X116142Y219488D01*
X100787Y219685D02*
X116142D01*
X100394Y219291D02*
X100787Y219685D01*
X87008Y231102D02*
X91339Y226772D01*
Y212598D02*
Y226772D01*
X100394Y214567D02*
Y219291D01*
X98425Y212598D02*
X100394Y214567D01*
X91339Y212598D02*
X98425D01*
X35453Y193917D02*
Y201575D01*
X130728Y194075D02*
Y201575D01*
X83091Y194311D02*
Y201575D01*
X125728D02*
Y206949D01*
X124197Y208480D02*
X125728Y206949D01*
X75968Y208480D02*
X124197D01*
X115728Y201575D02*
Y205138D01*
X114173Y206693D02*
X115728Y205138D01*
X94488Y206693D02*
X114173D01*
X93090Y205295D02*
X94488Y206693D01*
X93090Y201575D02*
Y205295D01*
X78091Y201575D02*
Y206358D01*
X75968Y208480D02*
X78091Y206358D01*
X33283Y208480D02*
X75968D01*
X30453Y205650D02*
X33283Y208480D01*
X68090Y201575D02*
Y205532D01*
X66929Y206693D02*
X68090Y205532D01*
X47244Y206693D02*
X66929D01*
X45453Y201575D02*
Y204902D01*
X47244Y206693D01*
X30453Y201575D02*
Y205650D01*
X20453Y201575D02*
X20669Y201791D01*
Y251969D01*
X34449Y265748D01*
X78740D01*
X81693Y262795D01*
Y255906D02*
Y262795D01*
Y255906D02*
X84827Y252772D01*
X202087D01*
X229937Y224921D01*
X251575D01*
X200787Y249016D02*
X234882Y214921D01*
X77126Y249016D02*
X200787D01*
X66693Y259449D02*
X77126Y249016D01*
X83661Y250984D02*
X201347D01*
X76693Y257953D02*
X83661Y250984D01*
X201347D02*
X232410Y219921D01*
X251575D01*
X234882Y214921D02*
X251575D01*
X76693Y257953D02*
Y259449D01*
X106693D02*
X108071Y260827D01*
X215551D01*
X241457Y234921D01*
X251575D01*
X217717Y177165D02*
X227362D01*
X234055D02*
X236299Y174921D01*
X251575D01*
X224000Y185449D02*
X251575D01*
X217520Y191929D02*
X224000Y185449D01*
X251575Y184921D02*
Y185449D01*
X217520Y183661D02*
X238583D01*
X242323Y179921D01*
X251575D01*
X288583Y189921D02*
X295905D01*
X288583Y194921D02*
X296102D01*
X213583Y191929D02*
X217520D01*
X213583Y184055D02*
X217126D01*
X438976Y248917D02*
X441122Y251063D01*
X288701Y185039D02*
X305118D01*
X288583Y179921D02*
X288779Y180118D01*
X288583Y184921D02*
X288701Y185039D01*
X480315Y80149D02*
X488008Y87842D01*
X480315Y80039D02*
Y80149D01*
X473622Y80039D02*
X480315D01*
X472441Y159449D02*
X492126Y139764D01*
X364173Y159449D02*
X472441D01*
X360236Y163386D02*
X364173Y159449D01*
X474409Y161417D02*
X496063Y139764D01*
X364733Y161417D02*
X474409D01*
X360795Y165354D02*
X364733Y161417D01*
X470472Y165354D02*
X547874D01*
X448819Y187008D02*
X470472Y165354D01*
X468504Y163386D02*
X553150D01*
X492126Y51968D02*
Y139764D01*
X474409Y149606D02*
X486221Y137795D01*
X461142Y79646D02*
X473622D01*
X488008Y87842D02*
Y138536D01*
X460630Y84646D02*
X473622D01*
X486221Y88583D02*
Y137795D01*
X482677Y85039D02*
X486221Y88583D01*
X473622Y85039D02*
X482677D01*
X485039Y44882D02*
X492126Y51968D01*
X496063Y47638D02*
Y139764D01*
Y47638D02*
X504331Y39370D01*
X500000Y135827D02*
X509842D01*
X510630Y135039D01*
X500000Y129921D02*
X510512D01*
X510630Y130039D01*
X344488Y78740D02*
Y118110D01*
X330709Y64961D02*
X344488Y78740D01*
X144961Y64961D02*
X330709D01*
X362205Y55118D02*
X437008Y129921D01*
X144803Y55118D02*
X362205D01*
X363287Y36516D02*
X456811Y130039D01*
X366992Y34709D02*
X456929Y124646D01*
X370323Y32921D02*
X457047Y119646D01*
X373654Y31134D02*
X457165Y114646D01*
X376984Y29346D02*
X457283Y109646D01*
X379921Y27559D02*
X457008Y104646D01*
X139606Y70315D02*
X144961Y64961D01*
X139606Y60315D02*
X144803Y55118D01*
X331968Y60315D02*
X350394Y78740D01*
X452756Y76772D02*
X460630Y84646D01*
X452756Y68898D02*
Y76772D01*
Y68898D02*
X462598Y59055D01*
Y65354D02*
X472835D01*
X458661Y69291D02*
X462598Y65354D01*
X458661Y69291D02*
Y77165D01*
X461142Y79646D01*
X350394Y78740D02*
Y159272D01*
X128740Y27559D02*
X379921D01*
X456929Y124646D02*
X473228D01*
X149606Y60315D02*
X331968D01*
X133772Y41245D02*
Y72748D01*
X131984Y40504D02*
Y77653D01*
X130197Y39764D02*
Y81772D01*
X128409Y38929D02*
Y86205D01*
X126622Y38189D02*
Y90414D01*
X124835Y37402D02*
Y92630D01*
X123047Y36220D02*
Y96839D01*
X121260Y35039D02*
Y99055D01*
X119291Y75787D02*
Y168504D01*
X100591Y57087D02*
X119291Y75787D01*
X117323Y83661D02*
Y166535D01*
X100591Y66929D02*
X117323Y83661D01*
X133772Y72748D02*
X135579Y74555D01*
X131984Y77653D02*
X134646Y80315D01*
X135579Y74555D02*
X144240D01*
X134646Y80315D02*
X139606D01*
X100591Y87598D02*
X113386Y100394D01*
X280087Y165354D02*
X360795D01*
X251575Y204921D02*
X257677D01*
X261102Y209921D02*
X263779Y207244D01*
X251575Y209921D02*
X261102D01*
X115354Y10630D02*
X121260D01*
X115354Y16535D02*
X121260D01*
X114961Y27165D02*
X121653D01*
X276693Y199921D02*
X288583D01*
X271654Y194882D02*
X276693Y199921D01*
X271654Y173788D02*
Y194882D01*
Y173788D02*
X280087Y165354D01*
X251575Y229921D02*
X262205D01*
X269685Y222441D01*
Y173228D02*
Y222441D01*
Y173228D02*
X279528Y163386D01*
X360236D01*
X288583Y169921D02*
X310244D01*
X325362Y185039D01*
X446850D01*
X459646Y172244D01*
X468504Y163386D01*
X324803Y187008D02*
X448819D01*
X288583Y224921D02*
X288610Y224894D01*
X300697D01*
X330890Y194701D01*
X460811D01*
X328000Y191126D02*
X454543D01*
X288583Y214921D02*
X304205D01*
X328000Y191126D01*
X549067Y176547D02*
X553799Y181280D01*
X288583Y219646D02*
X302008D01*
X328740Y192913D01*
X458661D01*
X312717Y174921D02*
X324803Y187008D01*
X288583Y174921D02*
X312717D01*
X324803Y188976D02*
X450787D01*
X308858Y204921D02*
X324803Y188976D01*
X288583Y204921D02*
X308858D01*
X547874Y165354D02*
X553799Y171280D01*
X494095Y153543D02*
X500000D01*
X506693D02*
X510630Y149606D01*
Y140039D02*
Y149606D01*
X505118Y22835D02*
Y39370D01*
X543543Y41890D02*
X548425D01*
X541339Y44094D02*
X543543Y41890D01*
X531496Y44094D02*
X541339D01*
X524409D02*
X531496D01*
X543543Y65905D02*
X548425D01*
X540945Y68504D02*
X543543Y65905D01*
X531496Y68504D02*
X540945D01*
X524409D02*
X531496D01*
X543937Y89921D02*
X548425D01*
X541732Y92126D02*
X543937Y89921D01*
X531496Y92126D02*
X541732D01*
X524409D02*
X531496D01*
X543543Y113937D02*
X548425D01*
X541339Y116142D02*
X543543Y113937D01*
X531496Y116142D02*
X541339D01*
X531496Y116142D02*
X531496Y116142D01*
X524409Y116142D02*
X531496D01*
X543543Y137953D02*
X548425D01*
X541339Y140157D02*
X543543Y137953D01*
X531496Y140157D02*
X541339D01*
X531496Y140157D02*
X531496Y140157D01*
X524409Y140157D02*
X531496D01*
X510630Y124764D02*
X516496D01*
X517717Y125984D01*
Y131890D01*
X519685Y133858D01*
X524016D01*
X524409Y133465D01*
X517717Y120079D02*
X519685Y118110D01*
X510669Y120079D02*
X517717D01*
X522441Y109449D02*
X524409D01*
X519685Y88583D02*
X522835Y85433D01*
X524409D01*
X515039Y105039D02*
X515929Y104150D01*
X510630Y105039D02*
X515039D01*
X521654Y37402D02*
X524409D01*
X524016Y37795D02*
X524409Y37402D01*
X523228Y132283D02*
X524409Y133465D01*
X144240Y74555D02*
X149606Y79921D01*
X144488Y85433D02*
X149370Y90315D01*
X133858Y85433D02*
X144488D01*
X133307Y91102D02*
X138819D01*
X144634Y95342D02*
X149606Y100315D01*
X131551Y95342D02*
X144634D01*
X133307Y101102D02*
X138819D01*
X149291Y110315D02*
X149606D01*
X144319Y105342D02*
X149291Y110315D01*
X131551Y105342D02*
X144319D01*
X138819Y111102D02*
X139606Y110315D01*
X133307Y111102D02*
X138819D01*
X133772Y41245D02*
X134926Y40091D01*
X359216D01*
X464055Y140039D02*
X473622D01*
X131984Y40504D02*
X134185Y38303D01*
X359957D01*
X130197Y81772D02*
X133858Y85433D01*
X130197Y39764D02*
X133445Y36516D01*
X363287D01*
X132630Y34709D02*
X366992D01*
X128409Y38929D02*
X132630Y34709D01*
X131890Y32921D02*
X370323D01*
X131102Y31134D02*
X373654D01*
X129921Y29346D02*
X376984D01*
X126622Y38189D02*
X131890Y32921D01*
X124835Y37402D02*
X131102Y31134D01*
X123047Y36220D02*
X129921Y29346D01*
X456811Y130039D02*
X473622D01*
X457008Y104646D02*
X473228D01*
X457283Y109646D02*
X473228D01*
X457165Y114646D02*
X473228D01*
X457047Y119646D02*
X473228D01*
X128409Y86205D02*
X133307Y91102D01*
X126622Y90414D02*
X131551Y95342D01*
X102756Y185039D02*
X110728Y193012D01*
X102756Y173228D02*
Y185039D01*
Y173228D02*
X113386Y162598D01*
X55118Y185433D02*
X63090Y193405D01*
X55118Y178740D02*
Y185433D01*
X31496Y155118D02*
X55118Y178740D01*
X121260Y35039D02*
X128740Y27559D01*
X124835Y92630D02*
X133307Y101102D01*
X123047Y96839D02*
X131551Y105342D01*
X121260Y99055D02*
X133307Y111102D01*
X115354Y91535D02*
Y164567D01*
X100591Y76772D02*
X115354Y91535D01*
X113386Y100394D02*
Y162598D01*
X462598Y59055D02*
X472835D01*
X485039Y22598D02*
Y44882D01*
X548189Y66142D02*
X548425Y65905D01*
X115728Y172067D02*
X119291Y168504D01*
X110728Y173130D02*
X117323Y166535D01*
X105728Y174193D02*
X115354Y164567D01*
X104724Y167717D02*
X111417Y161024D01*
Y108268D02*
Y161024D01*
X100591Y97441D02*
X111417Y108268D01*
X103937Y165354D02*
X109449Y159843D01*
Y116142D02*
Y159843D01*
X100591Y107283D02*
X109449Y116142D01*
X102756Y162992D02*
X107618Y158130D01*
Y124153D02*
Y158130D01*
X100591Y117126D02*
X107618Y124153D01*
X101575Y160630D02*
X105831Y156374D01*
Y132209D02*
Y156374D01*
X100591Y126969D02*
X105831Y132209D01*
X98819Y158268D02*
X104043Y153043D01*
Y140264D02*
Y153043D01*
X100591Y136811D02*
X104043Y140264D01*
X7874Y185827D02*
X15453Y193405D01*
X7874Y85236D02*
Y185827D01*
Y85236D02*
X36024Y57087D01*
X92126Y16535D02*
X108661D01*
X92126Y11417D02*
X107874D01*
X92126Y26772D02*
X107874D01*
X115728Y172067D02*
Y179921D01*
X110728Y173130D02*
Y179921D01*
X105728Y174193D02*
Y179921D01*
X110728Y193012D02*
Y201575D01*
X31496Y139764D02*
Y155118D01*
X40453Y171161D02*
Y179921D01*
X29134Y159843D02*
X40453Y171161D01*
X29134Y133858D02*
Y159843D01*
X35453Y171280D02*
Y179921D01*
X26378Y162205D02*
X35453Y171280D01*
X26378Y126772D02*
Y162205D01*
X30453Y171398D02*
Y179921D01*
X23622Y164567D02*
X30453Y171398D01*
X23622Y119685D02*
Y164567D01*
X25453Y171122D02*
Y179921D01*
X20866Y166535D02*
X25453Y171122D01*
X20866Y112598D02*
Y166535D01*
X20453Y171240D02*
Y179921D01*
X18110Y168898D02*
X20453Y171240D01*
X18110Y104528D02*
Y168898D01*
Y104528D02*
X36024Y86614D01*
X20866Y112598D02*
X36024Y97441D01*
X23622Y119685D02*
X36024Y107283D01*
X26378Y126772D02*
X36024Y117126D01*
X29134Y133858D02*
X36024Y126969D01*
X15453Y97342D02*
Y179921D01*
Y97342D02*
X36024Y76772D01*
X10453Y92500D02*
Y179921D01*
Y92500D02*
X36024Y66929D01*
Y154921D02*
X58091Y176988D01*
X36024Y147638D02*
Y154921D01*
X58091Y176988D02*
Y179921D01*
X86516Y162992D02*
X102756D01*
X78091Y171417D02*
X86516Y162992D01*
X78091Y171417D02*
Y179921D01*
X78347Y155905D02*
X96850D01*
X63090Y171161D02*
X78347Y155905D01*
X63090Y171161D02*
Y179921D01*
X81102Y158268D02*
X98819D01*
X68090Y171280D02*
X81102Y158268D01*
X68090Y171280D02*
Y179921D01*
X83858Y160630D02*
X101575D01*
X73090Y171398D02*
X83858Y160630D01*
X73090Y171398D02*
Y179921D01*
X88976Y165354D02*
X103937D01*
X83091Y171240D02*
X88976Y165354D01*
X83091Y171240D02*
Y179921D01*
X91732Y167717D02*
X104724D01*
X88090Y171358D02*
X91732Y167717D01*
X88090Y171358D02*
Y179921D01*
X100591Y147638D02*
Y152165D01*
X96850Y155905D02*
X100591Y152165D01*
X63090Y193405D02*
Y201575D01*
X33465Y137795D02*
X36024D01*
X31496Y139764D02*
X33465Y137795D01*
X15453Y193405D02*
Y201575D01*
X83543Y147638D02*
X93898D01*
X83425Y136811D02*
X93898D01*
X83268Y126969D02*
X93898D01*
X83110Y117126D02*
X93898D01*
X83189Y107283D02*
X93898D01*
X83071Y97165D02*
X93622D01*
X83504Y87598D02*
X93898D01*
X83465Y76772D02*
X93898D01*
X83228Y66929D02*
X93898D01*
X83071Y57087D02*
X93898D01*
X42717D02*
X53543D01*
X42717Y66929D02*
X53386D01*
X42717Y76772D02*
X53150D01*
X42717Y86614D02*
X52992D01*
X42717Y97441D02*
X53268D01*
X42717Y107283D02*
X53425D01*
X42717Y117126D02*
X53504D01*
X42717Y126969D02*
X53347D01*
X42717Y137795D02*
X52913D01*
X43189Y147165D02*
X53543D01*
X510630Y110039D02*
X515945D01*
X517717Y108268D01*
Y66929D02*
Y108268D01*
X519685Y112205D02*
Y118110D01*
Y112205D02*
X522441Y109449D01*
X519685Y88583D02*
Y109055D01*
X510630Y115039D02*
X513701D01*
X519685Y109055D01*
X211811Y185827D02*
X213583Y184055D01*
X211811Y190157D02*
X213583Y191929D01*
X206299Y190157D02*
X207087Y190945D01*
X206299Y190157D02*
X211811D01*
X206299Y185827D02*
X211811D01*
X374016Y149606D02*
X474409D01*
X374016Y155512D02*
X471032D01*
X488008Y138536D01*
X133388Y277593D02*
G03*
X133893Y285299I-514J3903D01*
G01*
X148108Y285399D02*
G03*
X147603Y277693I514J-3903D01*
G01*
X296764Y285399D02*
G03*
X296259Y277693I514J-3903D01*
G01*
X282044Y277593D02*
G03*
X282549Y285299I-514J3903D01*
G01*
X-0Y78740D02*
Y277559D01*
Y78740D02*
X78740Y0D01*
X570866D01*
Y275590D01*
X570866Y275590D02*
X570866Y275590D01*
X393701Y275590D02*
X570866D01*
X393701D02*
Y277559D01*
X393667Y277593D02*
X393701Y277559D01*
X296730Y277593D02*
X393667D01*
X296730Y285399D02*
X393667D01*
X393701Y285433D01*
Y405512D01*
X36417D02*
X393701D01*
X14764Y383858D02*
X36417Y405512D01*
X14764Y383858D02*
X34449Y364173D01*
X314961D01*
Y324803D02*
Y364173D01*
X34449Y324803D02*
X314961D01*
X14764Y305118D02*
X34449Y324803D01*
X14764Y305118D02*
X34449Y285433D01*
X133800D01*
X34Y277593D02*
X133388D01*
X-0Y277559D02*
X34Y277593D01*
X148108Y285399D02*
X282456D01*
X148108Y277593D02*
X282010D01*
D20*
X365158Y350551D02*
Y370079D01*
Y316929D02*
Y340551D01*
X352362Y304134D02*
X365158Y316929D01*
X314961Y304134D02*
X352362D01*
X314961Y384842D02*
X350394D01*
X365158Y370079D01*
X201181Y170276D02*
X207874Y176969D01*
X200787Y205709D02*
X207677Y198819D01*
X350787Y221260D02*
X415748D01*
D21*
X43307Y304134D02*
X314961D01*
X41339Y385827D02*
X314961D01*
D22*
X501968Y90039D02*
X510630D01*
X251575Y174921D02*
X261535D01*
D23*
X531496Y29528D02*
Y37402D01*
Y78740D02*
Y85433D01*
Y102362D02*
Y109449D01*
Y125984D02*
Y133465D01*
X531496Y55118D02*
Y61811D01*
X510630Y69685D02*
Y75039D01*
X505905Y64961D02*
X510630Y69685D01*
X501968Y64961D02*
X505905D01*
X98425Y196850D02*
X103150Y201575D01*
X98425Y187008D02*
Y196850D01*
X96457Y187008D02*
X98425D01*
X88090Y195374D02*
X96457Y187008D01*
X88090Y195374D02*
Y201575D01*
X307087Y194882D02*
Y198819D01*
X301181Y188976D02*
X307087Y194882D01*
X296850Y188976D02*
X301181D01*
X446850Y88583D02*
X458307Y100039D01*
X474075Y47244D02*
Y50846D01*
Y23563D02*
Y47244D01*
X446850Y64961D02*
Y88583D01*
Y64961D02*
X460630Y51181D01*
X470138D01*
X474075Y47244D01*
X458307Y100039D02*
X473622D01*
X474075Y50846D02*
X479528Y56299D01*
X474075Y23563D02*
X475197Y22441D01*
X478346Y37402D02*
Y44882D01*
X479528Y56299D02*
Y59055D01*
X103150Y201575D02*
X105728D01*
X53937D02*
X58091D01*
X51181Y198819D02*
X53937Y201575D01*
X51181Y190945D02*
Y198819D01*
X45276Y190945D02*
X51181D01*
X40453Y195768D02*
X45276Y190945D01*
X135827Y208661D02*
X139764Y212598D01*
X135827Y201673D02*
Y208661D01*
X135728Y201575D02*
X135827Y201673D01*
X40453Y195768D02*
Y201575D01*
X10453D02*
Y211988D01*
X25453Y189961D02*
Y201575D01*
X72835Y212598D02*
X84646D01*
X29724Y231102D02*
X50787D01*
X390748Y258858D02*
X403543D01*
X453740Y88583D02*
X460197Y95039D01*
X473622D01*
X510630Y75039D02*
Y80039D01*
Y85039D01*
X479528Y59055D02*
Y65354D01*
X120728Y189311D02*
Y201575D01*
X73090Y190217D02*
Y201575D01*
X100787Y226378D02*
Y233858D01*
X295905Y189921D02*
X296850Y188976D01*
D24*
X456693Y240158D02*
X462598Y246063D01*
X456693Y221654D02*
Y240158D01*
Y221654D02*
X466535Y211811D01*
X207874Y176969D02*
X217520D01*
X207677Y198819D02*
X217323D01*
X297638Y228346D02*
X310039D01*
X241535Y203150D02*
Y206299D01*
Y203150D02*
X244764Y199921D01*
X251575D01*
X462598Y246063D02*
X467520D01*
X438976Y201772D02*
X463189D01*
X466535Y205118D01*
X420905Y211260D02*
X424213Y214567D01*
X415748Y211260D02*
X420905D01*
X415748Y221260D02*
X424213D01*
X425236Y201772D02*
X438976D01*
X415748Y211260D02*
X425236Y201772D01*
X383858Y250984D02*
Y258661D01*
X297520Y234921D02*
X297638Y235039D01*
X288583Y234921D02*
X297520D01*
X337008Y235039D02*
X350787Y221260D01*
X297638Y235039D02*
X337008D01*
X521220Y256457D02*
X531496D01*
X515827Y251063D02*
X521220Y256457D01*
X467520Y251063D02*
X515827D01*
X517618Y196850D02*
Y208169D01*
X531890Y222441D01*
X441122Y251063D02*
X467520D01*
D25*
X474409Y196850D02*
X490256D01*
X436024Y231299D02*
X437992Y229331D01*
Y222539D02*
Y229331D01*
Y222539D02*
X438976Y221555D01*
X390551Y250984D02*
X396024D01*
X415748Y231260D01*
X415787Y231299D01*
X436024D01*
X438976Y208465D02*
Y221555D01*
D26*
X159449Y177165D02*
Y198819D01*
X166339Y170276D02*
X201181D01*
X159449Y177165D02*
X166339Y170276D01*
Y205709D02*
X200787D01*
X159449Y198819D02*
X166339Y205709D01*
D27*
X365158Y350551D02*
D03*
X531890Y232441D02*
D03*
X531496Y256457D02*
D03*
X499449Y237795D02*
D03*
X485197Y22441D02*
D03*
X548425Y65905D02*
D03*
Y41890D02*
D03*
X548425Y89921D02*
D03*
Y113937D02*
D03*
Y137953D02*
D03*
D28*
X365158Y340551D02*
D03*
X531890Y222441D02*
D03*
X531496Y246457D02*
D03*
X548425Y55905D02*
D03*
Y31890D02*
D03*
X548425Y79921D02*
D03*
Y103937D02*
D03*
Y127953D02*
D03*
D29*
X92126Y11417D02*
D03*
Y16535D02*
D03*
Y21654D02*
D03*
Y26772D02*
D03*
D30*
X499882Y22835D02*
D03*
X505118D02*
D03*
X510354D02*
D03*
D31*
X553307Y171772D02*
D03*
X543307D02*
D03*
X553307Y181772D02*
D03*
X543307D02*
D03*
X553307Y191772D02*
D03*
X543307D02*
D03*
X553307Y201772D02*
D03*
X96693Y259449D02*
D03*
X86693D02*
D03*
X76693D02*
D03*
X66693D02*
D03*
X56693D02*
D03*
X149606Y50315D02*
D03*
Y60315D02*
D03*
Y70315D02*
D03*
Y80315D02*
D03*
Y90315D02*
D03*
Y100315D02*
D03*
X139606D02*
D03*
Y120315D02*
D03*
Y110315D02*
D03*
Y50315D02*
D03*
Y90315D02*
D03*
Y80315D02*
D03*
Y70315D02*
D03*
Y60315D02*
D03*
X149606Y110315D02*
D03*
Y120315D02*
D03*
D32*
X543307Y201772D02*
D03*
D33*
X294291Y286417D02*
D03*
X291010D02*
D03*
X287730D02*
D03*
X284449D02*
D03*
Y276575D02*
D03*
X287730D02*
D03*
X291010D02*
D03*
X294291D02*
D03*
X145669D02*
D03*
X142388D02*
D03*
X139108D02*
D03*
X135827D02*
D03*
Y286417D02*
D03*
X139108D02*
D03*
X142388D02*
D03*
X145669D02*
D03*
D34*
X360394Y169272D02*
D03*
X350394Y159272D02*
D03*
X340394Y169272D02*
D03*
D35*
X66929Y31496D02*
D03*
X12598Y262992D02*
D03*
X558268D02*
D03*
Y12598D02*
D03*
X139606Y143307D02*
D03*
X456535D02*
D03*
Y19291D02*
D03*
X139606D02*
D03*
D36*
X509449Y237795D02*
D03*
X475197Y22441D02*
D03*
D37*
X106693Y259449D02*
D03*
D38*
X467520Y251063D02*
D03*
D39*
Y246063D02*
D03*
Y241063D02*
D03*
D40*
X415748Y211260D02*
D03*
Y231260D02*
D03*
Y221260D02*
D03*
D41*
X448976Y171260D02*
D03*
X428976D02*
D03*
X438976D02*
D03*
X73228Y57087D02*
D03*
Y67087D02*
D03*
Y77165D02*
D03*
Y87165D02*
D03*
Y117165D02*
D03*
Y127165D02*
D03*
Y97165D02*
D03*
Y107165D02*
D03*
Y137165D02*
D03*
Y147165D02*
D03*
X83071D02*
D03*
Y137165D02*
D03*
Y107165D02*
D03*
Y97165D02*
D03*
Y127165D02*
D03*
Y117165D02*
D03*
Y87165D02*
D03*
Y77165D02*
D03*
Y67087D02*
D03*
Y57087D02*
D03*
X53543Y147165D02*
D03*
Y137165D02*
D03*
Y107165D02*
D03*
Y97165D02*
D03*
Y127165D02*
D03*
Y117165D02*
D03*
Y87165D02*
D03*
Y77165D02*
D03*
Y67087D02*
D03*
Y57087D02*
D03*
D42*
X206299Y190000D02*
D03*
Y185787D02*
D03*
D43*
X501968Y90039D02*
D03*
X531496Y125984D02*
D03*
Y102362D02*
D03*
Y78740D02*
D03*
X531496Y55118D02*
D03*
X531496Y29528D02*
D03*
X501968Y64961D02*
D03*
X474409Y196850D02*
D03*
X159449Y188976D02*
D03*
X192913Y206693D02*
D03*
X171260D02*
D03*
X173228Y171260D02*
D03*
X192913D02*
D03*
X307087Y198819D02*
D03*
X261811Y175197D02*
D03*
X478346Y37402D02*
D03*
X116142Y233661D02*
D03*
X72835Y212598D02*
D03*
X29724Y231102D02*
D03*
X403543Y258858D02*
D03*
X453740Y88583D02*
D03*
X25453Y189961D02*
D03*
X120728Y189311D02*
D03*
X73090Y190217D02*
D03*
X310039Y228346D02*
D03*
X241535Y206299D02*
D03*
X100787Y233858D02*
D03*
D44*
X98425Y187008D02*
D03*
X51181Y190945D02*
D03*
X139764Y212598D02*
D03*
X10453Y211988D02*
D03*
D45*
X456693Y240158D02*
D03*
X265197Y219921D02*
D03*
X259842Y251969D02*
D03*
Y214567D02*
D03*
X310039Y180118D02*
D03*
X237205Y170276D02*
D03*
X244094Y165354D02*
D03*
X226378Y161417D02*
D03*
X299921Y209921D02*
D03*
X241181Y194921D02*
D03*
X130728Y194075D02*
D03*
X35453Y193917D02*
D03*
X83091Y194311D02*
D03*
X305118Y185039D02*
D03*
X500000Y135827D02*
D03*
Y129921D02*
D03*
X344488Y125984D02*
D03*
Y118110D02*
D03*
X437008Y129921D02*
D03*
X121260Y10630D02*
D03*
Y16535D02*
D03*
X121653Y27165D02*
D03*
X494095Y153543D02*
D03*
X374016Y149606D02*
D03*
Y155512D02*
D03*
D46*
X379921Y220472D02*
D03*
M02*
