%FSLAX25Y25*%
%MOIN*%
G70*
G01*
G75*
G04 Layer_Color=12632256*
%ADD10R,0.03937X0.04331*%
%ADD11R,0.04331X0.03937*%
%ADD12R,0.11811X0.09055*%
%ADD13R,0.07874X0.02756*%
%ADD14R,0.09449X0.12992*%
%ADD15R,0.24016X0.40000*%
%ADD16R,0.12992X0.09449*%
%ADD17R,0.07874X0.02362*%
%ADD18R,0.02362X0.06102*%
%ADD19C,0.01000*%
%ADD20C,0.02756*%
%ADD21C,0.03937*%
%ADD22C,0.05906*%
%ADD23C,0.01969*%
%ADD24C,0.07874*%
%ADD25C,0.01575*%
%ADD26C,0.27559*%
%ADD27C,0.07087*%
%ADD28C,0.09843*%
%ADD29C,0.05906*%
%ADD30C,0.08661*%
%ADD31O,0.07874X0.03937*%
%ADD32O,0.07874X0.03937*%
%ADD33R,0.06299X0.06299*%
%ADD34C,0.06299*%
%ADD35R,0.06299X0.06299*%
%ADD36R,0.05906X0.05906*%
%ADD37C,0.04724*%
%ADD38C,0.01969*%
%ADD39R,0.05906X0.05906*%
%ADD40O,0.03937X0.07874*%
%ADD41O,0.07874X0.04331*%
%ADD42C,0.03937*%
%ADD43C,0.02756*%
%ADD44C,0.05000*%
%ADD45C,0.03543*%
%ADD46C,0.06693*%
%ADD47C,0.00394*%
%ADD48C,0.00787*%
%ADD49C,0.00591*%
%ADD50C,0.00800*%
%ADD51R,0.04737X0.05131*%
%ADD52R,0.05131X0.04737*%
%ADD53R,0.12611X0.09855*%
%ADD54R,0.08674X0.03556*%
%ADD55R,0.10249X0.13792*%
%ADD56R,0.24816X0.40800*%
%ADD57R,0.13792X0.10249*%
%ADD58R,0.08674X0.03162*%
%ADD59R,0.03162X0.06902*%
%ADD60C,0.07887*%
%ADD61C,0.10642*%
%ADD62C,0.06706*%
%ADD63C,0.09461*%
%ADD64O,0.08674X0.04737*%
%ADD65O,0.08674X0.04737*%
%ADD66R,0.07099X0.07099*%
%ADD67C,0.07099*%
%ADD68R,0.07099X0.07099*%
%ADD69R,0.06706X0.06706*%
%ADD70C,0.05524*%
%ADD71C,0.02769*%
%ADD72R,0.06706X0.06706*%
%ADD73O,0.04737X0.08674*%
%ADD74O,0.08674X0.05131*%
%ADD75C,0.04737*%
%ADD76C,0.03556*%
%ADD77C,0.05800*%
%ADD78C,0.04343*%
%ADD79C,0.07493*%
D19*
X282044Y277593D02*
G03*
X282549Y285299I-514J3903D01*
G01*
X296764Y285399D02*
G03*
X296259Y277693I514J-3903D01*
G01*
X148108Y285399D02*
G03*
X147603Y277693I514J-3903D01*
G01*
X133388Y277593D02*
G03*
X133893Y285299I-514J3903D01*
G01*
X148108Y277593D02*
X282010D01*
X148108Y285399D02*
X282456D01*
X-0Y277559D02*
X34Y277593D01*
X133388D01*
X34449Y285433D02*
X133800D01*
X14764Y305118D02*
X34449Y285433D01*
X14764Y305118D02*
X34449Y324803D01*
X314961D01*
Y364173D01*
X34449D02*
X314961D01*
X14764Y383858D02*
X34449Y364173D01*
X14764Y383858D02*
X36417Y405512D01*
X393701D01*
Y285433D02*
Y405512D01*
X393667Y285399D02*
X393701Y285433D01*
X296730Y285399D02*
X393667D01*
X296730Y277593D02*
X393667D01*
X393701Y277559D01*
Y275590D02*
Y277559D01*
Y275590D02*
X570866D01*
X570866Y275590D01*
Y0D02*
Y275590D01*
X78740Y0D02*
X570866D01*
X-0Y78740D02*
X78740Y0D01*
X-0Y78740D02*
Y277559D01*
D27*
X53543Y57087D02*
D03*
Y67087D02*
D03*
Y77165D02*
D03*
Y87165D02*
D03*
Y117165D02*
D03*
Y127165D02*
D03*
Y97165D02*
D03*
Y107165D02*
D03*
Y137165D02*
D03*
Y147165D02*
D03*
X83071Y57087D02*
D03*
Y67087D02*
D03*
Y77165D02*
D03*
Y87165D02*
D03*
Y117165D02*
D03*
Y127165D02*
D03*
Y97165D02*
D03*
Y107165D02*
D03*
Y137165D02*
D03*
Y147165D02*
D03*
X73228D02*
D03*
Y137165D02*
D03*
Y107165D02*
D03*
Y97165D02*
D03*
Y127165D02*
D03*
Y117165D02*
D03*
Y87165D02*
D03*
Y77165D02*
D03*
Y67087D02*
D03*
Y57087D02*
D03*
X438976Y171260D02*
D03*
X428976D02*
D03*
X448976D02*
D03*
D28*
X139606Y19291D02*
D03*
X456535D02*
D03*
Y143307D02*
D03*
X139606D02*
D03*
X558268Y12598D02*
D03*
Y262992D02*
D03*
X12598D02*
D03*
X66929Y31496D02*
D03*
D29*
X149606Y120315D02*
D03*
Y110315D02*
D03*
X139606Y60315D02*
D03*
Y70315D02*
D03*
Y80315D02*
D03*
Y90315D02*
D03*
Y50315D02*
D03*
Y110315D02*
D03*
Y120315D02*
D03*
Y100315D02*
D03*
X149606D02*
D03*
Y90315D02*
D03*
Y80315D02*
D03*
Y70315D02*
D03*
Y60315D02*
D03*
Y50315D02*
D03*
X56693Y259449D02*
D03*
X66693D02*
D03*
X76693D02*
D03*
X86693D02*
D03*
X96693D02*
D03*
X553307Y201772D02*
D03*
X543307Y191772D02*
D03*
X553307D02*
D03*
X543307Y181772D02*
D03*
X553307D02*
D03*
X543307Y171772D02*
D03*
X553307D02*
D03*
D30*
X415748Y221260D02*
D03*
Y231260D02*
D03*
Y211260D02*
D03*
D31*
X467520Y241063D02*
D03*
Y246063D02*
D03*
D32*
Y251063D02*
D03*
D33*
X548425Y127953D02*
D03*
Y103937D02*
D03*
Y79921D02*
D03*
X548425Y31890D02*
D03*
Y55905D02*
D03*
X531496Y246457D02*
D03*
X531890Y222441D02*
D03*
X365158Y340551D02*
D03*
D34*
X548425Y137953D02*
D03*
Y113937D02*
D03*
Y89921D02*
D03*
X548425Y41890D02*
D03*
Y65905D02*
D03*
X485197Y22441D02*
D03*
X499449Y237795D02*
D03*
X531496Y256457D02*
D03*
X531890Y232441D02*
D03*
X365158Y350551D02*
D03*
D35*
X475197Y22441D02*
D03*
X509449Y237795D02*
D03*
D36*
X106693Y259449D02*
D03*
D37*
X340394Y169272D02*
D03*
X350394Y159272D02*
D03*
X360394Y169272D02*
D03*
D38*
X145669Y286417D02*
D03*
X142388D02*
D03*
X139108D02*
D03*
X135827D02*
D03*
Y276575D02*
D03*
X139108D02*
D03*
X142388D02*
D03*
X145669D02*
D03*
X294291D02*
D03*
X291010D02*
D03*
X287730D02*
D03*
X284449D02*
D03*
Y286417D02*
D03*
X287730D02*
D03*
X291010D02*
D03*
X294291D02*
D03*
D39*
X543307Y201772D02*
D03*
D40*
X510354Y22835D02*
D03*
X505118D02*
D03*
X499882D02*
D03*
D41*
X92126Y26772D02*
D03*
Y21654D02*
D03*
Y16535D02*
D03*
Y11417D02*
D03*
D42*
X206299Y191929D02*
D03*
Y184055D02*
D03*
M02*
